# Blender 4.3.2
# www.blender.org
o WheelRear
v 0.000000 0.348000 0.000000
v 0.038891 0.333941 0.000000
v 0.055000 0.300000 0.000000
v 0.038891 0.266059 0.000000
v 0.000000 0.252000 0.000000
v -0.038891 0.266059 0.000000
v -0.055000 0.300000 0.000000
v -0.038891 0.333941 0.000000
v 0.000000 0.321510 -0.133174
v 0.038891 0.308521 -0.127794
v 0.055000 0.277164 -0.114805
v 0.038891 0.245806 -0.101816
v 0.000000 0.232818 -0.096436
v -0.038891 0.245806 -0.101816
v -0.055000 0.277164 -0.114805
v -0.038891 0.308521 -0.127794
v 0.000000 0.246073 -0.246073
v 0.038891 0.236132 -0.236132
v 0.055000 0.212132 -0.212132
v 0.038891 0.188132 -0.188132
v 0.000000 0.178191 -0.178191
v -0.038891 0.188132 -0.188132
v -0.055000 0.212132 -0.212132
v -0.038891 0.236132 -0.236132
v 0.000000 0.133174 -0.321510
v 0.038891 0.127794 -0.308521
v 0.055000 0.114805 -0.277164
v 0.038891 0.101816 -0.245806
v 0.000000 0.096436 -0.232818
v -0.038891 0.101816 -0.245806
v -0.055000 0.114805 -0.277164
v -0.038891 0.127794 -0.308521
v 0.000000 0.000000 -0.348000
v 0.038891 0.000000 -0.333941
v 0.055000 0.000000 -0.300000
v 0.038891 0.000000 -0.266059
v 0.000000 0.000000 -0.252000
v -0.038891 0.000000 -0.266059
v -0.055000 0.000000 -0.300000
v -0.038891 0.000000 -0.333941
v 0.000000 -0.133174 -0.321510
v 0.038891 -0.127794 -0.308521
v 0.055000 -0.114805 -0.277164
v 0.038891 -0.101816 -0.245806
v 0.000000 -0.096436 -0.232818
v -0.038891 -0.101816 -0.245806
v -0.055000 -0.114805 -0.277164
v -0.038891 -0.127794 -0.308521
v 0.000000 -0.246073 -0.246073
v 0.038891 -0.236132 -0.236132
v 0.055000 -0.212132 -0.212132
v 0.038891 -0.188132 -0.188132
v 0.000000 -0.178191 -0.178191
v -0.038891 -0.188132 -0.188132
v -0.055000 -0.212132 -0.212132
v -0.038891 -0.236132 -0.236132
v 0.000000 -0.321510 -0.133174
v 0.038891 -0.308521 -0.127794
v 0.055000 -0.277164 -0.114805
v 0.038891 -0.245806 -0.101816
v 0.000000 -0.232818 -0.096436
v -0.038891 -0.245806 -0.101816
v -0.055000 -0.277164 -0.114805
v -0.038891 -0.308521 -0.127794
v 0.000000 -0.348000 -0.000000
v 0.038891 -0.333941 -0.000000
v 0.055000 -0.300000 -0.000000
v 0.038891 -0.266059 -0.000000
v 0.000000 -0.252000 -0.000000
v -0.038891 -0.266059 -0.000000
v -0.055000 -0.300000 -0.000000
v -0.038891 -0.333941 -0.000000
v 0.000000 -0.321510 0.133174
v 0.038891 -0.308521 0.127794
v 0.055000 -0.277164 0.114805
v 0.038891 -0.245806 0.101816
v 0.000000 -0.232818 0.096436
v -0.038891 -0.245806 0.101816
v -0.055000 -0.277164 0.114805
v -0.038891 -0.308521 0.127794
v 0.000000 -0.246073 0.246073
v 0.038891 -0.236132 0.236132
v 0.055000 -0.212132 0.212132
v 0.038891 -0.188132 0.188132
v 0.000000 -0.178191 0.178191
v -0.038891 -0.188132 0.188132
v -0.055000 -0.212132 0.212132
v -0.038891 -0.236132 0.236132
v 0.000000 -0.133174 0.321510
v 0.038891 -0.127794 0.308521
v 0.055000 -0.114805 0.277164
v 0.038891 -0.101816 0.245806
v 0.000000 -0.096436 0.232818
v -0.038891 -0.101816 0.245806
v -0.055000 -0.114805 0.277164
v -0.038891 -0.127794 0.308521
v 0.000000 -0.000000 0.348000
v 0.038891 -0.000000 0.333941
v 0.055000 -0.000000 0.300000
v 0.038891 -0.000000 0.266059
v 0.000000 -0.000000 0.252000
v -0.038891 -0.000000 0.266059
v -0.055000 -0.000000 0.300000
v -0.038891 -0.000000 0.333941
v 0.000000 0.133174 0.321510
v 0.038891 0.127794 0.308521
v 0.055000 0.114805 0.277164
v 0.038891 0.101816 0.245806
v 0.000000 0.096436 0.232818
v -0.038891 0.101816 0.245806
v -0.055000 0.114805 0.277164
v -0.038891 0.127794 0.308521
v 0.000000 0.246073 0.246073
v 0.038891 0.236132 0.236132
v 0.055000 0.212132 0.212132
v 0.038891 0.188132 0.188132
v 0.000000 0.178191 0.178191
v -0.038891 0.188132 0.188132
v -0.055000 0.212132 0.212132
v -0.038891 0.236132 0.236132
v 0.000000 0.321510 0.133174
v 0.038891 0.308521 0.127794
v 0.055000 0.277164 0.114805
v 0.038891 0.245806 0.101816
v 0.000000 0.232818 0.096436
v -0.038891 0.245806 0.101816
v -0.055000 0.277164 0.114805
v -0.038891 0.308521 0.127794
v -0.049000 0.342000 0.012000
v -0.049000 0.370000 0.012000
v -0.049000 0.342000 -0.012000
v -0.049000 0.370000 -0.012000
v -0.019000 0.342000 0.012000
v -0.019000 0.370000 0.012000
v -0.019000 0.342000 -0.012000
v -0.019000 0.370000 -0.012000
v -0.015000 0.321553 -0.102924
v -0.015000 0.348183 -0.094271
v -0.015000 0.328970 -0.125749
v -0.015000 0.355599 -0.117096
v 0.015000 0.321553 -0.102924
v 0.015000 0.348183 -0.094271
v 0.015000 0.328970 -0.125749
v 0.015000 0.355599 -0.117096
v 0.019000 0.269630 -0.207772
v 0.019000 0.292283 -0.191314
v 0.019000 0.283737 -0.227189
v 0.019000 0.306390 -0.210731
v 0.049000 0.269630 -0.207772
v 0.049000 0.292283 -0.191314
v 0.049000 0.283737 -0.227189
v 0.049000 0.306390 -0.210731
v -0.049000 0.191314 -0.292283
v -0.049000 0.207772 -0.269630
v -0.049000 0.210731 -0.306390
v -0.049000 0.227189 -0.283737
v -0.019000 0.191314 -0.292283
v -0.019000 0.207772 -0.269630
v -0.019000 0.210731 -0.306390
v -0.019000 0.227189 -0.283737
v -0.015000 0.094271 -0.348183
v -0.015000 0.102924 -0.321553
v -0.015000 0.117096 -0.355599
v -0.015000 0.125749 -0.328970
v 0.015000 0.094271 -0.348183
v 0.015000 0.102924 -0.321553
v 0.015000 0.117096 -0.355599
v 0.015000 0.125749 -0.328970
v 0.019000 -0.012000 -0.370000
v 0.019000 -0.012000 -0.342000
v 0.019000 0.012000 -0.370000
v 0.019000 0.012000 -0.342000
v 0.049000 -0.012000 -0.370000
v 0.049000 -0.012000 -0.342000
v 0.049000 0.012000 -0.370000
v 0.049000 0.012000 -0.342000
v -0.049000 -0.117096 -0.355599
v -0.049000 -0.125749 -0.328970
v -0.049000 -0.094271 -0.348183
v -0.049000 -0.102924 -0.321553
v -0.019000 -0.117096 -0.355599
v -0.019000 -0.125749 -0.328970
v -0.019000 -0.094271 -0.348183
v -0.019000 -0.102924 -0.321553
v -0.015000 -0.210731 -0.306390
v -0.015000 -0.227189 -0.283737
v -0.015000 -0.191314 -0.292283
v -0.015000 -0.207772 -0.269630
v 0.015000 -0.210731 -0.306390
v 0.015000 -0.227189 -0.283737
v 0.015000 -0.191314 -0.292283
v 0.015000 -0.207772 -0.269630
v 0.019000 -0.283737 -0.227189
v 0.019000 -0.306390 -0.210731
v 0.019000 -0.269630 -0.207772
v 0.019000 -0.292283 -0.191314
v 0.049000 -0.283737 -0.227189
v 0.049000 -0.306390 -0.210731
v 0.049000 -0.269630 -0.207772
v 0.049000 -0.292283 -0.191314
v -0.049000 -0.328970 -0.125749
v -0.049000 -0.355599 -0.117096
v -0.049000 -0.321553 -0.102924
v -0.049000 -0.348183 -0.094271
v -0.019000 -0.328970 -0.125749
v -0.019000 -0.355599 -0.117096
v -0.019000 -0.321553 -0.102924
v -0.019000 -0.348183 -0.094271
v -0.015000 -0.342000 -0.012000
v -0.015000 -0.370000 -0.012000
v -0.015000 -0.342000 0.012000
v -0.015000 -0.370000 0.012000
v 0.015000 -0.342000 -0.012000
v 0.015000 -0.370000 -0.012000
v 0.015000 -0.342000 0.012000
v 0.015000 -0.370000 0.012000
v 0.019000 -0.321553 0.102924
v 0.019000 -0.348183 0.094271
v 0.019000 -0.328970 0.125749
v 0.019000 -0.355599 0.117096
v 0.049000 -0.321553 0.102924
v 0.049000 -0.348183 0.094271
v 0.049000 -0.328970 0.125749
v 0.049000 -0.355599 0.117096
v -0.049000 -0.269630 0.207772
v -0.049000 -0.292283 0.191314
v -0.049000 -0.283737 0.227189
v -0.049000 -0.306390 0.210731
v -0.019000 -0.269630 0.207772
v -0.019000 -0.292283 0.191314
v -0.019000 -0.283737 0.227189
v -0.019000 -0.306390 0.210731
v -0.015000 -0.191314 0.292283
v -0.015000 -0.207772 0.269630
v -0.015000 -0.210731 0.306390
v -0.015000 -0.227189 0.283737
v 0.015000 -0.191314 0.292283
v 0.015000 -0.207772 0.269630
v 0.015000 -0.210731 0.306390
v 0.015000 -0.227189 0.283737
v 0.019000 -0.094271 0.348183
v 0.019000 -0.102924 0.321553
v 0.019000 -0.117096 0.355599
v 0.019000 -0.125749 0.328970
v 0.049000 -0.094271 0.348183
v 0.049000 -0.102924 0.321553
v 0.049000 -0.117096 0.355599
v 0.049000 -0.125749 0.328970
v -0.049000 0.012000 0.370000
v -0.049000 0.012000 0.342000
v -0.049000 -0.012000 0.370000
v -0.049000 -0.012000 0.342000
v -0.019000 0.012000 0.370000
v -0.019000 0.012000 0.342000
v -0.019000 -0.012000 0.370000
v -0.019000 -0.012000 0.342000
v -0.015000 0.117096 0.355599
v -0.015000 0.125749 0.328970
v -0.015000 0.094271 0.348183
v -0.015000 0.102924 0.321553
v 0.015000 0.117096 0.355599
v 0.015000 0.125749 0.328970
v 0.015000 0.094271 0.348183
v 0.015000 0.102924 0.321553
v 0.019000 0.210731 0.306390
v 0.019000 0.227189 0.283737
v 0.019000 0.191314 0.292283
v 0.019000 0.207772 0.269630
v 0.049000 0.210731 0.306390
v 0.049000 0.227189 0.283737
v 0.049000 0.191314 0.292283
v 0.049000 0.207772 0.269630
v -0.049000 0.283737 0.227189
v -0.049000 0.306390 0.210731
v -0.049000 0.269630 0.207772
v -0.049000 0.292283 0.191314
v -0.019000 0.283737 0.227189
v -0.019000 0.306390 0.210731
v -0.019000 0.269630 0.207772
v -0.019000 0.292283 0.191314
v -0.015000 0.328970 0.125749
v -0.015000 0.355599 0.117096
v -0.015000 0.321553 0.102924
v -0.015000 0.348183 0.094271
v 0.015000 0.328970 0.125749
v 0.015000 0.355599 0.117096
v 0.015000 0.321553 0.102924
v 0.015000 0.348183 0.094271
v -0.035000 -0.000000 -0.250000
v 0.035000 0.000000 -0.250000
v -0.035000 -0.095671 -0.230970
v 0.035000 -0.095671 -0.230970
v -0.035000 -0.176777 -0.176777
v 0.035000 -0.176777 -0.176777
v -0.035000 -0.230970 -0.095671
v 0.035000 -0.230970 -0.095671
v -0.035000 -0.250000 0.000000
v 0.035000 -0.250000 0.000000
v -0.035000 -0.230970 0.095671
v 0.035000 -0.230970 0.095671
v -0.035000 -0.176777 0.176777
v 0.035000 -0.176777 0.176777
v -0.035000 -0.095671 0.230970
v 0.035000 -0.095671 0.230970
v -0.035000 -0.000000 0.250000
v 0.035000 0.000000 0.250000
v -0.035000 0.095671 0.230970
v 0.035000 0.095671 0.230970
v -0.035000 0.176777 0.176777
v 0.035000 0.176777 0.176777
v -0.035000 0.230970 0.095671
v 0.035000 0.230970 0.095671
v -0.035000 0.250000 0.000000
v 0.035000 0.250000 0.000000
v -0.035000 0.230970 -0.095671
v 0.035000 0.230970 -0.095671
v -0.035000 0.176777 -0.176777
v 0.035000 0.176777 -0.176777
v -0.035000 0.095671 -0.230970
v 0.035000 0.095671 -0.230970
v 0.028000 0.073000 -0.055000
v 0.028000 0.023000 -0.055000
v -0.045000 -0.000000 -0.065000
v 0.045000 0.000000 -0.065000
v -0.045000 -0.032500 -0.056292
v 0.045000 -0.032500 -0.056292
v -0.045000 -0.056292 -0.032500
v 0.045000 -0.056292 -0.032500
v -0.045000 -0.065000 0.000000
v 0.045000 -0.065000 0.000000
v -0.045000 -0.056292 0.032500
v 0.045000 -0.056292 0.032500
v -0.045000 -0.032500 0.056292
v 0.045000 -0.032500 0.056292
v -0.045000 -0.000000 0.065000
v 0.045000 0.000000 0.065000
v -0.045000 0.032500 0.056292
v 0.045000 0.032500 0.056292
v -0.045000 0.056292 0.032500
v 0.045000 0.056292 0.032500
v -0.045000 0.065000 0.000000
v 0.045000 0.065000 0.000000
v -0.045000 0.056292 -0.032500
v 0.045000 0.056292 -0.032500
v -0.045000 0.032500 -0.056292
v 0.045000 0.032500 -0.056292
v -0.035065 0.063810 -0.003291
v -0.015065 0.240407 -0.067561
v -0.031520 0.064630 0.000065
v -0.011520 0.241227 -0.064205
v -0.034935 0.066190 0.003291
v -0.014935 0.242788 -0.060979
v -0.038480 0.065370 -0.000065
v -0.018480 0.241968 -0.064335
v 0.035065 0.063810 -0.003291
v 0.015065 0.240407 -0.067561
v 0.038480 0.065370 -0.000065
v 0.018480 0.241968 -0.064335
v 0.034935 0.066190 0.003291
v 0.014935 0.242788 -0.060979
v 0.031520 0.064630 0.000065
v 0.011520 0.241227 -0.064205
v -0.035172 0.053626 -0.034761
v -0.015172 0.174428 -0.178719
v -0.031524 0.055921 -0.032328
v -0.011524 0.176724 -0.176286
v -0.034828 0.058958 -0.030239
v -0.014828 0.179761 -0.174197
v -0.038476 0.056662 -0.032672
v -0.018476 0.177465 -0.176630
v 0.035172 0.053626 -0.034761
v 0.015172 0.174428 -0.178719
v 0.038476 0.056662 -0.032672
v 0.018476 0.177465 -0.176630
v 0.034828 0.058958 -0.030239
v 0.014828 0.179761 -0.174197
v 0.031524 0.055921 -0.032328
v 0.011524 0.176724 -0.176286
v -0.035309 0.029073 -0.056930
v -0.015309 0.061712 -0.242003
v -0.031533 0.032130 -0.055982
v -0.011533 0.064769 -0.241055
v -0.034691 0.035927 -0.055654
v -0.014691 0.068567 -0.240727
v -0.038467 0.032870 -0.056601
v -0.018467 0.065510 -0.241674
v 0.035309 0.029073 -0.056930
v 0.015309 0.061712 -0.242003
v 0.038467 0.032870 -0.056601
v 0.018467 0.065510 -0.241674
v 0.034691 0.035927 -0.055654
v 0.014691 0.068567 -0.240727
v 0.031533 0.032130 -0.055982
v 0.011533 0.064769 -0.241055
v -0.035524 -0.003270 -0.063869
v -0.015524 -0.067541 -0.240467
v -0.031559 -0.000370 -0.064476
v -0.011559 -0.064641 -0.241073
v -0.034476 0.003270 -0.066131
v -0.014476 -0.061000 -0.242728
v -0.038441 0.000370 -0.065524
v -0.018441 -0.063900 -0.242122
v 0.035524 -0.003270 -0.063869
v 0.015524 -0.067541 -0.240467
v 0.038441 0.000370 -0.065524
v 0.018441 -0.063900 -0.242122
v 0.034476 0.003270 -0.066131
v 0.014476 -0.061000 -0.242728
v 0.031559 -0.000370 -0.064476
v 0.011559 -0.064641 -0.241073
v -0.035994 -0.034737 -0.053790
v -0.015994 -0.178695 -0.174593
v -0.031665 -0.032870 -0.055298
v -0.011665 -0.176829 -0.176101
v -0.034006 -0.030263 -0.058793
v -0.014006 -0.174221 -0.179596
v -0.038335 -0.032130 -0.057285
v -0.018335 -0.176088 -0.178088
v 0.035994 -0.034737 -0.053790
v 0.015994 -0.178695 -0.174593
v 0.038335 -0.032130 -0.057285
v 0.018335 -0.176088 -0.178088
v 0.034006 -0.030263 -0.058793
v 0.014006 -0.174221 -0.179596
v 0.031665 -0.032870 -0.055298
v 0.011665 -0.176829 -0.176101
v -0.038086 -0.056896 -0.030964
v -0.018086 -0.241969 -0.063603
v -0.033391 -0.056662 -0.029414
v -0.013391 -0.241735 -0.062053
v -0.031914 -0.055687 -0.034036
v -0.011914 -0.240760 -0.066676
v -0.036609 -0.055921 -0.035586
v -0.016609 -0.240994 -0.068225
v 0.038086 -0.056896 -0.030964
v 0.018086 -0.241969 -0.063603
v 0.036609 -0.055921 -0.035586
v 0.016609 -0.240994 -0.068225
v 0.031914 -0.055687 -0.034036
v 0.011914 -0.240760 -0.066676
v 0.033391 -0.056662 -0.029414
v 0.013391 -0.241735 -0.062053
v -0.033079 -0.063810 0.002673
v -0.013079 -0.240407 0.066943
v -0.032098 -0.065370 -0.001921
v -0.012098 -0.241968 0.062349
v -0.036921 -0.066190 -0.002673
v -0.016921 -0.242788 0.061597
v -0.037902 -0.064630 0.001921
v -0.017902 -0.241227 0.066191
v 0.033079 -0.063810 0.002673
v 0.013079 -0.240407 0.066943
v 0.037902 -0.064630 0.001921
v 0.017902 -0.241227 0.066191
v 0.036921 -0.066190 -0.002673
v 0.016921 -0.242788 0.061597
v 0.032098 -0.065370 -0.001921
v 0.012098 -0.241968 0.062349
v -0.034218 -0.053626 0.034629
v -0.014218 -0.174428 0.178587
v -0.031609 -0.056662 0.031718
v -0.011609 -0.177465 0.175676
v -0.035782 -0.058958 0.030371
v -0.015782 -0.179761 0.174330
v -0.038391 -0.055921 0.033282
v -0.018391 -0.176724 0.177240
v 0.034218 -0.053626 0.034629
v 0.014218 -0.174428 0.178587
v 0.038391 -0.055921 0.033282
v 0.018391 -0.176724 0.177240
v 0.035782 -0.058958 0.030371
v 0.015782 -0.179761 0.174330
v 0.031609 -0.056662 0.031718
v 0.011609 -0.177465 0.175676
v -0.034562 -0.029073 0.056849
v -0.014562 -0.061712 0.241922
v -0.031547 -0.032870 0.055853
v -0.011547 -0.065510 0.240926
v -0.035438 -0.035927 0.055735
v -0.015438 -0.068567 0.240808
v -0.038453 -0.032130 0.056730
v -0.018453 -0.064769 0.241803
v 0.034562 -0.029073 0.056849
v 0.014562 -0.061712 0.241922
v 0.038453 -0.032130 0.056730
v 0.018453 -0.064769 0.241803
v 0.035438 -0.035927 0.055735
v 0.015438 -0.068567 0.240808
v 0.031547 -0.032870 0.055853
v 0.011547 -0.065510 0.240926
v -0.034742 0.003270 0.063781
v -0.014742 0.067541 0.240378
v -0.031529 -0.000370 0.064742
v -0.011529 0.063900 0.241339
v -0.035258 -0.003270 0.066220
v -0.015258 0.061000 0.242817
v -0.038471 0.000370 0.065258
v -0.018471 0.064641 0.241856
v 0.034742 0.003270 0.063781
v 0.014742 0.067541 0.240378
v 0.038471 0.000370 0.065258
v 0.018471 0.064641 0.241856
v 0.035258 -0.003270 0.066220
v 0.015258 0.061000 0.242817
v 0.031529 -0.000370 0.064742
v 0.011529 0.063900 0.241339
v -0.034866 0.034737 0.053603
v -0.014866 0.178695 0.174406
v -0.031522 0.032130 0.056157
v -0.011522 0.176088 0.176960
v -0.035134 0.030263 0.058980
v -0.015134 0.174221 0.179783
v -0.038478 0.032870 0.056426
v -0.018478 0.176829 0.177229
v 0.034866 0.034737 0.053603
v 0.014866 0.178695 0.174406
v 0.038478 0.032870 0.056426
v 0.018478 0.176829 0.177229
v 0.035134 0.030263 0.058980
v 0.015134 0.174221 0.179783
v 0.031522 0.032130 0.056157
v 0.011522 0.176088 0.176960
v -0.034968 0.056896 0.029053
v -0.014968 0.241969 0.061692
v -0.031520 0.055921 0.032468
v -0.011520 0.240994 0.065107
v -0.035032 0.055687 0.035947
v -0.015032 0.240760 0.068586
v -0.038480 0.056662 0.032532
v -0.018480 0.241735 0.065171
v 0.034968 0.056896 0.029053
v 0.014968 0.241969 0.061692
v 0.038480 0.056662 0.032532
v 0.018480 0.241735 0.065171
v 0.035032 0.055687 0.035947
v 0.015032 0.240760 0.068586
v 0.031520 0.055921 0.032468
v 0.011520 0.240994 0.065107
v 0.045000 -0.000000 -0.120000
v 0.051000 0.000000 -0.120000
v 0.045000 -0.045922 -0.110866
v 0.051000 -0.045922 -0.110866
v 0.045000 -0.084853 -0.084853
v 0.051000 -0.084853 -0.084853
v 0.045000 -0.110866 -0.045922
v 0.051000 -0.110866 -0.045922
v 0.045000 -0.120000 0.000000
v 0.051000 -0.120000 0.000000
v 0.045000 -0.110866 0.045922
v 0.051000 -0.110866 0.045922
v 0.045000 -0.084853 0.084853
v 0.051000 -0.084853 0.084853
v 0.045000 -0.045922 0.110866
v 0.051000 -0.045922 0.110866
v 0.045000 -0.000000 0.120000
v 0.051000 0.000000 0.120000
v 0.045000 0.045922 0.110866
v 0.051000 0.045922 0.110866
v 0.045000 0.084853 0.084853
v 0.051000 0.084853 0.084853
v 0.045000 0.110866 0.045922
v 0.051000 0.110866 0.045922
v 0.045000 0.120000 0.000000
v 0.051000 0.120000 0.000000
v 0.045000 0.110866 -0.045922
v 0.051000 0.110866 -0.045922
v 0.045000 0.084853 -0.084853
v 0.051000 0.084853 -0.084853
v 0.045000 0.045922 -0.110866
v 0.051000 0.045922 -0.110866
v 0.028000 0.023000 -0.125000
v 0.028000 0.073000 -0.125000
v 0.068000 0.023000 -0.055000
v 0.068000 0.073000 -0.055000
v 0.068000 0.023000 -0.125000
v 0.068000 0.073000 -0.125000
vn 0.3342 0.9244 -0.1839
vn 0.9001 0.4272 -0.0850
vn 0.9001 -0.4272 0.0850
vn 0.3342 -0.9244 0.1839
vn -0.3342 -0.9244 0.1839
vn -0.9001 -0.4272 0.0850
vn -0.9001 0.4272 -0.0850
vn -0.3342 0.9244 -0.1839
vn 0.3342 0.7837 -0.5236
vn 0.9001 0.3622 -0.2420
vn 0.9001 -0.3622 0.2420
vn 0.3342 -0.7837 0.5236
vn -0.3342 -0.7837 0.5236
vn -0.9001 -0.3622 0.2420
vn -0.9001 0.3622 -0.2420
vn -0.3342 0.7837 -0.5236
vn 0.3342 0.5236 -0.7837
vn 0.9001 0.2420 -0.3622
vn 0.9001 -0.2420 0.3622
vn 0.3342 -0.5236 0.7837
vn -0.3342 -0.5236 0.7837
vn -0.9001 -0.2420 0.3622
vn -0.9001 0.2420 -0.3622
vn -0.3342 0.5236 -0.7837
vn 0.3342 0.1839 -0.9244
vn 0.9001 0.0850 -0.4272
vn 0.9001 -0.0850 0.4272
vn 0.3342 -0.1839 0.9244
vn -0.3342 -0.1839 0.9244
vn -0.9001 -0.0850 0.4272
vn -0.9001 0.0850 -0.4272
vn -0.3342 0.1839 -0.9244
vn 0.3342 -0.1839 -0.9244
vn 0.9001 -0.0850 -0.4272
vn 0.9001 0.0850 0.4272
vn 0.3342 0.1839 0.9244
vn -0.3342 0.1839 0.9244
vn -0.9001 0.0850 0.4272
vn -0.9001 -0.0850 -0.4272
vn -0.3342 -0.1839 -0.9244
vn 0.3342 -0.5236 -0.7837
vn 0.9001 -0.2420 -0.3622
vn 0.9001 0.2420 0.3622
vn 0.3342 0.5236 0.7837
vn -0.3342 0.5236 0.7837
vn -0.9001 0.2420 0.3622
vn -0.9001 -0.2420 -0.3622
vn -0.3342 -0.5236 -0.7837
vn 0.3342 -0.7837 -0.5236
vn 0.9001 -0.3622 -0.2420
vn 0.9001 0.3622 0.2420
vn 0.3342 0.7837 0.5236
vn -0.3342 0.7837 0.5236
vn -0.9001 0.3622 0.2420
vn -0.9001 -0.3622 -0.2420
vn -0.3342 -0.7837 -0.5236
vn 0.3342 -0.9244 -0.1839
vn 0.9001 -0.4272 -0.0850
vn 0.9001 0.4272 0.0850
vn 0.3342 0.9244 0.1839
vn -0.3342 0.9244 0.1839
vn -0.9001 0.4272 0.0850
vn -0.9001 -0.4272 -0.0850
vn -0.3342 -0.9244 -0.1839
vn -1.0000 -0.0000 -0.0000
vn -0.0000 -0.0000 -1.0000
vn 1.0000 -0.0000 -0.0000
vn -0.0000 -0.0000 1.0000
vn -0.0000 -1.0000 -0.0000
vn -0.0000 1.0000 -0.0000
vn -0.0000 0.3090 -0.9511
vn -0.0000 -0.3090 0.9511
vn -0.0000 -0.9511 -0.3090
vn -0.0000 0.9511 0.3090
vn -0.0000 0.5878 -0.8090
vn -0.0000 -0.5878 0.8090
vn -0.0000 -0.8090 -0.5878
vn -0.0000 0.8090 0.5878
vn -0.0000 0.8090 -0.5878
vn -0.0000 -0.8090 0.5878
vn -0.0000 -0.5878 -0.8090
vn -0.0000 0.5878 0.8090
vn -0.0000 0.9511 -0.3090
vn -0.0000 -0.9511 0.3090
vn -0.0000 -0.3090 -0.9511
vn -0.0000 0.3090 0.9511
vn -0.0000 -0.1951 -0.9808
vn -0.0000 -0.5556 -0.8315
vn -0.0000 -0.8315 -0.5556
vn -0.0000 -0.9808 -0.1951
vn -0.0000 -0.9808 0.1951
vn -0.0000 -0.8315 0.5556
vn -0.0000 -0.5556 0.8315
vn -0.0000 -0.1951 0.9808
vn -0.0000 0.1951 0.9808
vn -0.0000 0.5556 0.8315
vn -0.0000 0.8315 0.5556
vn -0.0000 0.9808 0.1951
vn -0.0000 0.9808 -0.1951
vn -0.0000 0.8315 -0.5556
vn -0.0000 0.5556 -0.8315
vn -0.0000 0.1951 -0.9808
vn -0.1058 0.9344 -0.3401
vn -0.0000 -0.2588 -0.9659
vn 0.6675 -0.6134 -0.4220
vn -0.0000 -0.7071 -0.7071
vn 0.6379 -0.7673 -0.0664
vn -0.6899 0.3153 0.6517
vn -0.0000 -0.9659 -0.2588
vn 0.1058 -0.9344 0.3401
vn -0.1058 -0.9344 0.3401
vn -0.0000 -0.9659 0.2588
vn -0.6899 -0.3153 -0.6517
vn 0.7370 0.4638 0.4916
vn -0.0000 -0.7071 0.7071
vn 0.7628 -0.6176 -0.1914
vn 0.7162 0.1656 0.6780
vn -0.0000 -0.2588 0.9659
vn 0.7628 0.6176 0.1914
vn 0.7370 -0.4638 -0.4916
vn -0.0000 0.2588 0.9659
vn -0.7162 0.1656 0.6780
vn 0.1058 0.6392 -0.7617
vn -0.0000 0.7071 0.7071
vn 0.6675 0.6134 0.4220
vn 0.6899 -0.3153 -0.6517
vn -0.0000 0.9659 0.2588
vn 0.1058 0.9344 -0.3401
vn 0.6899 0.3153 0.6517
vn -0.0000 0.9659 -0.2588
vn 0.7162 -0.1656 -0.6780
vn -0.0000 0.7071 -0.7071
vn -0.6675 0.6134 0.4220
vn -0.7162 -0.1656 -0.6780
vn -0.0000 0.2588 -0.9659
vn -0.7370 -0.4638 -0.4916
vn -0.1058 -0.6392 0.7617
vn 0.1058 -0.6392 0.7617
vn -0.7370 0.4638 0.4916
vn 0.6379 0.7673 0.0664
vn 0.5892 -0.7356 0.3344
vn -0.6675 -0.6134 -0.4220
vn -0.1058 0.6392 -0.7617
vn -0.1058 -0.1727 0.9793
vn -0.6379 0.7673 0.0664
vn 0.8011 0.5859 -0.1225
vn 0.8011 -0.5859 0.1225
vn -0.7628 -0.6176 -0.1914
vn 0.1058 0.1727 -0.9793
vn 0.1058 -0.1727 0.9793
vn -0.7628 0.6176 0.1914
vn 0.5892 0.7356 -0.3344
vn 0.4731 -0.5268 0.7061
vn -0.6379 -0.7673 -0.0664
vn -0.1058 0.1727 -0.9793
vn -0.1058 0.3401 0.9344
vn -0.5892 0.7356 -0.3344
vn 0.8746 0.3772 -0.3046
vn 0.8746 -0.3772 0.3046
vn -0.8011 -0.5859 0.1225
vn 0.1058 -0.3401 -0.9344
vn 0.1058 0.3401 0.9344
vn -0.8011 0.5859 -0.1225
vn 0.4731 0.5268 -0.7061
vn -0.2984 -0.1969 0.9339
vn -0.5892 -0.7356 0.3344
vn -0.1058 -0.3401 -0.9344
vn -0.1058 0.7617 0.6392
vn -0.4731 0.5268 -0.7061
vn 0.9485 0.0473 0.3131
vn 0.9485 -0.0473 -0.3131
vn -0.8746 -0.3772 0.3046
vn 0.1058 -0.7617 -0.6392
vn 0.1058 0.7617 0.6392
vn -0.8746 0.3772 -0.3046
vn -0.2984 0.1969 -0.9339
vn 0.9744 0.1656 0.1519
vn -0.4731 -0.5268 0.7061
vn -0.1058 -0.7617 -0.6392
vn -0.1058 0.9793 0.1727
vn 0.2984 0.1969 -0.9339
vn 0.1983 -0.3153 -0.9281
vn 0.1983 0.3153 0.9281
vn -0.9485 -0.0473 -0.3131
vn 0.1058 -0.9793 -0.1727
vn 0.1058 0.9793 0.1727
vn -0.9485 0.0473 0.3131
vn 0.9744 -0.1656 -0.1519
vn 0.8431 0.4638 0.2721
vn 0.2984 -0.1969 0.9339
vn -0.1058 -0.9793 -0.1727
vn -0.9744 -0.1656 -0.1519
vn 0.5272 -0.6134 -0.5880
vn 0.5272 0.6134 0.5880
vn -0.1983 0.3153 0.9281
vn -0.1983 -0.3153 -0.9281
vn 0.8431 -0.4638 -0.2721
vn 0.7861 0.6176 0.0240
vn -0.9744 0.1656 0.1519
vn -0.8431 -0.4638 -0.2721
vn 0.6090 -0.7673 -0.2011
vn 0.6090 0.7673 0.2011
vn -0.5272 0.6134 0.5880
vn -0.5272 -0.6134 -0.5880
vn 0.7861 -0.6176 -0.0240
vn 0.7534 0.5859 -0.2986
vn -0.8431 0.4638 0.2721
vn -0.7861 -0.6176 -0.0240
vn 0.6490 -0.7356 0.1942
vn 0.6490 0.7356 -0.1942
vn -0.6090 0.7673 0.2011
vn -0.6090 -0.7673 -0.2011
vn 0.7534 -0.5859 0.2986
vn 0.7298 0.3772 -0.5703
vn -0.7861 0.6176 0.0240
vn -0.7534 -0.5859 0.2986
vn 0.6755 -0.5268 0.5160
vn 0.6755 0.5268 -0.5160
vn -0.6490 0.7356 -0.1942
vn -0.6490 -0.7356 0.1942
vn 0.7298 -0.3772 0.5703
vn 0.7096 0.0473 -0.7030
vn -0.7534 0.5859 -0.2986
vn -0.7298 -0.3772 0.5703
vn 0.6966 -0.1969 0.6899
vn 0.6966 0.1969 -0.6899
vn -0.6755 0.5268 -0.5160
vn -0.6755 -0.5268 0.5160
vn 0.7096 -0.0473 0.7030
vn -0.7298 0.3772 -0.5703
vn -0.7096 -0.0473 0.7030
vn -0.6966 0.1969 -0.6899
vn -0.6966 -0.1969 0.6899
vn -0.7096 0.0473 -0.7030
s 0
f 1//1 2//1 10//1 9//1
f 2//2 3//2 11//2 10//2
f 3//3 4//3 12//3 11//3
f 4//4 5//4 13//4 12//4
f 5//5 6//5 14//5 13//5
f 6//6 7//6 15//6 14//6
f 7//7 8//7 16//7 15//7
f 8//8 1//8 9//8 16//8
f 9//9 10//9 18//9 17//9
f 10//10 11//10 19//10 18//10
f 11//11 12//11 20//11 19//11
f 12//12 13//12 21//12 20//12
f 13//13 14//13 22//13 21//13
f 14//14 15//14 23//14 22//14
f 15//15 16//15 24//15 23//15
f 16//16 9//16 17//16 24//16
f 17//17 18//17 26//17 25//17
f 18//18 19//18 27//18 26//18
f 19//19 20//19 28//19 27//19
f 20//20 21//20 29//20 28//20
f 21//21 22//21 30//21 29//21
f 22//22 23//22 31//22 30//22
f 23//23 24//23 32//23 31//23
f 24//24 17//24 25//24 32//24
f 25//25 26//25 34//25 33//25
f 26//26 27//26 35//26 34//26
f 27//27 28//27 36//27 35//27
f 28//28 29//28 37//28 36//28
f 29//29 30//29 38//29 37//29
f 30//30 31//30 39//30 38//30
f 31//31 32//31 40//31 39//31
f 32//32 25//32 33//32 40//32
f 33//33 34//33 42//33 41//33
f 34//34 35//34 43//34 42//34
f 35//35 36//35 44//35 43//35
f 36//36 37//36 45//36 44//36
f 37//37 38//37 46//37 45//37
f 38//38 39//38 47//38 46//38
f 39//39 40//39 48//39 47//39
f 40//40 33//40 41//40 48//40
f 41//41 42//41 50//41 49//41
f 42//42 43//42 51//42 50//42
f 43//43 44//43 52//43 51//43
f 44//44 45//44 53//44 52//44
f 45//45 46//45 54//45 53//45
f 46//46 47//46 55//46 54//46
f 47//47 48//47 56//47 55//47
f 48//48 41//48 49//48 56//48
f 49//49 50//49 58//49 57//49
f 50//50 51//50 59//50 58//50
f 51//51 52//51 60//51 59//51
f 52//52 53//52 61//52 60//52
f 53//53 54//53 62//53 61//53
f 54//54 55//54 63//54 62//54
f 55//55 56//55 64//55 63//55
f 56//56 49//56 57//56 64//56
f 57//57 58//57 66//57 65//57
f 58//58 59//58 67//58 66//58
f 59//59 60//59 68//59 67//59
f 60//60 61//60 69//60 68//60
f 61//61 62//61 70//61 69//61
f 62//62 63//62 71//62 70//62
f 63//63 64//63 72//63 71//63
f 64//64 57//64 65//64 72//64
f 65//4 66//4 74//4 73//4
f 66//3 67//3 75//3 74//3
f 67//2 68//2 76//2 75//2
f 68//1 69//1 77//1 76//1
f 69//8 70//8 78//8 77//8
f 70//7 71//7 79//7 78//7
f 71//6 72//6 80//6 79//6
f 72//5 65//5 73//5 80//5
f 73//12 74//12 82//12 81//12
f 74//11 75//11 83//11 82//11
f 75//10 76//10 84//10 83//10
f 76//9 77//9 85//9 84//9
f 77//16 78//16 86//16 85//16
f 78//15 79//15 87//15 86//15
f 79//14 80//14 88//14 87//14
f 80//13 73//13 81//13 88//13
f 81//20 82//20 90//20 89//20
f 82//19 83//19 91//19 90//19
f 83//18 84//18 92//18 91//18
f 84//17 85//17 93//17 92//17
f 85//24 86//24 94//24 93//24
f 86//23 87//23 95//23 94//23
f 87//22 88//22 96//22 95//22
f 88//21 81//21 89//21 96//21
f 89//28 90//28 98//28 97//28
f 90//27 91//27 99//27 98//27
f 91//26 92//26 100//26 99//26
f 92//25 93//25 101//25 100//25
f 93//32 94//32 102//32 101//32
f 94//31 95//31 103//31 102//31
f 95//30 96//30 104//30 103//30
f 96//29 89//29 97//29 104//29
f 97//36 98//36 106//36 105//36
f 98//35 99//35 107//35 106//35
f 99//34 100//34 108//34 107//34
f 100//33 101//33 109//33 108//33
f 101//40 102//40 110//40 109//40
f 102//39 103//39 111//39 110//39
f 103//38 104//38 112//38 111//38
f 104//37 97//37 105//37 112//37
f 105//44 106//44 114//44 113//44
f 106//43 107//43 115//43 114//43
f 107//42 108//42 116//42 115//42
f 108//41 109//41 117//41 116//41
f 109//48 110//48 118//48 117//48
f 110//47 111//47 119//47 118//47
f 111//46 112//46 120//46 119//46
f 112//45 105//45 113//45 120//45
f 113//52 114//52 122//52 121//52
f 114//51 115//51 123//51 122//51
f 115//50 116//50 124//50 123//50
f 116//49 117//49 125//49 124//49
f 117//56 118//56 126//56 125//56
f 118//55 119//55 127//55 126//55
f 119//54 120//54 128//54 127//54
f 120//53 113//53 121//53 128//53
f 121//60 122//60 2//60 1//60
f 122//59 123//59 3//59 2//59
f 123//58 124//58 4//58 3//58
f 124//57 125//57 5//57 4//57
f 125//64 126//64 6//64 5//64
f 126//63 127//63 7//63 6//63
f 127//62 128//62 8//62 7//62
f 128//61 121//61 1//61 8//61
f 129//65 130//65 132//65 131//65
f 131//66 132//66 136//66 135//66
f 135//67 136//67 134//67 133//67
f 133//68 134//68 130//68 129//68
f 131//69 135//69 133//69 129//69
f 136//70 132//70 130//70 134//70
f 137//65 138//65 140//65 139//65
f 139//71 140//71 144//71 143//71
f 143//67 144//67 142//67 141//67
f 141//72 142//72 138//72 137//72
f 139//73 143//73 141//73 137//73
f 144//74 140//74 138//74 142//74
f 145//65 146//65 148//65 147//65
f 147//75 148//75 152//75 151//75
f 151//67 152//67 150//67 149//67
f 149//76 150//76 146//76 145//76
f 147//77 151//77 149//77 145//77
f 152//78 148//78 146//78 150//78
f 153//65 154//65 156//65 155//65
f 155//79 156//79 160//79 159//79
f 159//67 160//67 158//67 157//67
f 157//80 158//80 154//80 153//80
f 155//81 159//81 157//81 153//81
f 160//82 156//82 154//82 158//82
f 161//65 162//65 164//65 163//65
f 163//83 164//83 168//83 167//83
f 167//67 168//67 166//67 165//67
f 165//84 166//84 162//84 161//84
f 163//85 167//85 165//85 161//85
f 168//86 164//86 162//86 166//86
f 169//65 170//65 172//65 171//65
f 171//70 172//70 176//70 175//70
f 175//67 176//67 174//67 173//67
f 173//69 174//69 170//69 169//69
f 171//66 175//66 173//66 169//66
f 176//68 172//68 170//68 174//68
f 177//65 178//65 180//65 179//65
f 179//74 180//74 184//74 183//74
f 183//67 184//67 182//67 181//67
f 181//73 182//73 178//73 177//73
f 179//71 183//71 181//71 177//71
f 184//72 180//72 178//72 182//72
f 185//65 186//65 188//65 187//65
f 187//78 188//78 192//78 191//78
f 191//67 192//67 190//67 189//67
f 189//77 190//77 186//77 185//77
f 187//75 191//75 189//75 185//75
f 192//76 188//76 186//76 190//76
f 193//65 194//65 196//65 195//65
f 195//82 196//82 200//82 199//82
f 199//67 200//67 198//67 197//67
f 197//81 198//81 194//81 193//81
f 195//79 199//79 197//79 193//79
f 200//80 196//80 194//80 198//80
f 201//65 202//65 204//65 203//65
f 203//86 204//86 208//86 207//86
f 207//67 208//67 206//67 205//67
f 205//85 206//85 202//85 201//85
f 203//83 207//83 205//83 201//83
f 208//84 204//84 202//84 206//84
f 209//65 210//65 212//65 211//65
f 211//68 212//68 216//68 215//68
f 215//67 216//67 214//67 213//67
f 213//66 214//66 210//66 209//66
f 211//70 215//70 213//70 209//70
f 216//69 212//69 210//69 214//69
f 217//65 218//65 220//65 219//65
f 219//72 220//72 224//72 223//72
f 223//67 224//67 222//67 221//67
f 221//71 222//71 218//71 217//71
f 219//74 223//74 221//74 217//74
f 224//73 220//73 218//73 222//73
f 225//65 226//65 228//65 227//65
f 227//76 228//76 232//76 231//76
f 231//67 232//67 230//67 229//67
f 229//75 230//75 226//75 225//75
f 227//78 231//78 229//78 225//78
f 232//77 228//77 226//77 230//77
f 233//65 234//65 236//65 235//65
f 235//80 236//80 240//80 239//80
f 239//67 240//67 238//67 237//67
f 237//79 238//79 234//79 233//79
f 235//82 239//82 237//82 233//82
f 240//81 236//81 234//81 238//81
f 241//65 242//65 244//65 243//65
f 243//84 244//84 248//84 247//84
f 247//67 248//67 246//67 245//67
f 245//83 246//83 242//83 241//83
f 243//86 247//86 245//86 241//86
f 248//85 244//85 242//85 246//85
f 249//65 250//65 252//65 251//65
f 251//69 252//69 256//69 255//69
f 255//67 256//67 254//67 253//67
f 253//70 254//70 250//70 249//70
f 251//68 255//68 253//68 249//68
f 256//66 252//66 250//66 254//66
f 257//65 258//65 260//65 259//65
f 259//73 260//73 264//73 263//73
f 263//67 264//67 262//67 261//67
f 261//74 262//74 258//74 257//74
f 259//72 263//72 261//72 257//72
f 264//71 260//71 258//71 262//71
f 265//65 266//65 268//65 267//65
f 267//77 268//77 272//77 271//77
f 271//67 272//67 270//67 269//67
f 269//78 270//78 266//78 265//78
f 267//76 271//76 269//76 265//76
f 272//75 268//75 266//75 270//75
f 273//65 274//65 276//65 275//65
f 275//81 276//81 280//81 279//81
f 279//67 280//67 278//67 277//67
f 277//82 278//82 274//82 273//82
f 275//80 279//80 277//80 273//80
f 280//79 276//79 274//79 278//79
f 281//65 282//65 284//65 283//65
f 283//85 284//85 288//85 287//85
f 287//67 288//67 286//67 285//67
f 285//86 286//86 282//86 281//86
f 283//84 287//84 285//84 281//84
f 288//83 284//83 282//83 286//83
f 289//87 290//87 292//87 291//87
f 291//88 292//88 294//88 293//88
f 293//89 294//89 296//89 295//89
f 295//90 296//90 298//90 297//90
f 297//91 298//91 300//91 299//91
f 299//92 300//92 302//92 301//92
f 301//93 302//93 304//93 303//93
f 303//94 304//94 306//94 305//94
f 305//95 306//95 308//95 307//95
f 307//96 308//96 310//96 309//96
f 309//97 310//97 312//97 311//97
f 311//98 312//98 314//98 313//98
f 313//99 314//99 316//99 315//99
f 315//100 316//100 318//100 317//100
f 317//101 318//101 320//101 319//101
f 319//102 320//102 290//102 289//102
f 358//103 356//103 362//103 360//103
f 323//104 324//104 326//104 325//104
f 363//105 364//105 366//105 365//105
f 325//106 326//106 328//106 327//106
f 379//107 380//107 382//107 381//107
f 351//108 352//108 354//108 353//108
f 327//109 328//109 330//109 329//109
f 359//110 361//110 355//110 357//110
f 353//111 347//111 349//111 351//111
f 329//112 330//112 332//112 331//112
f 361//113 362//113 356//113 355//113
f 365//114 366//114 368//114 367//114
f 331//115 332//115 334//115 333//115
f 387//116 388//116 390//116 389//116
f 349//117 350//117 352//117 351//117
f 333//118 334//118 336//118 335//118
f 381//119 382//119 384//119 383//119
f 371//120 372//120 374//120 373//120
f 335//121 336//121 338//121 337//121
f 359//122 360//122 362//122 361//122
f 364//123 370//123 368//123 366//123
f 337//124 338//124 340//124 339//124
f 373//125 374//125 376//125 375//125
f 347//126 348//126 350//126 349//126
f 339//127 340//127 342//127 341//127
f 348//128 354//128 352//128 350//128
f 357//129 358//129 360//129 359//129
f 341//130 342//130 344//130 343//130
f 326//67 324//67 346//67 344//67 342//67 340//67 338//67 336//67 334//67 332//67 330//67 328//67
f 355//131 356//131 358//131 357//131
f 343//132 344//132 346//132 345//132
f 367//133 368//133 370//133 369//133
f 353//134 354//134 348//134 347//134
f 345//135 346//135 324//135 323//135
f 323//65 325//65 327//65 329//65 331//65 333//65 335//65 337//65 339//65 341//65 343//65 345//65
f 369//136 370//136 364//136 363//136
f 369//137 363//137 365//137 367//137
f 373//138 375//138 377//138 371//138
f 375//139 376//139 378//139 377//139
f 389//140 390//140 392//140 391//140
f 395//141 396//141 398//141 397//141
f 377//142 378//142 372//142 371//142
f 376//143 374//143 372//143 378//143
f 381//144 383//144 385//144 379//144
f 383//145 384//145 386//145 385//145
f 397//146 398//146 400//146 399//146
f 403//147 404//147 406//147 405//147
f 385//148 386//148 380//148 379//148
f 384//149 382//149 380//149 386//149
f 389//150 391//150 393//150 387//150
f 391//151 392//151 394//151 393//151
f 405//152 406//152 408//152 407//152
f 411//153 412//153 414//153 413//153
f 393//154 394//154 388//154 387//154
f 392//155 390//155 388//155 394//155
f 397//156 399//156 401//156 395//156
f 399//157 400//157 402//157 401//157
f 413//158 414//158 416//158 415//158
f 419//159 420//159 422//159 421//159
f 401//160 402//160 396//160 395//160
f 400//161 398//161 396//161 402//161
f 405//162 407//162 409//162 403//162
f 407//163 408//163 410//163 409//163
f 421//164 422//164 424//164 423//164
f 427//165 428//165 430//165 429//165
f 409//166 410//166 404//166 403//166
f 408//167 406//167 404//167 410//167
f 413//168 415//168 417//168 411//168
f 415//169 416//169 418//169 417//169
f 429//170 430//170 432//170 431//170
f 435//171 436//171 438//171 437//171
f 417//172 418//172 412//172 411//172
f 416//173 414//173 412//173 418//173
f 421//174 423//174 425//174 419//174
f 423//175 424//175 426//175 425//175
f 437//176 438//176 440//176 439//176
f 443//177 444//177 446//177 445//177
f 425//178 426//178 420//178 419//178
f 424//179 422//179 420//179 426//179
f 429//180 431//180 433//180 427//180
f 431//181 432//181 434//181 433//181
f 445//182 446//182 448//182 447//182
f 451//183 452//183 454//183 453//183
f 433//184 434//184 428//184 427//184
f 432//185 430//185 428//185 434//185
f 437//186 439//186 441//186 435//186
f 439//187 440//187 442//187 441//187
f 453//188 454//188 456//188 455//188
f 459//189 460//189 462//189 461//189
f 441//190 442//190 436//190 435//190
f 440//191 438//191 436//191 442//191
f 445//103 447//103 449//103 443//103
f 447//192 448//192 450//192 449//192
f 461//193 462//193 464//193 463//193
f 467//194 468//194 470//194 469//194
f 449//195 450//195 444//195 443//195
f 448//110 446//110 444//110 450//110
f 453//128 455//128 457//128 451//128
f 455//196 456//196 458//196 457//196
f 469//197 470//197 472//197 471//197
f 475//198 476//198 478//198 477//198
f 457//199 458//199 452//199 451//199
f 456//111 454//111 452//111 458//111
f 461//143 463//143 465//143 459//143
f 463//200 464//200 466//200 465//200
f 477//201 478//201 480//201 479//201
f 483//202 484//202 486//202 485//202
f 465//203 466//203 460//203 459//203
f 464//138 462//138 460//138 466//138
f 469//123 471//123 473//123 467//123
f 471//204 472//204 474//204 473//204
f 485//205 486//205 488//205 487//205
f 491//206 492//206 494//206 493//206
f 473//207 474//207 468//207 467//207
f 472//137 470//137 468//137 474//137
f 477//155 479//155 481//155 475//155
f 479//208 480//208 482//208 481//208
f 493//209 494//209 496//209 495//209
f 499//210 500//210 502//210 501//210
f 481//211 482//211 476//211 475//211
f 480//150 478//150 476//150 482//150
f 485//149 487//149 489//149 483//149
f 487//212 488//212 490//212 489//212
f 501//213 502//213 504//213 503//213
f 507//214 508//214 510//214 509//214
f 489//215 490//215 484//215 483//215
f 488//144 486//144 484//144 490//144
f 493//167 495//167 497//167 491//167
f 495//216 496//216 498//216 497//216
f 509//217 510//217 512//217 511//217
f 515//218 516//218 518//218 517//218
f 497//219 498//219 492//219 491//219
f 496//162 494//162 492//162 498//162
f 501//161 503//161 505//161 499//161
f 503//220 504//220 506//220 505//220
f 517//221 518//221 520//221 519//221
f 523//222 524//222 526//222 525//222
f 505//223 506//223 500//223 499//223
f 504//156 502//156 500//156 506//156
f 509//179 511//179 513//179 507//179
f 511//224 512//224 514//224 513//224
f 525//225 526//225 528//225 527//225
f 531//226 532//226 534//226 533//226
f 513//227 514//227 508//227 507//227
f 512//174 510//174 508//174 514//174
f 517//173 519//173 521//173 515//173
f 519//228 520//228 522//228 521//228
f 533//229 534//229 536//229 535//229
f 539//87 540//87 542//87 541//87
f 521//230 522//230 516//230 515//230
f 520//168 518//168 516//168 522//168
f 525//191 527//191 529//191 523//191
f 527//231 528//231 530//231 529//231
f 541//88 542//88 544//88 543//88
f 529//232 530//232 524//232 523//232
f 528//186 526//186 524//186 530//186
f 533//185 535//185 537//185 531//185
f 535//233 536//233 538//233 537//233
f 537//234 538//234 532//234 531//234
f 536//180 534//180 532//180 538//180
f 543//89 544//89 546//89 545//89
f 545//90 546//90 548//90 547//90
f 547//91 548//91 550//91 549//91
f 549//92 550//92 552//92 551//92
f 551//93 552//93 554//93 553//93
f 553//94 554//94 556//94 555//94
f 555//95 556//95 558//95 557//95
f 576//70 572//70 321//70 574//70
f 557//96 558//96 560//96 559//96
f 571//69 575//69 573//69 322//69
f 559//97 560//97 562//97 561//97
f 573//68 574//68 321//68 322//68
f 561//98 562//98 564//98 563//98
f 575//67 576//67 574//67 573//67
f 563//99 564//99 566//99 565//99
f 571//66 572//66 576//66 575//66
f 565//100 566//100 568//100 567//100
f 322//65 321//65 572//65 571//65
f 541//65 543//65 545//65 547//65 549//65 551//65 553//65 555//65 557//65 559//65 561//65 563//65 565//65 567//65 569//65 539//65
f 567//101 568//101 570//101 569//101
f 569//102 570//102 540//102 539//102
f 544//67 542//67 540//67 570//67 568//67 566//67 564//67 562//67 560//67 558//67 556//67 554//67 552//67 550//67 548//67 546//67
