# Blender 4.3.2
# www.blender.org
o Battery
v -0.100000 -0.280000 -0.400000
v -0.100000 0.080000 -0.400000
v -0.100000 -0.280000 -0.700000
v -0.100000 0.080000 -0.700000
v 0.100000 -0.280000 -0.400000
v 0.100000 0.080000 -0.400000
v 0.100000 -0.280000 -0.700000
v 0.100000 0.080000 -0.700000
v -0.112500 -0.190000 -0.487500
v -0.112500 -0.010000 -0.487500
v -0.090000 -0.240000 -0.605000
v -0.090000 0.040000 -0.605000
v -0.057672 -0.240000 -0.594496
v -0.057672 0.040000 -0.594496
v -0.037692 -0.240000 -0.566996
v -0.037692 0.040000 -0.566996
v -0.037692 -0.240000 -0.533004
v -0.037692 0.040000 -0.533004
v -0.057672 -0.240000 -0.505504
v -0.057672 0.040000 -0.505504
v -0.090000 -0.240000 -0.495000
v -0.090000 0.040000 -0.495000
v -0.122328 -0.240000 -0.505504
v -0.122328 0.040000 -0.505504
v -0.142308 -0.240000 -0.533004
v -0.142308 0.040000 -0.533004
v -0.142308 -0.240000 -0.566996
v -0.142308 0.040000 -0.566996
v -0.122328 -0.240000 -0.594496
v -0.122328 0.040000 -0.594496
v 0.090000 -0.240000 -0.605000
v 0.090000 0.040000 -0.605000
v 0.122328 -0.240000 -0.594496
v 0.122328 0.040000 -0.594496
v 0.142308 -0.240000 -0.566996
v 0.142308 0.040000 -0.566996
v 0.142308 -0.240000 -0.533004
v 0.142308 0.040000 -0.533004
v 0.122328 -0.240000 -0.505504
v 0.122328 0.040000 -0.505504
v 0.090000 -0.240000 -0.495000
v 0.090000 0.040000 -0.495000
v 0.057672 -0.240000 -0.505504
v 0.057672 0.040000 -0.505504
v 0.037692 -0.240000 -0.533004
v 0.037692 0.040000 -0.533004
v 0.037692 -0.240000 -0.566996
v 0.037692 0.040000 -0.566996
v 0.057672 -0.240000 -0.594496
v 0.057672 0.040000 -0.594496
v -0.112500 -0.190000 -0.512500
v -0.112500 -0.010000 -0.512500
v -0.097500 -0.190000 -0.487500
v -0.097500 -0.010000 -0.487500
v -0.097500 -0.190000 -0.512500
v -0.097500 -0.010000 -0.512500
v 0.097500 -0.190000 -0.487500
v 0.097500 -0.010000 -0.487500
v 0.097500 -0.190000 -0.512500
v 0.097500 -0.010000 -0.512500
v 0.112500 -0.190000 -0.487500
v 0.112500 -0.010000 -0.487500
v 0.112500 -0.190000 -0.512500
v 0.112500 -0.010000 -0.512500
v -0.112500 -0.190000 -0.567500
v -0.112500 -0.010000 -0.567500
v -0.112500 -0.190000 -0.592500
v -0.112500 -0.010000 -0.592500
v -0.097500 -0.190000 -0.567500
v -0.097500 -0.010000 -0.567500
v -0.097500 -0.190000 -0.592500
v -0.097500 -0.010000 -0.592500
v 0.097500 -0.190000 -0.567500
v 0.097500 -0.010000 -0.567500
v 0.097500 -0.190000 -0.592500
v 0.097500 -0.010000 -0.592500
v 0.112500 -0.190000 -0.567500
v 0.112500 -0.010000 -0.567500
v 0.112500 -0.190000 -0.592500
v 0.112500 -0.010000 -0.592500
vn -1.0000 -0.0000 -0.0000
vn -0.0000 -0.0000 -1.0000
vn 1.0000 -0.0000 -0.0000
vn -0.0000 -0.0000 1.0000
vn -0.0000 -1.0000 -0.0000
vn -0.0000 1.0000 -0.0000
vn -0.3090 -0.0000 0.9511
vn 0.3090 -0.0000 -0.9511
vn 0.8090 -0.0000 -0.5878
vn 0.3090 -0.0000 0.9511
vn 0.8090 -0.0000 0.5878
vn -0.8090 -0.0000 0.5878
vn -0.8090 -0.0000 -0.5878
vn -0.3090 -0.0000 -0.9511
s 0
f 1//1 2//1 4//1 3//1
f 3//2 4//2 8//2 7//2
f 7//3 8//3 6//3 5//3
f 5//4 6//4 2//4 1//4
f 3//5 7//5 5//5 1//5
f 8//6 4//6 2//6 6//6
f 41//7 42//7 44//7 43//7
f 35//3 36//3 38//3 37//3
f 11//8 12//8 14//8 13//8
f 64//6 60//6 58//6 62//6
f 57//1 58//1 60//1 59//1
f 13//9 14//9 16//9 15//9
f 65//1 66//1 68//1 67//1
f 69//4 70//4 66//4 65//4
f 15//3 16//3 18//3 17//3
f 39//10 40//10 42//10 41//10
f 33//9 34//9 36//9 35//9
f 17//11 18//11 20//11 19//11
f 51//5 55//5 53//5 9//5
f 59//2 60//2 64//2 63//2
f 19//10 20//10 22//10 21//10
f 67//2 68//2 72//2 71//2
f 73//1 74//1 76//1 75//1
f 21//7 22//7 24//7 23//7
f 37//11 38//11 40//11 39//11
f 31//8 32//8 34//8 33//8
f 23//12 24//12 26//12 25//12
f 56//6 52//6 10//6 54//6
f 63//3 64//3 62//3 61//3
f 25//1 26//1 28//1 27//1
f 14//6 12//6 30//6 28//6 26//6 24//6 22//6 20//6 18//6 16//6
f 72//6 68//6 66//6 70//6
f 27//13 28//13 30//13 29//13
f 53//4 54//4 10//4 9//4
f 71//3 72//3 70//3 69//3
f 29//14 30//14 12//14 11//14
f 11//5 13//5 15//5 17//5 19//5 21//5 23//5 25//5 27//5 29//5
f 55//3 56//3 54//3 53//3
f 43//12 44//12 46//12 45//12
f 59//5 63//5 61//5 57//5
f 51//2 52//2 56//2 55//2
f 45//1 46//1 48//1 47//1
f 38//6 36//6 34//6 32//6 50//6 48//6 46//6 44//6 42//6 40//6
f 9//1 10//1 52//1 51//1
f 47//13 48//13 50//13 49//13
f 67//5 71//5 69//5 65//5
f 61//4 62//4 58//4 57//4
f 49//14 50//14 32//14 31//14
f 43//5 45//5 47//5 49//5 31//5 33//5 35//5 37//5 39//5 41//5
f 75//2 76//2 80//2 79//2
f 79//3 80//3 78//3 77//3
f 77//4 78//4 74//4 73//4
f 75//5 79//5 77//5 73//5
f 80//6 76//6 74//6 78//6
