# Blender 4.3.2
# www.blender.org
o Seat
v -0.088000 0.100000 -0.880000
v -0.079200 0.100000 -0.945000
v 0.000000 0.100000 -0.955000
v 0.079200 0.100000 -0.945000
v 0.088000 0.100000 -0.880000
v 0.000000 0.100000 -0.875000
v -0.105000 0.220000 -0.900000
v -0.094500 0.220000 -0.965000
v 0.000000 0.220000 -0.975000
v 0.094500 0.220000 -0.965000
v 0.105000 0.220000 -0.900000
v 0.000000 0.220000 -0.895000
v -0.110000 0.360000 -0.910000
v -0.099000 0.360000 -0.975000
v 0.000000 0.360000 -0.985000
v 0.099000 0.360000 -0.975000
v 0.110000 0.360000 -0.910000
v 0.000000 0.360000 -0.905000
v -0.102000 0.500000 -0.920000
v -0.091800 0.500000 -0.985000
v 0.000000 0.500000 -0.995000
v 0.091800 0.500000 -0.985000
v 0.102000 0.500000 -0.920000
v 0.000000 0.500000 -0.915000
v -0.085000 0.660000 -0.920000
v -0.076500 0.660000 -0.985000
v 0.000000 0.660000 -0.995000
v 0.076500 0.660000 -0.985000
v 0.085000 0.660000 -0.920000
v 0.000000 0.660000 -0.915000
v -0.090000 0.200000 -0.983000
v 0.090000 0.200000 -0.983000
v -0.090000 0.193072 -0.979000
v 0.090000 0.193072 -0.979000
v -0.090000 0.193072 -0.971000
v 0.090000 0.193072 -0.971000
v -0.090000 0.200000 -0.967000
v 0.090000 0.200000 -0.967000
v -0.090000 0.206928 -0.971000
v 0.090000 0.206928 -0.971000
v -0.090000 0.206928 -0.979000
v 0.090000 0.206928 -0.979000
v -0.090000 0.300000 -0.983000
v 0.090000 0.300000 -0.983000
v -0.090000 0.293072 -0.979000
v 0.090000 0.293072 -0.979000
v -0.090000 0.293072 -0.971000
v 0.090000 0.293072 -0.971000
v -0.090000 0.300000 -0.967000
v 0.090000 0.300000 -0.967000
v -0.090000 0.306928 -0.971000
v 0.090000 0.306928 -0.971000
v -0.090000 0.306928 -0.979000
v 0.090000 0.306928 -0.979000
v -0.090000 0.400000 -0.983000
v 0.090000 0.400000 -0.983000
v -0.090000 0.393072 -0.979000
v 0.090000 0.393072 -0.979000
v -0.090000 0.393072 -0.971000
v 0.090000 0.393072 -0.971000
v -0.090000 0.400000 -0.967000
v 0.090000 0.400000 -0.967000
v -0.090000 0.406928 -0.971000
v 0.090000 0.406928 -0.971000
v -0.090000 0.406928 -0.979000
v 0.090000 0.406928 -0.979000
v -0.090000 0.500000 -0.983000
v 0.090000 0.500000 -0.983000
v -0.090000 0.493072 -0.979000
v 0.090000 0.493072 -0.979000
v -0.090000 0.493072 -0.971000
v 0.090000 0.493072 -0.971000
v -0.090000 0.500000 -0.967000
v 0.090000 0.500000 -0.967000
v -0.090000 0.506928 -0.971000
v 0.090000 0.506928 -0.971000
v -0.090000 0.506928 -0.979000
v 0.090000 0.506928 -0.979000
v -0.090000 0.600000 -0.983000
v 0.090000 0.600000 -0.983000
v -0.090000 0.593072 -0.979000
v 0.090000 0.593072 -0.979000
v -0.090000 0.593072 -0.971000
v 0.090000 0.593072 -0.971000
v -0.090000 0.600000 -0.967000
v 0.090000 0.600000 -0.967000
v -0.090000 0.606928 -0.971000
v 0.090000 0.606928 -0.971000
v -0.090000 0.606928 -0.979000
v 0.090000 0.606928 -0.979000
vn -0.9771 -0.1557 -0.1451
vn -0.1127 -0.1703 -0.9789
vn 0.1127 -0.1703 -0.9789
vn 0.9771 -0.1557 -0.1451
vn 0.0511 0.1607 0.9857
vn -0.0511 0.1607 0.9857
vn -0.9856 -0.0451 -0.1630
vn -0.1025 -0.0725 -0.9921
vn 0.1025 -0.0725 -0.9921
vn 0.9856 -0.0451 -0.1630
vn 0.0463 0.0703 0.9964
vn -0.0463 0.0703 0.9964
vn -0.9861 0.0420 -0.1608
vn -0.1040 -0.0682 -0.9922
vn 0.1040 -0.0682 -0.9922
vn 0.9861 0.0420 -0.1608
vn 0.0470 0.0725 0.9963
vn -0.0470 0.0725 0.9963
vn -0.9849 0.0994 -0.1417
vn -0.1180 0.0056 -0.9930
vn 0.1180 0.0056 -0.9930
vn 0.9849 0.0994 -0.1417
vn 0.0534 0.0028 0.9986
vn -0.0534 0.0028 0.9986
vn -0.0000 -1.0000 -0.0000
vn -0.0000 1.0000 -0.0000
vn -0.0000 -0.5000 -0.8660
vn -0.0000 -0.5000 0.8660
vn -0.0000 0.5000 0.8660
vn 1.0000 -0.0000 -0.0000
vn -0.0000 0.5000 -0.8660
vn -1.0000 -0.0000 -0.0000
s 0
f 1//1 7//1 8//1 2//1
f 2//2 8//2 9//2 3//2
f 3//3 9//3 10//3 4//3
f 4//4 10//4 11//4 5//4
f 5//5 11//5 12//5 6//5
f 6//6 12//6 7//6 1//6
f 7//7 13//7 14//7 8//7
f 8//8 14//8 15//8 9//8
f 9//9 15//9 16//9 10//9
f 10//10 16//10 17//10 11//10
f 11//11 17//11 18//11 12//11
f 12//12 18//12 13//12 7//12
f 13//13 19//13 20//13 14//13
f 14//14 20//14 21//14 15//14
f 15//15 21//15 22//15 16//15
f 16//16 22//16 23//16 17//16
f 17//17 23//17 24//17 18//17
f 18//18 24//18 19//18 13//18
f 19//19 25//19 26//19 20//19
f 20//20 26//20 27//20 21//20
f 21//21 27//21 28//21 22//21
f 22//22 28//22 29//22 23//22
f 23//23 29//23 30//23 24//23
f 24//24 30//24 25//24 19//24
f 1//25 2//25 3//25 4//25 5//25 6//25
f 30//26 29//26 28//26 27//26 26//26 25//26
f 31//27 32//27 34//27 33//27
f 83//28 84//28 86//28 85//28
f 33//25 34//25 36//25 35//25
f 55//27 56//27 58//27 57//27
f 43//27 44//27 46//27 45//27
f 35//28 36//28 38//28 37//28
f 67//27 68//27 70//27 69//27
f 81//25 82//25 84//25 83//25
f 37//29 38//29 40//29 39//29
f 34//30 32//30 42//30 40//30 38//30 36//30
f 79//27 80//27 82//27 81//27
f 39//26 40//26 42//26 41//26
f 47//28 48//28 50//28 49//28
f 45//25 46//25 48//25 47//25
f 41//31 42//31 32//31 31//31
f 31//32 33//32 35//32 37//32 39//32 41//32
f 49//29 50//29 52//29 51//29
f 48//30 46//30 44//30 54//30 52//30 50//30
f 51//26 52//26 54//26 53//26
f 59//28 60//28 62//28 61//28
f 57//25 58//25 60//25 59//25
f 53//31 54//31 44//31 43//31
f 49//32 51//32 53//32 43//32 45//32 47//32
f 61//29 62//29 64//29 63//29
f 58//30 56//30 66//30 64//30 62//30 60//30
f 63//26 64//26 66//26 65//26
f 71//28 72//28 74//28 73//28
f 69//25 70//25 72//25 71//25
f 65//31 66//31 56//31 55//31
f 59//32 61//32 63//32 65//32 55//32 57//32
f 73//29 74//29 76//29 75//29
f 69//32 71//32 73//32 75//32 77//32 67//32
f 75//26 76//26 78//26 77//26
f 77//31 78//31 68//31 67//31
f 74//30 72//30 70//30 68//30 78//30 76//30
f 85//29 86//29 88//29 87//29
f 83//32 85//32 87//32 89//32 79//32 81//32
f 87//26 88//26 90//26 89//26
f 89//31 90//31 80//31 79//31
f 86//30 84//30 82//30 80//30 90//30 88//30
