# Blender 4.3.2
# www.blender.org
o Exhaust
v 0.169000 0.380000 -0.730000
v 0.169000 0.660000 -0.730000
v 0.079258 -0.185874 -0.443258
v 0.139258 0.044126 -0.503258
v 0.095922 -0.188307 -0.435922
v 0.155922 0.041693 -0.495922
v 0.103258 -0.185874 -0.419258
v 0.163258 0.044126 -0.479258
v 0.096971 -0.180000 -0.403029
v 0.156971 0.050000 -0.463029
v 0.080742 -0.174126 -0.396742
v 0.140742 0.055874 -0.456742
v 0.064078 -0.171693 -0.404078
v 0.124078 0.058307 -0.464078
v 0.056742 -0.174126 -0.420742
v 0.116742 0.055874 -0.480742
v 0.063029 -0.180000 -0.436971
v 0.123029 0.050000 -0.496971
v 0.139502 0.037556 -0.500516
v 0.159502 0.267556 -0.640516
v 0.156568 0.039943 -0.494155
v 0.176568 0.269943 -0.634155
v 0.163929 0.048222 -0.479502
v 0.183929 0.278222 -0.619502
v 0.157272 0.057542 -0.465141
v 0.177272 0.287542 -0.605141
v 0.140498 0.062444 -0.459484
v 0.160498 0.292444 -0.599484
v 0.123432 0.060057 -0.465845
v 0.143432 0.290057 -0.605845
v 0.116071 0.051778 -0.480498
v 0.136071 0.281778 -0.620498
v 0.122728 0.042458 -0.494859
v 0.142728 0.272458 -0.634859
v 0.160233 0.267915 -0.640734
v 0.150233 0.507915 -0.780734
v 0.177124 0.272065 -0.634826
v 0.167124 0.512065 -0.774826
v 0.183983 0.280863 -0.620233
v 0.173983 0.520863 -0.760233
v 0.176794 0.289156 -0.605504
v 0.166794 0.529156 -0.745504
v 0.159767 0.292085 -0.599266
v 0.149767 0.532085 -0.739266
v 0.142876 0.287935 -0.605174
v 0.132876 0.527935 -0.745174
v 0.136017 0.279137 -0.619767
v 0.126017 0.519137 -0.759767
v 0.143206 0.270844 -0.634496
v 0.133206 0.510844 -0.774496
v 0.150089 0.514974 -0.783468
v 0.140089 0.794974 -0.843468
v 0.167023 0.517039 -0.776657
v 0.157023 0.797039 -0.836657
v 0.173985 0.520838 -0.760089
v 0.163985 0.800838 -0.820089
v 0.166897 0.524146 -0.743469
v 0.156897 0.804146 -0.803468
v 0.149911 0.525026 -0.736532
v 0.139911 0.805026 -0.796532
v 0.132977 0.522961 -0.743343
v 0.122977 0.802961 -0.803343
v 0.126015 0.519162 -0.759911
v 0.116015 0.799162 -0.819911
v 0.133103 0.515854 -0.776531
v 0.123103 0.795854 -0.836531
v 0.150000 0.444533 -0.764919
v 0.150000 0.765292 -0.877746
v 0.177038 0.447546 -0.756666
v 0.174687 0.768042 -0.870211
v 0.193749 0.455432 -0.735060
v 0.189944 0.775243 -0.850484
v 0.193749 0.465181 -0.708354
v 0.189944 0.784144 -0.826101
v 0.177038 0.473068 -0.686749
v 0.174687 0.791345 -0.806374
v 0.150000 0.476080 -0.678496
v 0.150000 0.794095 -0.798839
v 0.122962 0.473068 -0.686749
v 0.125313 0.791345 -0.806374
v 0.106251 0.465181 -0.708354
v 0.110056 0.784144 -0.826101
v 0.106251 0.455432 -0.735060
v 0.110056 0.775243 -0.850484
v 0.122962 0.447546 -0.756666
v 0.125313 0.768042 -0.870211
v 0.169000 0.380000 -0.810000
v 0.169000 0.660000 -0.810000
v 0.181000 0.380000 -0.730000
v 0.181000 0.660000 -0.730000
v 0.181000 0.380000 -0.810000
v 0.181000 0.660000 -0.810000
vn 0.9247 -0.0479 -0.3776
vn 0.3423 -0.3198 -0.8835
vn -0.3624 0.5074 0.7818
vn 0.9132 -0.2669 -0.3080
vn 0.8835 -0.3198 -0.3423
vn 0.4007 0.4507 0.7977
vn 0.9072 -0.1325 0.3994
vn -0.0000 -1.0000 -0.0000
vn 0.3994 0.1325 0.9072
vn -0.3859 0.1801 0.9048
vn 0.3624 -0.5074 -0.7818
vn -0.3423 0.3198 0.8835
vn 0.9291 0.1300 0.3463
vn 0.3859 -0.1801 -0.9048
vn -0.8835 0.3198 0.3423
vn 0.2447 0.9382 -0.2447
vn 0.3790 0.2068 0.9020
vn -0.9072 0.1325 -0.3994
vn 0.3914 -0.4515 -0.8019
vn 0.3734 0.4790 0.7944
vn -0.3994 -0.1325 -0.9072
vn -0.2447 -0.9382 0.2447
vn 0.9195 0.2259 0.3216
vn -0.9132 0.2669 0.3080
vn -0.0000 1.0000 -0.0000
vn -0.0741 -0.8519 0.5185
vn -0.9291 -0.1300 -0.3463
vn 0.9270 -0.1595 -0.3396
vn -0.3914 0.4515 0.8019
vn -0.4007 -0.4507 -0.7977
vn 0.0741 0.8519 -0.5185
vn 0.9219 0.1124 0.3708
vn -0.9270 0.1595 0.3396
vn -0.0360 0.8632 -0.5035
vn -0.9195 -0.2259 -0.3216
vn 0.3090 -0.3156 -0.8972
vn 0.8090 0.2120 0.5483
vn -0.3734 -0.4790 -0.7944
vn 0.0360 -0.8632 0.5035
vn 0.9999 0.0105 -0.0038
vn -0.9247 0.0479 0.3776
vn 0.0349 -0.9772 0.2094
vn -0.9219 -0.1124 -0.3708
vn 0.8090 -0.1910 -0.5560
vn 0.3090 0.3366 0.8895
vn -0.3790 -0.2068 -0.9020
vn -0.0349 0.9772 -0.2094
vn -0.0000 -0.0000 1.0000
vn -0.3090 0.3366 0.8895
vn 1.0000 -0.0000 -0.0000
vn -0.8090 0.2120 0.5483
vn -0.0000 -0.0000 -1.0000
vn -0.9999 0.0105 -0.0038
vn -1.0000 -0.0000 -0.0000
vn -0.0000 -0.9394 0.3429
vn -0.8090 -0.1910 -0.5560
vn -0.3090 -0.3156 -0.8972
vn -0.0000 0.9394 -0.3429
s 0
f 53//1 54//1 56//1 55//1
f 3//2 4//2 6//2 5//2
f 27//3 28//3 30//3 29//3
f 21//4 22//4 24//4 23//4
f 5//5 6//5 8//5 7//5
f 25//6 26//6 28//6 27//6
f 7//7 8//7 10//7 9//7
f 87//8 91//8 89//8 1//8
f 9//9 10//9 12//9 11//9
f 59//10 60//10 62//10 61//10
f 19//11 20//11 22//11 21//11
f 11//12 12//12 14//12 13//12
f 23//13 24//13 26//13 25//13
f 51//14 52//14 54//14 53//14
f 13//15 14//15 16//15 15//15
f 6//16 4//16 18//16 16//16 14//16 12//16 10//16 8//16
f 57//17 58//17 60//17 59//17
f 15//18 16//18 18//18 17//18
f 35//19 36//19 38//19 37//19
f 41//20 42//20 44//20 43//20
f 17//21 18//21 4//21 3//21
f 3//22 5//22 7//22 9//22 11//22 13//22 15//22 17//22
f 39//23 40//23 42//23 41//23
f 29//24 30//24 32//24 31//24
f 92//25 88//25 2//25 90//25
f 23//26 25//26 27//26 29//26 31//26 33//26 19//26 21//26
f 31//27 32//27 34//27 33//27
f 37//28 38//28 40//28 39//28
f 43//29 44//29 46//29 45//29
f 33//30 34//30 20//30 19//30
f 30//31 28//31 26//31 24//31 22//31 20//31 34//31 32//31
f 55//32 56//32 58//32 57//32
f 45//33 46//33 48//33 47//33
f 40//34 38//34 36//34 50//34 48//34 46//34 44//34 42//34
f 47//35 48//35 50//35 49//35
f 67//36 68//36 70//36 69//36
f 73//37 74//37 76//37 75//37
f 49//38 50//38 36//38 35//38
f 41//39 43//39 45//39 47//39 49//39 35//39 37//39 39//39
f 71//40 72//40 74//40 73//40
f 61//41 62//41 64//41 63//41
f 57//42 59//42 61//42 63//42 65//42 51//42 53//42 55//42
f 63//43 64//43 66//43 65//43
f 69//44 70//44 72//44 71//44
f 75//45 76//45 78//45 77//45
f 65//46 66//46 52//46 51//46
f 60//47 58//47 56//47 54//47 52//47 66//47 64//47 62//47
f 89//48 90//48 2//48 1//48
f 77//49 78//49 80//49 79//49
f 91//50 92//50 90//50 89//50
f 79//51 80//51 82//51 81//51
f 87//52 88//52 92//52 91//52
f 81//53 82//53 84//53 83//53
f 1//54 2//54 88//54 87//54
f 69//55 71//55 73//55 75//55 77//55 79//55 81//55 83//55 85//55 67//55
f 83//56 84//56 86//56 85//56
f 85//57 86//57 68//57 67//57
f 76//58 74//58 72//58 70//58 68//58 86//58 84//58 82//58 80//58 78//58
