# Blender 4.3.2
# www.blender.org
o Frame
v 0.000000 -0.678622 -0.864311
v 0.000000 -0.578622 -1.064311
v 0.022627 -0.670239 -0.860119
v 0.022627 -0.570239 -1.060119
v 0.032000 -0.650000 -0.850000
v 0.032000 -0.550000 -1.050000
v 0.022627 -0.629761 -0.839881
v 0.022627 -0.529761 -1.039881
v 0.000000 -0.621378 -0.835689
v 0.000000 -0.521378 -1.035689
v -0.022627 -0.629761 -0.839881
v -0.022627 -0.529761 -1.039881
v -0.032000 -0.650000 -0.850000
v -0.032000 -0.550000 -1.050000
v -0.022627 -0.670239 -0.860119
v -0.022627 -0.570239 -1.060119
v 0.000000 -0.539830 -1.073929
v 0.000000 -0.139830 -0.903929
v 0.018385 -0.542809 -1.066920
v 0.018385 -0.142809 -0.896920
v 0.026000 -0.550000 -1.050000
v 0.026000 -0.150000 -0.880000
v 0.018385 -0.557191 -1.033080
v 0.018385 -0.157191 -0.863080
v 0.000000 -0.560170 -1.026071
v 0.000000 -0.160170 -0.856071
v -0.018385 -0.557191 -1.033080
v -0.018385 -0.157191 -0.863080
v -0.026000 -0.550000 -1.050000
v -0.026000 -0.150000 -0.880000
v -0.018385 -0.542809 -1.066920
v -0.018385 -0.142809 -0.896920
v 0.000000 -0.146143 -0.905712
v 0.000000 0.253857 -0.845712
v 0.018385 -0.147273 -0.898181
v 0.018385 0.252727 -0.838181
v 0.026000 -0.150000 -0.880000
v 0.026000 0.250000 -0.820000
v 0.018385 -0.152727 -0.861819
v 0.018385 0.247273 -0.801819
v 0.000000 -0.153857 -0.854288
v 0.000000 0.246143 -0.794288
v -0.018385 -0.152727 -0.861819
v -0.018385 0.247273 -0.801819
v -0.026000 -0.150000 -0.880000
v -0.026000 0.250000 -0.820000
v -0.018385 -0.147273 -0.898181
v -0.018385 0.252727 -0.838181
v -0.026867 -0.582477 -0.889457
v -0.111867 -0.332477 -0.409457
v -0.012412 -0.585415 -0.885367
v -0.097412 -0.335415 -0.405367
v -0.005331 -0.596897 -0.878133
v -0.090331 -0.346897 -0.398133
v -0.009772 -0.610197 -0.871992
v -0.094772 -0.360197 -0.391993
v -0.023133 -0.617523 -0.870543
v -0.108133 -0.367523 -0.390543
v -0.037588 -0.614585 -0.874633
v -0.122588 -0.364585 -0.394633
v -0.044669 -0.603103 -0.881867
v -0.129669 -0.353103 -0.401867
v -0.040228 -0.589803 -0.888007
v -0.125228 -0.339803 -0.408008
v -0.110000 -0.349201 -0.419984
v -0.110000 0.150799 -0.399984
v -0.095858 -0.349435 -0.414131
v -0.095858 0.150565 -0.394131
v -0.090000 -0.350000 -0.400000
v -0.090000 0.150000 -0.380000
v -0.095858 -0.350565 -0.385869
v -0.095858 0.149435 -0.365869
v -0.110000 -0.350799 -0.380016
v -0.110000 0.149201 -0.360016
v -0.124142 -0.350565 -0.385869
v -0.124142 0.149435 -0.365869
v -0.130000 -0.350000 -0.400000
v -0.130000 0.150000 -0.380000
v -0.124142 -0.349435 -0.414131
v -0.124142 0.150565 -0.394131
v -0.111254 0.141904 -0.398245
v -0.061254 0.291904 -0.468245
v -0.097378 0.140186 -0.392015
v -0.047378 0.290186 -0.462015
v -0.090895 0.144217 -0.378746
v -0.040895 0.294217 -0.448746
v -0.095605 0.151636 -0.366212
v -0.045605 0.301636 -0.436212
v -0.108746 0.158096 -0.361755
v -0.058746 0.308096 -0.431755
v -0.122622 0.159814 -0.367985
v -0.072622 0.309814 -0.437985
v -0.129105 0.155783 -0.381254
v -0.079105 0.305783 -0.451254
v -0.124395 0.148364 -0.393788
v -0.074395 0.298364 -0.463788
v -0.063578 0.280431 -0.447936
v -0.003578 0.230431 -0.817936
v -0.048798 0.283919 -0.446010
v 0.011202 0.233919 -0.816010
v -0.040580 0.296827 -0.446422
v 0.019420 0.246827 -0.816422
v -0.043738 0.311593 -0.448930
v 0.016262 0.261593 -0.818930
v -0.056422 0.319569 -0.452064
v 0.003578 0.269569 -0.822064
v -0.071202 0.316081 -0.453990
v -0.011202 0.266081 -0.823990
v -0.079420 0.303173 -0.453578
v -0.019420 0.253173 -0.823578
v -0.076262 0.288407 -0.451070
v -0.016262 0.238407 -0.821070
v 0.000251 0.248284 -0.837916
v -0.089749 0.548284 -0.867916
v 0.012373 0.252427 -0.832846
v -0.077627 0.552427 -0.862846
v 0.017246 0.255149 -0.820251
v -0.072754 0.555149 -0.850251
v 0.012017 0.254854 -0.807509
v -0.077983 0.554854 -0.837509
v -0.000251 0.251716 -0.802084
v -0.090251 0.551716 -0.832084
v -0.012373 0.247573 -0.807154
v -0.102373 0.547573 -0.837154
v -0.017246 0.244851 -0.819749
v -0.107246 0.544851 -0.849749
v -0.012017 0.245146 -0.832491
v -0.102017 0.545146 -0.862491
v -0.090015 0.548974 -0.867971
v -0.080015 0.898974 -0.887971
v -0.077288 0.548911 -0.862697
v -0.067288 0.898911 -0.882697
v -0.072007 0.549487 -0.849985
v -0.062007 0.899487 -0.869985
v -0.077267 0.550363 -0.837282
v -0.067267 0.900363 -0.857282
v -0.089985 0.551027 -0.832029
v -0.079985 0.901026 -0.852029
v -0.102712 0.551089 -0.837303
v -0.092712 0.901089 -0.857303
v -0.107993 0.550513 -0.850015
v -0.097993 0.900513 -0.870015
v -0.102733 0.549637 -0.862718
v -0.092733 0.899637 -0.882718
v -0.059438 0.286459 -0.458505
v -0.089438 0.536459 -0.858505
v -0.048319 0.291143 -0.456411
v -0.078319 0.541143 -0.856411
v -0.044042 0.301016 -0.450562
v -0.074042 0.551016 -0.850562
v -0.049114 0.310293 -0.444384
v -0.079114 0.560293 -0.844383
v -0.060562 0.313541 -0.441495
v -0.090562 0.563541 -0.841495
v -0.071681 0.308857 -0.443589
v -0.101681 0.558857 -0.843589
v -0.075958 0.298984 -0.449438
v -0.105958 0.548984 -0.849438
v -0.070886 0.289707 -0.455616
v -0.100886 0.539707 -0.855616
v -0.060077 0.304291 -0.473613
v -0.080077 0.854290 -0.373613
v -0.043095 0.303641 -0.466642
v -0.063095 0.853641 -0.366642
v -0.036015 0.300858 -0.449923
v -0.056015 0.850858 -0.349923
v -0.042986 0.297573 -0.433248
v -0.062986 0.847573 -0.333248
v -0.059923 0.295710 -0.426387
v -0.079923 0.845710 -0.326387
v -0.076905 0.296359 -0.433358
v -0.096905 0.846359 -0.333358
v -0.083985 0.299142 -0.450077
v -0.103985 0.849142 -0.350077
v -0.077014 0.302427 -0.466752
v -0.097014 0.852427 -0.366752
v -0.090000 0.568807 -0.856803
v -0.090000 0.738807 -0.386803
v -0.075858 0.563299 -0.854810
v -0.075858 0.733299 -0.384810
v -0.070000 0.550000 -0.850000
v -0.070000 0.720000 -0.380000
v -0.075858 0.536701 -0.845190
v -0.075858 0.706701 -0.375190
v -0.090000 0.531192 -0.843197
v -0.090000 0.701192 -0.373197
v -0.104142 0.536701 -0.845190
v -0.104142 0.706701 -0.375190
v -0.110000 0.550000 -0.850000
v -0.110000 0.720000 -0.380000
v -0.104142 0.563299 -0.854810
v -0.104142 0.733299 -0.384810
v 0.026867 -0.582477 -0.889457
v 0.111867 -0.332477 -0.409457
v 0.040228 -0.589803 -0.888007
v 0.125228 -0.339803 -0.408008
v 0.044669 -0.603103 -0.881867
v 0.129669 -0.353103 -0.401867
v 0.037588 -0.614585 -0.874633
v 0.122588 -0.364585 -0.394633
v 0.023133 -0.617523 -0.870543
v 0.108133 -0.367523 -0.390543
v 0.009772 -0.610197 -0.871992
v 0.094772 -0.360197 -0.391993
v 0.005331 -0.596897 -0.878133
v 0.090331 -0.346897 -0.398133
v 0.012412 -0.585415 -0.885367
v 0.097412 -0.335415 -0.405367
v 0.110000 -0.349201 -0.419984
v 0.110000 0.150799 -0.399984
v 0.124142 -0.349435 -0.414131
v 0.124142 0.150565 -0.394131
v 0.130000 -0.350000 -0.400000
v 0.130000 0.150000 -0.380000
v 0.124142 -0.350565 -0.385869
v 0.124142 0.149435 -0.365869
v 0.110000 -0.350799 -0.380016
v 0.110000 0.149201 -0.360016
v 0.095858 -0.350565 -0.385869
v 0.095858 0.149435 -0.365869
v 0.090000 -0.350000 -0.400000
v 0.090000 0.150000 -0.380000
v 0.095858 -0.349435 -0.414131
v 0.095858 0.150565 -0.394131
v 0.111254 0.141904 -0.398245
v 0.061254 0.291904 -0.468245
v 0.124395 0.148364 -0.393788
v 0.074395 0.298364 -0.463788
v 0.129105 0.155783 -0.381254
v 0.079105 0.305783 -0.451254
v 0.122622 0.159814 -0.367985
v 0.072622 0.309814 -0.437985
v 0.108746 0.158096 -0.361755
v 0.058746 0.308096 -0.431755
v 0.095605 0.151636 -0.366212
v 0.045605 0.301636 -0.436212
v 0.090895 0.144217 -0.378746
v 0.040895 0.294217 -0.448746
v 0.097378 0.140186 -0.392015
v 0.047378 0.290186 -0.462015
v 0.063578 0.280431 -0.447936
v 0.003578 0.230431 -0.817936
v 0.076262 0.288407 -0.451070
v 0.016262 0.238407 -0.821070
v 0.079420 0.303173 -0.453578
v 0.019420 0.253173 -0.823578
v 0.071202 0.316081 -0.453990
v 0.011202 0.266081 -0.823990
v 0.056422 0.319569 -0.452064
v -0.003578 0.269569 -0.822064
v 0.043738 0.311593 -0.448930
v -0.016262 0.261593 -0.818930
v 0.040580 0.296827 -0.446422
v -0.019420 0.246827 -0.816422
v 0.048798 0.283919 -0.446010
v -0.011202 0.233919 -0.816010
v -0.000251 0.248284 -0.837916
v 0.089749 0.548284 -0.867916
v 0.012017 0.245146 -0.832491
v 0.102017 0.545146 -0.862491
v 0.017246 0.244851 -0.819749
v 0.107246 0.544851 -0.849749
v 0.012373 0.247573 -0.807154
v 0.102373 0.547573 -0.837154
v 0.000251 0.251716 -0.802084
v 0.090251 0.551716 -0.832084
v -0.012017 0.254854 -0.807509
v 0.077983 0.554854 -0.837509
v -0.017246 0.255149 -0.820251
v 0.072754 0.555149 -0.850251
v -0.012373 0.252427 -0.832846
v 0.077627 0.552427 -0.862846
v 0.090015 0.548974 -0.867971
v 0.080015 0.898974 -0.887971
v 0.102733 0.549637 -0.862718
v 0.092733 0.899637 -0.882718
v 0.107993 0.550513 -0.850015
v 0.097993 0.900513 -0.870015
v 0.102712 0.551089 -0.837303
v 0.092712 0.901089 -0.857303
v 0.089985 0.551027 -0.832029
v 0.079985 0.901026 -0.852029
v 0.077267 0.550363 -0.837282
v 0.067267 0.900363 -0.857282
v 0.072007 0.549487 -0.849985
v 0.062007 0.899487 -0.869985
v 0.077288 0.548911 -0.862697
v 0.067288 0.898911 -0.882697
v 0.059438 0.286459 -0.458505
v 0.089438 0.536459 -0.858505
v 0.070886 0.289707 -0.455616
v 0.100886 0.539707 -0.855616
v 0.075958 0.298984 -0.449438
v 0.105958 0.548984 -0.849438
v 0.071681 0.308857 -0.443589
v 0.101681 0.558857 -0.843589
v 0.060562 0.313541 -0.441495
v 0.090562 0.563541 -0.841495
v 0.049114 0.310293 -0.444384
v 0.079114 0.560293 -0.844383
v 0.044042 0.301016 -0.450562
v 0.074042 0.551016 -0.850562
v 0.048319 0.291143 -0.456411
v 0.078319 0.541143 -0.856411
v 0.060077 0.304291 -0.473613
v 0.080077 0.854290 -0.373613
v 0.077014 0.302427 -0.466752
v 0.097014 0.852427 -0.366752
v 0.083985 0.299142 -0.450077
v 0.103985 0.849142 -0.350077
v 0.076905 0.296359 -0.433358
v 0.096905 0.846359 -0.333358
v 0.059923 0.295710 -0.426387
v 0.079923 0.845710 -0.326387
v 0.042986 0.297573 -0.433248
v 0.062986 0.847573 -0.333248
v 0.036015 0.300858 -0.449923
v 0.056015 0.850858 -0.349923
v 0.043095 0.303641 -0.466642
v 0.063095 0.853641 -0.366642
v 0.090000 0.568807 -0.856803
v 0.090000 0.738807 -0.386803
v 0.104142 0.563299 -0.854810
v 0.104142 0.733299 -0.384810
v 0.110000 0.550000 -0.850000
v 0.110000 0.720000 -0.380000
v 0.104142 0.536701 -0.845190
v 0.104142 0.706701 -0.375190
v 0.090000 0.531192 -0.843197
v 0.090000 0.701192 -0.373197
v 0.075858 0.536701 -0.845190
v 0.075858 0.706701 -0.375190
v 0.070000 0.550000 -0.850000
v 0.070000 0.720000 -0.380000
v 0.075858 0.563299 -0.854810
v 0.075858 0.733299 -0.384810
v -0.080000 0.900000 -0.888000
v 0.080000 0.900000 -0.888000
v -0.080000 0.887272 -0.882728
v 0.080000 0.887272 -0.882728
v -0.080000 0.882000 -0.870000
v 0.080000 0.882000 -0.870000
v -0.080000 0.887272 -0.857272
v 0.080000 0.887272 -0.857272
v -0.080000 0.900000 -0.852000
v 0.080000 0.900000 -0.852000
v -0.080000 0.912728 -0.857272
v 0.080000 0.912728 -0.857272
v -0.080000 0.918000 -0.870000
v 0.080000 0.918000 -0.870000
v -0.080000 0.912728 -0.882728
v 0.080000 0.912728 -0.882728
vn 0.8729 0.4786 -0.0947
vn 0.3827 -0.8263 -0.4132
vn -0.3827 -0.3614 0.8503
vn 0.9239 0.1497 -0.3522
vn 0.9239 -0.3423 -0.1711
vn 0.3827 -0.3614 0.8503
vn 0.5369 0.8432 -0.0269
vn 0.9239 0.3423 0.1711
vn 0.4235 0.2633 0.8668
vn 0.3076 -0.4847 -0.8188
vn 0.3827 0.8263 0.4132
vn -0.2901 -0.8689 0.4012
vn 0.3827 0.3614 -0.8503
vn -0.3827 0.8263 0.4132
vn 0.9239 -0.1497 0.3522
vn 0.2901 0.8689 -0.4012
vn -0.9239 0.3423 0.1711
vn -0.0000 0.4472 -0.8944
vn 0.4626 -0.7501 0.4726
vn -0.9239 -0.3423 -0.1711
vn 0.3827 0.1370 -0.9137
vn 0.3827 -0.1370 0.9137
vn -0.3827 -0.8263 -0.4132
vn -0.0000 -0.4472 0.8944
vn 0.2063 -0.9647 0.1638
vn 0.9239 -0.0568 0.3784
vn -0.9239 -0.1497 0.3522
vn 0.3538 0.1976 0.9142
vn -0.0000 -0.9203 -0.3911
vn -0.9239 0.1497 -0.3522
vn 0.9239 0.0568 -0.3784
vn -0.3827 -0.1370 0.9137
vn -0.3827 0.3614 -0.8503
vn -0.0000 0.9203 0.3911
vn 0.9443 -0.1920 0.2672
vn 0.3833 0.0418 0.9227
vn -0.9239 -0.0568 0.3784
vn -0.0000 0.9889 0.1483
vn 0.3796 0.0214 -0.9249
vn -0.9239 0.0568 -0.3784
vn 0.3827 0.0369 -0.9231
vn 0.3827 -0.0369 0.9231
vn -0.3827 0.1370 -0.9137
vn -0.0000 -0.9889 -0.1483
vn 0.3492 0.8062 0.4777
vn 0.9239 -0.0153 0.3824
vn -0.8729 -0.4786 0.0947
vn 0.3818 -0.0636 -0.9221
vn 0.1552 -0.4563 -0.8762
vn -0.9443 0.1920 -0.2672
vn 0.9239 0.0153 -0.3824
vn -0.3827 -0.0369 0.9231
vn -0.4626 0.7501 -0.4726
vn -0.1552 0.4563 0.8762
vn 0.3854 -0.1515 0.9102
vn 0.9065 -0.1122 0.4070
vn -0.9239 -0.0153 0.3824
vn 0.4141 -0.7576 -0.5045
vn -0.0000 -0.9992 -0.0400
vn -0.9239 0.0153 -0.3824
vn 0.8585 -0.4221 -0.2912
vn -0.3076 0.4847 0.8188
vn -0.3827 0.0369 -0.9231
vn -0.0000 0.9992 0.0400
vn 0.3827 -0.8688 0.3142
vn 0.9655 0.2278 0.1258
vn -0.8585 0.4221 0.2912
vn 0.3795 0.1788 -0.9078
vn -0.2892 -0.8675 0.4048
vn -0.9065 0.1122 -0.4070
vn 0.8286 -0.5210 0.2048
vn -0.2063 0.9647 -0.1638
vn -0.4235 -0.2633 -0.8668
vn 0.2892 0.8675 -0.4048
vn 0.2901 -0.8689 0.4012
vn 0.8798 0.3008 0.3680
vn -0.8286 0.5210 -0.2048
vn 0.3827 0.8688 -0.3142
vn -0.1587 0.1322 0.9784
vn -0.9655 -0.2278 -0.1258
vn 0.8905 0.2278 -0.3938
vn -0.3796 -0.0214 0.9249
vn -0.5369 -0.8432 0.0269
vn 0.1587 -0.1322 -0.9784
vn 0.9238 -0.0045 0.3828
vn -0.8905 -0.2278 0.3938
vn 0.4626 0.7501 -0.4726
vn 0.2860 -0.9535 0.0953
vn -0.8798 -0.3007 -0.3680
vn 0.9232 -0.0482 -0.3813
vn -0.3818 0.0636 0.9221
vn -0.3538 -0.1976 -0.9142
vn -0.2860 0.9535 -0.0953
vn 0.3076 0.4847 0.8188
vn 0.9080 0.3825 0.1710
vn -0.9232 0.0482 0.3813
vn -0.0285 -0.9980 0.0570
vn -0.9238 0.0045 -0.3828
vn 0.9349 -0.2652 -0.2359
vn -0.4141 0.7576 0.5045
vn -0.3833 -0.0418 -0.9227
vn 0.0285 0.9980 -0.0570
vn 0.2063 0.9647 -0.1638
vn 0.9245 -0.0354 0.3795
vn -0.9349 0.2652 0.2359
vn 0.4235 -0.2633 -0.8668
vn 0.0635 -0.5289 0.8463
vn -0.9080 -0.3825 -0.1710
vn 0.9221 0.1014 -0.3735
vn -0.3795 -0.1788 0.9078
vn -0.3492 -0.8062 -0.4777
vn -0.0635 0.5289 -0.8463
vn 0.3796 -0.0214 0.9249
vn 0.9239 -0.3599 0.1302
vn -0.9221 -0.1014 0.3735
vn 0.5369 -0.8432 0.0269
vn 0.0358 -0.9832 -0.1788
vn -0.9245 0.0354 -0.3795
vn 0.9239 0.3599 -0.1302
vn -0.3827 -0.8688 0.3142
vn -0.3854 0.1515 -0.9102
vn -0.0358 0.9832 0.1788
vn 0.3818 0.0636 0.9221
vn 0.8729 -0.4786 0.0947
vn -0.9239 -0.3599 0.1302
vn 0.3538 -0.1976 -0.9142
vn -0.0000 -0.3401 -0.9404
vn -0.9239 0.3599 -0.1302
vn 0.9443 0.1920 -0.2672
vn -0.4626 -0.7501 0.4726
vn -0.3827 0.8688 -0.3142
vn -0.0000 0.3401 0.9404
vn 0.4141 0.7576 0.5045
vn -0.9443 -0.1920 0.2672
vn 0.3833 -0.0418 -0.9227
vn -0.1552 -0.4563 -0.8762
vn -0.8729 0.4786 -0.0947
vn -0.2901 0.8689 -0.4012
vn 0.1552 0.4563 0.8762
vn 0.3795 -0.1788 0.9078
vn 0.8585 0.4221 0.2912
vn 0.3492 -0.8062 -0.4777
vn 0.9065 0.1122 -0.4070
vn -0.4235 0.2633 0.8668
vn 0.8286 0.5210 -0.2048
vn -0.9065 -0.1122 0.4070
vn 0.3854 0.1515 -0.9102
vn 0.2892 -0.8675 0.4048
vn -0.8585 -0.4221 -0.2912
vn 0.9655 -0.2278 -0.1258
vn -0.5369 0.8432 -0.0269
vn -0.3076 -0.4847 -0.8188
vn -0.2892 0.8675 -0.4048
vn -0.0000 -0.3827 0.9239
vn 0.8905 -0.2278 0.3938
vn -0.9655 0.2278 0.1258
vn 0.1587 0.1322 0.9784
vn -0.8286 -0.5210 0.2048
vn 0.8798 -0.3007 -0.3680
vn -0.3538 0.1976 0.9142
vn -0.2063 -0.9647 0.1638
vn -0.1587 -0.1322 -0.9784
vn 0.9232 0.0482 0.3813
vn -0.8798 0.3008 0.3680
vn -0.0000 -0.3827 -0.9239
vn -0.2860 -0.9535 0.0953
vn -0.8905 0.2278 -0.3938
vn 0.9238 0.0045 -0.3828
vn -0.3833 0.0418 0.9227
vn -0.3796 0.0214 -0.9249
vn 0.2860 0.9535 -0.0953
vn 0.9349 0.2652 0.2359
vn -0.9238 -0.0045 0.3828
vn 0.0285 -0.9980 0.0570
vn -0.9232 -0.0482 -0.3813
vn 0.9080 -0.3825 -0.1710
vn -0.3492 0.8062 0.4777
vn -0.3818 -0.0636 -0.9221
vn -0.0285 0.9980 -0.0570
vn 0.9221 -0.1014 0.3735
vn -0.9080 0.3825 0.1710
vn -0.0635 -0.5289 0.8463
vn -0.9349 -0.2652 -0.2359
vn 0.9245 0.0354 -0.3795
vn -0.3854 -0.1515 0.9102
vn -0.4141 -0.7576 -0.5045
vn 0.0635 0.5289 -0.8463
vn -0.9245 -0.0354 0.3795
vn -0.0358 -0.9832 -0.1788
vn -0.9221 0.1014 -0.3735
vn -0.3795 0.1788 -0.9078
vn 0.0358 0.9832 0.1788
vn -0.0000 -0.9239 0.3827
vn -0.0000 -0.9239 -0.3827
vn -0.0000 0.3827 0.9239
vn -0.0000 0.9239 0.3827
vn -1.0000 -0.0000 -0.0000
vn -0.0000 0.9239 -0.3827
vn -0.0000 0.3827 -0.9239
vn 1.0000 -0.0000 -0.0000
s 0
f 51//1 52//1 54//1 53//1
f 1//2 2//2 4//2 3//2
f 25//3 26//3 28//3 27//3
f 19//4 20//4 22//4 21//4
f 3//5 4//5 6//5 5//5
f 23//6 24//6 26//6 25//6
f 103//7 104//7 106//7 105//7
f 5//8 6//8 8//8 7//8
f 87//9 88//9 90//9 89//9
f 81//10 82//10 84//10 83//10
f 7//11 8//11 10//11 9//11
f 57//12 58//12 60//12 59//12
f 17//13 18//13 20//13 19//13
f 9//14 10//14 12//14 11//14
f 21//15 22//15 24//15 23//15
f 49//16 50//16 52//16 51//16
f 11//17 12//17 14//17 13//17
f 4//18 2//18 16//18 14//18 12//18 10//18 8//18 6//18
f 55//19 56//19 58//19 57//19
f 13//20 14//20 16//20 15//20
f 33//21 34//21 36//21 35//21
f 39//22 40//22 42//22 41//22
f 15//23 16//23 2//23 1//23
f 1//24 3//24 5//24 7//24 9//24 11//24 13//24 15//24
f 97//25 98//25 100//25 99//25
f 37//26 38//26 40//26 39//26
f 27//27 28//27 30//27 29//27
f 119//28 120//28 122//28 121//28
f 21//29 23//29 25//29 27//29 29//29 31//29 17//29 19//29
f 29//30 30//30 32//30 31//30
f 35//31 36//31 38//31 37//31
f 41//32 42//32 44//32 43//32
f 31//33 32//33 18//33 17//33
f 28//34 26//34 24//34 22//34 20//34 18//34 32//34 30//34
f 53//35 54//35 56//35 55//35
f 135//36 136//36 138//36 137//36
f 43//37 44//37 46//37 45//37
f 38//38 36//38 34//38 48//38 46//38 44//38 42//38 40//38
f 113//39 114//39 116//39 115//39
f 45//40 46//40 48//40 47//40
f 65//41 66//41 68//41 67//41
f 71//42 72//42 74//42 73//42
f 47//43 48//43 34//43 33//43
f 39//44 41//44 43//44 45//44 47//44 33//44 35//44 37//44
f 151//45 152//45 154//45 153//45
f 69//46 70//46 72//46 71//46
f 59//47 60//47 62//47 61//47
f 129//48 130//48 132//48 131//48
f 55//49 57//49 59//49 61//49 63//49 49//49 51//49 53//49
f 61//50 62//50 64//50 63//50
f 67//51 68//51 70//51 69//51
f 73//52 74//52 76//52 75//52
f 63//53 64//53 50//53 49//53
f 58//54 56//54 54//54 52//54 50//54 64//54 62//54 60//54
f 167//55 168//55 170//55 169//55
f 85//56 86//56 88//56 87//56
f 75//57 76//57 78//57 77//57
f 145//58 146//58 148//58 147//58
f 67//59 69//59 71//59 73//59 75//59 77//59 79//59 65//59
f 77//60 78//60 80//60 79//60
f 83//61 84//61 86//61 85//61
f 89//62 90//62 92//62 91//62
f 79//63 80//63 66//63 65//63
f 74//64 72//64 70//64 68//64 66//64 80//64 78//64 76//64
f 183//65 184//65 186//65 185//65
f 101//66 102//66 104//66 103//66
f 91//67 92//67 94//67 93//67
f 161//68 162//68 164//68 163//68
f 89//69 91//69 93//69 95//69 81//69 83//69 85//69 87//69
f 93//70 94//70 96//70 95//70
f 99//71 100//71 102//71 101//71
f 105//72 106//72 108//72 107//72
f 95//73 96//73 82//73 81//73
f 90//74 88//74 86//74 84//74 82//74 96//74 94//74 92//74
f 199//75 200//75 202//75 201//75
f 117//76 118//76 120//76 119//76
f 107//77 108//77 110//77 109//77
f 177//78 178//78 180//78 179//78
f 99//79 101//79 103//79 105//79 107//79 109//79 111//79 97//79
f 109//80 110//80 112//80 111//80
f 115//81 116//81 118//81 117//81
f 121//82 122//82 124//82 123//82
f 111//83 112//83 98//83 97//83
f 106//84 104//84 102//84 100//84 98//84 112//84 110//84 108//84
f 215//42 216//42 218//42 217//42
f 133//85 134//85 136//85 135//85
f 123//86 124//86 126//86 125//86
f 193//87 194//87 196//87 195//87
f 115//88 117//88 119//88 121//88 123//88 125//88 127//88 113//88
f 125//89 126//89 128//89 127//89
f 131//90 132//90 134//90 133//90
f 137//91 138//91 140//91 139//91
f 127//92 128//92 114//92 113//92
f 122//93 120//93 118//93 116//93 114//93 128//93 126//93 124//93
f 231//94 232//94 234//94 233//94
f 149//95 150//95 152//95 151//95
f 139//96 140//96 142//96 141//96
f 209//41 210//41 212//41 211//41
f 131//97 133//97 135//97 137//97 139//97 141//97 143//97 129//97
f 141//98 142//98 144//98 143//98
f 147//99 148//99 150//99 149//99
f 153//100 154//100 156//100 155//100
f 143//101 144//101 130//101 129//101
f 138//102 136//102 134//102 132//102 130//102 144//102 142//102 140//102
f 247//103 248//103 250//103 249//103
f 165//104 166//104 168//104 167//104
f 155//105 156//105 158//105 157//105
f 225//106 226//106 228//106 227//106
f 147//107 149//107 151//107 153//107 155//107 157//107 159//107 145//107
f 157//108 158//108 160//108 159//108
f 163//109 164//109 166//109 165//109
f 169//110 170//110 172//110 171//110
f 159//111 160//111 146//111 145//111
f 154//112 152//112 150//112 148//112 146//112 160//112 158//112 156//112
f 263//113 264//113 266//113 265//113
f 181//114 182//114 184//114 183//114
f 171//115 172//115 174//115 173//115
f 241//116 242//116 244//116 243//116
f 163//117 165//117 167//117 169//117 171//117 173//117 175//117 161//117
f 173//118 174//118 176//118 175//118
f 179//119 180//119 182//119 181//119
f 185//120 186//120 188//120 187//120
f 175//121 176//121 162//121 161//121
f 170//122 168//122 166//122 164//122 162//122 176//122 174//122 172//122
f 279//123 280//123 282//123 281//123
f 197//124 198//124 200//124 199//124
f 187//125 188//125 190//125 189//125
f 257//126 258//126 260//126 259//126
f 179//127 181//127 183//127 185//127 187//127 189//127 191//127 177//127
f 189//128 190//128 192//128 191//128
f 195//129 196//129 198//129 197//129
f 201//130 202//130 204//130 203//130
f 191//131 192//131 178//131 177//131
f 186//132 184//132 182//132 180//132 178//132 192//132 190//132 188//132
f 295//133 296//133 298//133 297//133
f 213//46 214//46 216//46 215//46
f 203//134 204//134 206//134 205//134
f 273//135 274//135 276//135 275//135
f 195//136 197//136 199//136 201//136 203//136 205//136 207//136 193//136
f 205//137 206//137 208//137 207//137
f 211//51 212//51 214//51 213//51
f 217//52 218//52 220//52 219//52
f 207//138 208//138 194//138 193//138
f 202//139 200//139 198//139 196//139 194//139 208//139 206//139 204//139
f 311//140 312//140 314//140 313//140
f 229//141 230//141 232//141 231//141
f 219//57 220//57 222//57 221//57
f 289//142 290//142 292//142 291//142
f 211//59 213//59 215//59 217//59 219//59 221//59 223//59 209//59
f 221//60 222//60 224//60 223//60
f 227//143 228//143 230//143 229//143
f 233//144 234//144 236//144 235//144
f 223//63 224//63 210//63 209//63
f 218//64 216//64 214//64 212//64 210//64 224//64 222//64 220//64
f 327//65 328//65 330//65 329//65
f 245//145 246//145 248//145 247//145
f 235//146 236//146 238//146 237//146
f 305//147 306//147 308//147 307//147
f 227//148 229//148 231//148 233//148 235//148 237//148 239//148 225//148
f 237//149 238//149 240//149 239//149
f 243//150 244//150 246//150 245//150
f 249//151 250//151 252//151 251//151
f 239//152 240//152 226//152 225//152
f 234//153 232//153 230//153 228//153 226//153 240//153 238//153 236//153
f 343//154 344//154 346//154 345//154
f 261//155 262//155 264//155 263//155
f 251//156 252//156 254//156 253//156
f 321//78 322//78 324//78 323//78
f 243//157 245//157 247//157 249//157 251//157 253//157 255//157 241//157
f 253//158 254//158 256//158 255//158
f 259//159 260//159 262//159 261//159
f 265//160 266//160 268//160 267//160
f 255//161 256//161 242//161 241//161
f 250//162 248//162 246//162 244//162 242//162 256//162 254//162 252//162
f 277//163 278//163 280//163 279//163
f 267//164 268//164 270//164 269//164
f 337//165 338//165 340//165 339//165
f 259//166 261//166 263//166 265//166 267//166 269//166 271//166 257//166
f 269//167 270//167 272//167 271//167
f 275//168 276//168 278//168 277//168
f 281//169 282//169 284//169 283//169
f 271//170 272//170 258//170 257//170
f 266//171 264//171 262//171 260//171 258//171 272//171 270//171 268//171
f 293//172 294//172 296//172 295//172
f 283//173 284//173 286//173 285//173
f 275//174 277//174 279//174 281//174 283//174 285//174 287//174 273//174
f 285//175 286//175 288//175 287//175
f 291//176 292//176 294//176 293//176
f 297//177 298//177 300//177 299//177
f 287//178 288//178 274//178 273//178
f 282//179 280//179 278//179 276//179 274//179 288//179 286//179 284//179
f 309//180 310//180 312//180 311//180
f 299//181 300//181 302//181 301//181
f 291//182 293//182 295//182 297//182 299//182 301//182 303//182 289//182
f 301//183 302//183 304//183 303//183
f 307//184 308//184 310//184 309//184
f 313//185 314//185 316//185 315//185
f 303//186 304//186 290//186 289//186
f 298//187 296//187 294//187 292//187 290//187 304//187 302//187 300//187
f 325//114 326//114 328//114 327//114
f 315//188 316//188 318//188 317//188
f 307//189 309//189 311//189 313//189 315//189 317//189 319//189 305//189
f 317//190 318//190 320//190 319//190
f 323//119 324//119 326//119 325//119
f 329//120 330//120 332//120 331//120
f 319//191 320//191 306//191 305//191
f 314//192 312//192 310//192 308//192 306//192 320//192 318//192 316//192
f 341//193 342//193 344//193 343//193
f 331//125 332//125 334//125 333//125
f 323//127 325//127 327//127 329//127 331//127 333//127 335//127 321//127
f 333//128 334//128 336//128 335//128
f 339//194 340//194 342//194 341//194
f 345//195 346//195 348//195 347//195
f 335//131 336//131 322//131 321//131
f 330//132 328//132 326//132 324//132 322//132 336//132 334//132 332//132
f 347//196 348//196 350//196 349//196
f 339//197 341//197 343//197 345//197 347//197 349//197 351//197 337//197
f 349//198 350//198 352//198 351//198
f 351//199 352//199 338//199 337//199
f 346//200 344//200 342//200 340//200 338//200 352//200 350//200 348//200
