# Blender 4.3.2
# www.blender.org
o Headlight
v 0.000000 -0.782000 -0.940000
v 0.000000 -0.765000 -1.020000
v 0.035578 -0.773879 -0.940000
v 0.028202 -0.758563 -1.020000
v 0.064110 -0.751126 -0.940000
v 0.050819 -0.740527 -1.020000
v 0.079944 -0.718247 -0.940000
v 0.063370 -0.714464 -1.020000
v 0.079944 -0.681753 -0.940000
v 0.063370 -0.685536 -1.020000
v 0.064110 -0.648874 -0.940000
v 0.050819 -0.659473 -1.020000
v 0.035578 -0.626121 -0.940000
v 0.028202 -0.641437 -1.020000
v 0.000000 -0.618000 -0.940000
v 0.000000 -0.635000 -1.020000
v -0.035578 -0.626121 -0.940000
v -0.028202 -0.641437 -1.020000
v -0.064110 -0.648874 -0.940000
v -0.050819 -0.659473 -1.020000
v -0.079944 -0.681753 -0.940000
v -0.063370 -0.685536 -1.020000
v -0.079944 -0.718247 -0.940000
v -0.063370 -0.714464 -1.020000
v -0.064110 -0.751126 -0.940000
v -0.050819 -0.740527 -1.020000
v -0.035578 -0.773879 -0.940000
v -0.028202 -0.758563 -1.020000
v -0.075000 -0.700000 -1.024000
v 0.075000 -0.700000 -1.024000
v -0.075000 -0.704000 -1.020000
v 0.075000 -0.704000 -1.020000
v -0.075000 -0.700000 -1.016000
v 0.075000 -0.700000 -1.016000
v -0.075000 -0.696000 -1.020000
v 0.075000 -0.696000 -1.020000
v 0.000000 -0.775000 -1.024000
v 0.000000 -0.625000 -1.024000
v 0.004000 -0.775000 -1.020000
v 0.004000 -0.625000 -1.020000
v 0.000000 -0.775000 -1.016000
v 0.000000 -0.625000 -1.016000
v -0.004000 -0.775000 -1.020000
v -0.004000 -0.625000 -1.020000
vn 1.0000 -0.0000 -0.0000
vn 0.2179 -0.9547 -0.2029
vn -0.0000 0.7071 -0.7071
vn 0.6105 -0.7656 -0.2029
vn -0.0000 1.0000 -0.0000
vn 0.8822 -0.4249 -0.2029
vn 0.9792 -0.0000 -0.2029
vn -0.0000 0.7071 0.7071
vn 0.8822 0.4249 -0.2029
vn -1.0000 -0.0000 -0.0000
vn 0.6105 0.7656 -0.2029
vn 0.2179 0.9547 -0.2029
vn -0.0000 -1.0000 -0.0000
vn -0.0000 -0.7071 0.7071
vn -0.2179 0.9547 -0.2029
vn -0.7071 -0.0000 -0.7071
vn -0.6105 0.7656 -0.2029
vn -0.8822 0.4249 -0.2029
vn -0.0000 -0.7071 -0.7071
vn -0.9792 -0.0000 -0.2029
vn -0.7071 -0.0000 0.7071
vn 0.7071 -0.0000 0.7071
vn -0.8822 -0.4249 -0.2029
vn -0.0000 -0.0000 -1.0000
vn 0.7071 -0.0000 -0.7071
vn -0.6105 -0.7656 -0.2029
vn -0.2179 -0.9547 -0.2029
vn -0.0000 -0.0000 1.0000
s 0
f 30//1 36//1 34//1 32//1
f 1//2 2//2 4//2 3//2
f 35//3 36//3 30//3 29//3
f 3//4 4//4 6//4 5//4
f 40//5 38//5 44//5 42//5
f 5//6 6//6 8//6 7//6
f 7//7 8//7 10//7 9//7
f 33//8 34//8 36//8 35//8
f 9//9 10//9 12//9 11//9
f 35//10 29//10 31//10 33//10
f 11//11 12//11 14//11 13//11
f 13//12 14//12 16//12 15//12
f 41//13 43//13 37//13 39//13
f 31//14 32//14 34//14 33//14
f 15//15 16//15 18//15 17//15
f 43//16 44//16 38//16 37//16
f 17//17 18//17 20//17 19//17
f 19//18 20//18 22//18 21//18
f 29//19 30//19 32//19 31//19
f 21//20 22//20 24//20 23//20
f 41//21 42//21 44//21 43//21
f 39//22 40//22 42//22 41//22
f 23//23 24//23 26//23 25//23
f 4//24 2//24 28//24 26//24 24//24 22//24 20//24 18//24 16//24 14//24 12//24 10//24 8//24 6//24
f 37//25 38//25 40//25 39//25
f 25//26 26//26 28//26 27//26
f 27//27 28//27 2//27 1//27
f 1//28 3//28 5//28 7//28 9//28 11//28 13//28 15//28 17//28 19//28 21//28 23//28 25//28 27//28
