# Blender 4.3.2
# www.blender.org
o Tank
v 0.100000 -0.520000 -0.980000
v 0.080902 -0.520000 -1.027023
v 0.030902 -0.520000 -1.056085
v -0.030902 -0.520000 -1.056085
v -0.080902 -0.520000 -1.027023
v -0.100000 -0.520000 -0.980000
v -0.080902 -0.520000 -0.949435
v -0.030902 -0.520000 -0.930545
v 0.030902 -0.520000 -0.930545
v 0.080902 -0.520000 -0.949435
v 0.170000 -0.440000 -1.010000
v 0.137533 -0.440000 -1.074656
v 0.052533 -0.440000 -1.114616
v -0.052533 -0.440000 -1.114616
v -0.137533 -0.440000 -1.074656
v -0.170000 -0.440000 -1.010000
v -0.137533 -0.440000 -0.967973
v -0.052533 -0.440000 -0.941999
v 0.052533 -0.440000 -0.941999
v 0.137533 -0.440000 -0.967973
v 0.180000 -0.320000 -1.020000
v 0.145623 -0.320000 -1.084656
v 0.055623 -0.320000 -1.124616
v -0.055623 -0.320000 -1.124616
v -0.145623 -0.320000 -1.084656
v -0.180000 -0.320000 -1.020000
v -0.145623 -0.320000 -0.977973
v -0.055623 -0.320000 -0.951999
v 0.055623 -0.320000 -0.951999
v 0.145623 -0.320000 -0.977973
v 0.136000 -0.180000 -1.000000
v 0.110026 -0.180000 -1.058779
v 0.049443 -0.180000 -1.095106
v -0.049443 -0.180000 -1.095106
v -0.110026 -0.180000 -1.058779
v -0.136000 -0.180000 -1.000000
v -0.110026 -0.180000 -0.961794
v -0.049443 -0.180000 -0.938181
v 0.049443 -0.180000 -0.938181
v 0.110026 -0.180000 -0.961794
v 0.102000 -0.040000 -0.960000
v 0.082520 -0.040000 -1.007023
v 0.037082 -0.040000 -1.036085
v -0.037082 -0.040000 -1.036085
v -0.082520 -0.040000 -1.007023
v -0.102000 -0.040000 -0.960000
v -0.082520 -0.040000 -0.929435
v -0.037082 -0.040000 -0.910545
v 0.037082 -0.040000 -0.910545
v 0.082520 -0.040000 -0.929435
v 0.076500 0.100000 -0.910000
v 0.061890 0.100000 -0.945267
v 0.027812 0.100000 -0.967063
v -0.027812 0.100000 -0.967063
v -0.061890 0.100000 -0.945267
v -0.076500 0.100000 -0.910000
v -0.061890 0.100000 -0.887076
v -0.027812 0.100000 -0.872909
v 0.027812 0.100000 -0.872909
v 0.061890 0.100000 -0.887076
v 0.000000 -0.352500 -1.168000
v 0.000000 -0.327500 -1.168000
v 0.022336 -0.352500 -1.160743
v 0.022336 -0.327500 -1.160743
v 0.036140 -0.352500 -1.141743
v 0.036140 -0.327500 -1.141743
v 0.036140 -0.352500 -1.118257
v 0.036140 -0.327500 -1.118257
v 0.022336 -0.352500 -1.099257
v 0.022336 -0.327500 -1.099257
v 0.000000 -0.352500 -1.092000
v 0.000000 -0.327500 -1.092000
v -0.022336 -0.352500 -1.099257
v -0.022336 -0.327500 -1.099257
v -0.036140 -0.352500 -1.118257
v -0.036140 -0.327500 -1.118257
v -0.036140 -0.352500 -1.141743
v -0.036140 -0.327500 -1.141743
v -0.022336 -0.352500 -1.160743
v -0.022336 -0.327500 -1.160743
vn 0.6675 -0.6778 -0.3082
vn 0.3531 -0.6310 -0.6907
vn -0.0000 -0.5905 -0.8071
vn -0.3531 -0.6310 -0.6907
vn -0.6675 -0.6778 -0.3082
vn -0.7379 -0.4250 0.5242
vn -0.3153 0.0236 0.9487
vn -0.0000 0.1417 0.9899
vn 0.3153 0.0236 0.9487
vn 0.7379 -0.4250 0.5242
vn 0.8835 -0.1046 -0.4567
vn 0.4135 -0.0947 -0.9055
vn -0.0000 -0.0830 -0.9965
vn -0.4135 -0.0947 -0.9055
vn -0.8835 -0.1046 -0.4567
vn -0.7827 -0.0071 0.6224
vn -0.2839 0.0665 0.9565
vn -0.0000 0.0830 0.9965
vn 0.2839 0.0665 0.9565
vn 0.7827 -0.0071 0.6224
vn 0.8538 0.3111 -0.4174
vn 0.4391 0.2369 -0.8667
vn -0.0000 0.2063 -0.9785
vn -0.4391 0.2369 -0.8667
vn -0.8538 0.3111 -0.4174
vn -0.7904 0.1479 0.5945
vn -0.3123 -0.0550 0.9484
vn -0.0000 -0.0982 0.9952
vn 0.3123 -0.0550 0.9484
vn 0.7904 0.1479 0.5945
vn 0.8722 0.3144 -0.3747
vn 0.4855 0.3805 -0.7871
vn -0.0000 0.3885 -0.9215
vn -0.4855 0.3805 -0.7871
vn -0.8722 0.3144 -0.3747
vn -0.8336 0.0407 0.5509
vn -0.3682 -0.1444 0.9185
vn -0.0000 -0.1937 0.9811
vn 0.3682 -0.1444 0.9185
vn 0.8336 0.0407 0.5509
vn 0.8837 0.2917 -0.3661
vn 0.4912 0.4111 -0.7679
vn -0.0000 0.4422 -0.8969
vn -0.4912 0.4111 -0.7679
vn -0.8837 0.2917 -0.3661
vn -0.8427 -0.0383 0.5371
vn -0.3747 -0.2175 0.9013
vn -0.0000 -0.2596 0.9657
vn 0.3747 -0.2175 0.9013
vn 0.8427 -0.0383 0.5371
vn -0.0000 -1.0000 -0.0000
vn -0.0000 1.0000 -0.0000
vn 0.3090 -0.0000 -0.9511
vn 0.8090 -0.0000 -0.5878
vn 1.0000 -0.0000 -0.0000
vn 0.8090 -0.0000 0.5878
vn 0.3090 -0.0000 0.9511
vn -0.3090 -0.0000 0.9511
vn -0.8090 -0.0000 0.5878
vn -1.0000 -0.0000 -0.0000
vn -0.8090 -0.0000 -0.5878
vn -0.3090 -0.0000 -0.9511
s 0
f 1//1 2//1 12//1 11//1
f 2//2 3//2 13//2 12//2
f 3//3 4//3 14//3 13//3
f 4//4 5//4 15//4 14//4
f 5//5 6//5 16//5 15//5
f 6//6 7//6 17//6 16//6
f 7//7 8//7 18//7 17//7
f 8//8 9//8 19//8 18//8
f 9//9 10//9 20//9 19//9
f 10//10 1//10 11//10 20//10
f 11//11 12//11 22//11 21//11
f 12//12 13//12 23//12 22//12
f 13//13 14//13 24//13 23//13
f 14//14 15//14 25//14 24//14
f 15//15 16//15 26//15 25//15
f 16//16 17//16 27//16 26//16
f 17//17 18//17 28//17 27//17
f 18//18 19//18 29//18 28//18
f 19//19 20//19 30//19 29//19
f 20//20 11//20 21//20 30//20
f 21//21 22//21 32//21 31//21
f 22//22 23//22 33//22 32//22
f 23//23 24//23 34//23 33//23
f 24//24 25//24 35//24 34//24
f 25//25 26//25 36//25 35//25
f 26//26 27//26 37//26 36//26
f 27//27 28//27 38//27 37//27
f 28//28 29//28 39//28 38//28
f 29//29 30//29 40//29 39//29
f 30//30 21//30 31//30 40//30
f 31//31 32//31 42//31 41//31
f 32//32 33//32 43//32 42//32
f 33//33 34//33 44//33 43//33
f 34//34 35//34 45//34 44//34
f 35//35 36//35 46//35 45//35
f 36//36 37//36 47//36 46//36
f 37//37 38//37 48//37 47//37
f 38//38 39//38 49//38 48//38
f 39//39 40//39 50//39 49//39
f 40//40 31//40 41//40 50//40
f 41//41 42//41 52//41 51//41
f 42//42 43//42 53//42 52//42
f 43//43 44//43 54//43 53//43
f 44//44 45//44 55//44 54//44
f 45//45 46//45 56//45 55//45
f 46//46 47//46 57//46 56//46
f 47//47 48//47 58//47 57//47
f 48//48 49//48 59//48 58//48
f 49//49 50//49 60//49 59//49
f 50//50 41//50 51//50 60//50
f 1//51 10//51 9//51 8//51 7//51 6//51 5//51 4//51 3//51 2//51
f 60//52 51//52 52//52 53//52 54//52 55//52 56//52 57//52 58//52 59//52
f 61//53 62//53 64//53 63//53
f 63//54 64//54 66//54 65//54
f 65//55 66//55 68//55 67//55
f 67//56 68//56 70//56 69//56
f 69//57 70//57 72//57 71//57
f 71//58 72//58 74//58 73//58
f 73//59 74//59 76//59 75//59
f 75//60 76//60 78//60 77//60
f 64//52 62//52 80//52 78//52 76//52 74//52 72//52 70//52 68//52 66//52
f 77//61 78//61 80//61 79//61
f 79//62 80//62 62//62 61//62
f 61//51 63//51 65//51 67//51 69//51 71//51 73//51 75//51 77//51 79//51
