# Blender 4.3.2
# www.blender.org
o Handlebars
v -0.060000 -0.525000 -1.082500
v -0.060000 -0.475000 -1.082500
v -0.060000 -0.525000 -1.117500
v -0.060000 -0.475000 -1.117500
v 0.060000 -0.525000 -1.082500
v 0.060000 -0.475000 -1.082500
v 0.060000 -0.525000 -1.117500
v 0.060000 -0.475000 -1.117500
v 0.001584 -0.501749 -1.132784
v -0.218416 -0.481749 -1.162784
v 0.002098 -0.492166 -1.130160
v -0.217902 -0.472166 -1.160160
v 0.001382 -0.487171 -1.121584
v -0.218618 -0.467171 -1.151584
v -0.000143 -0.489692 -1.112081
v -0.220143 -0.469692 -1.142081
v -0.001584 -0.498251 -1.107216
v -0.221584 -0.478251 -1.137216
v -0.002098 -0.507834 -1.109840
v -0.222098 -0.487834 -1.139840
v -0.001382 -0.512829 -1.118416
v -0.221382 -0.492829 -1.148416
v 0.000143 -0.510308 -1.127919
v -0.219857 -0.490308 -1.157919
v -0.220564 -0.479296 -1.162969
v -0.400564 -0.439296 -1.152969
v -0.218385 -0.470542 -1.158771
v -0.398385 -0.430542 -1.148771
v -0.217153 -0.467328 -1.149436
v -0.397153 -0.427328 -1.139436
v -0.217588 -0.471537 -1.140431
v -0.397588 -0.431537 -1.130431
v -0.219436 -0.480704 -1.137031
v -0.399436 -0.440704 -1.127031
v -0.221615 -0.489458 -1.141229
v -0.401615 -0.449458 -1.131229
v -0.222847 -0.492672 -1.150564
v -0.402847 -0.452672 -1.140564
v -0.222412 -0.488463 -1.159569
v -0.402412 -0.448463 -1.149569
v -0.280000 -0.440000 -1.157000
v -0.400000 -0.440000 -1.157000
v -0.280000 -0.427979 -1.152021
v -0.400000 -0.427979 -1.152021
v -0.280000 -0.423000 -1.140000
v -0.400000 -0.423000 -1.140000
v -0.280000 -0.427979 -1.127979
v -0.400000 -0.427979 -1.127979
v -0.280000 -0.440000 -1.123000
v -0.400000 -0.440000 -1.123000
v -0.280000 -0.452021 -1.127979
v -0.400000 -0.452021 -1.127979
v -0.280000 -0.457000 -1.140000
v -0.400000 -0.457000 -1.140000
v -0.280000 -0.452021 -1.152021
v -0.400000 -0.452021 -1.152021
v -0.267474 -0.441823 -1.147369
v -0.427474 -0.501823 -1.187369
v -0.270559 -0.434595 -1.145872
v -0.430559 -0.494595 -1.185872
v -0.273085 -0.432772 -1.138503
v -0.433085 -0.492772 -1.178503
v -0.272526 -0.438177 -1.132631
v -0.432526 -0.498177 -1.172631
v -0.269441 -0.445405 -1.134128
v -0.429441 -0.505405 -1.174128
v -0.266915 -0.447228 -1.141497
v -0.426915 -0.507228 -1.181497
v -0.429656 -0.497352 -1.187541
v -0.399656 -0.387352 -1.147541
v -0.423123 -0.500396 -1.184069
v -0.393123 -0.390396 -1.144069
v -0.423467 -0.503044 -1.176528
v -0.393467 -0.393044 -1.136528
v -0.430344 -0.502648 -1.172459
v -0.400344 -0.392648 -1.132459
v -0.436877 -0.499604 -1.175931
v -0.406877 -0.389604 -1.135931
v -0.436533 -0.496956 -1.183472
v -0.406533 -0.386956 -1.143472
v -0.397919 -0.445622 -1.139757
v -0.437919 -0.465622 -1.259757
v -0.394364 -0.441188 -1.141681
v -0.434364 -0.461188 -1.261681
v -0.396445 -0.435566 -1.141924
v -0.436445 -0.455566 -1.261924
v -0.402081 -0.434378 -1.140243
v -0.442081 -0.454378 -1.260243
v -0.405636 -0.438812 -1.138319
v -0.445636 -0.458812 -1.258319
v -0.403555 -0.444434 -1.138076
v -0.443555 -0.464434 -1.258076
v -0.440000 -0.474225 -1.299971
v -0.440000 -0.462464 -1.302355
v -0.415313 -0.472631 -1.292109
v -0.415313 -0.460870 -1.294493
v -0.400056 -0.468459 -1.271528
v -0.400056 -0.456698 -1.273912
v -0.400056 -0.463302 -1.246088
v -0.400056 -0.451541 -1.248472
v -0.415313 -0.459130 -1.225507
v -0.415313 -0.447369 -1.227891
v -0.440000 -0.457536 -1.217645
v -0.440000 -0.445776 -1.220029
v -0.464687 -0.459130 -1.225507
v -0.464687 -0.447369 -1.227891
v -0.479944 -0.463302 -1.246088
v -0.479944 -0.451541 -1.248472
v -0.479944 -0.468459 -1.271528
v -0.479944 -0.456698 -1.273912
v -0.464687 -0.472631 -1.292109
v -0.464687 -0.460870 -1.294493
v -0.001584 -0.501749 -1.132784
v 0.218416 -0.481749 -1.162784
v -0.000143 -0.510308 -1.127919
v 0.219857 -0.490308 -1.157919
v 0.001382 -0.512829 -1.118416
v 0.221382 -0.492829 -1.148416
v 0.002098 -0.507834 -1.109840
v 0.222098 -0.487834 -1.139840
v 0.001584 -0.498251 -1.107216
v 0.221584 -0.478251 -1.137216
v 0.000143 -0.489692 -1.112081
v 0.220143 -0.469692 -1.142081
v -0.001382 -0.487171 -1.121584
v 0.218618 -0.467171 -1.151584
v -0.002098 -0.492166 -1.130160
v 0.217902 -0.472166 -1.160160
v 0.220564 -0.479296 -1.162969
v 0.400564 -0.439296 -1.152969
v 0.222412 -0.488463 -1.159569
v 0.402412 -0.448463 -1.149569
v 0.222847 -0.492672 -1.150564
v 0.402847 -0.452672 -1.140564
v 0.221615 -0.489458 -1.141229
v 0.401615 -0.449458 -1.131229
v 0.219436 -0.480704 -1.137031
v 0.399436 -0.440704 -1.127031
v 0.217588 -0.471537 -1.140431
v 0.397588 -0.431537 -1.130431
v 0.217153 -0.467328 -1.149436
v 0.397153 -0.427328 -1.139436
v 0.218385 -0.470542 -1.158771
v 0.398385 -0.430542 -1.148771
v 0.280000 -0.440000 -1.157000
v 0.400000 -0.440000 -1.157000
v 0.280000 -0.452021 -1.152021
v 0.400000 -0.452021 -1.152021
v 0.280000 -0.457000 -1.140000
v 0.400000 -0.457000 -1.140000
v 0.280000 -0.452021 -1.127979
v 0.400000 -0.452021 -1.127979
v 0.280000 -0.440000 -1.123000
v 0.400000 -0.440000 -1.123000
v 0.280000 -0.427979 -1.127979
v 0.400000 -0.427979 -1.127979
v 0.280000 -0.423000 -1.140000
v 0.400000 -0.423000 -1.140000
v 0.280000 -0.427979 -1.152021
v 0.400000 -0.427979 -1.152021
v 0.267474 -0.441823 -1.147369
v 0.427474 -0.501823 -1.187369
v 0.266915 -0.447228 -1.141497
v 0.426915 -0.507228 -1.181497
v 0.269441 -0.445405 -1.134128
v 0.429441 -0.505405 -1.174128
v 0.272526 -0.438177 -1.132631
v 0.432526 -0.498177 -1.172631
v 0.273085 -0.432772 -1.138503
v 0.433085 -0.492772 -1.178503
v 0.270559 -0.434595 -1.145872
v 0.430559 -0.494595 -1.185872
v 0.429656 -0.497352 -1.187541
v 0.399656 -0.387352 -1.147541
v 0.436533 -0.496956 -1.183472
v 0.406533 -0.386956 -1.143472
v 0.436877 -0.499604 -1.175931
v 0.406877 -0.389604 -1.135931
v 0.430344 -0.502648 -1.172459
v 0.400344 -0.392648 -1.132459
v 0.423467 -0.503044 -1.176528
v 0.393467 -0.393044 -1.136528
v 0.423123 -0.500396 -1.184069
v 0.393123 -0.390396 -1.144069
v 0.397919 -0.445622 -1.139757
v 0.437919 -0.465622 -1.259757
v 0.403555 -0.444434 -1.138076
v 0.443555 -0.464434 -1.258076
v 0.405636 -0.438812 -1.138319
v 0.445636 -0.458812 -1.258319
v 0.402081 -0.434378 -1.140243
v 0.442081 -0.454378 -1.260243
v 0.396445 -0.435566 -1.141924
v 0.436445 -0.455566 -1.261924
v 0.394364 -0.441188 -1.141681
v 0.434364 -0.461188 -1.261681
v 0.440000 -0.474225 -1.299971
v 0.440000 -0.462464 -1.302355
v 0.464687 -0.472631 -1.292109
v 0.464687 -0.460870 -1.294493
v 0.479944 -0.468459 -1.271528
v 0.479944 -0.456698 -1.273912
v 0.479944 -0.463302 -1.246088
v 0.479944 -0.451541 -1.248472
v 0.464687 -0.459130 -1.225507
v 0.464687 -0.447369 -1.227891
v 0.440000 -0.457536 -1.217645
v 0.440000 -0.445776 -1.220029
v 0.415313 -0.459130 -1.225507
v 0.415313 -0.447369 -1.227891
v 0.400056 -0.463302 -1.246088
v 0.400056 -0.451541 -1.248472
v 0.400056 -0.468459 -1.271528
v 0.400056 -0.456698 -1.273912
v 0.415313 -0.472631 -1.292109
v 0.415313 -0.460870 -1.294493
vn -1.0000 -0.0000 -0.0000
vn -0.0000 -0.0000 -1.0000
vn 1.0000 -0.0000 -0.0000
vn -0.0000 -0.0000 1.0000
vn -0.0000 -1.0000 -0.0000
vn -0.0000 1.0000 -0.0000
vn 0.1857 -0.9213 0.3417
vn -0.2629 0.9117 -0.3157
vn 0.1533 0.2533 -0.9552
vn -0.0437 -0.4230 0.9051
vn 0.1857 0.9213 -0.3417
vn 0.1449 0.8602 -0.4889
vn 0.1239 0.3230 0.9383
vn 0.0516 0.9632 0.2637
vn 0.9677 -0.2483 -0.0430
vn 0.4466 -0.4108 0.7948
vn -0.0719 0.5020 0.8619
vn 0.2629 -0.9117 0.3157
vn 0.0437 0.4230 -0.9051
vn -0.1533 -0.2533 0.9552
vn 0.2190 0.8798 0.4218
vn 0.1420 0.2585 -0.9555
vn -0.1449 -0.8602 0.4889
vn -0.9868 0.0897 -0.1346
vn -0.1420 -0.2585 0.9555
vn -0.0516 -0.9632 -0.2637
vn -0.0000 0.3827 -0.9239
vn -0.0000 0.3827 0.9239
vn 0.0719 -0.5020 -0.8619
vn 0.9868 -0.0897 0.1346
vn 0.5211 0.1626 -0.8379
vn -0.0000 0.9239 0.3827
vn -0.1857 -0.9213 0.3417
vn 0.9117 0.3419 0.2279
vn 0.9748 -0.2166 -0.0542
vn -0.2190 -0.8798 -0.4218
vn -0.0000 0.9239 -0.3827
vn -0.0000 -0.3827 0.9239
vn -0.1239 -0.3230 -0.9383
vn -0.9748 0.2166 0.0542
vn -0.4049 0.6532 0.6398
vn 0.3090 -0.1889 -0.9321
vn -0.0000 -0.9239 0.3827
vn 0.8090 -0.1168 -0.5761
vn -0.0000 -0.9239 -0.3827
vn -0.0516 0.9632 0.2637
vn 0.7426 -0.6553 -0.1383
vn -0.0000 -0.3827 -0.9239
vn 0.0437 -0.4230 0.9051
vn 0.0516 -0.9632 -0.2637
vn 0.4049 -0.6532 -0.6398
vn -0.9117 -0.3419 -0.2279
vn -0.5211 -0.1626 0.8379
vn 0.2483 0.9104 0.3310
vn -0.9677 0.2483 0.0430
vn 0.1418 0.9677 -0.2085
vn 0.8844 0.3123 -0.3469
vn -0.4466 0.4108 -0.7948
vn -0.2483 -0.9104 -0.3310
vn -0.7426 0.6553 0.1383
vn 0.1449 -0.8602 0.4889
vn 0.3124 0.1562 0.9370
vn -0.8844 -0.3123 0.3469
vn 0.0719 0.5020 0.8619
vn -0.1418 -0.9677 0.2085
vn -0.3124 -0.1562 -0.9370
vn 0.8090 0.1168 0.5761
vn 0.2190 -0.8798 -0.4218
vn 0.1239 -0.3230 -0.9383
vn 0.3090 0.1889 0.9321
vn -0.1239 0.3230 0.9383
vn 0.4466 0.4108 -0.7948
vn -0.3090 0.1889 0.9321
vn -0.0719 -0.5020 -0.8619
vn 0.1533 -0.2533 0.9552
vn -0.8090 0.1168 0.5761
vn 0.9117 -0.3419 -0.2279
vn 0.4049 0.6532 0.6398
vn -0.0000 -0.9801 0.1987
vn -0.8090 -0.1168 -0.5761
vn -0.4049 -0.6532 -0.6398
vn 0.9868 0.0897 -0.1346
vn -0.3090 -0.1889 -0.9321
vn -0.0000 0.9801 -0.1987
vn -0.1449 0.8602 -0.4889
vn -0.1533 0.2533 -0.9552
vn -0.9868 -0.0897 0.1346
vn -0.2190 0.8798 0.4218
vn 0.1418 -0.9677 0.2085
vn -0.9748 -0.2166 -0.0542
vn -0.1857 0.9213 -0.3417
vn -0.0437 0.4230 -0.9051
vn 0.9748 0.2166 0.0542
vn 0.1420 -0.2585 0.9555
vn -0.2629 -0.9117 0.3157
vn 0.2629 0.9117 -0.3157
vn 0.5211 -0.1626 0.8379
vn 0.9677 0.2483 0.0430
vn -0.1420 0.2585 -0.9555
vn -0.9117 0.3419 0.2279
vn -0.4466 -0.4108 0.7948
vn -0.2483 0.9104 0.3310
vn -0.9677 -0.2483 -0.0430
vn 0.7426 0.6553 0.1383
vn 0.8844 -0.3123 0.3469
vn -0.5211 0.1625 -0.8379
vn 0.2483 -0.9104 -0.3310
vn -0.1418 0.9677 -0.2085
vn -0.3124 0.1562 0.9370
vn -0.8844 0.3123 -0.3469
vn -0.7426 -0.6553 -0.1383
vn 0.3124 -0.1562 -0.9370
s 0
f 1//1 2//1 4//1 3//1
f 3//2 4//2 8//2 7//2
f 7//3 8//3 6//3 5//3
f 5//4 6//4 2//4 1//4
f 3//5 7//5 5//5 1//5
f 8//6 4//6 2//6 6//6
f 133//7 134//7 136//7 135//7
f 59//8 60//8 62//8 61//8
f 9//9 10//9 12//9 11//9
f 33//10 34//10 36//10 35//10
f 27//11 28//11 30//11 29//11
f 11//12 12//12 14//12 13//12
f 31//13 32//13 34//13 33//13
f 97//3 98//3 100//3 99//3
f 13//14 14//14 16//14 15//14
f 71//15 72//15 74//15 73//15
f 73//16 74//16 76//16 75//16
f 15//17 16//17 18//17 17//17
f 65//18 66//18 68//18 67//18
f 25//19 26//19 28//19 27//19
f 17//20 18//20 20//20 19//20
f 29//21 30//21 32//21 31//21
f 57//22 58//22 60//22 59//22
f 19//23 20//23 22//23 21//23
f 12//24 10//24 24//24 22//24 20//24 18//24 16//24 14//24
f 63//25 64//25 66//25 65//25
f 21//26 22//26 24//26 23//26
f 41//27 42//27 44//27 43//27
f 47//28 48//28 50//28 49//28
f 23//29 24//29 10//29 9//29
f 9//30 11//30 13//30 15//30 17//30 19//30 21//30 23//30
f 69//31 70//31 72//31 71//31
f 45//32 46//32 48//32 47//32
f 35//33 36//33 38//33 37//33
f 63//34 65//34 67//34 57//34 59//34 61//34
f 29//35 31//35 33//35 35//35 37//35 39//35 25//35 27//35
f 37//36 38//36 40//36 39//36
f 43//37 44//37 46//37 45//37
f 49//38 50//38 52//38 51//38
f 39//39 40//39 26//39 25//39
f 36//40 34//40 32//40 30//40 28//40 26//40 40//40 38//40
f 61//41 62//41 64//41 63//41
f 93//42 94//42 96//42 95//42
f 51//43 52//43 54//43 53//43
f 46//1 44//1 42//1 56//1 54//1 52//1 50//1 48//1
f 95//44 96//44 98//44 97//44
f 53//45 54//45 56//45 55//45
f 123//46 124//46 126//46 125//46
f 81//47 82//47 84//47 83//47
f 55//48 56//48 42//48 41//48
f 47//3 49//3 51//3 53//3 55//3 41//3 43//3 45//3
f 135//49 136//49 138//49 137//49
f 115//50 116//50 118//50 117//50
f 67//51 68//51 58//51 57//51
f 66//52 64//52 62//52 60//52 58//52 68//52
f 75//53 76//53 78//53 77//53
f 72//54 70//54 80//54 78//54 76//54 74//54
f 77//55 78//55 80//55 79//55
f 85//56 86//56 88//56 87//56
f 83//57 84//57 86//57 85//57
f 79//58 80//58 70//58 69//58
f 73//59 75//59 77//59 79//59 69//59 71//59
f 87//60 88//60 90//60 89//60
f 117//61 118//61 120//61 119//61
f 85//62 87//62 89//62 91//62 81//62 83//62
f 89//63 90//63 92//63 91//63
f 201//3 202//3 204//3 203//3
f 121//64 122//64 124//64 123//64
f 91//65 92//65 82//65 81//65
f 88//66 86//66 84//66 82//66 92//66 90//66
f 99//67 100//67 102//67 101//67
f 131//68 132//68 134//68 133//68
f 129//69 130//69 132//69 131//69
f 101//70 102//70 104//70 103//70
f 137//71 138//71 140//71 139//71
f 173//72 174//72 176//72 175//72
f 103//73 104//73 106//73 105//73
f 113//74 114//74 116//74 115//74
f 119//75 120//75 122//75 121//75
f 105//76 106//76 108//76 107//76
f 170//77 168//77 166//77 164//77 162//77 172//77
f 167//78 168//78 170//78 169//78
f 107//1 108//1 110//1 109//1
f 97//79 99//79 101//79 103//79 105//79 107//79 109//79 111//79 93//79 95//79
f 109//80 110//80 112//80 111//80
f 161//81 162//81 164//81 163//81
f 126//82 124//82 122//82 120//82 118//82 116//82 114//82 128//82
f 111//83 112//83 94//83 93//83
f 100//84 98//84 96//84 94//84 112//84 110//84 108//84 106//84 104//84 102//84
f 125//85 126//85 128//85 127//85
f 145//48 146//48 148//48 147//48
f 151//38 152//38 154//38 153//38
f 127//86 128//86 114//86 113//86
f 123//87 125//87 127//87 113//87 115//87 117//87 119//87 121//87
f 149//43 150//43 152//43 151//43
f 139//88 140//88 142//88 141//88
f 185//89 186//89 188//89 187//89
f 135//90 137//90 139//90 141//90 143//90 129//90 131//90 133//90
f 141//91 142//91 144//91 143//91
f 147//45 148//45 150//45 149//45
f 153//28 154//28 156//28 155//28
f 143//92 144//92 130//92 129//92
f 132//93 130//93 144//93 142//93 140//93 138//93 136//93 134//93
f 199//44 200//44 202//44 201//44
f 165//94 166//94 168//94 167//94
f 155//32 156//32 158//32 157//32
f 197//42 198//42 200//42 199//42
f 147//1 149//1 151//1 153//1 155//1 157//1 159//1 145//1
f 157//37 158//37 160//37 159//37
f 163//95 164//95 166//95 165//95
f 169//96 170//96 172//96 171//96
f 159//27 160//27 146//27 145//27
f 156//3 154//3 152//3 150//3 148//3 146//3 160//3 158//3
f 177//97 178//97 180//97 179//97
f 175//98 176//98 178//98 177//98
f 171//99 172//99 162//99 161//99
f 167//100 169//100 171//100 161//100 163//100 165//100
f 179//101 180//101 182//101 181//101
f 176//102 174//102 184//102 182//102 180//102 178//102
f 181//103 182//103 184//103 183//103
f 189//104 190//104 192//104 191//104
f 187//105 188//105 190//105 189//105
f 183//106 184//106 174//106 173//106
f 177//107 179//107 181//107 183//107 173//107 175//107
f 191//108 192//108 194//108 193//108
f 191//109 193//109 195//109 185//109 187//109 189//109
f 193//110 194//110 196//110 195//110
f 195//111 196//111 186//111 185//111
f 192//112 190//112 188//112 186//112 196//112 194//112
f 203//67 204//67 206//67 205//67
f 205//70 206//70 208//70 207//70
f 207//73 208//73 210//73 209//73
f 209//76 210//76 212//76 211//76
f 211//1 212//1 214//1 213//1
f 203//79 205//79 207//79 209//79 211//79 213//79 215//79 197//79 199//79 201//79
f 213//80 214//80 216//80 215//80
f 215//83 216//83 198//83 197//83
f 204//84 202//84 200//84 198//84 216//84 214//84 212//84 210//84 208//84 206//84
