# Blender 4.3.2
# www.blender.org
o FrontFork
v -0.110000 -0.580000 -1.065000
v -0.110000 -0.500000 -1.065000
v -0.110000 -0.580000 -1.095000
v -0.110000 -0.500000 -1.095000
v 0.110000 -0.580000 -1.065000
v 0.110000 -0.500000 -1.065000
v 0.110000 -0.580000 -1.095000
v 0.110000 -0.500000 -1.095000
v -0.110000 -0.680000 -0.865000
v -0.110000 -0.600000 -0.865000
v -0.110000 -0.680000 -0.895000
v -0.110000 -0.600000 -0.895000
v 0.110000 -0.680000 -0.865000
v 0.110000 -0.600000 -0.865000
v 0.110000 -0.680000 -0.895000
v 0.110000 -0.600000 -0.895000
v -0.060000 -1.086370 -0.704583
v -0.060000 -1.039966 -0.722849
v -0.085000 -0.521233 -1.073086
v -0.085000 -0.661233 -0.693086
v -0.070858 -0.526730 -1.075111
v -0.070858 -0.666730 -0.695111
v -0.065000 -0.540000 -1.080000
v -0.065000 -0.680000 -0.700000
v -0.070858 -0.553270 -1.084889
v -0.070858 -0.693270 -0.704889
v -0.085000 -0.558767 -1.086914
v -0.085000 -0.698767 -0.706914
v -0.099142 -0.553270 -1.084889
v -0.099142 -0.693270 -0.704889
v -0.105000 -0.540000 -1.080000
v -0.105000 -0.680000 -0.700000
v -0.099142 -0.526730 -1.075111
v -0.099142 -0.666730 -0.695111
v -0.085000 -0.658557 -0.685296
v -0.085000 -0.898557 -0.335296
v -0.066615 -0.664837 -0.689603
v -0.066615 -0.904838 -0.339603
v -0.059000 -0.680000 -0.700000
v -0.059000 -0.920000 -0.350000
v -0.066615 -0.695162 -0.710397
v -0.066615 -0.935163 -0.360397
v -0.085000 -0.701443 -0.714704
v -0.085000 -0.941443 -0.364704
v -0.103385 -0.695162 -0.710397
v -0.103385 -0.935163 -0.360397
v -0.111000 -0.680000 -0.700000
v -0.111000 -0.920000 -0.350000
v -0.103385 -0.664837 -0.689603
v -0.103385 -0.904838 -0.339603
v 0.085000 -0.521233 -1.073086
v 0.085000 -0.661233 -0.693086
v 0.099142 -0.526730 -1.075111
v 0.099142 -0.666730 -0.695111
v 0.105000 -0.540000 -1.080000
v 0.105000 -0.680000 -0.700000
v 0.099142 -0.553270 -1.084889
v 0.099142 -0.693270 -0.704889
v 0.085000 -0.558767 -1.086914
v 0.085000 -0.698767 -0.706914
v 0.070858 -0.553270 -1.084889
v 0.070858 -0.693270 -0.704889
v 0.065000 -0.540000 -1.080000
v 0.065000 -0.680000 -0.700000
v 0.070858 -0.526730 -1.075111
v 0.070858 -0.666730 -0.695111
v 0.085000 -0.658557 -0.685296
v 0.085000 -0.898557 -0.335296
v 0.103385 -0.664837 -0.689603
v 0.103385 -0.904838 -0.339603
v 0.111000 -0.680000 -0.700000
v 0.111000 -0.920000 -0.350000
v 0.103385 -0.695162 -0.710397
v 0.103385 -0.935163 -0.360397
v 0.085000 -0.701443 -0.714704
v 0.085000 -0.941443 -0.364704
v 0.066615 -0.695162 -0.710397
v 0.066615 -0.935163 -0.360397
v 0.059000 -0.680000 -0.700000
v 0.059000 -0.920000 -0.350000
v 0.066615 -0.664837 -0.689603
v 0.066615 -0.904838 -0.339603
v -0.060000 -1.090766 -0.715749
v -0.060000 -1.044361 -0.734015
v 0.060000 -1.086370 -0.704583
v 0.060000 -1.039966 -0.722849
v 0.060000 -1.090766 -0.715749
v 0.060000 -1.044361 -0.734015
v -0.060000 -0.993473 -0.734721
v -0.060000 -0.943992 -0.740938
v -0.060000 -0.994969 -0.746627
v -0.060000 -0.945488 -0.752844
v 0.060000 -0.993473 -0.734721
v 0.060000 -0.943992 -0.740938
v 0.060000 -0.994969 -0.746627
v 0.060000 -0.945488 -0.752844
v -0.060000 -0.896008 -0.740938
v -0.060000 -0.846527 -0.734721
v -0.060000 -0.894512 -0.752844
v -0.060000 -0.845031 -0.746627
v 0.060000 -0.896008 -0.740938
v 0.060000 -0.846527 -0.734721
v 0.060000 -0.894512 -0.752844
v 0.060000 -0.845031 -0.746627
v -0.060000 -0.800034 -0.722849
v -0.060000 -0.753630 -0.704583
v -0.060000 -0.795639 -0.734015
v -0.060000 -0.749234 -0.715749
v 0.060000 -0.800034 -0.722849
v 0.060000 -0.753630 -0.704583
v 0.060000 -0.795639 -0.734015
v 0.060000 -0.749234 -0.715749
vn -1.0000 -0.0000 -0.0000
vn -0.0000 -0.0000 -1.0000
vn 1.0000 -0.0000 -0.0000
vn -0.0000 -0.0000 1.0000
vn -0.0000 -1.0000 -0.0000
vn -0.0000 1.0000 -0.0000
vn -0.0000 -0.9922 0.1247
vn 0.9239 0.3156 0.2164
vn 0.3827 0.8669 0.3194
vn -0.3827 -0.7620 -0.5225
vn 0.9239 0.3591 0.1323
vn 0.3827 -0.7620 -0.5225
vn -0.0000 0.3663 0.9305
vn 0.9239 -0.3591 -0.1323
vn -0.0000 -0.1247 -0.9922
vn 0.3827 -0.8669 -0.3194
vn 0.3827 0.7620 0.5225
vn -0.3827 -0.8669 -0.3194
vn 0.9239 -0.3156 -0.2164
vn -0.9239 -0.3591 -0.1323
vn -0.0000 -0.3457 0.9383
vn -0.9239 0.3591 0.1323
vn -0.3827 0.8669 0.3194
vn -0.0000 0.3457 -0.9383
vn -0.0000 -0.9305 0.3663
vn -0.9239 -0.3156 -0.2164
vn -0.0000 0.1247 0.9922
vn -0.0000 0.5655 -0.8247
vn -0.9239 0.3156 0.2164
vn -0.3827 0.7620 0.5225
vn -0.0000 -0.5655 0.8247
vn -0.0000 0.1247 -0.9922
vn -0.0000 0.9922 -0.1247
vn -0.0000 -0.3663 -0.9305
vn -0.0000 0.9305 -0.3663
vn -0.0000 -0.1247 0.9922
vn -0.0000 -0.9922 -0.1247
vn -0.0000 0.9922 0.1247
vn -0.0000 0.3663 -0.9305
vn -0.0000 -0.3663 0.9305
vn -0.0000 -0.9305 -0.3663
vn -0.0000 0.9305 0.3663
s 0
f 1//1 2//1 4//1 3//1
f 3//2 4//2 8//2 7//2
f 7//3 8//3 6//3 5//3
f 5//4 6//4 2//4 1//4
f 3//5 7//5 5//5 1//5
f 8//6 4//6 2//6 6//6
f 9//1 10//1 12//1 11//1
f 11//2 12//2 16//2 15//2
f 15//3 16//3 14//3 13//3
f 13//4 14//4 10//4 9//4
f 11//5 15//5 13//5 9//5
f 16//6 12//6 10//6 14//6
f 91//7 95//7 93//7 89//7
f 69//8 70//8 72//8 71//8
f 19//9 20//9 22//9 21//9
f 43//10 44//10 46//10 45//10
f 37//8 38//8 40//8 39//8
f 21//11 22//11 24//11 23//11
f 41//12 42//12 44//12 43//12
f 85//13 86//13 18//13 17//13
f 23//14 24//14 26//14 25//14
f 91//15 92//15 96//15 95//15
f 97//1 98//1 100//1 99//1
f 25//16 26//16 28//16 27//16
f 75//10 76//10 78//10 77//10
f 35//17 36//17 38//17 37//17
f 27//18 28//18 30//18 29//18
f 39//19 40//19 42//19 41//19
f 67//17 68//17 70//17 69//17
f 29//20 30//20 32//20 31//20
f 22//21 20//21 34//21 32//21 30//21 28//21 26//21 24//21
f 73//12 74//12 76//12 75//12
f 31//22 32//22 34//22 33//22
f 51//9 52//9 54//9 53//9
f 57//16 58//16 60//16 59//16
f 33//23 34//23 20//23 19//23
f 19//24 21//24 23//24 25//24 27//24 29//24 31//24 33//24
f 83//25 87//25 85//25 17//25
f 55//14 56//14 58//14 57//14
f 45//26 46//26 48//26 47//26
f 93//27 94//27 90//27 89//27
f 39//28 41//28 43//28 45//28 47//28 49//28 35//28 37//28
f 47//29 48//29 50//29 49//29
f 53//11 54//11 56//11 55//11
f 59//18 60//18 62//18 61//18
f 49//30 50//30 36//30 35//30
f 46//31 44//31 42//31 40//31 38//31 36//31 50//31 48//31
f 71//19 72//19 74//19 73//19
f 99//32 100//32 104//32 103//32
f 61//20 62//20 64//20 63//20
f 56//21 54//21 52//21 66//21 64//21 62//21 60//21 58//21
f 89//1 90//1 92//1 91//1
f 63//22 64//22 66//22 65//22
f 87//3 88//3 86//3 85//3
f 96//33 92//33 90//33 94//33
f 65//23 66//23 52//23 51//23
f 57//24 59//24 61//24 63//24 65//24 51//24 53//24 55//24
f 83//34 84//34 88//34 87//34
f 95//3 96//3 94//3 93//3
f 77//26 78//26 80//26 79//26
f 17//1 18//1 84//1 83//1
f 73//28 75//28 77//28 79//28 81//28 67//28 69//28 71//28
f 79//29 80//29 82//29 81//29
f 88//35 84//35 18//35 86//35
f 103//3 104//3 102//3 101//3
f 81//30 82//30 68//30 67//30
f 76//31 74//31 72//31 70//31 68//31 82//31 80//31 78//31
f 101//36 102//36 98//36 97//36
f 99//37 103//37 101//37 97//37
f 104//38 100//38 98//38 102//38
f 105//1 106//1 108//1 107//1
f 107//39 108//39 112//39 111//39
f 111//3 112//3 110//3 109//3
f 109//40 110//40 106//40 105//40
f 107//41 111//41 109//41 105//41
f 112//42 108//42 106//42 110//42
