# Component OBJ: TelemetryCore
o TelemetryCore
v -0.09600 0.14800 -0.14800
v -0.09600 0.17200 -0.14800
v -0.09600 0.14800 -0.15600
v -0.09600 0.17200 -0.15600
v -0.06400 0.14800 -0.14800
v -0.06400 0.17200 -0.14800
v -0.06400 0.14800 -0.15600
v -0.06400 0.17200 -0.15600
vt 0.74000 0.15000
vt 0.74000 0.40000
vt 0.98000 0.40000
vt 0.98000 0.15000
vt 0.74000 0.15000
vt 0.74000 0.40000
vt 0.98000 0.40000
vt 0.98000 0.15000
vt 0.98000 0.15000
vt 0.98000 0.40000
vt 0.74000 0.40000
vt 0.74000 0.15000
vt 0.98000 0.15000
vt 0.98000 0.40000
vt 0.74000 0.40000
vt 0.74000 0.15000
vt 0.74000 0.40000
vt 0.98000 0.40000
vt 0.98000 0.15000
vt 0.74000 0.15000
vt 0.98000 0.40000
vt 0.74000 0.40000
vt 0.74000 0.15000
vt 0.98000 0.15000
vn -1.00000 0.00000 -0.00000
vn -1.00000 0.00000 -0.00000
vn -1.00000 0.00000 -0.00000
vn -1.00000 0.00000 -0.00000
vn 0.00000 0.00000 -1.00000
vn 0.00000 0.00000 -1.00000
vn 0.00000 0.00000 -1.00000
vn 0.00000 0.00000 -1.00000
vn 1.00000 0.00000 -0.00000
vn 1.00000 0.00000 -0.00000
vn 1.00000 0.00000 -0.00000
vn 1.00000 0.00000 -0.00000
vn 0.00000 0.00000 1.00000
vn 0.00000 0.00000 1.00000
vn 0.00000 0.00000 1.00000
vn 0.00000 0.00000 1.00000
vn 0.00000 -1.00000 -0.00000
vn 0.00000 -1.00000 -0.00000
vn 0.00000 -1.00000 -0.00000
vn 0.00000 -1.00000 -0.00000
vn 0.00000 1.00000 -0.00000
vn 0.00000 1.00000 -0.00000
vn 0.00000 1.00000 -0.00000
vn 0.00000 1.00000 -0.00000
f 1/1/1 2/2/2 4/3/3 3/4/4
f 3/5/5 4/6/6 8/7/7 7/8/8
f 7/9/9 8/10/10 6/11/11 5/12/12
f 5/13/13 6/14/14 2/15/15 1/16/16
f 3/17/17 7/18/18 5/19/19 1/20/20
f 8/21/21 4/22/22 2/23/23 6/24/24
