# Component OBJ: Visor
o Visor
v -0.07662 0.17400 -0.06261
v -0.07072 0.17400 -0.06036
v -0.07662 0.14400 -0.06261
v -0.07072 0.14400 -0.06036
v -0.06010 0.17400 -0.11212
v -0.05548 0.17400 -0.10447
v -0.06010 0.14400 -0.11212
v -0.05548 0.14400 -0.10447
v -0.02871 0.17400 -0.14428
v -0.02650 0.17400 -0.13312
v -0.02871 0.14400 -0.14428
v -0.02650 0.14400 -0.13312
v 0.00000 0.17400 -0.15200
v 0.00000 0.17400 -0.14000
v 0.00000 0.14400 -0.15200
v 0.00000 0.14400 -0.14000
v 0.02871 0.17400 -0.14428
v 0.02650 0.17400 -0.13312
v 0.02871 0.14400 -0.14428
v 0.02650 0.14400 -0.13312
v 0.06010 0.17400 -0.11212
v 0.05548 0.17400 -0.10447
v 0.06010 0.14400 -0.11212
v 0.05548 0.14400 -0.10447
v 0.07662 0.17400 -0.06261
v 0.07072 0.17400 -0.06036
v 0.07662 0.14400 -0.06261
v 0.07072 0.14400 -0.06036
vt 0.74000 0.07000
vt 0.74000 0.07000
vt 0.74000 0.07000
vt 0.74000 0.07000
vt 0.74000 0.07000
vt 0.74000 0.07000
vt 0.74000 0.07000
vt 0.74000 0.07000
vt 0.74000 0.07000
vt 0.74000 0.07000
vt 0.74000 0.07000
vt 0.74000 0.07000
vt 0.78000 0.07000
vt 0.78000 0.07000
vt 0.78000 0.07000
vt 0.78000 0.07000
vt 0.78000 0.07000
vt 0.78000 0.07000
vt 0.78000 0.07000
vt 0.78000 0.07000
vt 0.78000 0.07000
vt 0.78000 0.07000
vt 0.78000 0.07000
vt 0.78000 0.07000
vt 0.82000 0.07000
vt 0.82000 0.07000
vt 0.82000 0.07000
vt 0.82000 0.07000
vt 0.82000 0.07000
vt 0.82000 0.07000
vt 0.82000 0.07000
vt 0.82000 0.07000
vt 0.82000 0.07000
vt 0.82000 0.07000
vt 0.82000 0.07000
vt 0.82000 0.07000
vt 0.86000 0.07000
vt 0.86000 0.07000
vt 0.86000 0.07000
vt 0.86000 0.07000
vt 0.86000 0.07000
vt 0.86000 0.07000
vt 0.86000 0.07000
vt 0.86000 0.07000
vt 0.86000 0.07000
vt 0.86000 0.07000
vt 0.86000 0.07000
vt 0.86000 0.07000
vt 0.90000 0.07000
vt 0.90000 0.07000
vt 0.90000 0.07000
vt 0.90000 0.07000
vt 0.90000 0.07000
vt 0.90000 0.07000
vt 0.90000 0.07000
vt 0.90000 0.07000
vt 0.90000 0.07000
vt 0.90000 0.07000
vt 0.90000 0.07000
vt 0.90000 0.07000
vt 0.94000 0.07000
vt 0.94000 0.07000
vt 0.94000 0.07000
vt 0.94000 0.07000
vt 0.94000 0.07000
vt 0.94000 0.07000
vt 0.94000 0.07000
vt 0.94000 0.07000
vt 0.94000 0.07000
vt 0.94000 0.07000
vt 0.94000 0.07000
vt 0.94000 0.07000
vn -0.94859 0.00000 -0.31652
vn -0.94859 0.00000 -0.31652
vn -0.94859 0.00000 -0.31652
vn -0.94859 0.00000 -0.31652
vn 0.00000 1.00000 -0.00000
vn 0.00000 1.00000 -0.00000
vn 0.00000 1.00000 -0.00000
vn 0.00000 1.00000 -0.00000
vn 0.00000 -1.00000 -0.00000
vn 0.00000 -1.00000 -0.00000
vn 0.00000 -1.00000 -0.00000
vn 0.00000 -1.00000 -0.00000
vn -0.71565 0.00000 -0.69846
vn -0.71565 0.00000 -0.69846
vn -0.71565 0.00000 -0.69846
vn -0.71565 0.00000 -0.69846
vn 0.00000 1.00000 -0.00000
vn 0.00000 1.00000 -0.00000
vn 0.00000 1.00000 -0.00000
vn 0.00000 1.00000 -0.00000
vn 0.00000 -1.00000 -0.00000
vn 0.00000 -1.00000 -0.00000
vn 0.00000 -1.00000 -0.00000
vn 0.00000 -1.00000 -0.00000
vn -0.25978 0.00000 -0.96567
vn -0.25978 0.00000 -0.96567
vn -0.25978 0.00000 -0.96567
vn -0.25978 0.00000 -0.96567
vn 0.00000 1.00000 -0.00000
vn 0.00000 1.00000 -0.00000
vn 0.00000 1.00000 -0.00000
vn 0.00000 1.00000 -0.00000
vn -0.00000 -1.00000 -0.00000
vn -0.00000 -1.00000 -0.00000
vn -0.00000 -1.00000 -0.00000
vn -0.00000 -1.00000 -0.00000
vn 0.25978 0.00000 -0.96567
vn 0.25978 0.00000 -0.96567
vn 0.25978 0.00000 -0.96567
vn 0.25978 0.00000 -0.96567
vn 0.00000 1.00000 -0.00000
vn 0.00000 1.00000 -0.00000
vn 0.00000 1.00000 -0.00000
vn 0.00000 1.00000 -0.00000
vn 0.00000 -1.00000 -0.00000
vn 0.00000 -1.00000 -0.00000
vn 0.00000 -1.00000 -0.00000
vn 0.00000 -1.00000 -0.00000
vn 0.71565 0.00000 -0.69846
vn 0.71565 0.00000 -0.69846
vn 0.71565 0.00000 -0.69846
vn 0.71565 0.00000 -0.69846
vn 0.00000 1.00000 -0.00000
vn 0.00000 1.00000 -0.00000
vn 0.00000 1.00000 -0.00000
vn 0.00000 1.00000 -0.00000
vn 0.00000 -1.00000 -0.00000
vn 0.00000 -1.00000 -0.00000
vn 0.00000 -1.00000 -0.00000
vn 0.00000 -1.00000 -0.00000
vn 0.94859 0.00000 -0.31652
vn 0.94859 0.00000 -0.31652
vn 0.94859 0.00000 -0.31652
vn 0.94859 0.00000 -0.31652
vn 0.00000 1.00000 -0.00000
vn 0.00000 1.00000 -0.00000
vn 0.00000 1.00000 -0.00000
vn 0.00000 1.00000 -0.00000
vn -0.00000 -1.00000 -0.00000
vn -0.00000 -1.00000 -0.00000
vn -0.00000 -1.00000 -0.00000
vn -0.00000 -1.00000 -0.00000
f 1/1/1 5/2/2 7/3/3 3/4/4
f 2/5/5 6/6/6 5/7/7 1/8/8
f 3/9/9 7/10/10 8/11/11 4/12/12
f 5/13/13 9/14/14 11/15/15 7/16/16
f 6/17/17 10/18/18 9/19/19 5/20/20
f 7/21/21 11/22/22 12/23/23 8/24/24
f 9/25/25 13/26/26 15/27/27 11/28/28
f 10/29/29 14/30/30 13/31/31 9/32/32
f 11/33/33 15/34/34 16/35/35 12/36/36
f 13/37/37 17/38/38 19/39/39 15/40/40
f 14/41/41 18/42/42 17/43/43 13/44/44
f 15/45/45 19/46/46 20/47/47 16/48/48
f 17/49/49 21/50/50 23/51/51 19/52/52
f 18/53/53 22/54/54 21/55/55 17/56/56
f 19/57/57 23/58/58 24/59/59 20/60/60
f 21/61/61 25/62/62 27/63/63 23/64/64
f 22/65/65 26/66/66 25/67/67 21/68/68
f 23/69/69 27/70/70 28/71/71 24/72/72
