# Component OBJ: Leg_left
o Leg_left
v -0.09800 -0.11500 0.04750
v -0.09800 -0.24500 0.04750
v 0.00000 -0.00394 0.07490
v 0.00000 -0.38394 0.05490
v 0.05303 -0.00279 0.05296
v 0.05303 -0.38279 0.03296
v 0.07500 0.00000 -0.00000
v 0.07500 -0.38000 -0.02000
v 0.05303 0.00279 -0.05296
v 0.05303 -0.37721 -0.07296
v 0.00000 0.00394 -0.07490
v 0.00000 -0.37606 -0.09490
v -0.05303 0.00279 -0.05296
v -0.05303 -0.37721 -0.07296
v -0.07500 0.00000 -0.00000
v -0.07500 -0.38000 -0.02000
v -0.05303 -0.00279 0.05296
v -0.05303 -0.38279 0.03296
v -0.09800 -0.24500 -0.04750
v -0.09800 -0.11500 -0.04750
v -0.05200 -0.24500 0.04750
v -0.05200 -0.11500 0.04750
v -0.05200 -0.24500 -0.04750
v -0.05200 -0.11500 -0.04750
v -0.10100 -0.12600 0.04500
v -0.10100 -0.10400 0.04500
v -0.10100 -0.12600 -0.04500
v -0.10100 -0.10400 -0.04500
v -0.06300 -0.12600 0.04500
v -0.06300 -0.10400 0.04500
v -0.06300 -0.12600 -0.04500
v -0.06300 -0.10400 -0.04500
v -0.04600 -0.44500 -0.06600
v -0.04600 -0.31500 -0.06600
v -0.04600 -0.44500 -0.09800
v -0.04600 -0.31500 -0.09800
v 0.04600 -0.44500 -0.06600
v 0.04600 -0.31500 -0.06600
v 0.04600 -0.44500 -0.09800
v 0.04600 -0.31500 -0.09800
v -0.05250 -0.42300 0.03250
v -0.05250 -0.40700 0.03250
v -0.05250 -0.42300 -0.06250
v -0.05250 -0.40700 -0.06250
v 0.05250 -0.42300 0.03250
v 0.05250 -0.40700 0.03250
v 0.05250 -0.42300 -0.06250
v 0.05250 -0.40700 -0.06250
v -0.05250 -0.35300 0.03250
v -0.05250 -0.33700 0.03250
v -0.05250 -0.35300 -0.06250
v -0.05250 -0.33700 -0.06250
v 0.05250 -0.35300 0.03250
v 0.05250 -0.33700 0.03250
v 0.05250 -0.35300 -0.06250
v 0.05250 -0.33700 -0.06250
v -0.04600 -0.68500 0.06500
v -0.04600 -0.77500 0.06500
v 0.00000 -0.37601 0.03987
v 0.00000 -0.67601 0.05987
v 0.04243 -0.37718 0.02233
v 0.04243 -0.67718 0.04233
v 0.06000 -0.38000 -0.02000
v 0.06000 -0.68000 -0.00000
v 0.04243 -0.38282 -0.06233
v 0.04243 -0.68282 -0.04233
v 0.00000 -0.38399 -0.07987
v 0.00000 -0.68399 -0.05987
v -0.04243 -0.38282 -0.06233
v -0.04243 -0.68282 -0.04233
v -0.06000 -0.38000 -0.02000
v -0.06000 -0.68000 -0.00000
v -0.04243 -0.37718 0.02233
v -0.04243 -0.67718 0.04233
v -0.04600 -0.77500 -0.12500
v -0.04600 -0.68500 -0.12500
v 0.04600 -0.77500 0.06500
v 0.04600 -0.68500 0.06500
v 0.04600 -0.77500 -0.12500
v 0.04600 -0.68500 -0.12500
v -0.04800 -0.70600 0.05000
v -0.04800 -0.67400 0.05000
v -0.04800 -0.70600 -0.07000
v -0.04800 -0.67400 -0.07000
v 0.04800 -0.70600 0.05000
v 0.04800 -0.67400 0.05000
v 0.04800 -0.70600 -0.07000
v 0.04800 -0.67400 -0.07000
v -0.05300 -0.81750 0.08250
v -0.05300 -0.77250 0.08250
v -0.05300 -0.81750 -0.14250
v -0.05300 -0.77250 -0.14250
v 0.05300 -0.81750 0.08250
v 0.05300 -0.77250 0.08250
v 0.05300 -0.81750 -0.14250
v 0.05300 -0.77250 -0.14250
v -0.05400 -0.83500 0.08400
v -0.05400 -0.81500 0.08400
v -0.05400 -0.83500 -0.14400
v -0.05400 -0.81500 -0.14400
v 0.05400 -0.83500 0.08400
v 0.05400 -0.81500 0.08400
v 0.05400 -0.83500 -0.14400
v 0.05400 -0.81500 -0.14400
v -0.05100 -0.84700 -0.12600
v -0.05100 -0.83300 -0.12600
v -0.05100 -0.84700 -0.15400
v -0.05100 -0.83300 -0.15400
v 0.05100 -0.84700 -0.12600
v 0.05100 -0.83300 -0.12600
v 0.05100 -0.84700 -0.15400
v 0.05100 -0.83300 -0.15400
v -0.05100 -0.84700 -0.07600
v -0.05100 -0.83300 -0.07600
v -0.05100 -0.84700 -0.10400
v -0.05100 -0.83300 -0.10400
v 0.05100 -0.84700 -0.07600
v 0.05100 -0.83300 -0.07600
v 0.05100 -0.84700 -0.10400
v 0.05100 -0.83300 -0.10400
v -0.05100 -0.84700 -0.02600
v -0.05100 -0.83300 -0.02600
v -0.05100 -0.84700 -0.05400
v -0.05100 -0.83300 -0.05400
v 0.05100 -0.84700 -0.02600
v 0.05100 -0.83300 -0.02600
v 0.05100 -0.84700 -0.05400
v 0.05100 -0.83300 -0.05400
v -0.05100 -0.84700 0.02400
v -0.05100 -0.83300 0.02400
v -0.05100 -0.84700 -0.00400
v -0.05100 -0.83300 -0.00400
v 0.05100 -0.84700 0.02400
v 0.05100 -0.83300 0.02400
v 0.05100 -0.84700 -0.00400
v 0.05100 -0.83300 -0.00400
v -0.05100 -0.84700 0.07400
v -0.05100 -0.83300 0.07400
v -0.05100 -0.84700 0.04600
v -0.05100 -0.83300 0.04600
v 0.05100 -0.84700 0.07400
v 0.05100 -0.83300 0.07400
v 0.05100 -0.84700 0.04600
v 0.05100 -0.83300 0.04600
vt 0.59500 0.60900
vt 0.59500 0.75500
vt 0.66100 0.75500
vt 0.66100 0.60900
vt 0.50000 0.86300
vt 0.50000 0.98000
vt 0.68000 0.98000
vt 0.68000 0.86300
vt 0.47000 0.77602
vt 0.47000 0.41652
vt 0.50966 0.41761
vt 0.50120 0.77711
vt 0.66100 0.60900
vt 0.66100 0.75500
vt 0.59500 0.75500
vt 0.59500 0.60900
vt 0.68000 0.78000
vt 0.40000 0.78000
vt 0.40000 0.42000
vt 0.68000 0.42000
vt 0.50120 0.77711
vt 0.50966 0.41761
vt 0.54591 0.42025
vt 0.53409 0.77975
vt 0.68000 0.98000
vt 0.50000 0.98000
vt 0.50000 0.86300
vt 0.68000 0.86300
vt 0.40000 0.78000
vt 0.68000 0.78000
vt 0.68000 0.42000
vt 0.40000 0.42000
vt 0.53409 0.77975
vt 0.54591 0.42025
vt 0.57880 0.42289
vt 0.57034 0.78239
vt 0.50000 0.98000
vt 0.68000 0.98000
vt 0.68000 0.86300
vt 0.50000 0.86300
vt 0.68000 0.42000
vt 0.68000 0.78000
vt 0.40000 0.78000
vt 0.40000 0.42000
vt 0.57034 0.78239
vt 0.57880 0.42289
vt 0.61000 0.42398
vt 0.61000 0.78348
vt 0.68000 0.86300
vt 0.68000 0.98000
vt 0.50000 0.98000
vt 0.50000 0.86300
vt 0.68000 0.42000
vt 0.68000 0.78000
vt 0.40000 0.78000
vt 0.40000 0.42000
vt 0.61000 0.78348
vt 0.61000 0.42398
vt 0.64120 0.42289
vt 0.64966 0.78239
vt 0.68000 0.86300
vt 0.68000 0.98000
vt 0.50000 0.98000
vt 0.50000 0.86300
vt 0.40000 0.42000
vt 0.40000 0.78000
vt 0.68000 0.78000
vt 0.68000 0.42000
vt 0.64966 0.78239
vt 0.64120 0.42289
vt 0.67409 0.42025
vt 0.40591 0.77975
vt 0.50966 0.41761
vt 0.47000 0.41652
vt 0.43034 0.41761
vt 0.67409 0.42025
vt 0.64120 0.42289
vt 0.61000 0.42398
vt 0.57880 0.42289
vt 0.54591 0.42025
vt 0.40000 0.42000
vt 0.40000 0.78000
vt 0.68000 0.78000
vt 0.68000 0.42000
vt 0.40591 0.77975
vt 0.67409 0.42025
vt 0.43034 0.41761
vt 0.43880 0.77711
vt 0.59500 0.60900
vt 0.59500 0.75500
vt 0.66100 0.75500
vt 0.66100 0.60900
vt 0.50000 0.86300
vt 0.50000 0.98000
vt 0.68000 0.98000
vt 0.68000 0.86300
vt 0.43880 0.77711
vt 0.43034 0.41761
vt 0.47000 0.41652
vt 0.47000 0.77602
vt 0.47000 0.77602
vt 0.50120 0.77711
vt 0.53409 0.77975
vt 0.57034 0.78239
vt 0.61000 0.78348
vt 0.64966 0.78239
vt 0.40591 0.77975
vt 0.43880 0.77711
vt 0.66100 0.60900
vt 0.66100 0.75500
vt 0.59500 0.75500
vt 0.59500 0.60900
vt 0.59500 0.75500
vt 0.66100 0.75500
vt 0.66100 0.60900
vt 0.59500 0.60900
vt 0.66100 0.75500
vt 0.59500 0.75500
vt 0.59500 0.60900
vt 0.66100 0.60900
vt 0.30000 0.80000
vt 0.30000 0.98000
vt 0.48000 0.98000
vt 0.48000 0.80000
vt 0.30000 0.80000
vt 0.30000 0.98000
vt 0.48000 0.98000
vt 0.48000 0.80000
vt 0.48000 0.80000
vt 0.48000 0.98000
vt 0.30000 0.98000
vt 0.30000 0.80000
vt 0.48000 0.80000
vt 0.48000 0.98000
vt 0.30000 0.98000
vt 0.30000 0.80000
vt 0.30000 0.98000
vt 0.48000 0.98000
vt 0.48000 0.80000
vt 0.30000 0.80000
vt 0.48000 0.98000
vt 0.30000 0.98000
vt 0.30000 0.80000
vt 0.48000 0.80000
vt 0.30000 0.80000
vt 0.30000 0.98000
vt 0.48000 0.98000
vt 0.48000 0.80000
vt 0.30000 0.80000
vt 0.30000 0.98000
vt 0.48000 0.98000
vt 0.48000 0.80000
vt 0.48000 0.80000
vt 0.48000 0.98000
vt 0.30000 0.98000
vt 0.30000 0.80000
vt 0.48000 0.80000
vt 0.48000 0.98000
vt 0.30000 0.98000
vt 0.30000 0.80000
vt 0.30000 0.98000
vt 0.48000 0.98000
vt 0.48000 0.80000
vt 0.30000 0.80000
vt 0.48000 0.98000
vt 0.30000 0.98000
vt 0.30000 0.80000
vt 0.48000 0.80000
vt 0.70000 0.62000
vt 0.70000 0.78000
vt 0.98000 0.78000
vt 0.98000 0.62000
vt 0.50000 0.86300
vt 0.50000 0.98000
vt 0.68000 0.98000
vt 0.68000 0.86300
vt 0.47000 0.78438
vt 0.47000 0.42518
vt 0.50036 0.42378
vt 0.51098 0.78298
vt 0.98000 0.62000
vt 0.98000 0.78000
vt 0.70000 0.78000
vt 0.70000 0.62000
vt 0.28000 0.98000
vt 0.02000 0.98000
vt 0.02000 0.62000
vt 0.28000 0.62000
vt 0.51098 0.78298
vt 0.50036 0.42378
vt 0.53264 0.42040
vt 0.54736 0.77960
vt 0.68000 0.98000
vt 0.50000 0.98000
vt 0.50000 0.86300
vt 0.68000 0.86300
vt 0.02000 0.98000
vt 0.28000 0.98000
vt 0.28000 0.62000
vt 0.02000 0.62000
vt 0.54736 0.77960
vt 0.53264 0.42040
vt 0.56902 0.41702
vt 0.57964 0.77622
vt 0.50000 0.98000
vt 0.68000 0.98000
vt 0.68000 0.86300
vt 0.50000 0.86300
vt 0.28000 0.62000
vt 0.28000 0.98000
vt 0.02000 0.98000
vt 0.02000 0.62000
vt 0.57964 0.77622
vt 0.56902 0.41702
vt 0.61000 0.41562
vt 0.61000 0.77482
vt 0.68000 0.86300
vt 0.68000 0.98000
vt 0.50000 0.98000
vt 0.50000 0.86300
vt 0.28000 0.62000
vt 0.28000 0.98000
vt 0.02000 0.98000
vt 0.02000 0.62000
vt 0.61000 0.77482
vt 0.61000 0.41562
vt 0.65098 0.41702
vt 0.64036 0.77622
vt 0.68000 0.86300
vt 0.68000 0.98000
vt 0.50000 0.98000
vt 0.50000 0.86300
vt 0.02000 0.62000
vt 0.02000 0.98000
vt 0.28000 0.98000
vt 0.28000 0.62000
vt 0.64036 0.77622
vt 0.65098 0.41702
vt 0.40736 0.42040
vt 0.67264 0.77960
vt 0.50036 0.42378
vt 0.47000 0.42518
vt 0.43964 0.42378
vt 0.40736 0.42040
vt 0.65098 0.41702
vt 0.61000 0.41562
vt 0.56902 0.41702
vt 0.53264 0.42040
vt 0.02000 0.62000
vt 0.02000 0.98000
vt 0.28000 0.98000
vt 0.28000 0.62000
vt 0.67264 0.77960
vt 0.40736 0.42040
vt 0.43964 0.42378
vt 0.42902 0.78298
vt 0.70000 0.62000
vt 0.70000 0.78000
vt 0.98000 0.78000
vt 0.98000 0.62000
vt 0.50000 0.86300
vt 0.50000 0.98000
vt 0.68000 0.98000
vt 0.68000 0.86300
vt 0.42902 0.78298
vt 0.43964 0.42378
vt 0.47000 0.42518
vt 0.47000 0.78438
vt 0.47000 0.78438
vt 0.51098 0.78298
vt 0.54736 0.77960
vt 0.57964 0.77622
vt 0.61000 0.77482
vt 0.64036 0.77622
vt 0.67264 0.77960
vt 0.42902 0.78298
vt 0.98000 0.62000
vt 0.98000 0.78000
vt 0.70000 0.78000
vt 0.70000 0.62000
vt 0.70000 0.78000
vt 0.98000 0.78000
vt 0.98000 0.62000
vt 0.70000 0.62000
vt 0.98000 0.78000
vt 0.70000 0.78000
vt 0.70000 0.62000
vt 0.98000 0.62000
vt 0.70000 0.42000
vt 0.70000 0.60000
vt 0.98000 0.60000
vt 0.98000 0.42000
vt 0.70000 0.42000
vt 0.70000 0.60000
vt 0.98000 0.60000
vt 0.98000 0.42000
vt 0.98000 0.42000
vt 0.98000 0.60000
vt 0.70000 0.60000
vt 0.70000 0.42000
vt 0.98000 0.42000
vt 0.98000 0.60000
vt 0.70000 0.60000
vt 0.70000 0.42000
vt 0.70000 0.60000
vt 0.98000 0.60000
vt 0.98000 0.42000
vt 0.70000 0.42000
vt 0.98000 0.60000
vt 0.70000 0.60000
vt 0.70000 0.42000
vt 0.98000 0.42000
vt 0.70000 0.42000
vt 0.70000 0.60000
vt 0.98000 0.60000
vt 0.98000 0.42000
vt 0.70000 0.42000
vt 0.70000 0.60000
vt 0.98000 0.60000
vt 0.98000 0.42000
vt 0.98000 0.42000
vt 0.98000 0.60000
vt 0.70000 0.60000
vt 0.70000 0.42000
vt 0.98000 0.42000
vt 0.98000 0.60000
vt 0.70000 0.60000
vt 0.70000 0.42000
vt 0.70000 0.60000
vt 0.98000 0.60000
vt 0.98000 0.42000
vt 0.70000 0.42000
vt 0.98000 0.60000
vt 0.70000 0.60000
vt 0.70000 0.42000
vt 0.98000 0.42000
vt 0.70000 0.42000
vt 0.70000 0.60000
vt 0.98000 0.60000
vt 0.98000 0.42000
vt 0.70000 0.42000
vt 0.70000 0.60000
vt 0.98000 0.60000
vt 0.98000 0.42000
vt 0.98000 0.42000
vt 0.98000 0.60000
vt 0.70000 0.60000
vt 0.70000 0.42000
vt 0.98000 0.42000
vt 0.98000 0.60000
vt 0.70000 0.60000
vt 0.70000 0.42000
vt 0.70000 0.60000
vt 0.98000 0.60000
vt 0.98000 0.42000
vt 0.70000 0.42000
vt 0.98000 0.60000
vt 0.70000 0.60000
vt 0.70000 0.42000
vt 0.98000 0.42000
vt 0.70000 0.42000
vt 0.70000 0.60000
vt 0.98000 0.60000
vt 0.98000 0.42000
vt 0.70000 0.42000
vt 0.70000 0.60000
vt 0.98000 0.60000
vt 0.98000 0.42000
vt 0.98000 0.42000
vt 0.98000 0.60000
vt 0.70000 0.60000
vt 0.70000 0.42000
vt 0.98000 0.42000
vt 0.98000 0.60000
vt 0.70000 0.60000
vt 0.70000 0.42000
vt 0.70000 0.60000
vt 0.98000 0.60000
vt 0.98000 0.42000
vt 0.70000 0.42000
vt 0.98000 0.60000
vt 0.70000 0.60000
vt 0.70000 0.42000
vt 0.98000 0.42000
vt 0.70000 0.42000
vt 0.70000 0.60000
vt 0.98000 0.60000
vt 0.98000 0.42000
vt 0.70000 0.42000
vt 0.70000 0.60000
vt 0.98000 0.60000
vt 0.98000 0.42000
vt 0.98000 0.42000
vt 0.98000 0.60000
vt 0.70000 0.60000
vt 0.70000 0.42000
vt 0.98000 0.42000
vt 0.98000 0.60000
vt 0.70000 0.60000
vt 0.70000 0.42000
vt 0.70000 0.60000
vt 0.98000 0.60000
vt 0.98000 0.42000
vt 0.70000 0.42000
vt 0.98000 0.60000
vt 0.70000 0.60000
vt 0.70000 0.42000
vt 0.98000 0.42000
vt 0.70000 0.42000
vt 0.70000 0.60000
vt 0.98000 0.60000
vt 0.98000 0.42000
vt 0.70000 0.42000
vt 0.70000 0.60000
vt 0.98000 0.60000
vt 0.98000 0.42000
vt 0.98000 0.42000
vt 0.98000 0.60000
vt 0.70000 0.60000
vt 0.70000 0.42000
vt 0.98000 0.42000
vt 0.98000 0.60000
vt 0.70000 0.60000
vt 0.70000 0.42000
vt 0.70000 0.60000
vt 0.98000 0.60000
vt 0.98000 0.42000
vt 0.70000 0.42000
vt 0.98000 0.60000
vt 0.70000 0.60000
vt 0.70000 0.42000
vt 0.98000 0.42000
vn 0.00000 0.00000 -1.00000
vn 0.00000 0.00000 -1.00000
vn 0.00000 0.00000 -1.00000
vn 0.00000 0.00000 -1.00000
vn -1.00000 0.00000 -0.00000
vn -1.00000 0.00000 -0.00000
vn -1.00000 0.00000 -0.00000
vn -1.00000 0.00000 -0.00000
vn -0.00000 0.58858 0.80844
vn -0.00000 -0.67019 0.74219
vn 0.54899 -0.65824 0.51510
vn 0.54899 0.60053 0.58136
vn 1.00000 0.00000 -0.00000
vn 1.00000 0.00000 -0.00000
vn 1.00000 0.00000 -0.00000
vn 1.00000 0.00000 -0.00000
vn 0.00000 1.00000 -0.00000
vn 0.00000 1.00000 -0.00000
vn 0.00000 1.00000 -0.00000
vn 0.00000 1.00000 -0.00000
vn 0.54899 0.60053 0.58136
vn 0.54899 -0.65824 0.51510
vn 0.77639 -0.62938 -0.03313
vn 0.77639 0.62938 0.03313
vn 0.00000 1.00000 -0.00000
vn 0.00000 1.00000 -0.00000
vn 0.00000 1.00000 -0.00000
vn 0.00000 1.00000 -0.00000
vn 0.00000 -1.00000 -0.00000
vn 0.00000 -1.00000 -0.00000
vn 0.00000 -1.00000 -0.00000
vn 0.00000 -1.00000 -0.00000
vn 0.77639 0.62938 0.03313
vn 0.77639 -0.62938 -0.03313
vn 0.54899 -0.60053 -0.58136
vn 0.54899 0.65824 -0.51511
vn 0.00000 -1.00000 -0.00000
vn 0.00000 -1.00000 -0.00000
vn 0.00000 -1.00000 -0.00000
vn 0.00000 -1.00000 -0.00000
vn 0.00000 0.00000 1.00000
vn 0.00000 0.00000 1.00000
vn 0.00000 0.00000 1.00000
vn 0.00000 0.00000 1.00000
vn 0.54899 0.65824 -0.51511
vn 0.54899 -0.60053 -0.58136
vn 0.00000 -0.58858 -0.80844
vn 0.00000 0.67019 -0.74219
vn 0.00000 0.00000 1.00000
vn 0.00000 0.00000 1.00000
vn 0.00000 0.00000 1.00000
vn 0.00000 0.00000 1.00000
vn 1.00000 0.00000 -0.00000
vn 1.00000 0.00000 -0.00000
vn 1.00000 0.00000 -0.00000
vn 1.00000 0.00000 -0.00000
vn 0.00000 0.67019 -0.74219
vn 0.00000 -0.58858 -0.80844
vn -0.54899 -0.60053 -0.58136
vn -0.54899 0.65824 -0.51511
vn 1.00000 0.00000 -0.00000
vn 1.00000 0.00000 -0.00000
vn 1.00000 0.00000 -0.00000
vn 1.00000 0.00000 -0.00000
vn 0.00000 0.00000 -1.00000
vn 0.00000 0.00000 -1.00000
vn 0.00000 0.00000 -1.00000
vn 0.00000 0.00000 -1.00000
vn -0.54899 0.65824 -0.51511
vn -0.54899 -0.60053 -0.58136
vn -0.77639 -0.62938 -0.03313
vn -0.77639 0.62938 0.03313
vn 0.54899 -0.65824 0.51510
vn -0.00000 -0.67019 0.74219
vn -0.54899 -0.65824 0.51510
vn -0.77639 -0.62938 -0.03313
vn -0.54899 -0.60053 -0.58136
vn 0.00000 -0.58858 -0.80844
vn 0.54899 -0.60053 -0.58136
vn 0.77639 -0.62938 -0.03313
vn -1.00000 0.00000 -0.00000
vn -1.00000 0.00000 -0.00000
vn -1.00000 0.00000 -0.00000
vn -1.00000 0.00000 -0.00000
vn -0.77639 0.62938 0.03313
vn -0.77639 -0.62938 -0.03313
vn -0.54899 -0.65824 0.51510
vn -0.54899 0.60053 0.58136
vn -1.00000 0.00000 -0.00000
vn -1.00000 0.00000 -0.00000
vn -1.00000 0.00000 -0.00000
vn -1.00000 0.00000 -0.00000
vn 0.00000 0.00000 -1.00000
vn 0.00000 0.00000 -1.00000
vn 0.00000 0.00000 -1.00000
vn 0.00000 0.00000 -1.00000
vn -0.54899 0.60053 0.58136
vn -0.54899 -0.65824 0.51510
vn -0.00000 -0.67019 0.74219
vn -0.00000 0.58858 0.80844
vn -0.00000 0.58858 0.80844
vn 0.54899 0.60053 0.58136
vn 0.77639 0.62938 0.03313
vn 0.54899 0.65824 -0.51511
vn 0.00000 0.67019 -0.74219
vn -0.54899 0.65824 -0.51511
vn -0.77639 0.62938 0.03313
vn -0.54899 0.60053 0.58136
vn 0.00000 0.00000 1.00000
vn 0.00000 0.00000 1.00000
vn 0.00000 0.00000 1.00000
vn 0.00000 0.00000 1.00000
vn 0.00000 -1.00000 -0.00000
vn 0.00000 -1.00000 -0.00000
vn 0.00000 -1.00000 -0.00000
vn 0.00000 -1.00000 -0.00000
vn 0.00000 1.00000 -0.00000
vn 0.00000 1.00000 -0.00000
vn 0.00000 1.00000 -0.00000
vn 0.00000 1.00000 -0.00000
vn -1.00000 0.00000 -0.00000
vn -1.00000 0.00000 -0.00000
vn -1.00000 0.00000 -0.00000
vn -1.00000 0.00000 -0.00000
vn 0.00000 0.00000 -1.00000
vn 0.00000 0.00000 -1.00000
vn 0.00000 0.00000 -1.00000
vn 0.00000 0.00000 -1.00000
vn 1.00000 0.00000 -0.00000
vn 1.00000 0.00000 -0.00000
vn 1.00000 0.00000 -0.00000
vn 1.00000 0.00000 -0.00000
vn 0.00000 0.00000 1.00000
vn 0.00000 0.00000 1.00000
vn 0.00000 0.00000 1.00000
vn 0.00000 0.00000 1.00000
vn 0.00000 -1.00000 -0.00000
vn 0.00000 -1.00000 -0.00000
vn 0.00000 -1.00000 -0.00000
vn 0.00000 -1.00000 -0.00000
vn 0.00000 1.00000 -0.00000
vn 0.00000 1.00000 -0.00000
vn 0.00000 1.00000 -0.00000
vn 0.00000 1.00000 -0.00000
vn -1.00000 0.00000 -0.00000
vn -1.00000 0.00000 -0.00000
vn -1.00000 0.00000 -0.00000
vn -1.00000 0.00000 -0.00000
vn 0.00000 0.00000 -1.00000
vn 0.00000 0.00000 -1.00000
vn 0.00000 0.00000 -1.00000
vn 0.00000 0.00000 -1.00000
vn 1.00000 0.00000 -0.00000
vn 1.00000 0.00000 -0.00000
vn 1.00000 0.00000 -0.00000
vn 1.00000 0.00000 -0.00000
vn 0.00000 0.00000 1.00000
vn 0.00000 0.00000 1.00000
vn 0.00000 0.00000 1.00000
vn 0.00000 0.00000 1.00000
vn 0.00000 -1.00000 -0.00000
vn 0.00000 -1.00000 -0.00000
vn 0.00000 -1.00000 -0.00000
vn 0.00000 -1.00000 -0.00000
vn 0.00000 1.00000 -0.00000
vn 0.00000 1.00000 -0.00000
vn 0.00000 1.00000 -0.00000
vn 0.00000 1.00000 -0.00000
vn 0.00000 0.00000 -1.00000
vn 0.00000 0.00000 -1.00000
vn 0.00000 0.00000 -1.00000
vn 0.00000 0.00000 -1.00000
vn -1.00000 0.00000 -0.00000
vn -1.00000 0.00000 -0.00000
vn -1.00000 0.00000 -0.00000
vn -1.00000 0.00000 -0.00000
vn 0.00000 0.68050 0.73274
vn 0.00000 -0.57722 0.81659
vn 0.54899 -0.59234 0.58970
vn 0.54899 0.66538 0.50585
vn 1.00000 0.00000 -0.00000
vn 1.00000 0.00000 -0.00000
vn 1.00000 0.00000 -0.00000
vn 1.00000 0.00000 -0.00000
vn 0.00000 1.00000 -0.00000
vn 0.00000 1.00000 -0.00000
vn 0.00000 1.00000 -0.00000
vn 0.00000 1.00000 -0.00000
vn 0.54899 0.66538 0.50585
vn 0.54899 -0.59234 0.58970
vn 0.77639 -0.62886 0.04192
vn 0.77639 0.62886 -0.04192
vn 0.00000 1.00000 -0.00000
vn 0.00000 1.00000 -0.00000
vn 0.00000 1.00000 -0.00000
vn 0.00000 1.00000 -0.00000
vn 0.00000 -1.00000 -0.00000
vn 0.00000 -1.00000 -0.00000
vn 0.00000 -1.00000 -0.00000
vn 0.00000 -1.00000 -0.00000
vn 0.77639 0.62886 -0.04192
vn 0.77639 -0.62886 0.04192
vn 0.54899 -0.66538 -0.50585
vn 0.54899 0.59234 -0.58970
vn 0.00000 -1.00000 -0.00000
vn 0.00000 -1.00000 -0.00000
vn 0.00000 -1.00000 -0.00000
vn 0.00000 -1.00000 -0.00000
vn 0.00000 0.00000 1.00000
vn 0.00000 0.00000 1.00000
vn 0.00000 0.00000 1.00000
vn 0.00000 0.00000 1.00000
vn 0.54899 0.59234 -0.58970
vn 0.54899 -0.66538 -0.50585
vn 0.00000 -0.68050 -0.73274
vn 0.00000 0.57722 -0.81659
vn 0.00000 0.00000 1.00000
vn 0.00000 0.00000 1.00000
vn 0.00000 0.00000 1.00000
vn 0.00000 0.00000 1.00000
vn 1.00000 0.00000 -0.00000
vn 1.00000 0.00000 -0.00000
vn 1.00000 0.00000 -0.00000
vn 1.00000 0.00000 -0.00000
vn 0.00000 0.57722 -0.81659
vn 0.00000 -0.68050 -0.73274
vn -0.54899 -0.66538 -0.50585
vn -0.54899 0.59234 -0.58970
vn 1.00000 0.00000 -0.00000
vn 1.00000 0.00000 -0.00000
vn 1.00000 0.00000 -0.00000
vn 1.00000 0.00000 -0.00000
vn 0.00000 0.00000 -1.00000
vn 0.00000 0.00000 -1.00000
vn 0.00000 0.00000 -1.00000
vn 0.00000 0.00000 -1.00000
vn -0.54899 0.59234 -0.58970
vn -0.54899 -0.66538 -0.50585
vn -0.77639 -0.62886 0.04192
vn -0.77639 0.62886 -0.04192
vn 0.54899 -0.59234 0.58970
vn 0.00000 -0.57722 0.81659
vn -0.54899 -0.59234 0.58970
vn -0.77639 -0.62886 0.04192
vn -0.54899 -0.66538 -0.50585
vn 0.00000 -0.68050 -0.73274
vn 0.54899 -0.66538 -0.50585
vn 0.77639 -0.62886 0.04192
vn -1.00000 0.00000 -0.00000
vn -1.00000 0.00000 -0.00000
vn -1.00000 0.00000 -0.00000
vn -1.00000 0.00000 -0.00000
vn -0.77639 0.62886 -0.04192
vn -0.77639 -0.62886 0.04192
vn -0.54899 -0.59234 0.58970
vn -0.54899 0.66538 0.50585
vn -1.00000 0.00000 -0.00000
vn -1.00000 0.00000 -0.00000
vn -1.00000 0.00000 -0.00000
vn -1.00000 0.00000 -0.00000
vn 0.00000 0.00000 -1.00000
vn 0.00000 0.00000 -1.00000
vn 0.00000 0.00000 -1.00000
vn 0.00000 0.00000 -1.00000
vn -0.54899 0.66538 0.50585
vn -0.54899 -0.59234 0.58970
vn 0.00000 -0.57722 0.81659
vn 0.00000 0.68050 0.73274
vn 0.00000 0.68050 0.73274
vn 0.54899 0.66538 0.50585
vn 0.77639 0.62886 -0.04192
vn 0.54899 0.59234 -0.58970
vn 0.00000 0.57722 -0.81659
vn -0.54899 0.59234 -0.58970
vn -0.77639 0.62886 -0.04192
vn -0.54899 0.66538 0.50585
vn 0.00000 0.00000 1.00000
vn 0.00000 0.00000 1.00000
vn 0.00000 0.00000 1.00000
vn 0.00000 0.00000 1.00000
vn 0.00000 -1.00000 -0.00000
vn 0.00000 -1.00000 -0.00000
vn 0.00000 -1.00000 -0.00000
vn 0.00000 -1.00000 -0.00000
vn 0.00000 1.00000 -0.00000
vn 0.00000 1.00000 -0.00000
vn 0.00000 1.00000 -0.00000
vn 0.00000 1.00000 -0.00000
vn -1.00000 0.00000 -0.00000
vn -1.00000 0.00000 -0.00000
vn -1.00000 0.00000 -0.00000
vn -1.00000 0.00000 -0.00000
vn 0.00000 0.00000 -1.00000
vn 0.00000 0.00000 -1.00000
vn 0.00000 0.00000 -1.00000
vn 0.00000 0.00000 -1.00000
vn 1.00000 0.00000 -0.00000
vn 1.00000 0.00000 -0.00000
vn 1.00000 0.00000 -0.00000
vn 1.00000 0.00000 -0.00000
vn 0.00000 0.00000 1.00000
vn 0.00000 0.00000 1.00000
vn 0.00000 0.00000 1.00000
vn 0.00000 0.00000 1.00000
vn 0.00000 -1.00000 -0.00000
vn 0.00000 -1.00000 -0.00000
vn 0.00000 -1.00000 -0.00000
vn 0.00000 -1.00000 -0.00000
vn 0.00000 1.00000 -0.00000
vn 0.00000 1.00000 -0.00000
vn 0.00000 1.00000 -0.00000
vn 0.00000 1.00000 -0.00000
vn -1.00000 0.00000 -0.00000
vn -1.00000 0.00000 -0.00000
vn -1.00000 0.00000 -0.00000
vn -1.00000 0.00000 -0.00000
vn 0.00000 0.00000 -1.00000
vn 0.00000 0.00000 -1.00000
vn 0.00000 0.00000 -1.00000
vn 0.00000 0.00000 -1.00000
vn 1.00000 0.00000 -0.00000
vn 1.00000 0.00000 -0.00000
vn 1.00000 0.00000 -0.00000
vn 1.00000 0.00000 -0.00000
vn 0.00000 0.00000 1.00000
vn 0.00000 0.00000 1.00000
vn 0.00000 0.00000 1.00000
vn 0.00000 0.00000 1.00000
vn 0.00000 -1.00000 -0.00000
vn 0.00000 -1.00000 -0.00000
vn 0.00000 -1.00000 -0.00000
vn 0.00000 -1.00000 -0.00000
vn 0.00000 1.00000 -0.00000
vn 0.00000 1.00000 -0.00000
vn 0.00000 1.00000 -0.00000
vn 0.00000 1.00000 -0.00000
vn -1.00000 0.00000 -0.00000
vn -1.00000 0.00000 -0.00000
vn -1.00000 0.00000 -0.00000
vn -1.00000 0.00000 -0.00000
vn 0.00000 0.00000 -1.00000
vn 0.00000 0.00000 -1.00000
vn 0.00000 0.00000 -1.00000
vn 0.00000 0.00000 -1.00000
vn 1.00000 0.00000 -0.00000
vn 1.00000 0.00000 -0.00000
vn 1.00000 0.00000 -0.00000
vn 1.00000 0.00000 -0.00000
vn 0.00000 0.00000 1.00000
vn 0.00000 0.00000 1.00000
vn 0.00000 0.00000 1.00000
vn 0.00000 0.00000 1.00000
vn 0.00000 -1.00000 -0.00000
vn 0.00000 -1.00000 -0.00000
vn 0.00000 -1.00000 -0.00000
vn 0.00000 -1.00000 -0.00000
vn 0.00000 1.00000 -0.00000
vn 0.00000 1.00000 -0.00000
vn 0.00000 1.00000 -0.00000
vn 0.00000 1.00000 -0.00000
vn -1.00000 0.00000 -0.00000
vn -1.00000 0.00000 -0.00000
vn -1.00000 0.00000 -0.00000
vn -1.00000 0.00000 -0.00000
vn 0.00000 0.00000 -1.00000
vn 0.00000 0.00000 -1.00000
vn 0.00000 0.00000 -1.00000
vn 0.00000 0.00000 -1.00000
vn 1.00000 0.00000 -0.00000
vn 1.00000 0.00000 -0.00000
vn 1.00000 0.00000 -0.00000
vn 1.00000 0.00000 -0.00000
vn 0.00000 0.00000 1.00000
vn 0.00000 0.00000 1.00000
vn 0.00000 0.00000 1.00000
vn 0.00000 0.00000 1.00000
vn 0.00000 -1.00000 -0.00000
vn 0.00000 -1.00000 -0.00000
vn 0.00000 -1.00000 -0.00000
vn 0.00000 -1.00000 -0.00000
vn 0.00000 1.00000 -0.00000
vn 0.00000 1.00000 -0.00000
vn 0.00000 1.00000 -0.00000
vn 0.00000 1.00000 -0.00000
vn -1.00000 0.00000 -0.00000
vn -1.00000 0.00000 -0.00000
vn -1.00000 0.00000 -0.00000
vn -1.00000 0.00000 -0.00000
vn 0.00000 0.00000 -1.00000
vn 0.00000 0.00000 -1.00000
vn 0.00000 0.00000 -1.00000
vn 0.00000 0.00000 -1.00000
vn 1.00000 0.00000 -0.00000
vn 1.00000 0.00000 -0.00000
vn 1.00000 0.00000 -0.00000
vn 1.00000 0.00000 -0.00000
vn 0.00000 0.00000 1.00000
vn 0.00000 0.00000 1.00000
vn 0.00000 0.00000 1.00000
vn 0.00000 0.00000 1.00000
vn 0.00000 -1.00000 -0.00000
vn 0.00000 -1.00000 -0.00000
vn 0.00000 -1.00000 -0.00000
vn 0.00000 -1.00000 -0.00000
vn 0.00000 1.00000 -0.00000
vn 0.00000 1.00000 -0.00000
vn 0.00000 1.00000 -0.00000
vn 0.00000 1.00000 -0.00000
vn -1.00000 0.00000 -0.00000
vn -1.00000 0.00000 -0.00000
vn -1.00000 0.00000 -0.00000
vn -1.00000 0.00000 -0.00000
vn 0.00000 0.00000 -1.00000
vn 0.00000 0.00000 -1.00000
vn 0.00000 0.00000 -1.00000
vn 0.00000 0.00000 -1.00000
vn 1.00000 0.00000 -0.00000
vn 1.00000 0.00000 -0.00000
vn 1.00000 0.00000 -0.00000
vn 1.00000 0.00000 -0.00000
vn 0.00000 0.00000 1.00000
vn 0.00000 0.00000 1.00000
vn 0.00000 0.00000 1.00000
vn 0.00000 0.00000 1.00000
vn 0.00000 -1.00000 -0.00000
vn 0.00000 -1.00000 -0.00000
vn 0.00000 -1.00000 -0.00000
vn 0.00000 -1.00000 -0.00000
vn 0.00000 1.00000 -0.00000
vn 0.00000 1.00000 -0.00000
vn 0.00000 1.00000 -0.00000
vn 0.00000 1.00000 -0.00000
f 35/1/1 36/2/2 40/3/3 39/4/4
f 25/5/5 26/6/6 28/7/7 27/8/8
f 3/9/9 4/10/10 6/11/11 5/12/12
f 39/13/13 40/14/14 38/15/15 37/16/16
f 24/17/17 20/18/18 1/19/19 22/20/20
f 5/21/21 6/22/22 8/23/23 7/24/24
f 32/25/25 28/26/26 26/27/27 30/28/28
f 19/29/29 23/30/30 21/31/31 2/32/32
f 7/33/33 8/34/34 10/35/35 9/36/36
f 27/37/37 31/38/38 29/39/39 25/40/40
f 21/41/41 22/42/42 1/43/43 2/44/44
f 9/45/45 10/46/46 12/47/47 11/48/48
f 29/49/49 30/50/50 26/51/51 25/52/52
f 23/53/53 24/54/54 22/55/55 21/56/56
f 11/57/57 12/58/58 14/59/59 13/60/60
f 31/61/61 32/62/62 30/63/63 29/64/64
f 19/65/65 20/66/66 24/67/67 23/68/68
f 13/69/69 14/70/70 16/71/71 15/72/72
f 6/73/73 4/74/74 18/75/75 16/76/76 14/77/77 12/78/78 10/79/79 8/80/80
f 2/81/81 1/82/82 20/83/83 19/84/84
f 15/85/85 16/86/86 18/87/87 17/88/88
f 33/89/89 34/90/90 36/91/91 35/92/92
f 27/93/93 28/94/94 32/95/95 31/96/96
f 17/97/97 18/98/98 4/99/99 3/100/100
f 3/101/101 5/102/102 7/103/103 9/104/104 11/105/105 13/106/106 15/107/107 17/108/108
f 37/109/109 38/110/110 34/111/111 33/112/112
f 35/113/113 39/114/114 37/115/115 33/116/116
f 40/117/117 36/118/118 34/119/119 38/120/120
f 41/121/121 42/122/122 44/123/123 43/124/124
f 43/125/125 44/126/126 48/127/127 47/128/128
f 47/129/129 48/130/130 46/131/131 45/132/132
f 45/133/133 46/134/134 42/135/135 41/136/136
f 43/137/137 47/138/138 45/139/139 41/140/140
f 48/141/141 44/142/142 42/143/143 46/144/144
f 49/145/145 50/146/146 52/147/147 51/148/148
f 51/149/149 52/150/150 56/151/151 55/152/152
f 55/153/153 56/154/154 54/155/155 53/156/156
f 53/157/157 54/158/158 50/159/159 49/160/160
f 51/161/161 55/162/162 53/163/163 49/164/164
f 56/165/165 52/166/166 50/167/167 54/168/168
f 91/169/169 92/170/170 96/171/171 95/172/172
f 81/173/173 82/174/174 84/175/175 83/176/176
f 59/177/177 60/178/178 62/179/179 61/180/180
f 95/181/181 96/182/182 94/183/183 93/184/184
f 80/185/185 76/186/186 57/187/187 78/188/188
f 61/189/189 62/190/190 64/191/191 63/192/192
f 88/193/193 84/194/194 82/195/195 86/196/196
f 75/197/197 79/198/198 77/199/199 58/200/200
f 63/201/201 64/202/202 66/203/203 65/204/204
f 83/205/205 87/206/206 85/207/207 81/208/208
f 77/209/209 78/210/210 57/211/211 58/212/212
f 65/213/213 66/214/214 68/215/215 67/216/216
f 85/217/217 86/218/218 82/219/219 81/220/220
f 79/221/221 80/222/222 78/223/223 77/224/224
f 67/225/225 68/226/226 70/227/227 69/228/228
f 87/229/229 88/230/230 86/231/231 85/232/232
f 75/233/233 76/234/234 80/235/235 79/236/236
f 69/237/237 70/238/238 72/239/239 71/240/240
f 62/241/241 60/242/242 74/243/243 72/244/244 70/245/245 68/246/246 66/247/247 64/248/248
f 58/249/249 57/250/250 76/251/251 75/252/252
f 71/253/253 72/254/254 74/255/255 73/256/256
f 89/257/257 90/258/258 92/259/259 91/260/260
f 83/261/261 84/262/262 88/263/263 87/264/264
f 73/265/265 74/266/266 60/267/267 59/268/268
f 59/269/269 61/270/270 63/271/271 65/272/272 67/273/273 69/274/274 71/275/275 73/276/276
f 93/277/277 94/278/278 90/279/279 89/280/280
f 91/281/281 95/282/282 93/283/283 89/284/284
f 96/285/285 92/286/286 90/287/287 94/288/288
f 97/289/289 98/290/290 100/291/291 99/292/292
f 99/293/293 100/294/294 104/295/295 103/296/296
f 103/297/297 104/298/298 102/299/299 101/300/300
f 101/301/301 102/302/302 98/303/303 97/304/304
f 99/305/305 103/306/306 101/307/307 97/308/308
f 104/309/309 100/310/310 98/311/311 102/312/312
f 105/313/313 106/314/314 108/315/315 107/316/316
f 107/317/317 108/318/318 112/319/319 111/320/320
f 111/321/321 112/322/322 110/323/323 109/324/324
f 109/325/325 110/326/326 106/327/327 105/328/328
f 107/329/329 111/330/330 109/331/331 105/332/332
f 112/333/333 108/334/334 106/335/335 110/336/336
f 113/337/337 114/338/338 116/339/339 115/340/340
f 115/341/341 116/342/342 120/343/343 119/344/344
f 119/345/345 120/346/346 118/347/347 117/348/348
f 117/349/349 118/350/350 114/351/351 113/352/352
f 115/353/353 119/354/354 117/355/355 113/356/356
f 120/357/357 116/358/358 114/359/359 118/360/360
f 121/361/361 122/362/362 124/363/363 123/364/364
f 123/365/365 124/366/366 128/367/367 127/368/368
f 127/369/369 128/370/370 126/371/371 125/372/372
f 125/373/373 126/374/374 122/375/375 121/376/376
f 123/377/377 127/378/378 125/379/379 121/380/380
f 128/381/381 124/382/382 122/383/383 126/384/384
f 129/385/385 130/386/386 132/387/387 131/388/388
f 131/389/389 132/390/390 136/391/391 135/392/392
f 135/393/393 136/394/394 134/395/395 133/396/396
f 133/397/397 134/398/398 130/399/399 129/400/400
f 131/401/401 135/402/402 133/403/403 129/404/404
f 136/405/405 132/406/406 130/407/407 134/408/408
f 137/409/409 138/410/410 140/411/411 139/412/412
f 139/413/413 140/414/414 144/415/415 143/416/416
f 143/417/417 144/418/418 142/419/419 141/420/420
f 141/421/421 142/422/422 138/423/423 137/424/424
f 139/425/425 143/426/426 141/427/427 137/428/428
f 144/429/429 140/430/430 138/431/431 142/432/432
