# Component OBJ: Telemetry
o Telemetry
v -0.10100 0.14300 -0.13700
v -0.10100 0.17700 -0.13700
v -0.10100 0.14300 -0.15100
v -0.10100 0.17700 -0.15100
v -0.05900 0.14300 -0.13700
v -0.05900 0.17700 -0.13700
v -0.05900 0.14300 -0.15100
v -0.05900 0.17700 -0.15100
vt 0.02000 0.62000
vt 0.02000 0.98000
vt 0.28000 0.98000
vt 0.28000 0.62000
vt 0.02000 0.62000
vt 0.02000 0.98000
vt 0.28000 0.98000
vt 0.28000 0.62000
vt 0.28000 0.62000
vt 0.28000 0.98000
vt 0.02000 0.98000
vt 0.02000 0.62000
vt 0.28000 0.62000
vt 0.28000 0.98000
vt 0.02000 0.98000
vt 0.02000 0.62000
vt 0.02000 0.98000
vt 0.28000 0.98000
vt 0.28000 0.62000
vt 0.02000 0.62000
vt 0.28000 0.98000
vt 0.02000 0.98000
vt 0.02000 0.62000
vt 0.28000 0.62000
vn -1.00000 0.00000 -0.00000
vn -1.00000 0.00000 -0.00000
vn -1.00000 0.00000 -0.00000
vn -1.00000 0.00000 -0.00000
vn 0.00000 0.00000 -1.00000
vn 0.00000 0.00000 -1.00000
vn 0.00000 0.00000 -1.00000
vn 0.00000 0.00000 -1.00000
vn 1.00000 0.00000 -0.00000
vn 1.00000 0.00000 -0.00000
vn 1.00000 0.00000 -0.00000
vn 1.00000 0.00000 -0.00000
vn 0.00000 0.00000 1.00000
vn 0.00000 0.00000 1.00000
vn 0.00000 0.00000 1.00000
vn 0.00000 0.00000 1.00000
vn 0.00000 -1.00000 -0.00000
vn 0.00000 -1.00000 -0.00000
vn 0.00000 -1.00000 -0.00000
vn 0.00000 -1.00000 -0.00000
vn 0.00000 1.00000 -0.00000
vn 0.00000 1.00000 -0.00000
vn 0.00000 1.00000 -0.00000
vn 0.00000 1.00000 -0.00000
f 1/1/1 2/2/2 4/3/3 3/4/4
f 3/5/5 4/6/6 8/7/7 7/8/8
f 7/9/9 8/10/10 6/11/11 5/12/12
f 5/13/13 6/14/14 2/15/15 1/16/16
f 3/17/17 7/18/18 5/19/19 1/20/20
f 8/21/21 4/22/22 2/23/23 6/24/24
