# Component OBJ: Torso
o Torso
v 0.21000 0.28000 -0.03500
v 0.18187 0.28000 -0.09250
v 0.10500 0.28000 -0.13459
v 0.00000 0.28000 -0.15000
v -0.10500 0.28000 -0.13459
v -0.18187 0.28000 -0.09250
v -0.21000 0.28000 -0.03500
v -0.18187 0.28000 0.02250
v -0.10500 0.28000 0.06459
v -0.00000 0.28000 0.08000
v 0.10500 0.28000 0.06459
v 0.18187 0.28000 0.02250
v 0.19500 0.18000 -0.03000
v 0.16887 0.18000 -0.08500
v 0.09750 0.18000 -0.12526
v 0.00000 0.18000 -0.14000
v -0.09750 0.18000 -0.12526
v -0.16887 0.18000 -0.08500
v -0.19500 0.18000 -0.03000
v -0.16887 0.18000 0.02500
v -0.09750 0.18000 0.06526
v -0.00000 0.18000 0.08000
v 0.09750 0.18000 0.06526
v 0.16887 0.18000 0.02500
v 0.17500 0.06000 -0.02200
v 0.15155 0.06000 -0.07325
v 0.08750 0.06000 -0.11077
v 0.00000 0.06000 -0.12450
v -0.08750 0.06000 -0.11077
v -0.15155 0.06000 -0.07325
v -0.17500 0.06000 -0.02200
v -0.15155 0.06000 0.02925
v -0.08750 0.06000 0.06677
v -0.00000 0.06000 0.08050
v 0.08750 0.06000 0.06677
v 0.15155 0.06000 0.02925
v 0.16000 -0.06000 -0.01200
v 0.13856 -0.06000 -0.05950
v 0.08000 -0.06000 -0.09427
v 0.00000 -0.06000 -0.10700
v -0.08000 -0.06000 -0.09427
v -0.13856 -0.06000 -0.05950
v -0.16000 -0.06000 -0.01200
v -0.13856 -0.06000 0.03550
v -0.08000 -0.06000 0.07027
v -0.00000 -0.06000 0.08300
v 0.08000 -0.06000 0.07027
v 0.13856 -0.06000 0.03550
v 0.15000 -0.18000 0.00000
v 0.12990 -0.18000 -0.04625
v 0.07500 -0.18000 -0.08011
v 0.00000 -0.18000 -0.09250
v -0.07500 -0.18000 -0.08011
v -0.12990 -0.18000 -0.04625
v -0.15000 -0.18000 -0.00000
v -0.12990 -0.18000 0.04625
v -0.07500 -0.18000 0.08011
v -0.00000 -0.18000 0.09250
v 0.07500 -0.18000 0.08011
v 0.12990 -0.18000 0.04625
v 0.14000 -0.24000 0.00500
v 0.12124 -0.24000 -0.03875
v 0.07000 -0.24000 -0.07078
v 0.00000 -0.24000 -0.08250
v -0.07000 -0.24000 -0.07078
v -0.12124 -0.24000 -0.03875
v -0.14000 -0.24000 0.00500
v -0.12124 -0.24000 0.04875
v -0.07000 -0.24000 0.08078
v -0.00000 -0.24000 0.09250
v 0.07000 -0.24000 0.08078
v 0.12124 -0.24000 0.04875
v 0.07600 0.27000 -0.03500
v 0.07600 0.34000 -0.03500
v 0.06862 0.24061 -0.07614
v 0.06862 0.26947 -0.07614
v 0.02789 0.22245 -0.10157
v 0.02789 0.22587 -0.10157
v -0.02789 0.22245 -0.10157
v -0.02789 0.22587 -0.10157
v -0.06862 0.24061 -0.07614
v -0.06862 0.26947 -0.07614
v -0.07600 0.27000 -0.03500
v -0.07600 0.34000 -0.03500
v -0.06149 0.27000 0.00614
v -0.06149 0.34000 0.00614
v -0.02349 0.27000 0.03157
v -0.02349 0.34000 0.03157
v 0.02349 0.27000 0.03157
v 0.02349 0.34000 0.03157
v 0.06149 0.27000 0.00614
v 0.06149 0.34000 0.00614
v -0.09300 0.14250 -0.14000
v -0.09300 0.25750 -0.14000
v -0.09300 0.14250 -0.15600
v -0.09300 0.25750 -0.15600
v -0.04700 0.14250 -0.14000
v -0.04700 0.25750 -0.14000
v -0.04700 0.14250 -0.15600
v -0.04700 0.25750 -0.15600
v 0.04700 0.14250 -0.14000
v 0.04700 0.25750 -0.14000
v 0.04700 0.14250 -0.15600
v 0.04700 0.25750 -0.15600
v 0.09300 0.14250 -0.14000
v 0.09300 0.25750 -0.14000
v 0.09300 0.14250 -0.15600
v 0.09300 0.25750 -0.15600
v -0.04400 0.07000 -0.13000
v -0.04400 0.21000 -0.13000
v -0.04400 0.07000 -0.14200
v -0.04400 0.21000 -0.14200
v 0.04400 0.07000 -0.13000
v 0.04400 0.21000 -0.13000
v 0.04400 0.07000 -0.14200
v 0.04400 0.21000 -0.14200
v -0.03400 0.20000 -0.09800
v -0.03400 0.28000 -0.09800
v -0.03400 0.20000 -0.12200
v -0.03400 0.28000 -0.12200
v 0.03400 0.20000 -0.09800
v 0.03400 0.28000 -0.09800
v 0.03400 0.20000 -0.12200
v 0.03400 0.28000 -0.12200
v -0.01600 -0.13000 -0.14100
v -0.01600 0.17000 -0.14100
v -0.01600 -0.13000 -0.15100
v -0.01600 0.17000 -0.15100
v -0.00400 -0.13000 -0.14100
v -0.00400 0.17000 -0.14100
v -0.00400 -0.13000 -0.15100
v -0.00400 0.17000 -0.15100
v -0.01500 0.12750 -0.14900
v -0.01500 0.15250 -0.14900
v -0.01500 0.12750 -0.15900
v -0.01500 0.15250 -0.15900
v -0.00500 0.12750 -0.14900
v -0.00500 0.15250 -0.14900
v -0.00500 0.12750 -0.15900
v -0.00500 0.15250 -0.15900
v -0.02800 -0.17000 0.11600
v -0.02800 0.23000 0.11600
v -0.02800 -0.17000 0.10400
v -0.02800 0.23000 0.10400
v 0.02800 -0.17000 0.11600
v 0.02800 0.23000 0.11600
v 0.02800 -0.17000 0.10400
v 0.02800 0.23000 0.10400
v 0.03400 0.12900 -0.14500
v 0.03400 0.09100 -0.14500
v 0.15082 0.24802 -0.04203
v 0.11082 0.14802 -0.13803
v 0.15709 0.25833 -0.05539
v 0.11709 0.15833 -0.15139
v 0.14627 0.27031 -0.06335
v 0.10627 0.17031 -0.15935
v 0.12918 0.27198 -0.05797
v 0.08918 0.17198 -0.15397
v 0.12291 0.26167 -0.04461
v 0.08291 0.16167 -0.14061
v 0.13373 0.24969 -0.03665
v 0.09373 0.14969 -0.13265
v 0.09512 0.16141 -0.16327
v 0.01512 0.03141 -0.15127
v 0.08496 0.16885 -0.15041
v 0.00496 0.03885 -0.13841
v 0.08984 0.16744 -0.13314
v 0.00984 0.03744 -0.12114
v 0.10488 0.15859 -0.12873
v 0.02488 0.02859 -0.11673
v 0.11504 0.15115 -0.14159
v 0.03504 0.02115 -0.12959
v 0.11016 0.15256 -0.15886
v 0.03016 0.02256 -0.14686
v 0.01376 0.03210 -0.15075
v -0.06624 -0.07790 -0.13475
v 0.00544 0.04016 -0.13697
v -0.07456 -0.06984 -0.12097
v 0.01168 0.03805 -0.12022
v -0.06832 -0.07195 -0.10422
v 0.02624 0.02790 -0.11725
v -0.05376 -0.08210 -0.10125
v 0.03456 0.01984 -0.13103
v -0.04544 -0.09016 -0.11503
v 0.02832 0.02195 -0.14778
v -0.05168 -0.08805 -0.13178
v -0.07464 -0.07021 -0.12172
v -0.15464 -0.16021 -0.04372
v -0.06474 -0.06641 -0.10718
v -0.14474 -0.15641 -0.02918
v -0.05010 -0.07620 -0.10346
v -0.13010 -0.16620 -0.02546
v -0.04536 -0.08979 -0.11428
v -0.12536 -0.17979 -0.03628
v -0.05526 -0.09359 -0.12882
v -0.13526 -0.18359 -0.05082
v -0.06990 -0.08380 -0.13254
v -0.14990 -0.17380 -0.05454
v 0.03400 0.09100 -0.16700
v 0.03400 0.12900 -0.16700
v 0.08600 0.09100 -0.14500
v 0.08600 0.12900 -0.14500
v 0.08600 0.09100 -0.16700
v 0.08600 0.12900 -0.16700
v 0.02600 0.10200 -0.15000
v 0.02600 0.11800 -0.15000
v 0.02600 0.10200 -0.16200
v 0.02600 0.11800 -0.16200
v 0.03400 0.10200 -0.15000
v 0.03400 0.11800 -0.15000
v 0.03400 0.10200 -0.16200
v 0.03400 0.11800 -0.16200
v 0.08600 0.10200 -0.15000
v 0.08600 0.11800 -0.15000
v 0.08600 0.10200 -0.16200
v 0.08600 0.11800 -0.16200
v 0.09400 0.10200 -0.15000
v 0.09400 0.11800 -0.15000
v 0.09400 0.10200 -0.16200
v 0.09400 0.11800 -0.16200
vt 0.27133 0.96800
vt 0.26267 0.90800
vt 0.24757 0.90800
vt 0.25508 0.96800
vt 0.25508 0.96800
vt 0.24757 0.90800
vt 0.20633 0.90800
vt 0.21067 0.96800
vt 0.21067 0.96800
vt 0.20633 0.90800
vt 0.15000 0.90800
vt 0.15000 0.96800
vt 0.15000 0.96800
vt 0.15000 0.90800
vt 0.09367 0.90800
vt 0.08933 0.96800
vt 0.08933 0.96800
vt 0.09367 0.90800
vt 0.05243 0.90800
vt 0.04492 0.96800
vt 0.04492 0.96800
vt 0.05243 0.90800
vt 0.03733 0.90800
vt 0.02867 0.96800
vt 0.02867 0.96800
vt 0.03733 0.90800
vt 0.05243 0.90800
vt 0.04492 0.96800
vt 0.04492 0.96800
vt 0.05243 0.90800
vt 0.09367 0.90800
vt 0.08933 0.96800
vt 0.08933 0.96800
vt 0.09367 0.90800
vt 0.15000 0.90800
vt 0.15000 0.96800
vt 0.15000 0.96800
vt 0.15000 0.90800
vt 0.20633 0.90800
vt 0.21067 0.96800
vt 0.21067 0.96800
vt 0.20633 0.90800
vt 0.24757 0.90800
vt 0.25508 0.96800
vt 0.25508 0.96800
vt 0.24757 0.90800
vt 0.26267 0.90800
vt 0.27133 0.96800
vt 0.26267 0.90800
vt 0.25111 0.83600
vt 0.23756 0.83600
vt 0.24757 0.90800
vt 0.24757 0.90800
vt 0.23756 0.83600
vt 0.20056 0.83600
vt 0.20633 0.90800
vt 0.20633 0.90800
vt 0.20056 0.83600
vt 0.15000 0.83600
vt 0.15000 0.90800
vt 0.15000 0.90800
vt 0.15000 0.83600
vt 0.09944 0.83600
vt 0.09367 0.90800
vt 0.09367 0.90800
vt 0.09944 0.83600
vt 0.06244 0.83600
vt 0.05243 0.90800
vt 0.05243 0.90800
vt 0.06244 0.83600
vt 0.04889 0.83600
vt 0.03733 0.90800
vt 0.03733 0.90800
vt 0.04889 0.83600
vt 0.06244 0.83600
vt 0.05243 0.90800
vt 0.05243 0.90800
vt 0.06244 0.83600
vt 0.09944 0.83600
vt 0.09367 0.90800
vt 0.09367 0.90800
vt 0.09944 0.83600
vt 0.15000 0.83600
vt 0.15000 0.90800
vt 0.15000 0.90800
vt 0.15000 0.83600
vt 0.20056 0.83600
vt 0.20633 0.90800
vt 0.20633 0.90800
vt 0.20056 0.83600
vt 0.23756 0.83600
vt 0.24757 0.90800
vt 0.24757 0.90800
vt 0.23756 0.83600
vt 0.25111 0.83600
vt 0.26267 0.90800
vt 0.25111 0.83600
vt 0.24244 0.76400
vt 0.23006 0.76400
vt 0.23756 0.83600
vt 0.23756 0.83600
vt 0.23006 0.76400
vt 0.19622 0.76400
vt 0.20056 0.83600
vt 0.20056 0.83600
vt 0.19622 0.76400
vt 0.15000 0.76400
vt 0.15000 0.83600
vt 0.15000 0.83600
vt 0.15000 0.76400
vt 0.10378 0.76400
vt 0.09944 0.83600
vt 0.09944 0.83600
vt 0.10378 0.76400
vt 0.06994 0.76400
vt 0.06244 0.83600
vt 0.06244 0.83600
vt 0.06994 0.76400
vt 0.05756 0.76400
vt 0.04889 0.83600
vt 0.04889 0.83600
vt 0.05756 0.76400
vt 0.06994 0.76400
vt 0.06244 0.83600
vt 0.06244 0.83600
vt 0.06994 0.76400
vt 0.10378 0.76400
vt 0.09944 0.83600
vt 0.09944 0.83600
vt 0.10378 0.76400
vt 0.15000 0.76400
vt 0.15000 0.83600
vt 0.15000 0.83600
vt 0.15000 0.76400
vt 0.19622 0.76400
vt 0.20056 0.83600
vt 0.20056 0.83600
vt 0.19622 0.76400
vt 0.23006 0.76400
vt 0.23756 0.83600
vt 0.23756 0.83600
vt 0.23006 0.76400
vt 0.24244 0.76400
vt 0.25111 0.83600
vt 0.24244 0.76400
vt 0.23667 0.69200
vt 0.22506 0.69200
vt 0.23006 0.76400
vt 0.23006 0.76400
vt 0.22506 0.69200
vt 0.19333 0.69200
vt 0.19622 0.76400
vt 0.19622 0.76400
vt 0.19333 0.69200
vt 0.15000 0.69200
vt 0.15000 0.76400
vt 0.15000 0.76400
vt 0.15000 0.69200
vt 0.10667 0.69200
vt 0.10378 0.76400
vt 0.10378 0.76400
vt 0.10667 0.69200
vt 0.07494 0.69200
vt 0.06994 0.76400
vt 0.06994 0.76400
vt 0.07494 0.69200
vt 0.06333 0.69200
vt 0.05756 0.76400
vt 0.05756 0.76400
vt 0.06333 0.69200
vt 0.07494 0.69200
vt 0.06994 0.76400
vt 0.06994 0.76400
vt 0.07494 0.69200
vt 0.10667 0.69200
vt 0.10378 0.76400
vt 0.10378 0.76400
vt 0.10667 0.69200
vt 0.15000 0.69200
vt 0.15000 0.76400
vt 0.15000 0.76400
vt 0.15000 0.69200
vt 0.19333 0.69200
vt 0.19622 0.76400
vt 0.19622 0.76400
vt 0.19333 0.69200
vt 0.22506 0.69200
vt 0.23006 0.76400
vt 0.23006 0.76400
vt 0.22506 0.69200
vt 0.23667 0.69200
vt 0.24244 0.76400
vt 0.23667 0.69200
vt 0.23089 0.65600
vt 0.22005 0.65600
vt 0.22506 0.69200
vt 0.22506 0.69200
vt 0.22005 0.65600
vt 0.19044 0.65600
vt 0.19333 0.69200
vt 0.19333 0.69200
vt 0.19044 0.65600
vt 0.15000 0.65600
vt 0.15000 0.69200
vt 0.15000 0.69200
vt 0.15000 0.65600
vt 0.10956 0.65600
vt 0.10667 0.69200
vt 0.10667 0.69200
vt 0.10956 0.65600
vt 0.07995 0.65600
vt 0.07494 0.69200
vt 0.07494 0.69200
vt 0.07995 0.65600
vt 0.06911 0.65600
vt 0.06333 0.69200
vt 0.06333 0.69200
vt 0.06911 0.65600
vt 0.07995 0.65600
vt 0.07494 0.69200
vt 0.07494 0.69200
vt 0.07995 0.65600
vt 0.10956 0.65600
vt 0.10667 0.69200
vt 0.10667 0.69200
vt 0.10956 0.65600
vt 0.15000 0.65600
vt 0.15000 0.69200
vt 0.15000 0.69200
vt 0.15000 0.65600
vt 0.19044 0.65600
vt 0.19333 0.69200
vt 0.19333 0.69200
vt 0.19044 0.65600
vt 0.22005 0.65600
vt 0.22506 0.69200
vt 0.22506 0.69200
vt 0.22005 0.65600
vt 0.23089 0.65600
vt 0.23667 0.69200
vt 0.00000 0.00000
vt 0.00000 0.00000
vt 0.00000 0.00000
vt 0.00000 0.00000
vt 0.00000 0.00000
vt 0.00000 0.00000
vt 0.00000 0.00000
vt 0.00000 0.00000
vt 0.00000 0.00000
vt 0.00000 0.00000
vt 0.00000 0.00000
vt 0.00000 0.00000
vt 0.00000 0.00000
vt 0.00000 0.00000
vt 0.00000 0.00000
vt 0.00000 0.00000
vt 0.00000 0.00000
vt 0.00000 0.00000
vt 0.00000 0.00000
vt 0.00000 0.00000
vt 0.00000 0.00000
vt 0.00000 0.00000
vt 0.00000 0.00000
vt 0.00000 0.00000
vt 0.15000 0.80000
vt 0.15000 0.80000
vt 0.15000 0.80000
vt 0.15000 0.80000
vt 0.15000 0.80000
vt 0.15000 0.80000
vt 0.15000 0.80000
vt 0.15000 0.80000
vt 0.15000 0.80000
vt 0.15000 0.80000
vt 0.15000 0.80000
vt 0.15000 0.80000
vt 0.15000 0.80000
vt 0.15000 0.80000
vt 0.15000 0.80000
vt 0.15000 0.80000
vt 0.15000 0.80000
vt 0.15000 0.80000
vt 0.15000 0.80000
vt 0.15000 0.80000
vt 0.15000 0.80000
vt 0.15000 0.80000
vt 0.15000 0.80000
vt 0.15000 0.80000
vt 0.15000 0.80000
vt 0.15000 0.80000
vt 0.15000 0.80000
vt 0.15000 0.80000
vt 0.15000 0.80000
vt 0.15000 0.80000
vt 0.15000 0.80000
vt 0.15000 0.80000
vt 0.15000 0.80000
vt 0.15000 0.80000
vt 0.15000 0.80000
vt 0.15000 0.80000
vt 0.50000 0.86300
vt 0.50000 0.98000
vt 0.68000 0.98000
vt 0.68000 0.86300
vt 0.50000 0.86300
vt 0.50000 0.98000
vt 0.68000 0.98000
vt 0.68000 0.86300
vt 0.68000 0.86300
vt 0.68000 0.98000
vt 0.50000 0.98000
vt 0.50000 0.86300
vt 0.68000 0.86300
vt 0.68000 0.98000
vt 0.50000 0.98000
vt 0.50000 0.86300
vt 0.50000 0.98000
vt 0.68000 0.98000
vt 0.68000 0.86300
vt 0.50000 0.86300
vt 0.68000 0.98000
vt 0.50000 0.98000
vt 0.50000 0.86300
vt 0.68000 0.86300
vt 0.50000 0.86300
vt 0.50000 0.98000
vt 0.68000 0.98000
vt 0.68000 0.86300
vt 0.50000 0.86300
vt 0.50000 0.98000
vt 0.68000 0.98000
vt 0.68000 0.86300
vt 0.68000 0.86300
vt 0.68000 0.98000
vt 0.50000 0.98000
vt 0.50000 0.86300
vt 0.68000 0.86300
vt 0.68000 0.98000
vt 0.50000 0.98000
vt 0.50000 0.86300
vt 0.50000 0.98000
vt 0.68000 0.98000
vt 0.68000 0.86300
vt 0.50000 0.86300
vt 0.68000 0.98000
vt 0.50000 0.98000
vt 0.50000 0.86300
vt 0.68000 0.86300
vt 0.30000 0.80000
vt 0.30000 0.98000
vt 0.48000 0.98000
vt 0.48000 0.80000
vt 0.30000 0.80000
vt 0.30000 0.98000
vt 0.48000 0.98000
vt 0.48000 0.80000
vt 0.48000 0.80000
vt 0.48000 0.98000
vt 0.30000 0.98000
vt 0.30000 0.80000
vt 0.48000 0.80000
vt 0.48000 0.98000
vt 0.30000 0.98000
vt 0.30000 0.80000
vt 0.30000 0.98000
vt 0.48000 0.98000
vt 0.48000 0.80000
vt 0.30000 0.80000
vt 0.48000 0.98000
vt 0.30000 0.98000
vt 0.30000 0.80000
vt 0.48000 0.80000
vt 0.70000 0.84900
vt 0.70000 0.98000
vt 0.88000 0.98000
vt 0.88000 0.84900
vt 0.70000 0.84900
vt 0.70000 0.98000
vt 0.88000 0.98000
vt 0.88000 0.84900
vt 0.88000 0.84900
vt 0.88000 0.98000
vt 0.70000 0.98000
vt 0.70000 0.84900
vt 0.88000 0.84900
vt 0.88000 0.98000
vt 0.70000 0.98000
vt 0.70000 0.84900
vt 0.70000 0.98000
vt 0.88000 0.98000
vt 0.88000 0.84900
vt 0.70000 0.84900
vt 0.88000 0.98000
vt 0.70000 0.98000
vt 0.70000 0.84900
vt 0.88000 0.84900
vt 0.22000 0.42000
vt 0.22000 0.60000
vt 0.38000 0.60000
vt 0.38000 0.42000
vt 0.22000 0.42000
vt 0.22000 0.60000
vt 0.38000 0.60000
vt 0.38000 0.42000
vt 0.38000 0.42000
vt 0.38000 0.60000
vt 0.22000 0.60000
vt 0.22000 0.42000
vt 0.38000 0.42000
vt 0.38000 0.60000
vt 0.22000 0.60000
vt 0.22000 0.42000
vt 0.22000 0.60000
vt 0.38000 0.60000
vt 0.38000 0.42000
vt 0.22000 0.42000
vt 0.38000 0.60000
vt 0.22000 0.60000
vt 0.22000 0.42000
vt 0.38000 0.42000
vt 0.50000 0.86300
vt 0.50000 0.98000
vt 0.68000 0.98000
vt 0.68000 0.86300
vt 0.50000 0.86300
vt 0.50000 0.98000
vt 0.68000 0.98000
vt 0.68000 0.86300
vt 0.68000 0.86300
vt 0.68000 0.98000
vt 0.50000 0.98000
vt 0.50000 0.86300
vt 0.68000 0.86300
vt 0.68000 0.98000
vt 0.50000 0.98000
vt 0.50000 0.86300
vt 0.50000 0.98000
vt 0.68000 0.98000
vt 0.68000 0.86300
vt 0.50000 0.86300
vt 0.68000 0.98000
vt 0.50000 0.98000
vt 0.50000 0.86300
vt 0.68000 0.86300
vt 0.50000 0.02000
vt 0.50000 0.40000
vt 0.72000 0.40000
vt 0.72000 0.02000
vt 0.50000 0.02000
vt 0.50000 0.40000
vt 0.72000 0.40000
vt 0.72000 0.02000
vt 0.72000 0.02000
vt 0.72000 0.40000
vt 0.50000 0.40000
vt 0.50000 0.02000
vt 0.72000 0.02000
vt 0.72000 0.40000
vt 0.50000 0.40000
vt 0.50000 0.02000
vt 0.50000 0.40000
vt 0.72000 0.40000
vt 0.72000 0.02000
vt 0.50000 0.02000
vt 0.72000 0.40000
vt 0.50000 0.40000
vt 0.50000 0.02000
vt 0.72000 0.02000
vt 0.50000 0.86300
vt 0.50000 0.98000
vt 0.68000 0.98000
vt 0.68000 0.86300
vt 0.50000 0.86300
vt 0.50000 0.98000
vt 0.68000 0.98000
vt 0.68000 0.86300
vt 0.35942 0.93744
vt 0.44146 0.81268
vt 0.43656 0.82554
vt 0.36552 0.95030
vt 0.68000 0.86300
vt 0.68000 0.98000
vt 0.50000 0.98000
vt 0.50000 0.86300
vt 0.68000 0.86300
vt 0.68000 0.98000
vt 0.50000 0.98000
vt 0.50000 0.86300
vt 0.36552 0.95030
vt 0.43656 0.82554
vt 0.44131 0.84048
vt 0.36359 0.96524
vt 0.40812 0.96505
vt 0.47464 0.82048
vt 0.30263 0.83106
vt 0.40166 0.97564
vt 0.40676 0.96807
vt 0.47295 0.81524
vt 0.30083 0.82399
vt 0.40132 0.97682
vt 0.36359 0.96524
vt 0.44131 0.84048
vt 0.44942 0.84256
vt 0.35146 0.96732
vt 0.41965 0.95873
vt 0.31642 0.84582
vt 0.32404 0.85059
vt 0.40932 0.96350
vt 0.36600 0.58000
vt 0.23400 0.58000
vt 0.23400 0.51200
vt 0.36600 0.51200
vt 0.35146 0.96732
vt 0.44942 0.84256
vt 0.45552 0.82970
vt 0.34656 0.95446
vt 0.43656 0.82554
vt 0.44146 0.81268
vt 0.45359 0.81476
vt 0.45552 0.82970
vt 0.44942 0.84256
vt 0.44131 0.84048
vt 0.36600 0.51200
vt 0.36600 0.58000
vt 0.23400 0.58000
vt 0.23400 0.51200
vt 0.34656 0.95446
vt 0.45552 0.82970
vt 0.45359 0.81476
vt 0.35131 0.93952
vt 0.38352 0.97516
vt 0.31030 0.82233
vt 0.31676 0.81193
vt 0.38295 0.96476
vt 0.40132 0.97682
vt 0.30083 0.82399
vt 0.31030 0.82233
vt 0.38352 0.97516
vt 0.35131 0.93952
vt 0.45359 0.81476
vt 0.44146 0.81268
vt 0.35942 0.93744
vt 0.35942 0.93744
vt 0.36552 0.95030
vt 0.36359 0.96524
vt 0.35146 0.96732
vt 0.34656 0.95446
vt 0.35131 0.93952
vt 0.38295 0.96476
vt 0.31676 0.81193
vt 0.31132 0.80318
vt 0.39083 0.95601
vt 0.31030 0.82233
vt 0.30083 0.82399
vt 0.47295 0.81524
vt 0.47352 0.80484
vt 0.31132 0.80318
vt 0.31676 0.81193
vt 0.23400 0.51200
vt 0.23400 0.58000
vt 0.36600 0.58000
vt 0.36600 0.51200
vt 0.39083 0.95601
vt 0.31132 0.80318
vt 0.47352 0.80484
vt 0.40030 0.95767
vt 0.38483 0.97287
vt 0.31213 0.82830
vt 0.31812 0.81495
vt 0.38464 0.95952
vt 0.40166 0.97564
vt 0.30263 0.83106
vt 0.31213 0.82830
vt 0.38483 0.97287
vt 0.40030 0.95767
vt 0.47352 0.80484
vt 0.47295 0.81524
vt 0.40676 0.96807
vt 0.38295 0.96476
vt 0.39083 0.95601
vt 0.40030 0.95767
vt 0.40676 0.96807
vt 0.40132 0.97682
vt 0.38352 0.97516
vt 0.38464 0.95952
vt 0.31812 0.81495
vt 0.31166 0.80436
vt 0.39263 0.94894
vt 0.30263 0.83106
vt 0.47464 0.82048
vt 0.47483 0.80713
vt 0.31166 0.80436
vt 0.31812 0.81495
vt 0.31213 0.82830
vt 0.23400 0.58000
vt 0.36600 0.58000
vt 0.36600 0.51200
vt 0.23400 0.51200
vt 0.39263 0.94894
vt 0.31166 0.80436
vt 0.47483 0.80713
vt 0.40213 0.95170
vt 0.40305 0.95122
vt 0.33033 0.83831
vt 0.32965 0.82127
vt 0.40642 0.93418
vt 0.40932 0.96350
vt 0.32404 0.85059
vt 0.33033 0.83831
vt 0.40305 0.95122
vt 0.40213 0.95170
vt 0.47483 0.80713
vt 0.47464 0.82048
vt 0.40812 0.96505
vt 0.38483 0.97287
vt 0.38464 0.95952
vt 0.39263 0.94894
vt 0.40213 0.95170
vt 0.40812 0.96505
vt 0.40166 0.97564
vt 0.40642 0.93418
vt 0.32965 0.82127
vt 0.31932 0.81650
vt 0.41404 0.92941
vt 0.23400 0.51200
vt 0.23400 0.58000
vt 0.36600 0.58000
vt 0.36600 0.51200
vt 0.40932 0.96350
vt 0.40305 0.95122
vt 0.40642 0.93418
vt 0.41404 0.92941
vt 0.42033 0.94169
vt 0.41965 0.95873
vt 0.41404 0.92941
vt 0.31932 0.81650
vt 0.31305 0.82878
vt 0.42033 0.94169
vt 0.36600 0.51200
vt 0.36600 0.58000
vt 0.23400 0.58000
vt 0.23400 0.51200
vt 0.50000 0.98000
vt 0.68000 0.98000
vt 0.68000 0.86300
vt 0.50000 0.86300
vt 0.42033 0.94169
vt 0.31305 0.82878
vt 0.31642 0.84582
vt 0.41965 0.95873
vt 0.32965 0.82127
vt 0.33033 0.83831
vt 0.32404 0.85059
vt 0.31642 0.84582
vt 0.31305 0.82878
vt 0.31932 0.81650
vt 0.68000 0.98000
vt 0.50000 0.98000
vt 0.50000 0.86300
vt 0.68000 0.86300
vt 0.50000 0.86300
vt 0.50000 0.98000
vt 0.68000 0.98000
vt 0.68000 0.86300
vt 0.50000 0.86300
vt 0.50000 0.98000
vt 0.68000 0.98000
vt 0.68000 0.86300
vt 0.68000 0.86300
vt 0.68000 0.98000
vt 0.50000 0.98000
vt 0.50000 0.86300
vt 0.68000 0.86300
vt 0.68000 0.98000
vt 0.50000 0.98000
vt 0.50000 0.86300
vt 0.50000 0.98000
vt 0.68000 0.98000
vt 0.68000 0.86300
vt 0.50000 0.86300
vt 0.68000 0.98000
vt 0.50000 0.98000
vt 0.50000 0.86300
vt 0.68000 0.86300
vn 0.82555 0.56423 -0.01064
vn 0.98832 -0.15239 -0.00038
vn 0.72186 -0.15590 -0.67425
vn 0.59059 0.59009 -0.55045
vn 0.59059 0.59009 -0.55045
vn 0.72186 -0.15590 -0.67425
vn 0.32316 -0.12728 -0.93774
vn 0.25394 0.62676 -0.73667
vn 0.25394 0.62676 -0.73667
vn 0.32316 -0.12728 -0.93774
vn -0.00000 -0.11584 -0.99327
vn -0.00000 0.63787 -0.77014
vn -0.00000 0.63787 -0.77014
vn -0.00000 -0.11584 -0.99327
vn -0.32316 -0.12728 -0.93774
vn -0.25394 0.62676 -0.73667
vn -0.25394 0.62676 -0.73667
vn -0.32316 -0.12728 -0.93774
vn -0.72186 -0.15590 -0.67425
vn -0.59059 0.59009 -0.55045
vn -0.59059 0.59009 -0.55045
vn -0.72186 -0.15590 -0.67425
vn -0.98832 -0.15239 -0.00038
vn -0.82555 0.56423 -0.01064
vn -0.82555 0.56423 -0.01064
vn -0.98832 -0.15239 -0.00038
vn -0.72996 -0.07891 0.67892
vn -0.58404 0.61522 0.52953
vn -0.58404 0.61522 0.52953
vn -0.72996 -0.07891 0.67892
vn -0.32666 -0.01843 0.94496
vn -0.24691 0.66203 0.70764
vn -0.24691 0.66203 0.70764
vn -0.32666 -0.01843 0.94496
vn 0.00000 -0.00015 1.00000
vn 0.00000 0.67507 0.73776
vn 0.00000 0.67507 0.73776
vn 0.00000 -0.00015 1.00000
vn 0.32666 -0.01843 0.94496
vn 0.24691 0.66203 0.70764
vn 0.24691 0.66203 0.70764
vn 0.32666 -0.01843 0.94496
vn 0.72996 -0.07891 0.67892
vn 0.58404 0.61522 0.52953
vn 0.58404 0.61522 0.52953
vn 0.72996 -0.07891 0.67892
vn 0.98832 -0.15239 -0.00038
vn 0.82555 0.56423 -0.01064
vn 0.98832 -0.15239 -0.00038
vn 0.98978 -0.14263 -0.00023
vn 0.72767 -0.16216 -0.66649
vn 0.72186 -0.15590 -0.67425
vn 0.72186 -0.15590 -0.67425
vn 0.72767 -0.16216 -0.66649
vn 0.32915 -0.14531 -0.93303
vn 0.32316 -0.12728 -0.93774
vn 0.32316 -0.12728 -0.93774
vn 0.32915 -0.14531 -0.93303
vn -0.00000 -0.13756 -0.99049
vn -0.00000 -0.11584 -0.99327
vn -0.00000 -0.11584 -0.99327
vn -0.00000 -0.13756 -0.99049
vn -0.32915 -0.14531 -0.93303
vn -0.32316 -0.12728 -0.93774
vn -0.32316 -0.12728 -0.93774
vn -0.32915 -0.14531 -0.93303
vn -0.72767 -0.16216 -0.66649
vn -0.72186 -0.15590 -0.67425
vn -0.72186 -0.15590 -0.67425
vn -0.72767 -0.16216 -0.66649
vn -0.98978 -0.14263 -0.00023
vn -0.98832 -0.15239 -0.00038
vn -0.98832 -0.15239 -0.00038
vn -0.98978 -0.14263 -0.00023
vn -0.73729 -0.06298 0.67263
vn -0.72996 -0.07891 0.67892
vn -0.72996 -0.07891 0.67892
vn -0.73729 -0.06298 0.67263
vn -0.33357 -0.00554 0.94271
vn -0.32666 -0.01843 0.94496
vn -0.32666 -0.01843 0.94496
vn -0.33357 -0.00554 0.94271
vn -0.00000 0.01102 0.99994
vn 0.00000 -0.00015 1.00000
vn 0.00000 -0.00015 1.00000
vn -0.00000 0.01102 0.99994
vn 0.33357 -0.00554 0.94271
vn 0.32666 -0.01843 0.94496
vn 0.32666 -0.01843 0.94496
vn 0.33357 -0.00554 0.94271
vn 0.73729 -0.06298 0.67263
vn 0.72996 -0.07891 0.67892
vn 0.72996 -0.07891 0.67892
vn 0.73729 -0.06298 0.67263
vn 0.98978 -0.14263 -0.00023
vn 0.98832 -0.15239 -0.00038
vn 0.98978 -0.14263 -0.00023
vn 0.99477 -0.10210 -0.00043
vn 0.73839 -0.14056 -0.65956
vn 0.72767 -0.16216 -0.66649
vn 0.72767 -0.16216 -0.66649
vn 0.73839 -0.14056 -0.65956
vn 0.33740 -0.13762 -0.93125
vn 0.32915 -0.14531 -0.93303
vn 0.32915 -0.14531 -0.93303
vn 0.33740 -0.13762 -0.93125
vn -0.00000 -0.13363 -0.99103
vn -0.00000 -0.13756 -0.99049
vn -0.00000 -0.13756 -0.99049
vn -0.00000 -0.13363 -0.99103
vn -0.33740 -0.13762 -0.93125
vn -0.32915 -0.14531 -0.93303
vn -0.32915 -0.14531 -0.93303
vn -0.33740 -0.13762 -0.93125
vn -0.73839 -0.14056 -0.65956
vn -0.72767 -0.16216 -0.66649
vn -0.72767 -0.16216 -0.66649
vn -0.73839 -0.14056 -0.65956
vn -0.99477 -0.10210 -0.00043
vn -0.98978 -0.14263 -0.00023
vn -0.98978 -0.14263 -0.00023
vn -0.99477 -0.10210 -0.00043
vn -0.74702 -0.01996 0.66450
vn -0.73729 -0.06298 0.67263
vn -0.73729 -0.06298 0.67263
vn -0.74702 -0.01996 0.66450
vn -0.34137 0.03353 0.93933
vn -0.33357 -0.00554 0.94271
vn -0.33357 -0.00554 0.94271
vn -0.34137 0.03353 0.93933
vn 0.00000 0.04867 0.99881
vn -0.00000 0.01102 0.99994
vn -0.00000 0.01102 0.99994
vn 0.00000 0.04867 0.99881
vn 0.34137 0.03353 0.93933
vn 0.33357 -0.00554 0.94271
vn 0.33357 -0.00554 0.94271
vn 0.34137 0.03353 0.93933
vn 0.74702 -0.01996 0.66450
vn 0.73729 -0.06298 0.67263
vn 0.73729 -0.06298 0.67263
vn 0.74702 -0.01996 0.66450
vn 0.99477 -0.10210 -0.00043
vn 0.98978 -0.14263 -0.00023
vn 0.99477 -0.10210 -0.00043
vn 0.99284 -0.11940 0.00422
vn 0.74703 -0.15522 -0.64641
vn 0.73839 -0.14056 -0.65956
vn 0.73839 -0.14056 -0.65956
vn 0.74703 -0.15522 -0.64641
vn 0.34610 -0.14899 -0.92629
vn 0.33740 -0.13762 -0.93125
vn 0.33740 -0.13762 -0.93125
vn 0.34610 -0.14899 -0.92629
vn -0.00000 -0.14350 -0.98965
vn -0.00000 -0.13363 -0.99103
vn -0.00000 -0.13363 -0.99103
vn -0.00000 -0.14350 -0.98965
vn -0.34610 -0.14899 -0.92629
vn -0.33740 -0.13762 -0.93125
vn -0.33740 -0.13762 -0.93125
vn -0.34610 -0.14899 -0.92629
vn -0.74703 -0.15522 -0.64641
vn -0.73839 -0.14056 -0.65956
vn -0.73839 -0.14056 -0.65956
vn -0.74703 -0.15522 -0.64641
vn -0.99284 -0.11940 0.00422
vn -0.99477 -0.10210 -0.00043
vn -0.99477 -0.10210 -0.00043
vn -0.99284 -0.11940 0.00422
vn -0.75376 -0.03755 0.65608
vn -0.74702 -0.01996 0.66450
vn -0.74702 -0.01996 0.66450
vn -0.75376 -0.03755 0.65608
vn -0.34965 0.02041 0.93666
vn -0.34137 0.03353 0.93933
vn -0.34137 0.03353 0.93933
vn -0.34965 0.02041 0.93666
vn -0.00000 0.03769 0.99929
vn 0.00000 0.04867 0.99881
vn 0.00000 0.04867 0.99881
vn -0.00000 0.03769 0.99929
vn 0.34965 0.02041 0.93666
vn 0.34137 0.03353 0.93933
vn 0.34137 0.03353 0.93933
vn 0.34965 0.02041 0.93666
vn 0.75376 -0.03755 0.65608
vn 0.74702 -0.01996 0.66450
vn 0.74702 -0.01996 0.66450
vn 0.75376 -0.03755 0.65608
vn 0.99284 -0.11940 0.00422
vn 0.99477 -0.10210 -0.00043
vn 0.99284 -0.11940 0.00422
vn 0.72563 -0.68790 0.01598
vn 0.53027 -0.71408 -0.45705
vn 0.74703 -0.15522 -0.64641
vn 0.74703 -0.15522 -0.64641
vn 0.53027 -0.71408 -0.45705
vn 0.23972 -0.72801 -0.64229
vn 0.34610 -0.14899 -0.92629
vn 0.34610 -0.14899 -0.92629
vn 0.23972 -0.72801 -0.64229
vn 0.00000 -0.73106 -0.68231
vn -0.00000 -0.14350 -0.98965
vn -0.00000 -0.14350 -0.98965
vn 0.00000 -0.73106 -0.68231
vn -0.23972 -0.72801 -0.64229
vn -0.34610 -0.14899 -0.92629
vn -0.34610 -0.14899 -0.92629
vn -0.23972 -0.72801 -0.64229
vn -0.53027 -0.71408 -0.45705
vn -0.74703 -0.15522 -0.64641
vn -0.74703 -0.15522 -0.64641
vn -0.53027 -0.71408 -0.45705
vn -0.72563 -0.68790 0.01598
vn -0.99284 -0.11940 0.00422
vn -0.99284 -0.11940 0.00422
vn -0.72563 -0.68790 0.01598
vn -0.54737 -0.67442 0.49553
vn -0.75376 -0.03755 0.65608
vn -0.75376 -0.03755 0.65608
vn -0.54737 -0.67442 0.49553
vn -0.25375 -0.67264 0.69510
vn -0.34965 0.02041 0.93666
vn -0.34965 0.02041 0.93666
vn -0.25375 -0.67264 0.69510
vn 0.00000 -0.67224 0.74034
vn -0.00000 0.03769 0.99929
vn -0.00000 0.03769 0.99929
vn 0.00000 -0.67224 0.74034
vn 0.25375 -0.67264 0.69510
vn 0.34965 0.02041 0.93666
vn 0.34965 0.02041 0.93666
vn 0.25375 -0.67264 0.69510
vn 0.54737 -0.67442 0.49553
vn 0.75376 -0.03755 0.65608
vn 0.75376 -0.03755 0.65608
vn 0.54737 -0.67442 0.49553
vn 0.72563 -0.68790 0.01598
vn 0.99284 -0.11940 0.00422
vn 0.82555 0.56423 -0.01064
vn 0.59059 0.59009 -0.55045
vn 0.25394 0.62676 -0.73667
vn -0.00000 0.63787 -0.77014
vn -0.25394 0.62676 -0.73667
vn -0.59059 0.59009 -0.55045
vn -0.82555 0.56423 -0.01064
vn -0.58404 0.61522 0.52953
vn -0.24691 0.66203 0.70764
vn 0.00000 0.67507 0.73776
vn 0.24691 0.66203 0.70764
vn 0.58404 0.61522 0.52953
vn 0.54737 -0.67442 0.49553
vn 0.25375 -0.67264 0.69510
vn 0.00000 -0.67224 0.74034
vn -0.25375 -0.67264 0.69510
vn -0.54737 -0.67442 0.49553
vn -0.72563 -0.68790 0.01598
vn -0.53027 -0.71408 -0.45705
vn -0.23972 -0.72801 -0.64229
vn 0.00000 -0.73106 -0.68231
vn 0.23972 -0.72801 -0.64229
vn 0.53027 -0.71408 -0.45705
vn 0.72563 -0.68790 0.01598
vn 0.99929 0.00000 0.03770
vn 0.73608 0.00000 -0.67689
vn 0.93222 0.00000 -0.36190
vn 0.97802 0.00000 0.20852
vn 0.73608 0.00000 -0.67689
vn 0.52964 0.00000 -0.84822
vn 0.52964 0.00000 -0.84822
vn 0.93222 0.00000 -0.36190
vn -0.52964 0.00000 -0.84822
vn -0.73608 0.00000 -0.67689
vn -0.93222 0.00000 -0.36190
vn -0.52964 0.00000 -0.84822
vn -0.73608 0.00000 -0.67689
vn -0.99929 0.00000 0.03770
vn -0.97802 0.00000 0.20852
vn -0.93222 0.00000 -0.36190
vn -0.99929 0.00000 0.03770
vn -0.78993 0.00000 0.61319
vn -0.78993 0.00000 0.61319
vn -0.97802 0.00000 0.20852
vn -0.78993 0.00000 0.61319
vn -0.29062 0.00000 0.95684
vn -0.29062 0.00000 0.95684
vn -0.78993 0.00000 0.61319
vn -0.29062 0.00000 0.95684
vn 0.29062 0.00000 0.95684
vn 0.29062 0.00000 0.95684
vn -0.29062 0.00000 0.95684
vn 0.29062 0.00000 0.95684
vn 0.78993 0.00000 0.61319
vn 0.78993 0.00000 0.61319
vn 0.29062 0.00000 0.95684
vn 0.78993 0.00000 0.61319
vn 0.99929 0.00000 0.03770
vn 0.97802 0.00000 0.20852
vn 0.78993 0.00000 0.61319
vn -1.00000 0.00000 -0.00000
vn -1.00000 0.00000 -0.00000
vn -1.00000 0.00000 -0.00000
vn -1.00000 0.00000 -0.00000
vn 0.00000 0.00000 -1.00000
vn 0.00000 0.00000 -1.00000
vn 0.00000 0.00000 -1.00000
vn 0.00000 0.00000 -1.00000
vn 1.00000 0.00000 -0.00000
vn 1.00000 0.00000 -0.00000
vn 1.00000 0.00000 -0.00000
vn 1.00000 0.00000 -0.00000
vn 0.00000 0.00000 1.00000
vn 0.00000 0.00000 1.00000
vn 0.00000 0.00000 1.00000
vn 0.00000 0.00000 1.00000
vn 0.00000 -1.00000 -0.00000
vn 0.00000 -1.00000 -0.00000
vn 0.00000 -1.00000 -0.00000
vn 0.00000 -1.00000 -0.00000
vn 0.00000 1.00000 -0.00000
vn 0.00000 1.00000 -0.00000
vn 0.00000 1.00000 -0.00000
vn 0.00000 1.00000 -0.00000
vn -1.00000 0.00000 -0.00000
vn -1.00000 0.00000 -0.00000
vn -1.00000 0.00000 -0.00000
vn -1.00000 0.00000 -0.00000
vn 0.00000 0.00000 -1.00000
vn 0.00000 0.00000 -1.00000
vn 0.00000 0.00000 -1.00000
vn 0.00000 0.00000 -1.00000
vn 1.00000 0.00000 -0.00000
vn 1.00000 0.00000 -0.00000
vn 1.00000 0.00000 -0.00000
vn 1.00000 0.00000 -0.00000
vn 0.00000 0.00000 1.00000
vn 0.00000 0.00000 1.00000
vn 0.00000 0.00000 1.00000
vn 0.00000 0.00000 1.00000
vn 0.00000 -1.00000 -0.00000
vn 0.00000 -1.00000 -0.00000
vn 0.00000 -1.00000 -0.00000
vn 0.00000 -1.00000 -0.00000
vn 0.00000 1.00000 -0.00000
vn 0.00000 1.00000 -0.00000
vn 0.00000 1.00000 -0.00000
vn 0.00000 1.00000 -0.00000
vn -0.57735 -0.57735 0.57735
vn -0.57735 0.57735 0.57735
vn -0.57735 0.57735 -0.57735
vn -0.57735 -0.57735 -0.57735
vn -0.57735 -0.57735 -0.57735
vn -0.57735 0.57735 -0.57735
vn 0.57735 0.57735 -0.57735
vn 0.57735 -0.57735 -0.57735
vn 0.57735 -0.57735 -0.57735
vn 0.57735 0.57735 -0.57735
vn 0.57735 0.57735 0.57735
vn 0.57735 -0.57735 0.57735
vn 0.57735 -0.57735 0.57735
vn 0.57735 0.57735 0.57735
vn -0.57735 0.57735 0.57735
vn -0.57735 -0.57735 0.57735
vn -0.57735 -0.57735 -0.57735
vn 0.57735 -0.57735 -0.57735
vn 0.57735 -0.57735 0.57735
vn -0.57735 -0.57735 0.57735
vn 0.57735 0.57735 -0.57735
vn -0.57735 0.57735 -0.57735
vn -0.57735 0.57735 0.57735
vn 0.57735 0.57735 0.57735
vn -0.57735 -0.57735 0.57735
vn -0.57735 0.57735 0.57735
vn -0.57735 0.57735 -0.57735
vn -0.57735 -0.57735 -0.57735
vn -0.57735 -0.57735 -0.57735
vn -0.57735 0.57735 -0.57735
vn 0.57735 0.57735 -0.57735
vn 0.57735 -0.57735 -0.57735
vn 0.57735 -0.57735 -0.57735
vn 0.57735 0.57735 -0.57735
vn 0.57735 0.57735 0.57735
vn 0.57735 -0.57735 0.57735
vn 0.57735 -0.57735 0.57735
vn 0.57735 0.57735 0.57735
vn -0.57735 0.57735 0.57735
vn -0.57735 -0.57735 0.57735
vn -0.57735 -0.57735 -0.57735
vn 0.57735 -0.57735 -0.57735
vn 0.57735 -0.57735 0.57735
vn -0.57735 -0.57735 0.57735
vn 0.57735 0.57735 -0.57735
vn -0.57735 0.57735 -0.57735
vn -0.57735 0.57735 0.57735
vn 0.57735 0.57735 0.57735
vn -1.00000 0.00000 -0.00000
vn -1.00000 0.00000 -0.00000
vn -1.00000 0.00000 -0.00000
vn -1.00000 0.00000 -0.00000
vn 0.00000 0.00000 -1.00000
vn 0.00000 0.00000 -1.00000
vn 0.00000 0.00000 -1.00000
vn 0.00000 0.00000 -1.00000
vn 1.00000 0.00000 -0.00000
vn 1.00000 0.00000 -0.00000
vn 1.00000 0.00000 -0.00000
vn 1.00000 0.00000 -0.00000
vn 0.00000 0.00000 1.00000
vn 0.00000 0.00000 1.00000
vn 0.00000 0.00000 1.00000
vn 0.00000 0.00000 1.00000
vn 0.00000 -1.00000 -0.00000
vn 0.00000 -1.00000 -0.00000
vn 0.00000 -1.00000 -0.00000
vn 0.00000 -1.00000 -0.00000
vn 0.00000 1.00000 -0.00000
vn 0.00000 1.00000 -0.00000
vn 0.00000 1.00000 -0.00000
vn 0.00000 1.00000 -0.00000
vn -1.00000 0.00000 -0.00000
vn -1.00000 0.00000 -0.00000
vn -1.00000 0.00000 -0.00000
vn -1.00000 0.00000 -0.00000
vn 0.00000 0.00000 -1.00000
vn 0.00000 0.00000 -1.00000
vn 0.00000 0.00000 -1.00000
vn 0.00000 0.00000 -1.00000
vn 1.00000 0.00000 -0.00000
vn 1.00000 0.00000 -0.00000
vn 1.00000 0.00000 -0.00000
vn 1.00000 0.00000 -0.00000
vn 0.00000 0.00000 1.00000
vn 0.00000 0.00000 1.00000
vn 0.00000 0.00000 1.00000
vn 0.00000 0.00000 1.00000
vn 0.00000 -1.00000 -0.00000
vn 0.00000 -1.00000 -0.00000
vn 0.00000 -1.00000 -0.00000
vn 0.00000 -1.00000 -0.00000
vn 0.00000 1.00000 -0.00000
vn 0.00000 1.00000 -0.00000
vn 0.00000 1.00000 -0.00000
vn 0.00000 1.00000 -0.00000
vn -1.00000 0.00000 -0.00000
vn -1.00000 0.00000 -0.00000
vn -1.00000 0.00000 -0.00000
vn -1.00000 0.00000 -0.00000
vn 0.00000 0.00000 -1.00000
vn 0.00000 0.00000 -1.00000
vn 0.00000 0.00000 -1.00000
vn 0.00000 0.00000 -1.00000
vn 1.00000 0.00000 -0.00000
vn 1.00000 0.00000 -0.00000
vn 1.00000 0.00000 -0.00000
vn 1.00000 0.00000 -0.00000
vn 0.00000 0.00000 1.00000
vn 0.00000 0.00000 1.00000
vn 0.00000 0.00000 1.00000
vn 0.00000 0.00000 1.00000
vn 0.00000 -1.00000 -0.00000
vn 0.00000 -1.00000 -0.00000
vn 0.00000 -1.00000 -0.00000
vn 0.00000 -1.00000 -0.00000
vn 0.00000 1.00000 -0.00000
vn 0.00000 1.00000 -0.00000
vn 0.00000 1.00000 -0.00000
vn 0.00000 1.00000 -0.00000
vn 0.00000 0.00000 -1.00000
vn 0.00000 0.00000 -1.00000
vn 0.00000 0.00000 -1.00000
vn 0.00000 0.00000 -1.00000
vn -1.00000 0.00000 -0.00000
vn -1.00000 0.00000 -0.00000
vn -1.00000 0.00000 -0.00000
vn -1.00000 0.00000 -0.00000
vn 0.89534 -0.43762 0.08279
vn 0.89534 -0.43762 0.08279
vn 0.89534 -0.43762 0.08279
vn 0.89534 -0.43762 0.08279
vn 1.00000 0.00000 -0.00000
vn 1.00000 0.00000 -0.00000
vn 1.00000 0.00000 -0.00000
vn 1.00000 0.00000 -0.00000
vn 0.00000 0.00000 1.00000
vn 0.00000 0.00000 1.00000
vn 0.00000 0.00000 1.00000
vn 0.00000 0.00000 1.00000
vn 0.74954 0.27724 -0.60110
vn 0.74954 0.27724 -0.60110
vn 0.74954 0.27724 -0.60110
vn 0.74954 0.27724 -0.60110
vn -0.66723 0.39325 -0.63258
vn -0.66723 0.39325 -0.63258
vn -0.66723 0.39325 -0.63258
vn -0.66723 0.39325 -0.63258
vn -0.63909 0.32912 -0.69516
vn -0.63909 0.32912 -0.69516
vn -0.63909 0.32912 -0.69516
vn -0.63909 0.32912 -0.69516
vn -0.14580 0.71486 -0.68390
vn -0.14580 0.71486 -0.68390
vn -0.14580 0.71486 -0.68390
vn -0.14580 0.71486 -0.68390
vn -0.62154 0.74963 0.22748
vn -0.62154 0.74963 0.22748
vn -0.62154 0.74963 0.22748
vn -0.62154 0.74963 0.22748
vn 0.00000 1.00000 -0.00000
vn 0.00000 1.00000 -0.00000
vn 0.00000 1.00000 -0.00000
vn 0.00000 1.00000 -0.00000
vn -0.89534 0.43762 -0.08279
vn -0.89534 0.43762 -0.08279
vn -0.89534 0.43762 -0.08279
vn -0.89534 0.43762 -0.08279
vn -0.27724 -0.69311 -0.66538
vn -0.27724 -0.69311 -0.66538
vn -0.27724 -0.69311 -0.66538
vn -0.27724 -0.69311 -0.66538
vn -0.27724 -0.69311 -0.66538
vn -0.27724 -0.69311 -0.66538
vn 1.00000 0.00000 -0.00000
vn 1.00000 0.00000 -0.00000
vn 1.00000 0.00000 -0.00000
vn 1.00000 0.00000 -0.00000
vn -0.74954 -0.27724 0.60110
vn -0.74954 -0.27724 0.60110
vn -0.74954 -0.27724 0.60110
vn -0.74954 -0.27724 0.60110
vn -0.16926 0.19337 0.96641
vn -0.16926 0.19337 0.96641
vn -0.16926 0.19337 0.96641
vn -0.16926 0.19337 0.96641
vn -0.80835 0.52249 0.27125
vn -0.80835 0.52249 0.27125
vn -0.80835 0.52249 0.27125
vn -0.80835 0.52249 0.27125
vn 0.14580 -0.71486 0.68390
vn 0.14580 -0.71486 0.68390
vn 0.14580 -0.71486 0.68390
vn 0.14580 -0.71486 0.68390
vn 0.27724 0.69311 0.66538
vn 0.27724 0.69311 0.66538
vn 0.27724 0.69311 0.66538
vn 0.27724 0.69311 0.66538
vn 0.27724 0.69311 0.66538
vn 0.27724 0.69311 0.66538
vn 0.63909 -0.32912 0.69516
vn 0.63909 -0.32912 0.69516
vn 0.63909 -0.32912 0.69516
vn 0.63909 -0.32912 0.69516
vn -0.52249 -0.84904 0.07837
vn -0.52249 -0.84904 0.07837
vn -0.52249 -0.84904 0.07837
vn -0.52249 -0.84904 0.07837
vn -0.52249 -0.84904 0.07837
vn -0.52249 -0.84904 0.07837
vn 0.00000 0.00000 -1.00000
vn 0.00000 0.00000 -1.00000
vn 0.00000 0.00000 -1.00000
vn 0.00000 0.00000 -1.00000
vn 0.80835 -0.52249 -0.27125
vn 0.80835 -0.52249 -0.27125
vn 0.80835 -0.52249 -0.27125
vn 0.80835 -0.52249 -0.27125
vn -0.06661 0.19089 0.97935
vn -0.06661 0.19089 0.97935
vn -0.06661 0.19089 0.97935
vn -0.06661 0.19089 0.97935
vn -0.73384 0.58414 0.34677
vn -0.73384 0.58414 0.34677
vn -0.73384 0.58414 0.34677
vn -0.73384 0.58414 0.34677
vn 0.16926 -0.19337 -0.96641
vn 0.16926 -0.19337 -0.96641
vn 0.16926 -0.19337 -0.96641
vn 0.16926 -0.19337 -0.96641
vn 0.52249 0.84904 -0.07837
vn 0.52249 0.84904 -0.07837
vn 0.52249 0.84904 -0.07837
vn 0.52249 0.84904 -0.07837
vn 0.52249 0.84904 -0.07837
vn 0.52249 0.84904 -0.07837
vn 0.66723 -0.39325 0.63258
vn 0.66723 -0.39325 0.63258
vn 0.66723 -0.39325 0.63258
vn 0.66723 -0.39325 0.63258
vn -0.58414 -0.80320 0.11683
vn -0.58414 -0.80320 0.11683
vn -0.58414 -0.80320 0.11683
vn -0.58414 -0.80320 0.11683
vn -0.58414 -0.80320 0.11683
vn -0.58414 -0.80320 0.11683
vn 0.00000 -1.00000 -0.00000
vn 0.00000 -1.00000 -0.00000
vn 0.00000 -1.00000 -0.00000
vn 0.00000 -1.00000 -0.00000
vn 0.73384 -0.58414 -0.34677
vn 0.73384 -0.58414 -0.34677
vn 0.73384 -0.58414 -0.34677
vn 0.73384 -0.58414 -0.34677
vn 0.78729 -0.19202 0.58591
vn 0.78729 -0.19202 0.58591
vn 0.78729 -0.19202 0.58591
vn 0.78729 -0.19202 0.58591
vn 0.16575 0.55760 0.81339
vn 0.16575 0.55760 0.81339
vn 0.16575 0.55760 0.81339
vn 0.16575 0.55760 0.81339
vn 0.06661 -0.19089 -0.97935
vn 0.06661 -0.19089 -0.97935
vn 0.06661 -0.19089 -0.97935
vn 0.06661 -0.19089 -0.97935
vn 0.58414 0.80320 -0.11683
vn 0.58414 0.80320 -0.11683
vn 0.58414 0.80320 -0.11683
vn 0.58414 0.80320 -0.11683
vn 0.58414 0.80320 -0.11683
vn 0.58414 0.80320 -0.11683
vn 0.62154 -0.74963 -0.22748
vn 0.62154 -0.74963 -0.22748
vn 0.62154 -0.74963 -0.22748
vn 0.62154 -0.74963 -0.22748
vn -1.00000 0.00000 -0.00000
vn -1.00000 0.00000 -0.00000
vn -1.00000 0.00000 -0.00000
vn -1.00000 0.00000 -0.00000
vn 0.55760 0.62730 -0.54366
vn 0.55760 0.62730 -0.54366
vn 0.55760 0.62730 -0.54366
vn 0.55760 0.62730 -0.54366
vn 0.55760 0.62730 -0.54366
vn 0.55760 0.62730 -0.54366
vn -0.16575 -0.55760 -0.81339
vn -0.16575 -0.55760 -0.81339
vn -0.16575 -0.55760 -0.81339
vn -0.16575 -0.55760 -0.81339
vn 0.00000 0.00000 1.00000
vn 0.00000 0.00000 1.00000
vn 0.00000 0.00000 1.00000
vn 0.00000 0.00000 1.00000
vn 0.00000 -1.00000 -0.00000
vn 0.00000 -1.00000 -0.00000
vn 0.00000 -1.00000 -0.00000
vn 0.00000 -1.00000 -0.00000
vn -0.78729 0.19202 -0.58591
vn -0.78729 0.19202 -0.58591
vn -0.78729 0.19202 -0.58591
vn -0.78729 0.19202 -0.58591
vn -0.55760 -0.62730 0.54366
vn -0.55760 -0.62730 0.54366
vn -0.55760 -0.62730 0.54366
vn -0.55760 -0.62730 0.54366
vn -0.55760 -0.62730 0.54366
vn -0.55760 -0.62730 0.54366
vn 0.00000 1.00000 -0.00000
vn 0.00000 1.00000 -0.00000
vn 0.00000 1.00000 -0.00000
vn 0.00000 1.00000 -0.00000
vn -1.00000 0.00000 -0.00000
vn -1.00000 0.00000 -0.00000
vn -1.00000 0.00000 -0.00000
vn -1.00000 0.00000 -0.00000
vn 0.00000 0.00000 -1.00000
vn 0.00000 0.00000 -1.00000
vn 0.00000 0.00000 -1.00000
vn 0.00000 0.00000 -1.00000
vn 1.00000 0.00000 -0.00000
vn 1.00000 0.00000 -0.00000
vn 1.00000 0.00000 -0.00000
vn 1.00000 0.00000 -0.00000
vn 0.00000 0.00000 1.00000
vn 0.00000 0.00000 1.00000
vn 0.00000 0.00000 1.00000
vn 0.00000 0.00000 1.00000
vn 0.00000 -1.00000 -0.00000
vn 0.00000 -1.00000 -0.00000
vn 0.00000 -1.00000 -0.00000
vn 0.00000 -1.00000 -0.00000
vn 0.00000 1.00000 -0.00000
vn 0.00000 1.00000 -0.00000
vn 0.00000 1.00000 -0.00000
vn 0.00000 1.00000 -0.00000
f 1/1/1 13/2/2 14/3/3 2/4/4
f 2/5/5 14/6/6 15/7/7 3/8/8
f 3/9/9 15/10/10 16/11/11 4/12/12
f 4/13/13 16/14/14 17/15/15 5/16/16
f 5/17/17 17/18/18 18/19/19 6/20/20
f 6/21/21 18/22/22 19/23/23 7/24/24
f 7/25/25 19/26/26 20/27/27 8/28/28
f 8/29/29 20/30/30 21/31/31 9/32/32
f 9/33/33 21/34/34 22/35/35 10/36/36
f 10/37/37 22/38/38 23/39/39 11/40/40
f 11/41/41 23/42/42 24/43/43 12/44/44
f 12/45/45 24/46/46 13/47/47 1/48/48
f 13/49/49 25/50/50 26/51/51 14/52/52
f 14/53/53 26/54/54 27/55/55 15/56/56
f 15/57/57 27/58/58 28/59/59 16/60/60
f 16/61/61 28/62/62 29/63/63 17/64/64
f 17/65/65 29/66/66 30/67/67 18/68/68
f 18/69/69 30/70/70 31/71/71 19/72/72
f 19/73/73 31/74/74 32/75/75 20/76/76
f 20/77/77 32/78/78 33/79/79 21/80/80
f 21/81/81 33/82/82 34/83/83 22/84/84
f 22/85/85 34/86/86 35/87/87 23/88/88
f 23/89/89 35/90/90 36/91/91 24/92/92
f 24/93/93 36/94/94 25/95/95 13/96/96
f 25/97/97 37/98/98 38/99/99 26/100/100
f 26/101/101 38/102/102 39/103/103 27/104/104
f 27/105/105 39/106/106 40/107/107 28/108/108
f 28/109/109 40/110/110 41/111/111 29/112/112
f 29/113/113 41/114/114 42/115/115 30/116/116
f 30/117/117 42/118/118 43/119/119 31/120/120
f 31/121/121 43/122/122 44/123/123 32/124/124
f 32/125/125 44/126/126 45/127/127 33/128/128
f 33/129/129 45/130/130 46/131/131 34/132/132
f 34/133/133 46/134/134 47/135/135 35/136/136
f 35/137/137 47/138/138 48/139/139 36/140/140
f 36/141/141 48/142/142 37/143/143 25/144/144
f 37/145/145 49/146/146 50/147/147 38/148/148
f 38/149/149 50/150/150 51/151/151 39/152/152
f 39/153/153 51/154/154 52/155/155 40/156/156
f 40/157/157 52/158/158 53/159/159 41/160/160
f 41/161/161 53/162/162 54/163/163 42/164/164
f 42/165/165 54/166/166 55/167/167 43/168/168
f 43/169/169 55/170/170 56/171/171 44/172/172
f 44/173/173 56/174/174 57/175/175 45/176/176
f 45/177/177 57/178/178 58/179/179 46/180/180
f 46/181/181 58/182/182 59/183/183 47/184/184
f 47/185/185 59/186/186 60/187/187 48/188/188
f 48/189/189 60/190/190 49/191/191 37/192/192
f 49/193/193 61/194/194 62/195/195 50/196/196
f 50/197/197 62/198/198 63/199/199 51/200/200
f 51/201/201 63/202/202 64/203/203 52/204/204
f 52/205/205 64/206/206 65/207/207 53/208/208
f 53/209/209 65/210/210 66/211/211 54/212/212
f 54/213/213 66/214/214 67/215/215 55/216/216
f 55/217/217 67/218/218 68/219/219 56/220/220
f 56/221/221 68/222/222 69/223/223 57/224/224
f 57/225/225 69/226/226 70/227/227 58/228/228
f 58/229/229 70/230/230 71/231/231 59/232/232
f 59/233/233 71/234/234 72/235/235 60/236/236
f 60/237/237 72/238/238 61/239/239 49/240/240
f 1/241/241 2/242/242 3/243/243 4/244/244 5/245/245 6/246/246 7/247/247 8/248/248 9/249/249 10/250/250 11/251/251 12/252/252
f 72/253/253 71/254/254 70/255/255 69/256/256 68/257/257 67/258/258 66/259/259 65/260/260 64/261/261 63/262/262 62/263/263 61/264/264
f 73/265/265 75/266/266 76/267/267 74/268/268
f 75/269/269 77/270/270 78/271/271 76/272/272
f 79/273/273 81/274/274 82/275/275 80/276/276
f 81/277/277 83/278/278 84/279/279 82/280/280
f 83/281/281 85/282/282 86/283/283 84/284/284
f 85/285/285 87/286/286 88/287/287 86/288/288
f 87/289/289 89/290/290 90/291/291 88/292/292
f 89/293/293 91/294/294 92/295/295 90/296/296
f 91/297/297 73/298/298 74/299/299 92/300/300
f 93/301/301 94/302/302 96/303/303 95/304/304
f 95/305/305 96/306/306 100/307/307 99/308/308
f 99/309/309 100/310/310 98/311/311 97/312/312
f 97/313/313 98/314/314 94/315/315 93/316/316
f 95/317/317 99/318/318 97/319/319 93/320/320
f 100/321/321 96/322/322 94/323/323 98/324/324
f 101/325/325 102/326/326 104/327/327 103/328/328
f 103/329/329 104/330/330 108/331/331 107/332/332
f 107/333/333 108/334/334 106/335/335 105/336/336
f 105/337/337 106/338/338 102/339/339 101/340/340
f 103/341/341 107/342/342 105/343/343 101/344/344
f 108/345/345 104/346/346 102/347/347 106/348/348
f 109/349/349 110/350/350 112/351/351 111/352/352
f 111/353/353 112/354/354 116/355/355 115/356/356
f 115/357/357 116/358/358 114/359/359 113/360/360
f 113/361/361 114/362/362 110/363/363 109/364/364
f 111/365/365 115/366/366 113/367/367 109/368/368
f 116/369/369 112/370/370 110/371/371 114/372/372
f 117/373/373 118/374/374 120/375/375 119/376/376
f 119/377/377 120/378/378 124/379/379 123/380/380
f 123/381/381 124/382/382 122/383/383 121/384/384
f 121/385/385 122/386/386 118/387/387 117/388/388
f 119/389/389 123/390/390 121/391/391 117/392/392
f 124/393/393 120/394/394 118/395/395 122/396/396
f 125/397/397 126/398/398 128/399/399 127/400/400
f 127/401/401 128/402/402 132/403/403 131/404/404
f 131/405/405 132/406/406 130/407/407 129/408/408
f 129/409/409 130/410/410 126/411/411 125/412/412
f 127/413/413 131/414/414 129/415/415 125/416/416
f 132/417/417 128/418/418 126/419/419 130/420/420
f 133/421/421 134/422/422 136/423/423 135/424/424
f 135/425/425 136/426/426 140/427/427 139/428/428
f 139/429/429 140/430/430 138/431/431 137/432/432
f 137/433/433 138/434/434 134/435/435 133/436/436
f 135/437/437 139/438/438 137/439/439 133/440/440
f 140/441/441 136/442/442 134/443/443 138/444/444
f 141/445/445 142/446/446 144/447/447 143/448/448
f 143/449/449 144/450/450 148/451/451 147/452/452
f 147/453/453 148/454/454 146/455/455 145/456/456
f 145/457/457 146/458/458 142/459/459 141/460/460
f 143/461/461 147/462/462 145/463/463 141/464/464
f 148/465/465 144/466/466 142/467/467 146/468/468
f 207/469/469 208/470/470 212/471/471 211/472/472
f 205/473/473 206/474/474 208/475/475 207/476/476
f 151/477/477 152/478/478 154/479/479 153/480/480
f 211/481/481 212/482/482 210/483/483 209/484/484
f 209/485/485 210/486/486 206/487/487 205/488/488
f 153/489/489 154/490/490 156/491/491 155/492/492
f 175/493/493 176/494/494 178/495/495 177/496/496
f 163/497/497 164/498/498 166/499/499 165/500/500
f 155/501/501 156/502/502 158/503/503 157/504/504
f 187/505/505 188/506/506 190/507/507 189/508/508
f 204/509/509 200/510/510 149/511/511 202/512/512
f 157/513/513 158/514/514 160/515/515 159/516/516
f 154/517/517 152/518/518 162/519/519 160/520/520 158/521/521 156/522/522
f 203/523/523 204/524/524 202/525/525 201/526/526
f 159/527/527 160/528/528 162/529/529 161/530/530
f 167/531/531 168/532/532 170/533/533 169/534/534
f 165/535/535 166/536/536 168/537/537 167/538/538
f 161/539/539 162/540/540 152/541/541 151/542/542
f 151/543/543 153/544/544 155/545/545 157/546/546 159/547/547 161/548/548
f 169/549/549 170/550/550 172/551/551 171/552/552
f 168/553/553 166/554/554 164/555/555 174/556/556 172/557/557 170/558/558
f 199/559/559 200/560/560 204/561/561 203/562/562
f 171/563/563 172/564/564 174/565/565 173/566/566
f 179/567/567 180/568/568 182/569/569 181/570/570
f 177/571/571 178/572/572 180/573/573 179/574/574
f 173/575/575 174/576/576 164/577/577 163/578/578
f 169/579/579 171/580/580 173/581/581 163/582/582 165/583/583 167/584/584
f 181/585/585 182/586/586 184/587/587 183/588/588
f 178/589/589 176/590/590 186/591/591 184/592/592 182/593/593 180/594/594
f 199/595/595 203/596/596 201/597/597 150/598/598
f 183/599/599 184/600/600 186/601/601 185/602/602
f 191/603/603 192/604/604 194/605/605 193/606/606
f 189/607/607 190/608/608 192/609/609 191/610/610
f 185/611/611 186/612/612 176/613/613 175/614/614
f 179/615/615 181/616/616 183/617/617 185/618/618 175/619/619 177/620/620
f 193/621/621 194/622/622 196/623/623 195/624/624
f 150/625/625 149/626/626 200/627/627 199/628/628
f 189/629/629 191/630/630 193/631/631 195/632/632 197/633/633 187/634/634
f 195/635/635 196/636/636 198/637/637 197/638/638
f 201/639/639 202/640/640 149/641/641 150/642/642
f 207/643/643 211/644/644 209/645/645 205/646/646
f 197/647/647 198/648/648 188/649/649 187/650/650
f 194/651/651 192/652/652 190/653/653 188/654/654 198/655/655 196/656/656
f 212/657/657 208/658/658 206/659/659 210/660/660
f 213/661/661 214/662/662 216/663/663 215/664/664
f 215/665/665 216/666/666 220/667/667 219/668/668
f 219/669/669 220/670/670 218/671/671 217/672/672
f 217/673/673 218/674/674 214/675/675 213/676/676
f 215/677/677 219/678/678 217/679/679 213/680/680
f 220/681/681 216/682/682 214/683/683 218/684/684
