# Component OBJ: Arm_left
o Arm_left
v -0.06400 -0.27250 -0.02200
v -0.06400 -0.36750 -0.02200
v -0.07195 0.00236 -0.00005
v -0.08195 -0.21764 0.00995
v -0.05669 0.00334 0.03669
v -0.06669 -0.21666 0.04669
v -0.01995 0.00236 0.05195
v -0.02995 -0.21764 0.06195
v 0.01677 0.00000 0.03677
v 0.00677 -0.22000 0.04677
v 0.03195 -0.00236 0.00005
v 0.02195 -0.22236 0.01005
v 0.01669 -0.00334 -0.03669
v 0.00669 -0.22334 -0.02669
v -0.02005 -0.00236 -0.05195
v -0.03005 -0.22236 -0.04195
v -0.05677 0.00000 -0.03677
v -0.06677 -0.22000 -0.02677
v -0.07395 -0.21800 0.00995
v -0.08395 -0.43800 0.01995
v -0.06105 -0.21718 0.04105
v -0.07105 -0.43718 0.05105
v -0.02995 -0.21800 0.05395
v -0.03995 -0.43800 0.06395
v 0.00111 -0.22000 0.04111
v -0.00889 -0.44000 0.05111
v 0.01395 -0.22200 0.01005
v 0.00395 -0.44200 0.02005
v 0.00105 -0.22282 -0.02105
v -0.00895 -0.44282 -0.01105
v -0.03005 -0.22200 -0.03395
v -0.04005 -0.44200 -0.02395
v -0.06111 -0.22000 -0.02111
v -0.07111 -0.44000 -0.01111
v -0.06400 -0.36750 -0.05800
v -0.06400 -0.27250 -0.05800
v -0.02000 -0.36750 -0.02200
v -0.02000 -0.27250 -0.02200
v -0.02000 -0.36750 -0.05800
v -0.02000 -0.27250 -0.05800
v -0.06400 -0.36100 -0.05400
v -0.06400 -0.27900 -0.05400
v -0.06400 -0.36100 -0.06200
v -0.06400 -0.27900 -0.06200
v -0.02600 -0.36100 -0.05400
v -0.02600 -0.27900 -0.05400
v -0.02600 -0.36100 -0.06200
v -0.02600 -0.27900 -0.06200
v -0.05700 -0.53750 0.05400
v -0.05700 -0.46250 0.05400
v -0.05700 -0.53750 -0.01400
v -0.05700 -0.46250 -0.01400
v -0.02300 -0.53750 0.05400
v -0.02300 -0.46250 0.05400
v -0.02300 -0.53750 -0.01400
v -0.02300 -0.46250 -0.01400
v -0.05500 -0.51300 -0.01000
v -0.05500 -0.48700 -0.01000
v -0.05500 -0.51300 -0.02200
v -0.05500 -0.48700 -0.02200
v -0.02500 -0.51300 -0.01000
v -0.02500 -0.48700 -0.01000
v -0.02500 -0.51300 -0.02200
v -0.02500 -0.48700 -0.02200
v -0.05400 -0.57300 0.05000
v -0.05400 -0.53700 0.05000
v -0.05400 -0.57300 -0.01000
v -0.05400 -0.53700 -0.01000
v -0.02600 -0.57300 0.05000
v -0.02600 -0.53700 0.05000
v -0.02600 -0.57300 -0.01000
v -0.02600 -0.53700 -0.01000
v -0.07100 -0.50000 -0.00000
v -0.07100 -0.47000 -0.00000
v -0.07100 -0.50000 -0.02000
v -0.07100 -0.47000 -0.02000
v -0.05300 -0.50000 -0.00000
v -0.05300 -0.47000 -0.00000
v -0.05300 -0.50000 -0.02000
v -0.05300 -0.47000 -0.02000
vt 0.98000 0.15000
vt 0.98000 0.40000
vt 0.74000 0.40000
vt 0.74000 0.15000
vt 0.02000 0.98000
vt 0.28000 0.98000
vt 0.28000 0.62000
vt 0.02000 0.62000
vt 0.27556 0.98348
vt 0.02359 0.62422
vt 0.05250 0.62582
vt 0.05250 0.98508
vt 0.15417 0.97637
vt 0.14467 0.61711
vt 0.18250 0.61576
vt 0.18250 0.97502
vt 0.05250 0.98424
vt 0.05250 0.62498
vt 0.08083 0.62363
vt 0.09033 0.98289
vt 0.05250 0.98508
vt 0.05250 0.62582
vt 0.08141 0.62422
vt 0.08944 0.98348
vt 0.12409 0.97963
vt 0.11091 0.62037
vt 0.14467 0.61711
vt 0.15417 0.97637
vt 0.02000 0.62000
vt 0.02000 0.98000
vt 0.28000 0.98000
vt 0.28000 0.62000
vt 0.08944 0.98348
vt 0.08141 0.62422
vt 0.11191 0.62037
vt 0.12309 0.97963
vt 0.74000 0.40000
vt 0.98000 0.40000
vt 0.98000 0.15000
vt 0.74000 0.15000
vt 0.74000 0.15000
vt 0.74000 0.40000
vt 0.98000 0.40000
vt 0.98000 0.15000
vt 0.12309 0.97963
vt 0.11191 0.62037
vt 0.14556 0.61652
vt 0.15359 0.97578
vt 0.28000 0.62000
vt 0.28000 0.98000
vt 0.02000 0.98000
vt 0.02000 0.62000
vt 0.27467 0.98289
vt 0.02417 0.62363
vt 0.05250 0.62498
vt 0.05250 0.98424
vt 0.15359 0.97578
vt 0.14556 0.61652
vt 0.18250 0.61492
vt 0.18250 0.97418
vt 0.09033 0.98289
vt 0.08083 0.62363
vt 0.11091 0.62037
vt 0.12409 0.97963
vt 0.02000 0.62000
vt 0.02000 0.98000
vt 0.28000 0.98000
vt 0.28000 0.62000
vt 0.18250 0.97418
vt 0.18250 0.61492
vt 0.21944 0.61652
vt 0.21141 0.97578
vt 0.05250 0.62582
vt 0.02359 0.62422
vt 0.25309 0.62037
vt 0.21944 0.61652
vt 0.18250 0.61492
vt 0.14556 0.61652
vt 0.11191 0.62037
vt 0.08141 0.62422
vt 0.74000 0.15000
vt 0.74000 0.40000
vt 0.98000 0.40000
vt 0.98000 0.15000
vt 0.21141 0.97578
vt 0.21944 0.61652
vt 0.25309 0.62037
vt 0.24191 0.97963
vt 0.28000 0.62000
vt 0.28000 0.98000
vt 0.02000 0.98000
vt 0.02000 0.62000
vt 0.98000 0.40000
vt 0.74000 0.40000
vt 0.74000 0.15000
vt 0.98000 0.15000
vt 0.24191 0.97963
vt 0.25309 0.62037
vt 0.02359 0.62422
vt 0.27556 0.98348
vt 0.27556 0.98348
vt 0.05250 0.98508
vt 0.08944 0.98348
vt 0.12309 0.97963
vt 0.15359 0.97578
vt 0.18250 0.97418
vt 0.21141 0.97578
vt 0.24191 0.97963
vt 0.02000 0.62000
vt 0.02000 0.98000
vt 0.28000 0.98000
vt 0.28000 0.62000
vt 0.98000 0.15000
vt 0.98000 0.40000
vt 0.74000 0.40000
vt 0.74000 0.15000
vt 0.18250 0.97502
vt 0.18250 0.61576
vt 0.22033 0.61711
vt 0.21083 0.97637
vt 0.02000 0.62000
vt 0.02000 0.98000
vt 0.28000 0.98000
vt 0.28000 0.62000
vt 0.09033 0.98289
vt 0.12409 0.97963
vt 0.15417 0.97637
vt 0.18250 0.97502
vt 0.21083 0.97637
vt 0.24091 0.97963
vt 0.27467 0.98289
vt 0.05250 0.98424
vt 0.21083 0.97637
vt 0.22033 0.61711
vt 0.25409 0.62037
vt 0.24091 0.97963
vt 0.28000 0.98000
vt 0.02000 0.98000
vt 0.02000 0.62000
vt 0.28000 0.62000
vt 0.28000 0.62000
vt 0.28000 0.98000
vt 0.02000 0.98000
vt 0.02000 0.62000
vt 0.24091 0.97963
vt 0.25409 0.62037
vt 0.02417 0.62363
vt 0.27467 0.98289
vt 0.18250 0.61576
vt 0.14467 0.61711
vt 0.11091 0.62037
vt 0.08083 0.62363
vt 0.05250 0.62498
vt 0.02417 0.62363
vt 0.25409 0.62037
vt 0.22033 0.61711
vt 0.28000 0.62000
vt 0.28000 0.98000
vt 0.02000 0.98000
vt 0.02000 0.62000
vt 0.02000 0.98000
vt 0.28000 0.98000
vt 0.28000 0.62000
vt 0.02000 0.62000
vt 0.28000 0.98000
vt 0.02000 0.98000
vt 0.02000 0.62000
vt 0.28000 0.62000
vt 0.59500 0.60900
vt 0.59500 0.75500
vt 0.66100 0.75500
vt 0.66100 0.60900
vt 0.59500 0.60900
vt 0.59500 0.75500
vt 0.66100 0.75500
vt 0.66100 0.60900
vt 0.66100 0.60900
vt 0.66100 0.75500
vt 0.59500 0.75500
vt 0.59500 0.60900
vt 0.66100 0.60900
vt 0.66100 0.75500
vt 0.59500 0.75500
vt 0.59500 0.60900
vt 0.59500 0.75500
vt 0.66100 0.75500
vt 0.66100 0.60900
vt 0.59500 0.60900
vt 0.66100 0.75500
vt 0.59500 0.75500
vt 0.59500 0.60900
vt 0.66100 0.60900
vt 0.70000 0.84900
vt 0.70000 0.98000
vt 0.88000 0.98000
vt 0.88000 0.84900
vt 0.70000 0.84900
vt 0.70000 0.98000
vt 0.88000 0.98000
vt 0.88000 0.84900
vt 0.88000 0.84900
vt 0.88000 0.98000
vt 0.70000 0.98000
vt 0.70000 0.84900
vt 0.88000 0.84900
vt 0.88000 0.98000
vt 0.70000 0.98000
vt 0.70000 0.84900
vt 0.70000 0.98000
vt 0.88000 0.98000
vt 0.88000 0.84900
vt 0.70000 0.84900
vt 0.88000 0.98000
vt 0.70000 0.98000
vt 0.70000 0.84900
vt 0.88000 0.84900
vt 0.70000 0.84900
vt 0.70000 0.98000
vt 0.88000 0.98000
vt 0.88000 0.84900
vt 0.70000 0.84900
vt 0.70000 0.98000
vt 0.88000 0.98000
vt 0.88000 0.84900
vt 0.88000 0.84900
vt 0.88000 0.98000
vt 0.70000 0.98000
vt 0.70000 0.84900
vt 0.88000 0.84900
vt 0.88000 0.98000
vt 0.70000 0.98000
vt 0.70000 0.84900
vt 0.70000 0.98000
vt 0.88000 0.98000
vt 0.88000 0.84900
vt 0.70000 0.84900
vt 0.88000 0.98000
vt 0.70000 0.98000
vt 0.70000 0.84900
vt 0.88000 0.84900
vn 0.00000 0.00000 1.00000
vn 0.00000 0.00000 1.00000
vn 0.00000 0.00000 1.00000
vn 0.00000 0.00000 1.00000
vn 0.00000 -1.00000 -0.00000
vn 0.00000 -1.00000 -0.00000
vn 0.00000 -1.00000 -0.00000
vn 0.00000 -1.00000 -0.00000
vn -0.74700 0.66417 -0.02939
vn -0.80418 -0.59374 0.02779
vn -0.57645 -0.57915 0.57645
vn -0.51927 0.67876 0.51927
vn 0.80418 0.59374 -0.02779
vn 0.74700 -0.66417 0.02939
vn 0.51927 -0.67876 -0.51927
vn 0.57645 0.57915 -0.57645
vn -0.51927 0.67876 0.51927
vn -0.57645 -0.57915 0.57645
vn -0.02779 -0.59374 0.80418
vn 0.02939 0.66417 0.74700
vn -0.51927 0.67876 0.51927
vn -0.57645 -0.57915 0.57645
vn -0.02779 -0.59374 0.80418
vn 0.02939 0.66417 0.74700
vn 0.57758 0.62896 0.52040
vn 0.52040 -0.62896 0.57758
vn 0.74700 -0.66417 0.02939
vn 0.80418 0.59374 -0.02779
vn -0.57735 -0.57735 0.57735
vn -0.57735 0.57735 0.57735
vn -0.57735 0.57735 -0.57735
vn -0.57735 -0.57735 -0.57735
vn 0.02939 0.66417 0.74700
vn -0.02779 -0.59374 0.80418
vn 0.52040 -0.62896 0.57758
vn 0.57758 0.62896 0.52040
vn 0.00000 -1.00000 -0.00000
vn 0.00000 -1.00000 -0.00000
vn 0.00000 -1.00000 -0.00000
vn 0.00000 -1.00000 -0.00000
vn 0.00000 0.00000 -1.00000
vn 0.00000 0.00000 -1.00000
vn 0.00000 0.00000 -1.00000
vn 0.00000 0.00000 -1.00000
vn 0.57758 0.62896 0.52040
vn 0.52040 -0.62896 0.57758
vn 0.74700 -0.66417 0.02939
vn 0.80418 0.59374 -0.02779
vn 0.00000 0.00000 1.00000
vn 0.00000 0.00000 1.00000
vn 0.00000 0.00000 1.00000
vn 0.00000 0.00000 1.00000
vn -0.74700 0.66417 -0.02939
vn -0.80418 -0.59374 0.02779
vn -0.57645 -0.57915 0.57645
vn -0.51927 0.67876 0.51927
vn 0.80418 0.59374 -0.02779
vn 0.74700 -0.66417 0.02939
vn 0.51927 -0.67876 -0.51927
vn 0.57645 0.57915 -0.57645
vn 0.02939 0.66417 0.74700
vn -0.02779 -0.59374 0.80418
vn 0.52040 -0.62896 0.57758
vn 0.57758 0.62896 0.52040
vn -0.57735 -0.57735 -0.57735
vn -0.57735 0.57735 -0.57735
vn 0.57735 0.57735 -0.57735
vn 0.57735 -0.57735 -0.57735
vn 0.57645 0.57915 -0.57645
vn 0.51927 -0.67876 -0.51927
vn -0.02939 -0.66417 -0.74700
vn 0.02779 0.59374 -0.80418
vn -0.57645 -0.57915 0.57645
vn -0.80418 -0.59374 0.02779
vn -0.57758 -0.62896 -0.52040
vn -0.02939 -0.66417 -0.74700
vn 0.51927 -0.67876 -0.51927
vn 0.74700 -0.66417 0.02939
vn 0.52040 -0.62896 0.57758
vn -0.02779 -0.59374 0.80418
vn -1.00000 0.00000 -0.00000
vn -1.00000 0.00000 -0.00000
vn -1.00000 0.00000 -0.00000
vn -1.00000 0.00000 -0.00000
vn 0.02779 0.59374 -0.80418
vn -0.02939 -0.66417 -0.74700
vn -0.57758 -0.62896 -0.52040
vn -0.52040 0.62896 -0.57758
vn 1.00000 0.00000 -0.00000
vn 1.00000 0.00000 -0.00000
vn 1.00000 0.00000 -0.00000
vn 1.00000 0.00000 -0.00000
vn 0.00000 1.00000 -0.00000
vn 0.00000 1.00000 -0.00000
vn 0.00000 1.00000 -0.00000
vn 0.00000 1.00000 -0.00000
vn -0.52040 0.62896 -0.57758
vn -0.57758 -0.62896 -0.52040
vn -0.80418 -0.59374 0.02779
vn -0.74700 0.66417 -0.02939
vn -0.74700 0.66417 -0.02939
vn -0.51927 0.67876 0.51927
vn 0.02939 0.66417 0.74700
vn 0.57758 0.62896 0.52040
vn 0.80418 0.59374 -0.02779
vn 0.57645 0.57915 -0.57645
vn 0.02779 0.59374 -0.80418
vn -0.52040 0.62896 -0.57758
vn 0.00000 0.00000 -1.00000
vn 0.00000 0.00000 -1.00000
vn 0.00000 0.00000 -1.00000
vn 0.00000 0.00000 -1.00000
vn 1.00000 0.00000 -0.00000
vn 1.00000 0.00000 -0.00000
vn 1.00000 0.00000 -0.00000
vn 1.00000 0.00000 -0.00000
vn 0.57645 0.57915 -0.57645
vn 0.51927 -0.67876 -0.51927
vn -0.02939 -0.66417 -0.74700
vn 0.02779 0.59374 -0.80418
vn -1.00000 0.00000 -0.00000
vn -1.00000 0.00000 -0.00000
vn -1.00000 0.00000 -0.00000
vn -1.00000 0.00000 -0.00000
vn 0.02939 0.66417 0.74700
vn 0.57758 0.62896 0.52040
vn 0.80418 0.59374 -0.02779
vn 0.57645 0.57915 -0.57645
vn 0.02779 0.59374 -0.80418
vn -0.52040 0.62896 -0.57758
vn -0.74700 0.66417 -0.02939
vn -0.51927 0.67876 0.51927
vn 0.02779 0.59374 -0.80418
vn -0.02939 -0.66417 -0.74700
vn -0.57758 -0.62896 -0.52040
vn -0.52040 0.62896 -0.57758
vn 0.00000 1.00000 -0.00000
vn 0.00000 1.00000 -0.00000
vn 0.00000 1.00000 -0.00000
vn 0.00000 1.00000 -0.00000
vn 0.57735 -0.57735 -0.57735
vn 0.57735 0.57735 -0.57735
vn 0.57735 0.57735 0.57735
vn 0.57735 -0.57735 0.57735
vn -0.52040 0.62896 -0.57758
vn -0.57758 -0.62896 -0.52040
vn -0.80418 -0.59374 0.02779
vn -0.74700 0.66417 -0.02939
vn 0.51927 -0.67876 -0.51927
vn 0.74700 -0.66417 0.02939
vn 0.52040 -0.62896 0.57758
vn -0.02779 -0.59374 0.80418
vn -0.57645 -0.57915 0.57645
vn -0.80418 -0.59374 0.02779
vn -0.57758 -0.62896 -0.52040
vn -0.02939 -0.66417 -0.74700
vn 0.57735 -0.57735 0.57735
vn 0.57735 0.57735 0.57735
vn -0.57735 0.57735 0.57735
vn -0.57735 -0.57735 0.57735
vn -0.57735 -0.57735 -0.57735
vn 0.57735 -0.57735 -0.57735
vn 0.57735 -0.57735 0.57735
vn -0.57735 -0.57735 0.57735
vn 0.57735 0.57735 -0.57735
vn -0.57735 0.57735 -0.57735
vn -0.57735 0.57735 0.57735
vn 0.57735 0.57735 0.57735
vn -1.00000 0.00000 -0.00000
vn -1.00000 0.00000 -0.00000
vn -1.00000 0.00000 -0.00000
vn -1.00000 0.00000 -0.00000
vn 0.00000 0.00000 -1.00000
vn 0.00000 0.00000 -1.00000
vn 0.00000 0.00000 -1.00000
vn 0.00000 0.00000 -1.00000
vn 1.00000 0.00000 -0.00000
vn 1.00000 0.00000 -0.00000
vn 1.00000 0.00000 -0.00000
vn 1.00000 0.00000 -0.00000
vn 0.00000 0.00000 1.00000
vn 0.00000 0.00000 1.00000
vn 0.00000 0.00000 1.00000
vn 0.00000 0.00000 1.00000
vn 0.00000 -1.00000 -0.00000
vn 0.00000 -1.00000 -0.00000
vn 0.00000 -1.00000 -0.00000
vn 0.00000 -1.00000 -0.00000
vn 0.00000 1.00000 -0.00000
vn 0.00000 1.00000 -0.00000
vn 0.00000 1.00000 -0.00000
vn 0.00000 1.00000 -0.00000
vn -0.57735 -0.57735 0.57735
vn -0.57735 0.57735 0.57735
vn -0.57735 0.57735 -0.57735
vn -0.57735 -0.57735 -0.57735
vn -0.57735 -0.57735 -0.57735
vn -0.57735 0.57735 -0.57735
vn 0.57735 0.57735 -0.57735
vn 0.57735 -0.57735 -0.57735
vn 0.57735 -0.57735 -0.57735
vn 0.57735 0.57735 -0.57735
vn 0.57735 0.57735 0.57735
vn 0.57735 -0.57735 0.57735
vn 0.57735 -0.57735 0.57735
vn 0.57735 0.57735 0.57735
vn -0.57735 0.57735 0.57735
vn -0.57735 -0.57735 0.57735
vn -0.57735 -0.57735 -0.57735
vn 0.57735 -0.57735 -0.57735
vn 0.57735 -0.57735 0.57735
vn -0.57735 -0.57735 0.57735
vn 0.57735 0.57735 -0.57735
vn -0.57735 0.57735 -0.57735
vn -0.57735 0.57735 0.57735
vn 0.57735 0.57735 0.57735
vn -0.57735 -0.57735 0.57735
vn -0.57735 0.57735 0.57735
vn -0.57735 0.57735 -0.57735
vn -0.57735 -0.57735 -0.57735
vn -0.57735 -0.57735 -0.57735
vn -0.57735 0.57735 -0.57735
vn 0.57735 0.57735 -0.57735
vn 0.57735 -0.57735 -0.57735
vn 0.57735 -0.57735 -0.57735
vn 0.57735 0.57735 -0.57735
vn 0.57735 0.57735 0.57735
vn 0.57735 -0.57735 0.57735
vn 0.57735 -0.57735 0.57735
vn 0.57735 0.57735 0.57735
vn -0.57735 0.57735 0.57735
vn -0.57735 -0.57735 0.57735
vn -0.57735 -0.57735 -0.57735
vn 0.57735 -0.57735 -0.57735
vn 0.57735 -0.57735 0.57735
vn -0.57735 -0.57735 0.57735
vn 0.57735 0.57735 -0.57735
vn -0.57735 0.57735 -0.57735
vn -0.57735 0.57735 0.57735
vn 0.57735 0.57735 0.57735
f 45/1/1 46/2/2 42/3/3 41/4/4
f 35/5/5 39/6/6 37/7/7 2/8/8
f 3/9/9 4/10/10 6/11/11 5/12/12
f 27/13/13 28/14/14 30/15/15 29/16/16
f 21/17/17 22/18/18 24/19/19 23/20/20
f 5/21/21 6/22/22 8/23/23 7/24/24
f 25/25/25 26/26/26 28/27/27 27/28/28
f 49/29/29 50/30/30 52/31/31 51/32/32
f 7/33/33 8/34/34 10/35/35 9/36/36
f 43/37/37 47/38/38 45/39/39 41/40/40
f 43/41/41 44/42/42 48/43/43 47/44/44
f 9/45/45 10/46/46 12/47/47 11/48/48
f 37/49/49 38/50/50 1/51/51 2/52/52
f 19/53/53 20/54/54 22/55/55 21/56/56
f 11/57/57 12/58/58 14/59/59 13/60/60
f 23/61/61 24/62/62 26/63/63 25/64/64
f 51/65/65 52/66/66 56/67/67 55/68/68
f 13/69/69 14/70/70 16/71/71 15/72/72
f 6/73/73 4/74/74 18/75/75 16/76/76 14/77/77 12/78/78 10/79/79 8/80/80
f 41/81/81 42/82/82 44/83/83 43/84/84
f 15/85/85 16/86/86 18/87/87 17/88/88
f 39/89/89 40/90/90 38/91/91 37/92/92
f 48/93/93 44/94/94 42/95/95 46/96/96
f 17/97/97 18/98/98 4/99/99 3/100/100
f 3/101/101 5/102/102 7/103/103 9/104/104 11/105/105 13/106/106 15/107/107 17/108/108
f 35/109/109 36/110/110 40/111/111 39/112/112
f 47/113/113 48/114/114 46/115/115 45/116/116
f 29/117/117 30/118/118 32/119/119 31/120/120
f 2/121/121 1/122/122 36/123/123 35/124/124
f 23/125/125 25/126/126 27/127/127 29/128/128 31/129/129 33/130/130 19/131/131 21/132/132
f 31/133/133 32/134/134 34/135/135 33/136/136
f 40/137/137 36/138/138 1/139/139 38/140/140
f 55/141/141 56/142/142 54/143/143 53/144/144
f 33/145/145 34/146/146 20/147/147 19/148/148
f 30/149/149 28/150/150 26/151/151 24/152/152 22/153/153 20/154/154 34/155/155 32/156/156
f 53/157/157 54/158/158 50/159/159 49/160/160
f 51/161/161 55/162/162 53/163/163 49/164/164
f 56/165/165 52/166/166 50/167/167 54/168/168
f 57/169/169 58/170/170 60/171/171 59/172/172
f 59/173/173 60/174/174 64/175/175 63/176/176
f 63/177/177 64/178/178 62/179/179 61/180/180
f 61/181/181 62/182/182 58/183/183 57/184/184
f 59/185/185 63/186/186 61/187/187 57/188/188
f 64/189/189 60/190/190 58/191/191 62/192/192
f 65/193/193 66/194/194 68/195/195 67/196/196
f 67/197/197 68/198/198 72/199/199 71/200/200
f 71/201/201 72/202/202 70/203/203 69/204/204
f 69/205/205 70/206/206 66/207/207 65/208/208
f 67/209/209 71/210/210 69/211/211 65/212/212
f 72/213/213 68/214/214 66/215/215 70/216/216
f 73/217/217 74/218/218 76/219/219 75/220/220
f 75/221/221 76/222/222 80/223/223 79/224/224
f 79/225/225 80/226/226 78/227/227 77/228/228
f 77/229/229 78/230/230 74/231/231 73/232/232
f 75/233/233 79/234/234 77/235/235 73/236/236
f 80/237/237 76/238/238 74/239/239 78/240/240
