# Component OBJ: Helmet
o Helmet
v 0.04600 0.00000 -0.02000
v 0.03984 0.00000 -0.04300
v 0.02300 0.00000 -0.05984
v 0.00000 0.00000 -0.06600
v -0.02300 0.00000 -0.05984
v -0.03984 0.00000 -0.04300
v -0.04600 0.00000 -0.02000
v -0.03984 0.00000 0.00300
v -0.02300 0.00000 0.01984
v -0.00000 0.00000 0.02600
v 0.02300 0.00000 0.01984
v 0.03984 0.00000 0.00300
v 0.04800 0.04000 -0.02400
v 0.04157 0.04000 -0.04900
v 0.02400 0.04000 -0.06730
v 0.00000 0.04000 -0.07400
v -0.02400 0.04000 -0.06730
v -0.04157 0.04000 -0.04900
v -0.04800 0.04000 -0.02400
v -0.04157 0.04000 -0.00000
v -0.02400 0.04000 0.01757
v -0.00000 0.04000 0.02400
v 0.02400 0.04000 0.01757
v 0.04157 0.04000 0.00000
v 0.05400 0.07000 -0.03800
v 0.04677 0.07000 -0.07500
v 0.02700 0.07000 -0.10209
v 0.00000 0.07000 -0.11200
v -0.02700 0.07000 -0.10209
v -0.04677 0.07000 -0.07500
v -0.05400 0.07000 -0.03800
v -0.04677 0.07000 -0.01050
v -0.02700 0.07000 0.00963
v -0.00000 0.07000 0.01700
v 0.02700 0.07000 0.00963
v 0.04677 0.07000 -0.01050
v 0.06800 0.11000 -0.04600
v 0.05889 0.11000 -0.08900
v 0.03400 0.11000 -0.12048
v 0.00000 0.11000 -0.13200
v -0.03400 0.11000 -0.12048
v -0.05889 0.11000 -0.08900
v -0.06800 0.11000 -0.04600
v -0.05889 0.11000 -0.01200
v -0.03400 0.11000 0.01289
v -0.00000 0.11000 0.02200
v 0.03400 0.11000 0.01289
v 0.05889 0.11000 -0.01200
v 0.07400 0.15000 -0.04200
v 0.06409 0.15000 -0.08600
v 0.03700 0.15000 -0.11821
v 0.00000 0.15000 -0.13000
v -0.03700 0.15000 -0.11821
v -0.06409 0.15000 -0.08600
v -0.07400 0.15000 -0.04200
v -0.06409 0.15000 -0.00400
v -0.03700 0.15000 0.02382
v -0.00000 0.15000 0.03400
v 0.03700 0.15000 0.02382
v 0.06409 0.15000 -0.00400
v 0.08000 0.19000 -0.02800
v 0.06928 0.19000 -0.06900
v 0.04000 0.19000 -0.09901
v 0.00000 0.19000 -0.11000
v -0.04000 0.19000 -0.09901
v -0.06928 0.19000 -0.06900
v -0.08000 0.19000 -0.02800
v -0.06928 0.19000 0.01300
v -0.04000 0.19000 0.04301
v -0.00000 0.19000 0.05400
v 0.04000 0.19000 0.04301
v 0.06928 0.19000 0.01300
v 0.08200 0.22000 -0.01600
v 0.07101 0.22000 -0.05500
v 0.04100 0.22000 -0.08355
v 0.00000 0.22000 -0.09400
v -0.04100 0.22000 -0.08355
v -0.07101 0.22000 -0.05500
v -0.08200 0.22000 -0.01600
v -0.07101 0.22000 0.02700
v -0.04100 0.22000 0.05848
v -0.00000 0.22000 0.07000
v 0.04100 0.22000 0.05848
v 0.07101 0.22000 0.02700
v 0.07000 0.24500 -0.00600
v 0.06062 0.24500 -0.03850
v 0.03500 0.24500 -0.06229
v 0.00000 0.24500 -0.07100
v -0.03500 0.24500 -0.06229
v -0.06062 0.24500 -0.03850
v -0.07000 0.24500 -0.00600
v -0.06062 0.24500 0.03150
v -0.03500 0.24500 0.05895
v -0.00000 0.24500 0.06900
v 0.03500 0.24500 0.05895
v 0.06062 0.24500 0.03150
v -0.08950 0.11600 -0.00800
v -0.08950 0.15400 -0.00800
v -0.08950 0.11600 -0.03200
v -0.08950 0.15400 -0.03200
v -0.07450 0.11600 -0.00800
v -0.07450 0.15400 -0.00800
v -0.07450 0.11600 -0.03200
v -0.07450 0.15400 -0.03200
v 0.07450 0.11600 -0.00800
v 0.07450 0.15400 -0.00800
v 0.07450 0.11600 -0.03200
v 0.07450 0.15400 -0.03200
v 0.08950 0.11600 -0.00800
v 0.08950 0.15400 -0.00800
v 0.08950 0.11600 -0.03200
v 0.08950 0.15400 -0.03200
v -0.02300 0.16750 -0.11500
v -0.02300 0.21250 -0.11500
v -0.02300 0.16750 -0.15500
v -0.02300 0.21250 -0.15500
v 0.02300 0.16750 -0.11500
v 0.02300 0.21250 -0.11500
v 0.02300 0.16750 -0.15500
v 0.02300 0.21250 -0.15500
v -0.06300 0.16000 -0.11000
v -0.06300 0.20000 -0.11000
v -0.06300 0.16000 -0.14600
v -0.06300 0.20000 -0.14600
v -0.02500 0.16000 -0.11000
v -0.02500 0.20000 -0.11000
v -0.02500 0.16000 -0.14600
v -0.02500 0.20000 -0.14600
v 0.02500 0.16000 -0.11000
v 0.02500 0.20000 -0.11000
v 0.02500 0.16000 -0.14600
v 0.02500 0.20000 -0.14600
v 0.06300 0.16000 -0.11000
v 0.06300 0.20000 -0.11000
v 0.06300 0.16000 -0.14600
v 0.06300 0.20000 -0.14600
v -0.08700 0.14600 -0.08400
v -0.08700 0.18400 -0.08400
v -0.08700 0.14600 -0.11600
v -0.08700 0.18400 -0.11600
v -0.05700 0.14600 -0.08400
v -0.05700 0.18400 -0.08400
v -0.05700 0.14600 -0.11600
v -0.05700 0.18400 -0.11600
v 0.05700 0.14600 -0.08400
v 0.05700 0.18400 -0.08400
v 0.05700 0.14600 -0.11600
v 0.05700 0.18400 -0.11600
v 0.08700 0.14600 -0.08400
v 0.08700 0.18400 -0.08400
v 0.08700 0.14600 -0.11600
v 0.08700 0.18400 -0.11600
v -0.02600 0.24500 0.01400
v -0.02600 0.27100 0.01400
v -0.02600 0.24500 -0.04400
v -0.02600 0.27100 -0.04400
v 0.02600 0.24500 0.01400
v 0.02600 0.27100 0.01400
v 0.02600 0.24500 -0.04400
v 0.02600 0.27100 -0.04400
v -0.06400 0.24000 0.04000
v -0.06400 0.26400 0.04000
v -0.06400 0.24000 -0.01000
v -0.06400 0.26400 -0.01000
v -0.02000 0.24000 0.04000
v -0.02000 0.26400 0.04000
v -0.02000 0.24000 -0.01000
v -0.02000 0.26400 -0.01000
v 0.02000 0.24000 0.04000
v 0.02000 0.26400 0.04000
v 0.02000 0.24000 -0.01000
v 0.02000 0.26400 -0.01000
v 0.06400 0.24000 0.04000
v 0.06400 0.26400 0.04000
v 0.06400 0.24000 -0.01000
v 0.06400 0.26400 -0.01000
v -0.02700 0.22900 0.08000
v -0.02700 0.25500 0.08000
v -0.02700 0.22900 0.03600
v -0.02700 0.25500 0.03600
v 0.02700 0.22900 0.08000
v 0.02700 0.25500 0.08000
v 0.02700 0.22900 0.03600
v 0.02700 0.25500 0.03600
v -0.09500 0.14200 -0.01000
v -0.09500 0.11800 -0.01000
v -0.05500 0.03500 -0.08700
v 0.05500 0.03500 -0.08700
v -0.05500 0.00400 -0.07869
v 0.05500 0.00400 -0.07869
v -0.05500 -0.01869 -0.05600
v 0.05500 -0.01869 -0.05600
v -0.05500 -0.02700 -0.02500
v 0.05500 -0.02700 -0.02500
v -0.05500 -0.01869 0.00600
v 0.05500 -0.01869 0.00600
v -0.05500 0.00400 0.02869
v 0.05500 0.00400 0.02869
v -0.05500 0.03500 0.03700
v 0.05500 0.03500 0.03700
v -0.05500 0.06600 0.02869
v 0.05500 0.06600 0.02869
v -0.05500 0.08869 0.00600
v 0.05500 0.08869 0.00600
v -0.05500 0.09700 -0.02500
v 0.05500 0.09700 -0.02500
v -0.05500 0.08869 -0.05600
v 0.05500 0.08869 -0.05600
v -0.05500 0.06600 -0.07869
v 0.05500 0.06600 -0.07869
v -0.09500 0.11800 -0.03000
v -0.09500 0.14200 -0.03000
v -0.07700 0.11800 -0.01000
v -0.07700 0.14200 -0.01000
v -0.07700 0.11800 -0.03000
v -0.07700 0.14200 -0.03000
v 0.07700 0.11800 -0.01000
v 0.07700 0.14200 -0.01000
v 0.07700 0.11800 -0.03000
v 0.07700 0.14200 -0.03000
v 0.09500 0.11800 -0.01000
v 0.09500 0.14200 -0.01000
v 0.09500 0.11800 -0.03000
v 0.09500 0.14200 -0.03000
v -0.07200 0.15300 -0.10300
v -0.07200 0.17100 -0.10300
v -0.07200 0.15300 -0.12700
v -0.07200 0.17100 -0.12700
v 0.07200 0.15300 -0.10300
v 0.07200 0.17100 -0.10300
v 0.07200 0.15300 -0.12700
v 0.07200 0.17100 -0.12700
v -0.08200 0.15200 -0.03500
v -0.08200 0.16800 -0.03500
v -0.08200 0.15200 -0.11500
v -0.08200 0.16800 -0.11500
v -0.07000 0.15200 -0.03500
v -0.07000 0.16800 -0.03500
v -0.07000 0.15200 -0.11500
v -0.07000 0.16800 -0.11500
v 0.07000 0.15200 -0.03500
v 0.07000 0.16800 -0.03500
v 0.07000 0.15200 -0.11500
v 0.07000 0.16800 -0.11500
v 0.08200 0.15200 -0.03500
v 0.08200 0.16800 -0.03500
v 0.08200 0.15200 -0.11500
v 0.08200 0.16800 -0.11500
vt 0.83871 0.84900
vt 0.83218 0.84900
vt 0.83401 0.86996
vt 0.84082 0.86996
vt 0.83218 0.84900
vt 0.81435 0.84900
vt 0.81541 0.86996
vt 0.83401 0.86996
vt 0.81435 0.84900
vt 0.79000 0.84900
vt 0.79000 0.86996
vt 0.81541 0.86996
vt 0.79000 0.84900
vt 0.76565 0.84900
vt 0.76459 0.86996
vt 0.79000 0.86996
vt 0.76565 0.84900
vt 0.74782 0.84900
vt 0.74599 0.86996
vt 0.76459 0.86996
vt 0.74782 0.84900
vt 0.74129 0.84900
vt 0.73918 0.86996
vt 0.74599 0.86996
vt 0.74129 0.84900
vt 0.74782 0.84900
vt 0.74599 0.86996
vt 0.73918 0.86996
vt 0.74782 0.84900
vt 0.76565 0.84900
vt 0.76459 0.86996
vt 0.74599 0.86996
vt 0.76565 0.84900
vt 0.79000 0.84900
vt 0.79000 0.86996
vt 0.76459 0.86996
vt 0.79000 0.84900
vt 0.81435 0.84900
vt 0.81541 0.86996
vt 0.79000 0.86996
vt 0.81435 0.84900
vt 0.83218 0.84900
vt 0.83401 0.86996
vt 0.81541 0.86996
vt 0.83218 0.84900
vt 0.83871 0.84900
vt 0.84082 0.86996
vt 0.83401 0.86996
vt 0.84082 0.86996
vt 0.83401 0.86996
vt 0.83952 0.88568
vt 0.84718 0.88568
vt 0.83401 0.86996
vt 0.81541 0.86996
vt 0.81859 0.88568
vt 0.83952 0.88568
vt 0.81541 0.86996
vt 0.79000 0.86996
vt 0.79000 0.88568
vt 0.81859 0.88568
vt 0.79000 0.86996
vt 0.76459 0.86996
vt 0.76141 0.88568
vt 0.79000 0.88568
vt 0.76459 0.86996
vt 0.74599 0.86996
vt 0.74048 0.88568
vt 0.76141 0.88568
vt 0.74599 0.86996
vt 0.73918 0.86996
vt 0.73282 0.88568
vt 0.74048 0.88568
vt 0.73918 0.86996
vt 0.74599 0.86996
vt 0.74048 0.88568
vt 0.73282 0.88568
vt 0.74599 0.86996
vt 0.76459 0.86996
vt 0.76141 0.88568
vt 0.74048 0.88568
vt 0.76459 0.86996
vt 0.79000 0.86996
vt 0.79000 0.88568
vt 0.76141 0.88568
vt 0.79000 0.86996
vt 0.81541 0.86996
vt 0.81859 0.88568
vt 0.79000 0.88568
vt 0.81541 0.86996
vt 0.83401 0.86996
vt 0.83952 0.88568
vt 0.81859 0.88568
vt 0.83401 0.86996
vt 0.84082 0.86996
vt 0.84718 0.88568
vt 0.83952 0.88568
vt 0.84718 0.88568
vt 0.83952 0.88568
vt 0.85235 0.90664
vt 0.86200 0.90664
vt 0.83952 0.88568
vt 0.81859 0.88568
vt 0.82600 0.90664
vt 0.85235 0.90664
vt 0.81859 0.88568
vt 0.79000 0.88568
vt 0.79000 0.90664
vt 0.82600 0.90664
vt 0.79000 0.88568
vt 0.76141 0.88568
vt 0.75400 0.90664
vt 0.79000 0.90664
vt 0.76141 0.88568
vt 0.74048 0.88568
vt 0.72765 0.90664
vt 0.75400 0.90664
vt 0.74048 0.88568
vt 0.73282 0.88568
vt 0.71800 0.90664
vt 0.72765 0.90664
vt 0.73282 0.88568
vt 0.74048 0.88568
vt 0.72765 0.90664
vt 0.71800 0.90664
vt 0.74048 0.88568
vt 0.76141 0.88568
vt 0.75400 0.90664
vt 0.72765 0.90664
vt 0.76141 0.88568
vt 0.79000 0.88568
vt 0.79000 0.90664
vt 0.75400 0.90664
vt 0.79000 0.88568
vt 0.81859 0.88568
vt 0.82600 0.90664
vt 0.79000 0.90664
vt 0.81859 0.88568
vt 0.83952 0.88568
vt 0.85235 0.90664
vt 0.82600 0.90664
vt 0.83952 0.88568
vt 0.84718 0.88568
vt 0.86200 0.90664
vt 0.85235 0.90664
vt 0.86200 0.90664
vt 0.85235 0.90664
vt 0.85786 0.92760
vt 0.86835 0.92760
vt 0.85235 0.90664
vt 0.82600 0.90664
vt 0.82918 0.92760
vt 0.85786 0.92760
vt 0.82600 0.90664
vt 0.79000 0.90664
vt 0.79000 0.92760
vt 0.82918 0.92760
vt 0.79000 0.90664
vt 0.75400 0.90664
vt 0.75082 0.92760
vt 0.79000 0.92760
vt 0.75400 0.90664
vt 0.72765 0.90664
vt 0.72214 0.92760
vt 0.75082 0.92760
vt 0.72765 0.90664
vt 0.71800 0.90664
vt 0.71165 0.92760
vt 0.72214 0.92760
vt 0.71800 0.90664
vt 0.72765 0.90664
vt 0.72214 0.92760
vt 0.71165 0.92760
vt 0.72765 0.90664
vt 0.75400 0.90664
vt 0.75082 0.92760
vt 0.72214 0.92760
vt 0.75400 0.90664
vt 0.79000 0.90664
vt 0.79000 0.92760
vt 0.75082 0.92760
vt 0.79000 0.90664
vt 0.82600 0.90664
vt 0.82918 0.92760
vt 0.79000 0.92760
vt 0.82600 0.90664
vt 0.85235 0.90664
vt 0.85786 0.92760
vt 0.82918 0.92760
vt 0.85235 0.90664
vt 0.86200 0.90664
vt 0.86835 0.92760
vt 0.85786 0.92760
vt 0.86835 0.92760
vt 0.85786 0.92760
vt 0.86336 0.94856
vt 0.87471 0.94856
vt 0.85786 0.92760
vt 0.82918 0.92760
vt 0.83235 0.94856
vt 0.86336 0.94856
vt 0.82918 0.92760
vt 0.79000 0.92760
vt 0.79000 0.94856
vt 0.83235 0.94856
vt 0.79000 0.92760
vt 0.75082 0.92760
vt 0.74765 0.94856
vt 0.79000 0.94856
vt 0.75082 0.92760
vt 0.72214 0.92760
vt 0.71664 0.94856
vt 0.74765 0.94856
vt 0.72214 0.92760
vt 0.71165 0.92760
vt 0.70529 0.94856
vt 0.71664 0.94856
vt 0.71165 0.92760
vt 0.72214 0.92760
vt 0.71664 0.94856
vt 0.70529 0.94856
vt 0.72214 0.92760
vt 0.75082 0.92760
vt 0.74765 0.94856
vt 0.71664 0.94856
vt 0.75082 0.92760
vt 0.79000 0.92760
vt 0.79000 0.94856
vt 0.74765 0.94856
vt 0.79000 0.92760
vt 0.82918 0.92760
vt 0.83235 0.94856
vt 0.79000 0.94856
vt 0.82918 0.92760
vt 0.85786 0.92760
vt 0.86336 0.94856
vt 0.83235 0.94856
vt 0.85786 0.92760
vt 0.86835 0.92760
vt 0.87471 0.94856
vt 0.86336 0.94856
vt 0.19471 0.55680
vt 0.18336 0.55680
vt 0.18519 0.57840
vt 0.19682 0.57840
vt 0.18336 0.55680
vt 0.15235 0.55680
vt 0.15341 0.57840
vt 0.18519 0.57840
vt 0.15235 0.55680
vt 0.11000 0.55680
vt 0.11000 0.57840
vt 0.15341 0.57840
vt 0.11000 0.55680
vt 0.06765 0.55680
vt 0.06659 0.57840
vt 0.11000 0.57840
vt 0.06765 0.55680
vt 0.03664 0.55680
vt 0.03481 0.57840
vt 0.06659 0.57840
vt 0.03664 0.55680
vt 0.02529 0.55680
vt 0.02318 0.57840
vt 0.03481 0.57840
vt 0.02529 0.55680
vt 0.03664 0.55680
vt 0.03481 0.57840
vt 0.02318 0.57840
vt 0.03664 0.55680
vt 0.06765 0.55680
vt 0.06659 0.57840
vt 0.03481 0.57840
vt 0.06765 0.55680
vt 0.11000 0.55680
vt 0.11000 0.57840
vt 0.06659 0.57840
vt 0.11000 0.55680
vt 0.15235 0.55680
vt 0.15341 0.57840
vt 0.11000 0.57840
vt 0.15235 0.55680
vt 0.18336 0.55680
vt 0.18519 0.57840
vt 0.15341 0.57840
vt 0.18336 0.55680
vt 0.19471 0.55680
vt 0.19682 0.57840
vt 0.18519 0.57840
vt 0.19682 0.57840
vt 0.18519 0.57840
vt 0.17419 0.59640
vt 0.18412 0.59640
vt 0.18519 0.57840
vt 0.15341 0.57840
vt 0.14706 0.59640
vt 0.17419 0.59640
vt 0.15341 0.57840
vt 0.11000 0.57840
vt 0.11000 0.59640
vt 0.14706 0.59640
vt 0.11000 0.57840
vt 0.06659 0.57840
vt 0.07294 0.59640
vt 0.11000 0.59640
vt 0.06659 0.57840
vt 0.03481 0.57840
vt 0.04581 0.59640
vt 0.07294 0.59640
vt 0.03481 0.57840
vt 0.02318 0.57840
vt 0.03588 0.59640
vt 0.04581 0.59640
vt 0.02318 0.57840
vt 0.03481 0.57840
vt 0.04581 0.59640
vt 0.03588 0.59640
vt 0.03481 0.57840
vt 0.06659 0.57840
vt 0.07294 0.59640
vt 0.04581 0.59640
vt 0.06659 0.57840
vt 0.11000 0.57840
vt 0.11000 0.59640
vt 0.07294 0.59640
vt 0.11000 0.57840
vt 0.15341 0.57840
vt 0.14706 0.59640
vt 0.11000 0.59640
vt 0.15341 0.57840
vt 0.18519 0.57840
vt 0.17419 0.59640
vt 0.14706 0.59640
vt 0.18519 0.57840
vt 0.19682 0.57840
vt 0.18412 0.59640
vt 0.17419 0.59640
vt 0.11000 0.51000
vt 0.11000 0.51000
vt 0.11000 0.51000
vt 0.11000 0.51000
vt 0.11000 0.51000
vt 0.11000 0.51000
vt 0.11000 0.51000
vt 0.11000 0.51000
vt 0.11000 0.51000
vt 0.11000 0.51000
vt 0.11000 0.51000
vt 0.11000 0.51000
vt 0.79000 0.84900
vt 0.79000 0.84900
vt 0.79000 0.84900
vt 0.79000 0.84900
vt 0.79000 0.84900
vt 0.79000 0.84900
vt 0.79000 0.84900
vt 0.79000 0.84900
vt 0.79000 0.84900
vt 0.79000 0.84900
vt 0.79000 0.84900
vt 0.79000 0.84900
vt 0.70000 0.84900
vt 0.70000 0.98000
vt 0.88000 0.98000
vt 0.88000 0.84900
vt 0.70000 0.84900
vt 0.70000 0.98000
vt 0.88000 0.98000
vt 0.88000 0.84900
vt 0.88000 0.84900
vt 0.88000 0.98000
vt 0.70000 0.98000
vt 0.70000 0.84900
vt 0.88000 0.84900
vt 0.88000 0.98000
vt 0.70000 0.98000
vt 0.70000 0.84900
vt 0.70000 0.98000
vt 0.88000 0.98000
vt 0.88000 0.84900
vt 0.70000 0.84900
vt 0.88000 0.98000
vt 0.70000 0.98000
vt 0.70000 0.84900
vt 0.88000 0.84900
vt 0.70000 0.84900
vt 0.70000 0.98000
vt 0.88000 0.98000
vt 0.88000 0.84900
vt 0.70000 0.84900
vt 0.70000 0.98000
vt 0.88000 0.98000
vt 0.88000 0.84900
vt 0.88000 0.84900
vt 0.88000 0.98000
vt 0.70000 0.98000
vt 0.70000 0.84900
vt 0.88000 0.84900
vt 0.88000 0.98000
vt 0.70000 0.98000
vt 0.70000 0.84900
vt 0.70000 0.98000
vt 0.88000 0.98000
vt 0.88000 0.84900
vt 0.70000 0.84900
vt 0.88000 0.98000
vt 0.70000 0.98000
vt 0.70000 0.84900
vt 0.88000 0.84900
vt 0.02000 0.42000
vt 0.02000 0.60000
vt 0.20000 0.60000
vt 0.20000 0.42000
vt 0.02000 0.42000
vt 0.02000 0.60000
vt 0.20000 0.60000
vt 0.20000 0.42000
vt 0.20000 0.42000
vt 0.20000 0.60000
vt 0.02000 0.60000
vt 0.02000 0.42000
vt 0.20000 0.42000
vt 0.20000 0.60000
vt 0.02000 0.60000
vt 0.02000 0.42000
vt 0.02000 0.60000
vt 0.20000 0.60000
vt 0.20000 0.42000
vt 0.02000 0.42000
vt 0.20000 0.60000
vt 0.02000 0.60000
vt 0.02000 0.42000
vt 0.20000 0.42000
vt 0.02000 0.42000
vt 0.02000 0.60000
vt 0.20000 0.60000
vt 0.20000 0.42000
vt 0.02000 0.42000
vt 0.02000 0.60000
vt 0.20000 0.60000
vt 0.20000 0.42000
vt 0.20000 0.42000
vt 0.20000 0.60000
vt 0.02000 0.60000
vt 0.02000 0.42000
vt 0.20000 0.42000
vt 0.20000 0.60000
vt 0.02000 0.60000
vt 0.02000 0.42000
vt 0.02000 0.60000
vt 0.20000 0.60000
vt 0.20000 0.42000
vt 0.02000 0.42000
vt 0.20000 0.60000
vt 0.02000 0.60000
vt 0.02000 0.42000
vt 0.20000 0.42000
vt 0.02000 0.42000
vt 0.02000 0.60000
vt 0.20000 0.60000
vt 0.20000 0.42000
vt 0.02000 0.42000
vt 0.02000 0.60000
vt 0.20000 0.60000
vt 0.20000 0.42000
vt 0.20000 0.42000
vt 0.20000 0.60000
vt 0.02000 0.60000
vt 0.02000 0.42000
vt 0.20000 0.42000
vt 0.20000 0.60000
vt 0.02000 0.60000
vt 0.02000 0.42000
vt 0.02000 0.60000
vt 0.20000 0.60000
vt 0.20000 0.42000
vt 0.02000 0.42000
vt 0.20000 0.60000
vt 0.02000 0.60000
vt 0.02000 0.42000
vt 0.20000 0.42000
vt 0.02000 0.42000
vt 0.02000 0.60000
vt 0.20000 0.60000
vt 0.20000 0.42000
vt 0.02000 0.42000
vt 0.02000 0.60000
vt 0.20000 0.60000
vt 0.20000 0.42000
vt 0.20000 0.42000
vt 0.20000 0.60000
vt 0.02000 0.60000
vt 0.02000 0.42000
vt 0.20000 0.42000
vt 0.20000 0.60000
vt 0.02000 0.60000
vt 0.02000 0.42000
vt 0.02000 0.60000
vt 0.20000 0.60000
vt 0.20000 0.42000
vt 0.02000 0.42000
vt 0.20000 0.60000
vt 0.02000 0.60000
vt 0.02000 0.42000
vt 0.20000 0.42000
vt 0.02000 0.42000
vt 0.02000 0.60000
vt 0.20000 0.60000
vt 0.20000 0.42000
vt 0.02000 0.42000
vt 0.02000 0.60000
vt 0.20000 0.60000
vt 0.20000 0.42000
vt 0.20000 0.42000
vt 0.20000 0.60000
vt 0.02000 0.60000
vt 0.02000 0.42000
vt 0.20000 0.42000
vt 0.20000 0.60000
vt 0.02000 0.60000
vt 0.02000 0.42000
vt 0.02000 0.60000
vt 0.20000 0.60000
vt 0.20000 0.42000
vt 0.02000 0.42000
vt 0.20000 0.60000
vt 0.02000 0.60000
vt 0.02000 0.42000
vt 0.20000 0.42000
vt 0.02000 0.42000
vt 0.02000 0.60000
vt 0.20000 0.60000
vt 0.20000 0.42000
vt 0.02000 0.42000
vt 0.02000 0.60000
vt 0.20000 0.60000
vt 0.20000 0.42000
vt 0.20000 0.42000
vt 0.20000 0.60000
vt 0.02000 0.60000
vt 0.02000 0.42000
vt 0.20000 0.42000
vt 0.20000 0.60000
vt 0.02000 0.60000
vt 0.02000 0.42000
vt 0.02000 0.60000
vt 0.20000 0.60000
vt 0.20000 0.42000
vt 0.02000 0.42000
vt 0.20000 0.60000
vt 0.02000 0.60000
vt 0.02000 0.42000
vt 0.20000 0.42000
vt 0.02000 0.42000
vt 0.02000 0.60000
vt 0.20000 0.60000
vt 0.20000 0.42000
vt 0.02000 0.42000
vt 0.02000 0.60000
vt 0.20000 0.60000
vt 0.20000 0.42000
vt 0.20000 0.42000
vt 0.20000 0.60000
vt 0.02000 0.60000
vt 0.02000 0.42000
vt 0.20000 0.42000
vt 0.20000 0.60000
vt 0.02000 0.60000
vt 0.02000 0.42000
vt 0.02000 0.60000
vt 0.20000 0.60000
vt 0.20000 0.42000
vt 0.02000 0.42000
vt 0.20000 0.60000
vt 0.02000 0.60000
vt 0.02000 0.42000
vt 0.20000 0.42000
vt 0.02000 0.42000
vt 0.02000 0.60000
vt 0.20000 0.60000
vt 0.20000 0.42000
vt 0.02000 0.42000
vt 0.02000 0.60000
vt 0.20000 0.60000
vt 0.20000 0.42000
vt 0.20000 0.42000
vt 0.20000 0.60000
vt 0.02000 0.60000
vt 0.02000 0.42000
vt 0.20000 0.42000
vt 0.20000 0.60000
vt 0.02000 0.60000
vt 0.02000 0.42000
vt 0.02000 0.60000
vt 0.20000 0.60000
vt 0.20000 0.42000
vt 0.02000 0.42000
vt 0.20000 0.60000
vt 0.02000 0.60000
vt 0.02000 0.42000
vt 0.20000 0.42000
vt 0.02000 0.42000
vt 0.02000 0.60000
vt 0.20000 0.60000
vt 0.20000 0.42000
vt 0.02000 0.42000
vt 0.02000 0.60000
vt 0.20000 0.60000
vt 0.20000 0.42000
vt 0.20000 0.42000
vt 0.20000 0.60000
vt 0.02000 0.60000
vt 0.02000 0.42000
vt 0.20000 0.42000
vt 0.20000 0.60000
vt 0.02000 0.60000
vt 0.02000 0.42000
vt 0.02000 0.60000
vt 0.20000 0.60000
vt 0.20000 0.42000
vt 0.02000 0.42000
vt 0.20000 0.60000
vt 0.02000 0.60000
vt 0.02000 0.42000
vt 0.20000 0.42000
vt 0.20000 0.42000
vt 0.20000 0.60000
vt 0.02000 0.60000
vt 0.02000 0.42000
vt 0.22000 0.60000
vt 0.38000 0.60000
vt 0.38000 0.42000
vt 0.22000 0.42000
vt 0.17579 0.51000
vt 0.13421 0.51000
vt 0.13216 0.45927
vt 0.17784 0.45927
vt 0.02000 0.60000
vt 0.20000 0.60000
vt 0.20000 0.42000
vt 0.02000 0.42000
vt 0.38000 0.42000
vt 0.38000 0.60000
vt 0.22000 0.60000
vt 0.22000 0.42000
vt 0.17784 0.45927
vt 0.13216 0.45927
vt 0.12470 0.42214
vt 0.18530 0.42214
vt 0.02000 0.42000
vt 0.02000 0.60000
vt 0.20000 0.60000
vt 0.20000 0.42000
vt 0.38000 0.42000
vt 0.38000 0.60000
vt 0.22000 0.60000
vt 0.22000 0.42000
vt 0.18530 0.42214
vt 0.12470 0.42214
vt 0.11000 0.40855
vt 0.20000 0.40855
vt 0.02000 0.42000
vt 0.02000 0.60000
vt 0.20000 0.60000
vt 0.20000 0.42000
vt 0.22000 0.42000
vt 0.22000 0.60000
vt 0.38000 0.60000
vt 0.38000 0.42000
vt 0.20000 0.40855
vt 0.11000 0.40855
vt 0.09530 0.42214
vt 0.03470 0.42214
vt 0.20000 0.60000
vt 0.02000 0.60000
vt 0.02000 0.42000
vt 0.20000 0.42000
vt 0.22000 0.42000
vt 0.22000 0.60000
vt 0.38000 0.60000
vt 0.38000 0.42000
vt 0.03470 0.42214
vt 0.09530 0.42214
vt 0.08784 0.45927
vt 0.04216 0.45927
vt 0.02000 0.60000
vt 0.20000 0.60000
vt 0.20000 0.42000
vt 0.02000 0.42000
vt 0.38000 0.60000
vt 0.22000 0.60000
vt 0.22000 0.42000
vt 0.38000 0.42000
vt 0.04216 0.45927
vt 0.08784 0.45927
vt 0.08579 0.51000
vt 0.04421 0.51000
vt 0.20000 0.42000
vt 0.20000 0.60000
vt 0.02000 0.60000
vt 0.02000 0.42000
vt 0.22000 0.60000
vt 0.38000 0.60000
vt 0.38000 0.42000
vt 0.22000 0.42000
vt 0.04421 0.51000
vt 0.08579 0.51000
vt 0.08784 0.56073
vt 0.04216 0.56073
vt 0.20000 0.42000
vt 0.20000 0.60000
vt 0.02000 0.60000
vt 0.02000 0.42000
vt 0.38000 0.42000
vt 0.38000 0.60000
vt 0.22000 0.60000
vt 0.22000 0.42000
vt 0.04216 0.56073
vt 0.08784 0.56073
vt 0.09530 0.59786
vt 0.03470 0.59786
vt 0.02000 0.42000
vt 0.02000 0.60000
vt 0.20000 0.60000
vt 0.20000 0.42000
vt 0.38000 0.42000
vt 0.38000 0.60000
vt 0.22000 0.60000
vt 0.22000 0.42000
vt 0.03470 0.59786
vt 0.09530 0.59786
vt 0.11000 0.61145
vt 0.20000 0.61145
vt 0.02000 0.42000
vt 0.02000 0.60000
vt 0.20000 0.60000
vt 0.20000 0.42000
vt 0.22000 0.42000
vt 0.22000 0.60000
vt 0.38000 0.60000
vt 0.38000 0.42000
vt 0.20000 0.61145
vt 0.11000 0.61145
vt 0.12470 0.59786
vt 0.18530 0.59786
vt 0.13216 0.45927
vt 0.13421 0.51000
vt 0.13216 0.56073
vt 0.12470 0.59786
vt 0.11000 0.61145
vt 0.09530 0.59786
vt 0.08784 0.56073
vt 0.08579 0.51000
vt 0.08784 0.45927
vt 0.09530 0.42214
vt 0.11000 0.40855
vt 0.12470 0.42214
vt 0.22000 0.42000
vt 0.22000 0.60000
vt 0.38000 0.60000
vt 0.38000 0.42000
vt 0.18530 0.59786
vt 0.12470 0.59786
vt 0.13216 0.56073
vt 0.17784 0.56073
vt 0.20000 0.42000
vt 0.20000 0.60000
vt 0.02000 0.60000
vt 0.02000 0.42000
vt 0.38000 0.60000
vt 0.22000 0.60000
vt 0.22000 0.42000
vt 0.38000 0.42000
vt 0.17784 0.56073
vt 0.13216 0.56073
vt 0.13421 0.51000
vt 0.17579 0.51000
vt 0.17579 0.51000
vt 0.17784 0.45927
vt 0.18530 0.42214
vt 0.20000 0.40855
vt 0.03470 0.42214
vt 0.04216 0.45927
vt 0.04421 0.51000
vt 0.04216 0.56073
vt 0.03470 0.59786
vt 0.20000 0.61145
vt 0.18530 0.59786
vt 0.17784 0.56073
vt 0.20000 0.60000
vt 0.02000 0.60000
vt 0.02000 0.42000
vt 0.20000 0.42000
vt 0.02000 0.42000
vt 0.02000 0.60000
vt 0.20000 0.60000
vt 0.20000 0.42000
vt 0.02000 0.42000
vt 0.02000 0.60000
vt 0.20000 0.60000
vt 0.20000 0.42000
vt 0.20000 0.42000
vt 0.20000 0.60000
vt 0.02000 0.60000
vt 0.02000 0.42000
vt 0.20000 0.42000
vt 0.20000 0.60000
vt 0.02000 0.60000
vt 0.02000 0.42000
vt 0.02000 0.60000
vt 0.20000 0.60000
vt 0.20000 0.42000
vt 0.02000 0.42000
vt 0.20000 0.60000
vt 0.02000 0.60000
vt 0.02000 0.42000
vt 0.20000 0.42000
vn 0.74099 -0.67136 0.01412
vn 0.63305 -0.69352 -0.34391
vn 0.86521 -0.28144 -0.41497
vn 0.99299 -0.11190 0.03812
vn 0.63305 -0.69352 -0.34391
vn 0.36197 -0.71472 -0.59846
vn 0.49595 -0.46624 -0.73257
vn 0.86521 -0.28144 -0.41497
vn 0.36197 -0.71472 -0.59846
vn 0.00000 -0.72368 -0.69014
vn 0.00000 -0.54186 -0.84047
vn 0.49595 -0.46624 -0.73257
vn 0.00000 -0.72368 -0.69014
vn -0.36197 -0.71472 -0.59846
vn -0.49595 -0.46624 -0.73257
vn 0.00000 -0.54186 -0.84047
vn -0.36197 -0.71472 -0.59846
vn -0.63305 -0.69352 -0.34391
vn -0.86521 -0.28144 -0.41497
vn -0.49595 -0.46624 -0.73257
vn -0.63305 -0.69352 -0.34391
vn -0.74099 -0.67136 0.01412
vn -0.99299 -0.11190 0.03812
vn -0.86521 -0.28144 -0.41497
vn -0.74099 -0.67136 0.01412
vn -0.65063 -0.65275 0.38808
vn -0.85504 0.02197 0.51809
vn -0.99299 -0.11190 0.03812
vn -0.65063 -0.65275 0.38808
vn -0.37901 -0.63937 0.66899
vn -0.48804 0.10867 0.86603
vn -0.85504 0.02197 0.51809
vn -0.37901 -0.63937 0.66899
vn 0.00000 -0.63449 0.77293
vn 0.00000 0.13809 0.99042
vn -0.48804 0.10867 0.86603
vn 0.00000 -0.63449 0.77293
vn 0.37901 -0.63937 0.66899
vn 0.48804 0.10867 0.86603
vn 0.00000 0.13809 0.99042
vn 0.37901 -0.63937 0.66899
vn 0.65063 -0.65275 0.38808
vn 0.85504 0.02197 0.51809
vn 0.48804 0.10867 0.86603
vn 0.65063 -0.65275 0.38808
vn 0.74099 -0.67136 0.01412
vn 0.99299 -0.11190 0.03812
vn 0.85504 0.02197 0.51809
vn 0.99299 -0.11190 0.03812
vn 0.86521 -0.28144 -0.41497
vn 0.80133 -0.45087 -0.39317
vn 0.96102 -0.27628 0.01048
vn 0.86521 -0.28144 -0.41497
vn 0.49595 -0.46624 -0.73257
vn 0.47005 -0.57056 -0.67344
vn 0.80133 -0.45087 -0.39317
vn 0.49595 -0.46624 -0.73257
vn 0.00000 -0.54186 -0.84047
vn 0.00000 -0.60742 -0.79438
vn 0.47005 -0.57056 -0.67344
vn 0.00000 -0.54186 -0.84047
vn -0.49595 -0.46624 -0.73257
vn -0.47005 -0.57056 -0.67344
vn 0.00000 -0.60742 -0.79438
vn -0.49595 -0.46624 -0.73257
vn -0.86521 -0.28144 -0.41497
vn -0.80133 -0.45087 -0.39317
vn -0.47005 -0.57056 -0.67344
vn -0.86521 -0.28144 -0.41497
vn -0.99299 -0.11190 0.03812
vn -0.96102 -0.27628 0.01048
vn -0.80133 -0.45087 -0.39317
vn -0.99299 -0.11190 0.03812
vn -0.85504 0.02197 0.51809
vn -0.86884 -0.11888 0.48061
vn -0.96102 -0.27628 0.01048
vn -0.85504 0.02197 0.51809
vn -0.48804 0.10867 0.86603
vn -0.51068 0.00732 0.85974
vn -0.86884 -0.11888 0.48061
vn -0.48804 0.10867 0.86603
vn 0.00000 0.13809 0.99042
vn 0.00000 0.05411 0.99853
vn -0.51068 0.00732 0.85974
vn 0.00000 0.13809 0.99042
vn 0.48804 0.10867 0.86603
vn 0.51068 0.00732 0.85974
vn 0.00000 0.05411 0.99853
vn 0.48804 0.10867 0.86603
vn 0.85504 0.02197 0.51809
vn 0.86884 -0.11888 0.48061
vn 0.51068 0.00732 0.85974
vn 0.85504 0.02197 0.51809
vn 0.99299 -0.11190 0.03812
vn 0.96102 -0.27628 0.01048
vn 0.86884 -0.11888 0.48061
vn 0.96102 -0.27628 0.01048
vn 0.80133 -0.45087 -0.39317
vn 0.87220 -0.22944 -0.43200
vn 0.97223 -0.23398 0.00452
vn 0.80133 -0.45087 -0.39317
vn 0.47005 -0.57056 -0.67344
vn 0.54865 -0.21230 -0.80865
vn 0.87220 -0.22944 -0.43200
vn 0.47005 -0.57056 -0.67344
vn 0.00000 -0.60742 -0.79438
vn 0.00000 -0.20344 -0.97909
vn 0.54865 -0.21230 -0.80865
vn 0.00000 -0.60742 -0.79438
vn -0.47005 -0.57056 -0.67344
vn -0.54865 -0.21230 -0.80865
vn 0.00000 -0.20344 -0.97909
vn -0.47005 -0.57056 -0.67344
vn -0.80133 -0.45087 -0.39317
vn -0.87220 -0.22944 -0.43200
vn -0.54865 -0.21230 -0.80865
vn -0.80133 -0.45087 -0.39317
vn -0.96102 -0.27628 0.01048
vn -0.97223 -0.23398 0.00452
vn -0.87220 -0.22944 -0.43200
vn -0.96102 -0.27628 0.01048
vn -0.86884 -0.11888 0.48061
vn -0.85695 -0.22332 0.46451
vn -0.97223 -0.23398 0.00452
vn -0.86884 -0.11888 0.48061
vn -0.51068 0.00732 0.85974
vn -0.50460 -0.21251 0.83679
vn -0.85695 -0.22332 0.46451
vn -0.51068 0.00732 0.85974
vn 0.00000 0.05411 0.99853
vn -0.00000 -0.20860 0.97800
vn -0.50460 -0.21251 0.83679
vn 0.00000 0.05411 0.99853
vn 0.51068 0.00732 0.85974
vn 0.50460 -0.21251 0.83679
vn -0.00000 -0.20860 0.97800
vn 0.51068 0.00732 0.85974
vn 0.86884 -0.11888 0.48061
vn 0.85695 -0.22332 0.46451
vn 0.50460 -0.21251 0.83679
vn 0.86884 -0.11888 0.48061
vn 0.96102 -0.27628 0.01048
vn 0.97223 -0.23398 0.00452
vn 0.85695 -0.22332 0.46451
vn 0.97223 -0.23398 0.00452
vn 0.87220 -0.22944 -0.43200
vn 0.88190 0.02224 -0.47092
vn 0.99075 -0.13558 -0.00558
vn 0.87220 -0.22944 -0.43200
vn 0.54865 -0.21230 -0.80865
vn 0.53174 0.17300 -0.82905
vn 0.88190 0.02224 -0.47092
vn 0.54865 -0.21230 -0.80865
vn 0.00000 -0.20344 -0.97909
vn 0.00000 0.23306 -0.97246
vn 0.53174 0.17300 -0.82905
vn 0.00000 -0.20344 -0.97909
vn -0.54865 -0.21230 -0.80865
vn -0.53174 0.17300 -0.82905
vn 0.00000 0.23306 -0.97246
vn -0.54865 -0.21230 -0.80865
vn -0.87220 -0.22944 -0.43200
vn -0.88190 0.02224 -0.47092
vn -0.53174 0.17300 -0.82905
vn -0.87220 -0.22944 -0.43200
vn -0.97223 -0.23398 0.00452
vn -0.99075 -0.13558 -0.00558
vn -0.88190 0.02224 -0.47092
vn -0.97223 -0.23398 0.00452
vn -0.85695 -0.22332 0.46451
vn -0.84949 -0.25396 0.46246
vn -0.99075 -0.13558 -0.00558
vn -0.85695 -0.22332 0.46451
vn -0.50460 -0.21251 0.83679
vn -0.48444 -0.34056 0.80581
vn -0.84949 -0.25396 0.46246
vn -0.50460 -0.21251 0.83679
vn -0.00000 -0.20860 0.97800
vn -0.00000 -0.37252 0.92802
vn -0.48444 -0.34056 0.80581
vn -0.00000 -0.20860 0.97800
vn 0.50460 -0.21251 0.83679
vn 0.48444 -0.34056 0.80581
vn -0.00000 -0.37252 0.92802
vn 0.50460 -0.21251 0.83679
vn 0.85695 -0.22332 0.46451
vn 0.84949 -0.25396 0.46246
vn 0.48444 -0.34056 0.80581
vn 0.85695 -0.22332 0.46451
vn 0.97223 -0.23398 0.00452
vn 0.99075 -0.13558 -0.00558
vn 0.84949 -0.25396 0.46246
vn 0.99075 -0.13558 -0.00558
vn 0.88190 0.02224 -0.47092
vn 0.86761 0.13721 -0.47794
vn 0.99539 -0.09570 -0.00644
vn 0.88190 0.02224 -0.47092
vn 0.53174 0.17300 -0.82905
vn 0.49162 0.35675 -0.79438
vn 0.86761 0.13721 -0.47794
vn 0.53174 0.17300 -0.82905
vn 0.00000 0.23306 -0.97246
vn 0.00000 0.44559 -0.89524
vn 0.49162 0.35675 -0.79438
vn 0.00000 0.23306 -0.97246
vn -0.53174 0.17300 -0.82905
vn -0.49162 0.35675 -0.79438
vn 0.00000 0.44559 -0.89524
vn -0.53174 0.17300 -0.82905
vn -0.88190 0.02224 -0.47092
vn -0.86761 0.13721 -0.47794
vn -0.49162 0.35675 -0.79438
vn -0.88190 0.02224 -0.47092
vn -0.99075 -0.13558 -0.00558
vn -0.99539 -0.09570 -0.00644
vn -0.86761 0.13721 -0.47794
vn -0.99075 -0.13558 -0.00558
vn -0.84949 -0.25396 0.46246
vn -0.84202 -0.28143 0.46023
vn -0.99539 -0.09570 -0.00644
vn -0.84949 -0.25396 0.46246
vn -0.48444 -0.34056 0.80581
vn -0.47264 -0.41147 0.77930
vn -0.84202 -0.28143 0.46023
vn -0.48444 -0.34056 0.80581
vn -0.00000 -0.37252 0.92802
vn -0.00000 -0.45833 0.88878
vn -0.47264 -0.41147 0.77930
vn -0.00000 -0.37252 0.92802
vn 0.48444 -0.34056 0.80581
vn 0.47264 -0.41147 0.77930
vn -0.00000 -0.45833 0.88878
vn 0.48444 -0.34056 0.80581
vn 0.84949 -0.25396 0.46246
vn 0.84202 -0.28143 0.46023
vn 0.47264 -0.41147 0.77930
vn 0.84949 -0.25396 0.46246
vn 0.99075 -0.13558 -0.00558
vn 0.99539 -0.09570 -0.00644
vn 0.84202 -0.28143 0.46023
vn 0.99539 -0.09570 -0.00644
vn 0.86761 0.13721 -0.47794
vn 0.81094 0.36576 -0.45672
vn 0.98319 0.18261 -0.00023
vn 0.86761 0.13721 -0.47794
vn 0.49162 0.35675 -0.79438
vn 0.43526 0.51107 -0.74119
vn 0.81094 0.36576 -0.45672
vn 0.49162 0.35675 -0.79438
vn 0.00000 0.44559 -0.89524
vn 0.00000 0.56375 -0.82595
vn 0.43526 0.51107 -0.74119
vn 0.00000 0.44559 -0.89524
vn -0.49162 0.35675 -0.79438
vn -0.43526 0.51107 -0.74119
vn 0.00000 0.56375 -0.82595
vn -0.49162 0.35675 -0.79438
vn -0.86761 0.13721 -0.47794
vn -0.81094 0.36576 -0.45672
vn -0.43526 0.51107 -0.74119
vn -0.86761 0.13721 -0.47794
vn -0.99539 -0.09570 -0.00644
vn -0.98319 0.18261 -0.00023
vn -0.81094 0.36576 -0.45672
vn -0.99539 -0.09570 -0.00644
vn -0.84202 -0.28143 0.46023
vn -0.87389 -0.00315 0.48612
vn -0.98319 0.18261 -0.00023
vn -0.84202 -0.28143 0.46023
vn -0.47264 -0.41147 0.77930
vn -0.51269 -0.15157 0.84509
vn -0.87389 -0.00315 0.48612
vn -0.47264 -0.41147 0.77930
vn -0.00000 -0.45833 0.88878
vn 0.00000 -0.21014 0.97767
vn -0.51269 -0.15157 0.84509
vn -0.00000 -0.45833 0.88878
vn 0.47264 -0.41147 0.77930
vn 0.51269 -0.15157 0.84509
vn 0.00000 -0.21014 0.97767
vn 0.47264 -0.41147 0.77930
vn 0.84202 -0.28143 0.46023
vn 0.87389 -0.00315 0.48612
vn 0.51269 -0.15157 0.84509
vn 0.84202 -0.28143 0.46023
vn 0.99539 -0.09570 -0.00644
vn 0.98319 0.18261 -0.00023
vn 0.87389 -0.00315 0.48612
vn 0.98319 0.18261 -0.00023
vn 0.81094 0.36576 -0.45672
vn 0.46417 0.85016 -0.24855
vn 0.59718 0.80160 0.02863
vn 0.81094 0.36576 -0.45672
vn 0.43526 0.51107 -0.74119
vn 0.23814 0.88186 -0.40696
vn 0.46417 0.85016 -0.24855
vn 0.43526 0.51107 -0.74119
vn 0.00000 0.56375 -0.82595
vn 0.00000 0.89170 -0.45263
vn 0.23814 0.88186 -0.40696
vn 0.00000 0.56375 -0.82595
vn -0.43526 0.51107 -0.74119
vn -0.23814 0.88186 -0.40696
vn 0.00000 0.89170 -0.45263
vn -0.43526 0.51107 -0.74119
vn -0.81094 0.36576 -0.45672
vn -0.46417 0.85016 -0.24855
vn -0.23814 0.88186 -0.40696
vn -0.81094 0.36576 -0.45672
vn -0.98319 0.18261 -0.00023
vn -0.59718 0.80160 0.02863
vn -0.46417 0.85016 -0.24855
vn -0.98319 0.18261 -0.00023
vn -0.87389 -0.00315 0.48612
vn -0.56710 0.74333 0.35477
vn -0.59718 0.80160 0.02863
vn -0.87389 -0.00315 0.48612
vn -0.51269 -0.15157 0.84509
vn -0.35309 0.68877 0.63319
vn -0.56710 0.74333 0.35477
vn -0.51269 -0.15157 0.84509
vn 0.00000 -0.21014 0.97767
vn 0.00000 0.66645 0.74555
vn -0.35309 0.68877 0.63319
vn 0.00000 -0.21014 0.97767
vn 0.51269 -0.15157 0.84509
vn 0.35309 0.68877 0.63319
vn 0.00000 0.66645 0.74555
vn 0.51269 -0.15157 0.84509
vn 0.87389 -0.00315 0.48612
vn 0.56710 0.74333 0.35477
vn 0.35309 0.68877 0.63319
vn 0.87389 -0.00315 0.48612
vn 0.98319 0.18261 -0.00023
vn 0.59718 0.80160 0.02863
vn 0.56710 0.74333 0.35477
vn 0.59718 0.80160 0.02863
vn 0.46417 0.85016 -0.24855
vn 0.23814 0.88186 -0.40696
vn 0.00000 0.89170 -0.45263
vn -0.23814 0.88186 -0.40696
vn -0.46417 0.85016 -0.24855
vn -0.59718 0.80160 0.02863
vn -0.56710 0.74333 0.35477
vn -0.35309 0.68877 0.63319
vn 0.00000 0.66645 0.74555
vn 0.35309 0.68877 0.63319
vn 0.56710 0.74333 0.35477
vn 0.65063 -0.65275 0.38808
vn 0.37901 -0.63937 0.66899
vn 0.00000 -0.63449 0.77293
vn -0.37901 -0.63937 0.66899
vn -0.65063 -0.65275 0.38808
vn -0.74099 -0.67136 0.01412
vn -0.63305 -0.69352 -0.34391
vn -0.36197 -0.71472 -0.59846
vn 0.00000 -0.72368 -0.69014
vn 0.36197 -0.71472 -0.59846
vn 0.63305 -0.69352 -0.34391
vn 0.74099 -0.67136 0.01412
vn -0.57735 -0.57735 0.57735
vn -0.57735 0.57735 0.57735
vn -0.57735 0.57735 -0.57735
vn -0.57735 -0.57735 -0.57735
vn -0.57735 -0.57735 -0.57735
vn -0.57735 0.57735 -0.57735
vn 0.57735 0.57735 -0.57735
vn 0.57735 -0.57735 -0.57735
vn 0.57735 -0.57735 -0.57735
vn 0.57735 0.57735 -0.57735
vn 0.57735 0.57735 0.57735
vn 0.57735 -0.57735 0.57735
vn 0.57735 -0.57735 0.57735
vn 0.57735 0.57735 0.57735
vn -0.57735 0.57735 0.57735
vn -0.57735 -0.57735 0.57735
vn -0.57735 -0.57735 -0.57735
vn 0.57735 -0.57735 -0.57735
vn 0.57735 -0.57735 0.57735
vn -0.57735 -0.57735 0.57735
vn 0.57735 0.57735 -0.57735
vn -0.57735 0.57735 -0.57735
vn -0.57735 0.57735 0.57735
vn 0.57735 0.57735 0.57735
vn -0.57735 -0.57735 0.57735
vn -0.57735 0.57735 0.57735
vn -0.57735 0.57735 -0.57735
vn -0.57735 -0.57735 -0.57735
vn -0.57735 -0.57735 -0.57735
vn -0.57735 0.57735 -0.57735
vn 0.57735 0.57735 -0.57735
vn 0.57735 -0.57735 -0.57735
vn 0.57735 -0.57735 -0.57735
vn 0.57735 0.57735 -0.57735
vn 0.57735 0.57735 0.57735
vn 0.57735 -0.57735 0.57735
vn 0.57735 -0.57735 0.57735
vn 0.57735 0.57735 0.57735
vn -0.57735 0.57735 0.57735
vn -0.57735 -0.57735 0.57735
vn -0.57735 -0.57735 -0.57735
vn 0.57735 -0.57735 -0.57735
vn 0.57735 -0.57735 0.57735
vn -0.57735 -0.57735 0.57735
vn 0.57735 0.57735 -0.57735
vn -0.57735 0.57735 -0.57735
vn -0.57735 0.57735 0.57735
vn 0.57735 0.57735 0.57735
vn -0.57735 -0.57735 0.57735
vn -0.57735 0.57735 0.57735
vn -0.57735 0.57735 -0.57735
vn -0.57735 -0.57735 -0.57735
vn -0.57735 -0.57735 -0.57735
vn -0.57735 0.57735 -0.57735
vn 0.57735 0.57735 -0.57735
vn 0.57735 -0.57735 -0.57735
vn 0.57735 -0.57735 -0.57735
vn 0.57735 0.57735 -0.57735
vn 0.57735 0.57735 0.57735
vn 0.57735 -0.57735 0.57735
vn 0.57735 -0.57735 0.57735
vn 0.57735 0.57735 0.57735
vn -0.57735 0.57735 0.57735
vn -0.57735 -0.57735 0.57735
vn -0.57735 -0.57735 -0.57735
vn 0.57735 -0.57735 -0.57735
vn 0.57735 -0.57735 0.57735
vn -0.57735 -0.57735 0.57735
vn 0.57735 0.57735 -0.57735
vn -0.57735 0.57735 -0.57735
vn -0.57735 0.57735 0.57735
vn 0.57735 0.57735 0.57735
vn -0.57735 -0.57735 0.57735
vn -0.57735 0.57735 0.57735
vn -0.57735 0.57735 -0.57735
vn -0.57735 -0.57735 -0.57735
vn -0.57735 -0.57735 -0.57735
vn -0.57735 0.57735 -0.57735
vn 0.57735 0.57735 -0.57735
vn 0.57735 -0.57735 -0.57735
vn 0.57735 -0.57735 -0.57735
vn 0.57735 0.57735 -0.57735
vn 0.57735 0.57735 0.57735
vn 0.57735 -0.57735 0.57735
vn 0.57735 -0.57735 0.57735
vn 0.57735 0.57735 0.57735
vn -0.57735 0.57735 0.57735
vn -0.57735 -0.57735 0.57735
vn -0.57735 -0.57735 -0.57735
vn 0.57735 -0.57735 -0.57735
vn 0.57735 -0.57735 0.57735
vn -0.57735 -0.57735 0.57735
vn 0.57735 0.57735 -0.57735
vn -0.57735 0.57735 -0.57735
vn -0.57735 0.57735 0.57735
vn 0.57735 0.57735 0.57735
vn -0.57735 -0.57735 0.57735
vn -0.57735 0.57735 0.57735
vn -0.57735 0.57735 -0.57735
vn -0.57735 -0.57735 -0.57735
vn -0.57735 -0.57735 -0.57735
vn -0.57735 0.57735 -0.57735
vn 0.57735 0.57735 -0.57735
vn 0.57735 -0.57735 -0.57735
vn 0.57735 -0.57735 -0.57735
vn 0.57735 0.57735 -0.57735
vn 0.57735 0.57735 0.57735
vn 0.57735 -0.57735 0.57735
vn 0.57735 -0.57735 0.57735
vn 0.57735 0.57735 0.57735
vn -0.57735 0.57735 0.57735
vn -0.57735 -0.57735 0.57735
vn -0.57735 -0.57735 -0.57735
vn 0.57735 -0.57735 -0.57735
vn 0.57735 -0.57735 0.57735
vn -0.57735 -0.57735 0.57735
vn 0.57735 0.57735 -0.57735
vn -0.57735 0.57735 -0.57735
vn -0.57735 0.57735 0.57735
vn 0.57735 0.57735 0.57735
vn -0.57735 -0.57735 0.57735
vn -0.57735 0.57735 0.57735
vn -0.57735 0.57735 -0.57735
vn -0.57735 -0.57735 -0.57735
vn -0.57735 -0.57735 -0.57735
vn -0.57735 0.57735 -0.57735
vn 0.57735 0.57735 -0.57735
vn 0.57735 -0.57735 -0.57735
vn 0.57735 -0.57735 -0.57735
vn 0.57735 0.57735 -0.57735
vn 0.57735 0.57735 0.57735
vn 0.57735 -0.57735 0.57735
vn 0.57735 -0.57735 0.57735
vn 0.57735 0.57735 0.57735
vn -0.57735 0.57735 0.57735
vn -0.57735 -0.57735 0.57735
vn -0.57735 -0.57735 -0.57735
vn 0.57735 -0.57735 -0.57735
vn 0.57735 -0.57735 0.57735
vn -0.57735 -0.57735 0.57735
vn 0.57735 0.57735 -0.57735
vn -0.57735 0.57735 -0.57735
vn -0.57735 0.57735 0.57735
vn 0.57735 0.57735 0.57735
vn -0.57735 -0.57735 0.57735
vn -0.57735 0.57735 0.57735
vn -0.57735 0.57735 -0.57735
vn -0.57735 -0.57735 -0.57735
vn -0.57735 -0.57735 -0.57735
vn -0.57735 0.57735 -0.57735
vn 0.57735 0.57735 -0.57735
vn 0.57735 -0.57735 -0.57735
vn 0.57735 -0.57735 -0.57735
vn 0.57735 0.57735 -0.57735
vn 0.57735 0.57735 0.57735
vn 0.57735 -0.57735 0.57735
vn 0.57735 -0.57735 0.57735
vn 0.57735 0.57735 0.57735
vn -0.57735 0.57735 0.57735
vn -0.57735 -0.57735 0.57735
vn -0.57735 -0.57735 -0.57735
vn 0.57735 -0.57735 -0.57735
vn 0.57735 -0.57735 0.57735
vn -0.57735 -0.57735 0.57735
vn 0.57735 0.57735 -0.57735
vn -0.57735 0.57735 -0.57735
vn -0.57735 0.57735 0.57735
vn 0.57735 0.57735 0.57735
vn -0.57735 -0.57735 0.57735
vn -0.57735 0.57735 0.57735
vn -0.57735 0.57735 -0.57735
vn -0.57735 -0.57735 -0.57735
vn -0.57735 -0.57735 -0.57735
vn -0.57735 0.57735 -0.57735
vn 0.57735 0.57735 -0.57735
vn 0.57735 -0.57735 -0.57735
vn 0.57735 -0.57735 -0.57735
vn 0.57735 0.57735 -0.57735
vn 0.57735 0.57735 0.57735
vn 0.57735 -0.57735 0.57735
vn 0.57735 -0.57735 0.57735
vn 0.57735 0.57735 0.57735
vn -0.57735 0.57735 0.57735
vn -0.57735 -0.57735 0.57735
vn -0.57735 -0.57735 -0.57735
vn 0.57735 -0.57735 -0.57735
vn 0.57735 -0.57735 0.57735
vn -0.57735 -0.57735 0.57735
vn 0.57735 0.57735 -0.57735
vn -0.57735 0.57735 -0.57735
vn -0.57735 0.57735 0.57735
vn 0.57735 0.57735 0.57735
vn -0.57735 -0.57735 0.57735
vn -0.57735 0.57735 0.57735
vn -0.57735 0.57735 -0.57735
vn -0.57735 -0.57735 -0.57735
vn -0.57735 -0.57735 -0.57735
vn -0.57735 0.57735 -0.57735
vn 0.57735 0.57735 -0.57735
vn 0.57735 -0.57735 -0.57735
vn 0.57735 -0.57735 -0.57735
vn 0.57735 0.57735 -0.57735
vn 0.57735 0.57735 0.57735
vn 0.57735 -0.57735 0.57735
vn 0.57735 -0.57735 0.57735
vn 0.57735 0.57735 0.57735
vn -0.57735 0.57735 0.57735
vn -0.57735 -0.57735 0.57735
vn -0.57735 -0.57735 -0.57735
vn 0.57735 -0.57735 -0.57735
vn 0.57735 -0.57735 0.57735
vn -0.57735 -0.57735 0.57735
vn 0.57735 0.57735 -0.57735
vn -0.57735 0.57735 -0.57735
vn -0.57735 0.57735 0.57735
vn 0.57735 0.57735 0.57735
vn -0.57735 -0.57735 0.57735
vn -0.57735 0.57735 0.57735
vn -0.57735 0.57735 -0.57735
vn -0.57735 -0.57735 -0.57735
vn -0.57735 -0.57735 -0.57735
vn -0.57735 0.57735 -0.57735
vn 0.57735 0.57735 -0.57735
vn 0.57735 -0.57735 -0.57735
vn 0.57735 -0.57735 -0.57735
vn 0.57735 0.57735 -0.57735
vn 0.57735 0.57735 0.57735
vn 0.57735 -0.57735 0.57735
vn 0.57735 -0.57735 0.57735
vn 0.57735 0.57735 0.57735
vn -0.57735 0.57735 0.57735
vn -0.57735 -0.57735 0.57735
vn -0.57735 -0.57735 -0.57735
vn 0.57735 -0.57735 -0.57735
vn 0.57735 -0.57735 0.57735
vn -0.57735 -0.57735 0.57735
vn 0.57735 0.57735 -0.57735
vn -0.57735 0.57735 -0.57735
vn -0.57735 0.57735 0.57735
vn 0.57735 0.57735 0.57735
vn -0.57735 -0.57735 0.57735
vn -0.57735 0.57735 0.57735
vn -0.57735 0.57735 -0.57735
vn -0.57735 -0.57735 -0.57735
vn -0.57735 -0.57735 -0.57735
vn -0.57735 0.57735 -0.57735
vn 0.57735 0.57735 -0.57735
vn 0.57735 -0.57735 -0.57735
vn 0.57735 -0.57735 -0.57735
vn 0.57735 0.57735 -0.57735
vn 0.57735 0.57735 0.57735
vn 0.57735 -0.57735 0.57735
vn 0.57735 -0.57735 0.57735
vn 0.57735 0.57735 0.57735
vn -0.57735 0.57735 0.57735
vn -0.57735 -0.57735 0.57735
vn -0.57735 -0.57735 -0.57735
vn 0.57735 -0.57735 -0.57735
vn 0.57735 -0.57735 0.57735
vn -0.57735 -0.57735 0.57735
vn 0.57735 0.57735 -0.57735
vn -0.57735 0.57735 -0.57735
vn -0.57735 0.57735 0.57735
vn 0.57735 0.57735 0.57735
vn 0.00000 0.00000 1.00000
vn 0.00000 0.00000 1.00000
vn 0.00000 0.00000 1.00000
vn 0.00000 0.00000 1.00000
vn 0.00000 -1.00000 -0.00000
vn 0.00000 -1.00000 -0.00000
vn 0.00000 -1.00000 -0.00000
vn 0.00000 -1.00000 -0.00000
vn -0.65323 -0.00000 -0.75716
vn 0.65323 0.00000 -0.75716
vn 0.65323 -0.37858 -0.65572
vn -0.65323 -0.37858 -0.65572
vn 0.00000 -1.00000 -0.00000
vn 0.00000 -1.00000 -0.00000
vn 0.00000 -1.00000 -0.00000
vn 0.00000 -1.00000 -0.00000
vn 0.00000 0.00000 1.00000
vn 0.00000 0.00000 1.00000
vn 0.00000 0.00000 1.00000
vn 0.00000 0.00000 1.00000
vn -0.65323 -0.37858 -0.65572
vn 0.65323 -0.37858 -0.65572
vn 0.65323 -0.65572 -0.37858
vn -0.65323 -0.65572 -0.37858
vn 0.00000 0.00000 -1.00000
vn 0.00000 0.00000 -1.00000
vn 0.00000 0.00000 -1.00000
vn 0.00000 0.00000 -1.00000
vn 1.00000 0.00000 -0.00000
vn 1.00000 0.00000 -0.00000
vn 1.00000 0.00000 -0.00000
vn 1.00000 0.00000 -0.00000
vn -0.65323 -0.65572 -0.37858
vn 0.65323 -0.65572 -0.37858
vn 0.65323 -0.75716 0.00000
vn -0.65323 -0.75716 -0.00000
vn -1.00000 0.00000 -0.00000
vn -1.00000 0.00000 -0.00000
vn -1.00000 0.00000 -0.00000
vn -1.00000 0.00000 -0.00000
vn 0.00000 0.00000 -1.00000
vn 0.00000 0.00000 -1.00000
vn 0.00000 0.00000 -1.00000
vn 0.00000 0.00000 -1.00000
vn -0.65323 -0.75716 -0.00000
vn 0.65323 -0.75716 0.00000
vn 0.65323 -0.65572 0.37858
vn -0.65323 -0.65572 0.37858
vn 0.00000 1.00000 -0.00000
vn 0.00000 1.00000 -0.00000
vn 0.00000 1.00000 -0.00000
vn 0.00000 1.00000 -0.00000
vn -1.00000 0.00000 -0.00000
vn -1.00000 0.00000 -0.00000
vn -1.00000 0.00000 -0.00000
vn -1.00000 0.00000 -0.00000
vn -0.65323 -0.65572 0.37858
vn 0.65323 -0.65572 0.37858
vn 0.65323 -0.37858 0.65572
vn -0.65323 -0.37858 0.65572
vn 0.00000 -1.00000 -0.00000
vn 0.00000 -1.00000 -0.00000
vn 0.00000 -1.00000 -0.00000
vn 0.00000 -1.00000 -0.00000
vn 0.00000 1.00000 -0.00000
vn 0.00000 1.00000 -0.00000
vn 0.00000 1.00000 -0.00000
vn 0.00000 1.00000 -0.00000
vn -0.65323 -0.37858 0.65572
vn 0.65323 -0.37858 0.65572
vn 0.65323 0.00000 0.75716
vn -0.65323 -0.00000 0.75716
vn 0.00000 0.00000 1.00000
vn 0.00000 0.00000 1.00000
vn 0.00000 0.00000 1.00000
vn 0.00000 0.00000 1.00000
vn 0.00000 -1.00000 -0.00000
vn 0.00000 -1.00000 -0.00000
vn 0.00000 -1.00000 -0.00000
vn 0.00000 -1.00000 -0.00000
vn -0.65323 -0.00000 0.75716
vn 0.65323 0.00000 0.75716
vn 0.65323 0.37858 0.65572
vn -0.65323 0.37858 0.65572
vn 1.00000 0.00000 -0.00000
vn 1.00000 0.00000 -0.00000
vn 1.00000 0.00000 -0.00000
vn 1.00000 0.00000 -0.00000
vn 0.00000 0.00000 1.00000
vn 0.00000 0.00000 1.00000
vn 0.00000 0.00000 1.00000
vn 0.00000 0.00000 1.00000
vn -0.65323 0.37858 0.65572
vn 0.65323 0.37858 0.65572
vn 0.65323 0.65572 0.37858
vn -0.65323 0.65572 0.37858
vn 0.00000 0.00000 -1.00000
vn 0.00000 0.00000 -1.00000
vn 0.00000 0.00000 -1.00000
vn 0.00000 0.00000 -1.00000
vn 1.00000 0.00000 -0.00000
vn 1.00000 0.00000 -0.00000
vn 1.00000 0.00000 -0.00000
vn 1.00000 0.00000 -0.00000
vn -0.65323 0.65572 0.37858
vn 0.65323 0.65572 0.37858
vn 0.65323 0.75716 0.00000
vn -0.65323 0.75716 -0.00000
vn -1.00000 0.00000 -0.00000
vn -1.00000 0.00000 -0.00000
vn -1.00000 0.00000 -0.00000
vn -1.00000 0.00000 -0.00000
vn 0.00000 0.00000 -1.00000
vn 0.00000 0.00000 -1.00000
vn 0.00000 0.00000 -1.00000
vn 0.00000 0.00000 -1.00000
vn -0.65323 0.75716 -0.00000
vn 0.65323 0.75716 0.00000
vn 0.65323 0.65572 -0.37858
vn -0.65323 0.65572 -0.37858
vn 0.65323 -0.37858 -0.65572
vn 0.65323 0.00000 -0.75716
vn 0.65323 0.37858 -0.65572
vn 0.65323 0.65572 -0.37858
vn 0.65323 0.75716 0.00000
vn 0.65323 0.65572 0.37858
vn 0.65323 0.37858 0.65572
vn 0.65323 0.00000 0.75716
vn 0.65323 -0.37858 0.65572
vn 0.65323 -0.65572 0.37858
vn 0.65323 -0.75716 0.00000
vn 0.65323 -0.65572 -0.37858
vn -1.00000 0.00000 -0.00000
vn -1.00000 0.00000 -0.00000
vn -1.00000 0.00000 -0.00000
vn -1.00000 0.00000 -0.00000
vn -0.65323 0.65572 -0.37858
vn 0.65323 0.65572 -0.37858
vn 0.65323 0.37858 -0.65572
vn -0.65323 0.37858 -0.65572
vn 1.00000 0.00000 -0.00000
vn 1.00000 0.00000 -0.00000
vn 1.00000 0.00000 -0.00000
vn 1.00000 0.00000 -0.00000
vn 0.00000 1.00000 -0.00000
vn 0.00000 1.00000 -0.00000
vn 0.00000 1.00000 -0.00000
vn 0.00000 1.00000 -0.00000
vn -0.65323 0.37858 -0.65572
vn 0.65323 0.37858 -0.65572
vn 0.65323 0.00000 -0.75716
vn -0.65323 -0.00000 -0.75716
vn -0.65323 -0.00000 -0.75716
vn -0.65323 -0.37858 -0.65572
vn -0.65323 -0.65572 -0.37858
vn -0.65323 -0.75716 -0.00000
vn -0.65323 -0.65572 0.37858
vn -0.65323 -0.37858 0.65572
vn -0.65323 -0.00000 0.75716
vn -0.65323 0.37858 0.65572
vn -0.65323 0.65572 0.37858
vn -0.65323 0.75716 -0.00000
vn -0.65323 0.65572 -0.37858
vn -0.65323 0.37858 -0.65572
vn 0.00000 1.00000 -0.00000
vn 0.00000 1.00000 -0.00000
vn 0.00000 1.00000 -0.00000
vn 0.00000 1.00000 -0.00000
vn -1.00000 0.00000 -0.00000
vn -1.00000 0.00000 -0.00000
vn -1.00000 0.00000 -0.00000
vn -1.00000 0.00000 -0.00000
vn 0.00000 0.00000 -1.00000
vn 0.00000 0.00000 -1.00000
vn 0.00000 0.00000 -1.00000
vn 0.00000 0.00000 -1.00000
vn 1.00000 0.00000 -0.00000
vn 1.00000 0.00000 -0.00000
vn 1.00000 0.00000 -0.00000
vn 1.00000 0.00000 -0.00000
vn 0.00000 0.00000 1.00000
vn 0.00000 0.00000 1.00000
vn 0.00000 0.00000 1.00000
vn 0.00000 0.00000 1.00000
vn 0.00000 -1.00000 -0.00000
vn 0.00000 -1.00000 -0.00000
vn 0.00000 -1.00000 -0.00000
vn 0.00000 -1.00000 -0.00000
vn 0.00000 1.00000 -0.00000
vn 0.00000 1.00000 -0.00000
vn 0.00000 1.00000 -0.00000
vn 0.00000 1.00000 -0.00000
f 1/1/1 2/2/2 14/3/3 13/4/4
f 2/5/5 3/6/6 15/7/7 14/8/8
f 3/9/9 4/10/10 16/11/11 15/12/12
f 4/13/13 5/14/14 17/15/15 16/16/16
f 5/17/17 6/18/18 18/19/19 17/20/20
f 6/21/21 7/22/22 19/23/23 18/24/24
f 7/25/25 8/26/26 20/27/27 19/28/28
f 8/29/29 9/30/30 21/31/31 20/32/32
f 9/33/33 10/34/34 22/35/35 21/36/36
f 10/37/37 11/38/38 23/39/39 22/40/40
f 11/41/41 12/42/42 24/43/43 23/44/44
f 12/45/45 1/46/46 13/47/47 24/48/48
f 13/49/49 14/50/50 26/51/51 25/52/52
f 14/53/53 15/54/54 27/55/55 26/56/56
f 15/57/57 16/58/58 28/59/59 27/60/60
f 16/61/61 17/62/62 29/63/63 28/64/64
f 17/65/65 18/66/66 30/67/67 29/68/68
f 18/69/69 19/70/70 31/71/71 30/72/72
f 19/73/73 20/74/74 32/75/75 31/76/76
f 20/77/77 21/78/78 33/79/79 32/80/80
f 21/81/81 22/82/82 34/83/83 33/84/84
f 22/85/85 23/86/86 35/87/87 34/88/88
f 23/89/89 24/90/90 36/91/91 35/92/92
f 24/93/93 13/94/94 25/95/95 36/96/96
f 25/97/97 26/98/98 38/99/99 37/100/100
f 26/101/101 27/102/102 39/103/103 38/104/104
f 27/105/105 28/106/106 40/107/107 39/108/108
f 28/109/109 29/110/110 41/111/111 40/112/112
f 29/113/113 30/114/114 42/115/115 41/116/116
f 30/117/117 31/118/118 43/119/119 42/120/120
f 31/121/121 32/122/122 44/123/123 43/124/124
f 32/125/125 33/126/126 45/127/127 44/128/128
f 33/129/129 34/130/130 46/131/131 45/132/132
f 34/133/133 35/134/134 47/135/135 46/136/136
f 35/137/137 36/138/138 48/139/139 47/140/140
f 36/141/141 25/142/142 37/143/143 48/144/144
f 37/145/145 38/146/146 50/147/147 49/148/148
f 38/149/149 39/150/150 51/151/151 50/152/152
f 39/153/153 40/154/154 52/155/155 51/156/156
f 40/157/157 41/158/158 53/159/159 52/160/160
f 41/161/161 42/162/162 54/163/163 53/164/164
f 42/165/165 43/166/166 55/167/167 54/168/168
f 43/169/169 44/170/170 56/171/171 55/172/172
f 44/173/173 45/174/174 57/175/175 56/176/176
f 45/177/177 46/178/178 58/179/179 57/180/180
f 46/181/181 47/182/182 59/183/183 58/184/184
f 47/185/185 48/186/186 60/187/187 59/188/188
f 48/189/189 37/190/190 49/191/191 60/192/192
f 49/193/193 50/194/194 62/195/195 61/196/196
f 50/197/197 51/198/198 63/199/199 62/200/200
f 51/201/201 52/202/202 64/203/203 63/204/204
f 52/205/205 53/206/206 65/207/207 64/208/208
f 53/209/209 54/210/210 66/211/211 65/212/212
f 54/213/213 55/214/214 67/215/215 66/216/216
f 55/217/217 56/218/218 68/219/219 67/220/220
f 56/221/221 57/222/222 69/223/223 68/224/224
f 57/225/225 58/226/226 70/227/227 69/228/228
f 58/229/229 59/230/230 71/231/231 70/232/232
f 59/233/233 60/234/234 72/235/235 71/236/236
f 60/237/237 49/238/238 61/239/239 72/240/240
f 61/241/241 62/242/242 74/243/243 73/244/244
f 62/245/245 63/246/246 75/247/247 74/248/248
f 63/249/249 64/250/250 76/251/251 75/252/252
f 64/253/253 65/254/254 77/255/255 76/256/256
f 65/257/257 66/258/258 78/259/259 77/260/260
f 66/261/261 67/262/262 79/263/263 78/264/264
f 67/265/265 68/266/266 80/267/267 79/268/268
f 68/269/269 69/270/270 81/271/271 80/272/272
f 69/273/273 70/274/274 82/275/275 81/276/276
f 70/277/277 71/278/278 83/279/279 82/280/280
f 71/281/281 72/282/282 84/283/283 83/284/284
f 72/285/285 61/286/286 73/287/287 84/288/288
f 73/289/289 74/290/290 86/291/291 85/292/292
f 74/293/293 75/294/294 87/295/295 86/296/296
f 75/297/297 76/298/298 88/299/299 87/300/300
f 76/301/301 77/302/302 89/303/303 88/304/304
f 77/305/305 78/306/306 90/307/307 89/308/308
f 78/309/309 79/310/310 91/311/311 90/312/312
f 79/313/313 80/314/314 92/315/315 91/316/316
f 80/317/317 81/318/318 93/319/319 92/320/320
f 81/321/321 82/322/322 94/323/323 93/324/324
f 82/325/325 83/326/326 95/327/327 94/328/328
f 83/329/329 84/330/330 96/331/331 95/332/332
f 84/333/333 73/334/334 85/335/335 96/336/336
f 85/337/337 86/338/338 87/339/339 88/340/340 89/341/341 90/342/342 91/343/343 92/344/344 93/345/345 94/346/346 95/347/347 96/348/348
f 12/349/349 11/350/350 10/351/351 9/352/352 8/353/353 7/354/354 6/355/355 5/356/356 4/357/357 3/358/358 2/359/359 1/360/360
f 97/361/361 98/362/362 100/363/363 99/364/364
f 99/365/365 100/366/366 104/367/367 103/368/368
f 103/369/369 104/370/370 102/371/371 101/372/372
f 101/373/373 102/374/374 98/375/375 97/376/376
f 99/377/377 103/378/378 101/379/379 97/380/380
f 104/381/381 100/382/382 98/383/383 102/384/384
f 105/385/385 106/386/386 108/387/387 107/388/388
f 107/389/389 108/390/390 112/391/391 111/392/392
f 111/393/393 112/394/394 110/395/395 109/396/396
f 109/397/397 110/398/398 106/399/399 105/400/400
f 107/401/401 111/402/402 109/403/403 105/404/404
f 112/405/405 108/406/406 106/407/407 110/408/408
f 113/409/409 114/410/410 116/411/411 115/412/412
f 115/413/413 116/414/414 120/415/415 119/416/416
f 119/417/417 120/418/418 118/419/419 117/420/420
f 117/421/421 118/422/422 114/423/423 113/424/424
f 115/425/425 119/426/426 117/427/427 113/428/428
f 120/429/429 116/430/430 114/431/431 118/432/432
f 121/433/433 122/434/434 124/435/435 123/436/436
f 123/437/437 124/438/438 128/439/439 127/440/440
f 127/441/441 128/442/442 126/443/443 125/444/444
f 125/445/445 126/446/446 122/447/447 121/448/448
f 123/449/449 127/450/450 125/451/451 121/452/452
f 128/453/453 124/454/454 122/455/455 126/456/456
f 129/457/457 130/458/458 132/459/459 131/460/460
f 131/461/461 132/462/462 136/463/463 135/464/464
f 135/465/465 136/466/466 134/467/467 133/468/468
f 133/469/469 134/470/470 130/471/471 129/472/472
f 131/473/473 135/474/474 133/475/475 129/476/476
f 136/477/477 132/478/478 130/479/479 134/480/480
f 137/481/481 138/482/482 140/483/483 139/484/484
f 139/485/485 140/486/486 144/487/487 143/488/488
f 143/489/489 144/490/490 142/491/491 141/492/492
f 141/493/493 142/494/494 138/495/495 137/496/496
f 139/497/497 143/498/498 141/499/499 137/500/500
f 144/501/501 140/502/502 138/503/503 142/504/504
f 145/505/505 146/506/506 148/507/507 147/508/508
f 147/509/509 148/510/510 152/511/511 151/512/512
f 151/513/513 152/514/514 150/515/515 149/516/516
f 149/517/517 150/518/518 146/519/519 145/520/520
f 147/521/521 151/522/522 149/523/523 145/524/524
f 152/525/525 148/526/526 146/527/527 150/528/528
f 153/529/529 154/530/530 156/531/531 155/532/532
f 155/533/533 156/534/534 160/535/535 159/536/536
f 159/537/537 160/538/538 158/539/539 157/540/540
f 157/541/541 158/542/542 154/543/543 153/544/544
f 155/545/545 159/546/546 157/547/547 153/548/548
f 160/549/549 156/550/550 154/551/551 158/552/552
f 161/553/553 162/554/554 164/555/555 163/556/556
f 163/557/557 164/558/558 168/559/559 167/560/560
f 167/561/561 168/562/562 166/563/563 165/564/564
f 165/565/565 166/566/566 162/567/567 161/568/568
f 163/569/569 167/570/570 165/571/571 161/572/572
f 168/573/573 164/574/574 162/575/575 166/576/576
f 169/577/577 170/578/578 172/579/579 171/580/580
f 171/581/581 172/582/582 176/583/583 175/584/584
f 175/585/585 176/586/586 174/587/587 173/588/588
f 173/589/589 174/590/590 170/591/591 169/592/592
f 171/593/593 175/594/594 173/595/595 169/596/596
f 176/597/597 172/598/598 170/599/599 174/600/600
f 177/601/601 178/602/602 180/603/603 179/604/604
f 179/605/605 180/606/606 184/607/607 183/608/608
f 183/609/609 184/610/610 182/611/611 181/612/612
f 181/613/613 182/614/614 178/615/615 177/616/616
f 179/617/617 183/618/618 181/619/619 177/620/620
f 184/621/621 180/622/622 178/623/623 182/624/624
f 237/625/625 238/626/626 234/627/627 233/628/628
f 219/629/629 223/630/630 221/631/631 217/632/632
f 187/633/633 188/634/634 190/635/635 189/636/636
f 235/637/637 239/638/638 237/639/639 233/640/640
f 221/641/641 222/642/642 218/643/643 217/644/644
f 189/645/645 190/646/646 192/647/647 191/648/648
f 235/649/649 236/650/650 240/651/651 239/652/652
f 223/653/653 224/654/654 222/655/655 221/656/656
f 191/657/657 192/658/658 194/659/659 193/660/660
f 233/661/661 234/662/662 236/663/663 235/664/664
f 219/665/665 220/666/666 224/667/667 223/668/668
f 193/669/669 194/670/670 196/671/671 195/672/672
f 232/673/673 228/674/674 226/675/675 230/676/676
f 217/677/677 218/678/678 220/679/679 219/680/680
f 195/681/681 196/682/682 198/683/683 197/684/684
f 227/685/685 231/686/686 229/687/687 225/688/688
f 216/689/689 212/690/690 185/691/691 214/692/692
f 197/693/693 198/694/694 200/695/695 199/696/696
f 229/697/697 230/698/698 226/699/699 225/700/700
f 211/701/701 215/702/702 213/703/703 186/704/704
f 199/705/705 200/706/706 202/707/707 201/708/708
f 231/709/709 232/710/710 230/711/711 229/712/712
f 213/713/713 214/714/714 185/715/715 186/716/716
f 201/717/717 202/718/718 204/719/719 203/720/720
f 227/721/721 228/722/722 232/723/723 231/724/724
f 215/725/725 216/726/726 214/727/727 213/728/728
f 203/729/729 204/730/730 206/731/731 205/732/732
f 225/733/733 226/734/734 228/735/735 227/736/736
f 211/737/737 212/738/738 216/739/739 215/740/740
f 205/741/741 206/742/742 208/743/743 207/744/744
f 190/745/745 188/746/746 210/747/747 208/748/748 206/749/749 204/750/750 202/751/751 200/752/752 198/753/753 196/754/754 194/755/755 192/756/756
f 186/757/757 185/758/758 212/759/759 211/760/760
f 207/761/761 208/762/762 210/763/763 209/764/764
f 239/765/765 240/766/766 238/767/767 237/768/768
f 224/769/769 220/770/770 218/771/771 222/772/772
f 209/773/773 210/774/774 188/775/775 187/776/776
f 187/777/777 189/778/778 191/779/779 193/780/780 195/781/781 197/782/782 199/783/783 201/784/784 203/785/785 205/786/786 207/787/787 209/788/788
f 240/789/789 236/790/790 234/791/791 238/792/792
f 241/793/793 242/794/794 244/795/795 243/796/796
f 243/797/797 244/798/798 248/799/799 247/800/800
f 247/801/801 248/802/802 246/803/803 245/804/804
f 245/805/805 246/806/806 242/807/807 241/808/808
f 243/809/809 247/810/810 245/811/811 241/812/812
f 248/813/813 244/814/814 242/815/815 246/816/816
